<svg xmlns="http://www.w3.org/2000/svg" width="210" height="80" viewBox="0 0 210 80"><defs><style>.a{fill:#fff;stroke-width:2px;}.a,.d{stroke:#121518;}.b,.c,.e,.f,.g,.h{fill:#121518;}.b,.c,.f{font-size:18px;font-family:Montserrat-Arabic-Regular, Montserrat-Arabic;}.b{letter-spacing:0.22em;}.c,.g{letter-spacing:0.14em;}.d,.j{fill:none;}.f{letter-spacing:0.05em;}.g{font-size:11px;}.g,.h{font-family:Montserrat-Arabic-SemiBold, Montserrat-Arabic;font-weight:600;}.h{font-size:5px;}.i{stroke:none;}</style></defs><g transform="translate(-415 -383)"><g class="a" transform="translate(415 383)"><rect class="i" width="210" height="80" rx="5"/><rect class="j" x="1" y="1" width="208" height="78" rx="4"/></g><text class="b" transform="translate(459 448)"><tspan x="-25.848" y="0">6251</tspan></text><text class="c" transform="translate(550 448)"><tspan x="-26.271" y="0">L T B</tspan></text><line class="d" y2="79" transform="translate(505 383)"/><line class="d" x1="177" transform="translate(415 423)"/><g transform="translate(-14.932 -76.866)"><path class="e" d="M457.375,473.866v13.159h-2.162V475.841h-5.282v-1.975Z" transform="translate(0)"/><path class="e" d="M464.139,475.841h-4.906v11.184h-2.162V473.866h7.068Z" transform="translate(8.044)"/><path class="e" d="M464.163,485.6a5.489,5.489,0,0,1-1.513-4.2,8.807,8.807,0,0,1,.039-.96,9.876,9.876,0,0,1,.912-3.4,6.026,6.026,0,0,1,1.916-2.332,4.564,4.564,0,0,1,2.7-.846,4.515,4.515,0,0,1,2.716.866,6.074,6.074,0,0,1,1.906,2.359,9.76,9.76,0,0,1,.885,3.354q.035.341.036.96a5.47,5.47,0,0,1-1.513,4.209,6.475,6.475,0,0,1-8.083-.009Zm7.455-4.143a7.387,7.387,0,0,0-.038-.827,7.8,7.8,0,0,0-.62-2.509,4.535,4.535,0,0,0-1.2-1.665,2.392,2.392,0,0,0-1.541-.583,2.45,2.45,0,0,0-1.581.6,4.413,4.413,0,0,0-1.2,1.682,8.092,8.092,0,0,0-.6,2.473,6.44,6.44,0,0,0-.038.827,3.684,3.684,0,0,0,.863,2.649,3.376,3.376,0,0,0,2.558.9Q471.615,485.013,471.618,481.462Z" transform="translate(15.204)"/><path class="e" d="M471.531,473.866h2.162v13.159h-2.162Z" transform="translate(24.234)"/></g><text class="f" transform="translate(549 409)"><tspan x="-29.538" y="0">ب ط ل</tspan></text><line class="d" y2="79.5" transform="translate(592.5 383.5)"/><circle class="e" cx="4" cy="4" r="4" transform="translate(604 448)"/><text class="g" transform="translate(608 424)"><tspan x="-4.054" y="0">K</tspan><tspan x="-3.503" y="10">S</tspan><tspan x="-4.174" y="20">A</tspan></text><text class="h" transform="translate(608 410)"><tspan x="-11.9" y="0">السعودية</tspan></text><g transform="translate(410.189 332.887)"><path class="e" d="M197.586,141.327l-.006,0-.006,0s-4.294-4-7.764-2.738c0,0,2.746-.385,7.064,3.315h0l-1.3,1.058-.009-.012c-.162-.2-.19-.3-.179-.344a.642.642,0,0,0,.3-.091.343.343,0,0,0,.025-.481.34.34,0,0,0-.471-.088.483.483,0,0,0-.12.181.994.994,0,0,0,.082,1.11l.013.016-.365.3c-.51.408-.687-.23-.687-.23-.22-.541-.824-.2-.824-.2-.655.34-.336.788-.336.788.787,1.528,2.277.372,2.277.372l.459-.361.028.036a1,1,0,0,0,1.061.336.484.484,0,0,0,.2-.076.364.364,0,0,0-.448-.566.627.627,0,0,0-.161.273c-.044,0-.133-.048-.293-.253l-.028-.036,1.48-1.169,1.48,1.169-.028.036c-.162.2-.25.254-.294.253a.627.627,0,0,0-.161-.273.364.364,0,0,0-.448.566.486.486,0,0,0,.2.076,1,1,0,0,0,1.061-.336l.028-.036.459.361s1.49,1.156,2.277-.372c0,0,.319-.448-.336-.788,0,0-.6-.339-.825.2,0,0-.177.638-.687.23l-.365-.3.013-.016a.994.994,0,0,0,.082-1.11.483.483,0,0,0-.12-.181.364.364,0,0,0-.446.569.642.642,0,0,0,.3.091c.011.041-.017.139-.179.344l-.009.012-1.3-1.058h0c4.318-3.7,7.064-3.315,7.064-3.315C201.881,137.329,197.586,141.327,197.586,141.327Z" transform="translate(0 -73.82)"/><path class="e" d="M227.062,57.286s-2.236.629-1.167,2.606c0,0-.058-1.638,1.23-2.009,0,0-1.694,1.342-.167,2.476a1.826,1.826,0,0,1,.57-1.854,2.434,2.434,0,0,0,.594,2.631,2.036,2.036,0,0,1,.537-1.894v6.194l-.468.6h1.454l-.439-.6V59.242a2.18,2.18,0,0,1,.534,1.894,2.432,2.432,0,0,0,.593-2.631,1.821,1.821,0,0,1,.569,1.854c1.526-1.134-.167-2.476-.167-2.476,1.288.371,1.23,2.009,1.23,2.009,1.069-1.977-1.167-2.606-1.167-2.606,1.045-.154,1.749,1.128,1.749,1.128-.137-2.053-2.333-1.749-2.333-1.749.557-.435,1.685.116,1.685.116a1.91,1.91,0,0,0-2-.816c.141-.264.984-.206.984-.206a1.254,1.254,0,0,0-1.66,0,2.428,2.428,0,0,0-.312-1.057,2.482,2.482,0,0,0-.3,1.057,1.243,1.243,0,0,0-1.653,0s.846-.058.988.206a1.909,1.909,0,0,0-1.994.816s1.13-.551,1.686-.116c0,0-2.2-.3-2.333,1.749C225.311,58.414,226.015,57.132,227.062,57.286Z" transform="translate(-31.333 0)"/></g></g></svg>