<svg xmlns="http://www.w3.org/2000/svg" width="627.032" height="646.916" viewBox="0 0 627.032 646.916"><g transform="translate(296.039 -200.83)"><path d="M622.491,56.557a49.117,49.117,0,1,1,6,69.2,49.174,49.174,0,0,1-6-69.2m9.594,8.062a36.586,36.586,0,1,0,51.547-4.472,36.626,36.626,0,0,0-51.547,4.472" transform="translate(-434.909 191.952)" fill="#ffb349"/><path d="M223.922,472.979,507.248,135.825l4.8,4.03a57.908,57.908,0,0,1,7.07,81.5L235.789,558.5l-4.8-4.031a57.907,57.907,0,0,1-7.07-81.495m9.594,8.062a45.382,45.382,0,0,0,1.019,59.478l274.986-327.23a45.382,45.382,0,0,0-1.019-59.478Z" transform="translate(-343.856 169.959)" fill="#ffb349"/><path d="M653.613,210.924a49.117,49.117,0,1,1,6,69.2,49.174,49.174,0,0,1-6-69.2m9.594,8.062a36.586,36.586,0,1,0,51.547-4.472,36.626,36.626,0,0,0-51.547,4.472" transform="translate(-441.982 156.867)" fill="#ffb349"/><path d="M255.045,627.347,538.371,290.193l4.8,4.03a57.908,57.908,0,0,1,7.07,81.5L266.912,712.873l-4.8-4.031a57.907,57.907,0,0,1-7.07-81.495m9.594,8.062a45.382,45.382,0,0,0,1.019,59.478l274.986-327.23a45.382,45.382,0,0,0-1.019-59.478Z" transform="translate(-350.93 134.874)" fill="#ffb349"/><path d="M412.1,113.011a49.117,49.117,0,1,1,6,69.2,49.174,49.174,0,0,1-6-69.2m9.594,8.062a36.586,36.586,0,1,0,51.547-4.472,36.626,36.626,0,0,0-51.547,4.472" transform="translate(-387.091 179.121)" fill="#ffb349"/><path d="M13.534,529.434,296.86,192.28l4.8,4.03a57.908,57.908,0,0,1,7.07,81.5L25.4,614.96l-4.8-4.031a57.907,57.907,0,0,1-7.07-81.494m9.594,8.062a45.381,45.381,0,0,0,1.019,59.478l274.986-327.23a45.382,45.382,0,0,0-1.019-59.478Z" transform="translate(-296.038 157.128)" fill="#ffb349"/><rect width="331.698" height="333.872" transform="translate(-0.705 200.83)" fill="none"/></g></svg>