<svg xmlns="http://www.w3.org/2000/svg" xmlns:xlink="http://www.w3.org/1999/xlink" width="85" height="85" viewBox="0 0 85 85"><defs><style>.a{fill:#d0d0d0;}.b{fill:#fff;stroke:#dedede;}.c{clip-path:url(#a);}.d{fill:#ff5f00;}.e{fill:#eb001b;}.f{fill:#f79e1b;}.g{stroke:none;}.h{fill:none;}</style><clipPath id="a"><rect class="a" width="50" height="50" transform="translate(866 689)"/></clipPath></defs><g transform="translate(-848 -671)"><g class="b" transform="translate(848 671)"><rect class="g" width="85" height="85" rx="5"/><rect class="h" x="0.5" y="0.5" width="84" height="84" rx="4.5"/></g><g class="c"><g transform="translate(788.412 602.146)"><g transform="translate(148.473 -1.917)"><g transform="translate(-215.82 -17.602)"><path d="M154.034,150.687v-2.575a1.511,1.511,0,0,0-1.631-1.631,1.693,1.693,0,0,0-1.459.73,1.5,1.5,0,0,0-1.373-.73,1.386,1.386,0,0,0-1.2.6v-.515h-.9v4.12h.9v-2.275c0-.73.386-1.073.987-1.073s.9.386.9,1.073v2.275h.9v-2.275a.95.95,0,0,1,.987-1.073c.6,0,.9.386.9,1.073v2.275Zm13.348-4.12h-1.459v-1.245h-.9v1.245h-.815v.815h.815v1.888c0,.944.386,1.5,1.416,1.5a2.4,2.4,0,0,0,1.116-.3l-.258-.773a1.412,1.412,0,0,1-.773.215c-.429,0-.6-.258-.6-.687v-1.845h1.459Zm7.639-.086a1.21,1.21,0,0,0-1.073.6v-.515h-.9v4.12h.9v-2.318c0-.687.3-1.073.858-1.073a2.511,2.511,0,0,1,.558.086l.258-.858a2.833,2.833,0,0,0-.6-.043Zm-11.545.429a2.946,2.946,0,0,0-1.674-.429c-1.03,0-1.717.515-1.717,1.33,0,.687.515,1.073,1.416,1.2l.429.043c.472.086.73.215.73.429,0,.3-.343.515-.944.515a2.369,2.369,0,0,1-1.373-.429l-.429.687a3.035,3.035,0,0,0,1.76.515c1.2,0,1.888-.558,1.888-1.33,0-.73-.558-1.116-1.416-1.245l-.429-.043c-.386-.043-.687-.129-.687-.386,0-.3.3-.472.773-.472a3.094,3.094,0,0,1,1.288.343l.386-.73Zm23.948-.429a1.21,1.21,0,0,0-1.073.6v-.515h-.9v4.12h.9v-2.318c0-.687.3-1.073.858-1.073a2.51,2.51,0,0,1,.558.086l.258-.858a2.833,2.833,0,0,0-.6-.043Zm-11.5,2.146a2.062,2.062,0,0,0,2.189,2.146,2.135,2.135,0,0,0,1.459-.472l-.429-.73a1.734,1.734,0,0,1-1.073.386,1.218,1.218,0,0,1-1.245-1.33,1.266,1.266,0,0,1,1.245-1.33,1.734,1.734,0,0,1,1.073.386l.429-.73a2.136,2.136,0,0,0-1.459-.472,2.062,2.062,0,0,0-2.189,2.146h0Zm8.326,0v-2.06h-.9v.515a1.551,1.551,0,0,0-1.288-.6,2.148,2.148,0,0,0,0,4.292,1.445,1.445,0,0,0,1.288-.6v.515h.9v-2.06Zm-3.3,0a1.247,1.247,0,1,1,2.489,0,1.247,1.247,0,1,1-2.489,0Zm-10.773-2.146a2.147,2.147,0,0,0,.043,4.292,2.625,2.625,0,0,0,1.674-.558l-.429-.644a2.051,2.051,0,0,1-1.2.429,1.158,1.158,0,0,1-1.245-.987h3.047v-.343a1.9,1.9,0,0,0-1.888-2.189h0Zm0,.773a1,1,0,0,1,1.03.987h-2.146a1.087,1.087,0,0,1,1.116-.987Zm22.361,1.373v-3.691h-.9v2.146a1.551,1.551,0,0,0-1.288-.6,2.148,2.148,0,0,0,0,4.292,1.444,1.444,0,0,0,1.288-.6v.515h.9v-2.06Zm-3.3,0a1.247,1.247,0,1,1,2.489,0,1.247,1.247,0,1,1-2.489,0Zm-30.129,0v-2.06h-.9v.515a1.551,1.551,0,0,0-1.288-.6,2.148,2.148,0,0,0,0,4.292,1.445,1.445,0,0,0,1.288-.6v.515h.9v-2.06Zm-3.348,0a1.247,1.247,0,1,1,2.489,0,1.247,1.247,0,1,1-2.489,0Z"/></g><g transform="translate(-215.82 -17.602)"><rect class="d" width="13.519" height="24.292" transform="translate(163.176 115.279)"/><path class="e" d="M164.034,127.425a15.491,15.491,0,0,1,5.88-12.146,15.451,15.451,0,1,0,0,24.292A15.427,15.427,0,0,1,164.034,127.425Z"/><path class="f" d="M194.936,127.425a15.434,15.434,0,0,1-24.979,12.146,15.485,15.485,0,0,0,0-24.292,15.434,15.434,0,0,1,24.979,12.146Z"/></g></g></g></g></g></svg>