<svg width="644" height="211" viewBox="0 0 644 211" fill="none" xmlns="http://www.w3.org/2000/svg">
<g clip-path="url(#clip0_548_6906)">
<path d="M148.548 79.0664C148.548 80.3398 148.423 81.6328 148.126 82.9727C147.657 85.4336 147.235 86.6641 146.895 86.6641C146.704 86.6641 146.575 86.1523 146.513 85.1367C146.384 82.9727 146.302 81.7422 146.302 81.4844C145.77 76.1836 144.411 67.2539 142.227 54.7148C141.61 51.2344 140.786 46.0352 139.766 39.0977C139.259 38.6523 139.044 38.3125 139.13 38.082C139.341 37.4648 139.704 36.5547 140.192 35.3242C140.571 34.3047 140.825 33.7969 140.911 33.7969C141.083 33.7969 141.931 35.4297 143.458 38.7188C145.153 42.3672 145.895 44.2773 145.665 44.4453C145.45 44.5742 145.005 44.3164 144.349 43.5977C144.157 43.3828 143.669 42.875 142.864 42.0703C143.841 47.2891 145.282 55.625 147.192 67.0586C148.083 73.0195 148.548 77.0312 148.548 79.0664Z" fill="white"/>
<path d="M69.9219 81.4166C69.9219 84.0025 69.2852 86.0181 68.0117 87.44C67.0586 88.4595 63.4922 90.7955 57.3203 94.44C50.3203 98.5572 45.8008 100.635 43.7852 100.635C41.1563 100.635 39.8398 99.0025 39.8398 95.7134C39.8398 92.7877 40.5195 89.69 41.918 86.4634C42.5977 84.8931 43.0625 84.0884 43.3203 84.1314C43.6797 84.1314 43.4883 85.1275 42.6836 87.1236C41.8984 89.1158 41.4922 90.897 41.4922 92.4908C41.4922 94.8228 42.5117 96.0103 44.5508 96.0103C46.5 96.0103 50.6602 94.1666 57.0234 90.4517C64.7461 86.0181 68.6055 83.5806 68.6055 83.1119C68.6055 82.0728 67.3359 80.8619 64.7461 79.4634C62.7734 78.4869 60.7773 77.4908 58.7617 76.4947C55.3477 74.6705 52.5898 72.3775 50.4883 69.6197C50.3633 69.6002 50.1719 69.4283 49.9375 69.1119C49.918 68.983 49.8945 68.2212 49.8945 66.8189C49.875 65.3775 49.8945 64.6548 49.9805 64.6119C50.3203 64.5689 51.3789 65.0806 53.207 66.1861C55.0078 67.2877 55.8789 67.9244 55.793 68.1353C55.75 68.3267 55.1562 68.4322 54.0547 68.4752C56.2812 70.4712 58.9961 72.2095 62.1992 73.6939C65.3828 75.1587 67.375 76.2369 68.1406 76.9205C69.3281 78.022 69.9219 79.5064 69.9219 81.4166Z" fill="white"/>
<path d="M10.1328 71.2031C9.59375 73.1172 8.74219 74.0898 7.55859 74.0898C6.90234 74.0898 6.40625 73.8516 6.07812 73.3555C5.39062 72.25 5.04688 71.0703 5.04688 69.7969C5.04688 68.8984 5.19531 67.6562 5.52344 66.0586C5.88281 64.0977 6.54297 61.8984 7.48438 59.4453C7.84375 58.5469 8.14453 58.1016 8.35156 58.1016C8.42578 58.1289 8.47266 58.2344 8.47266 58.3984C8.47266 58.6836 8.36719 59.1172 8.15625 59.6836C7.76953 60.8672 7.19922 63.0977 6.45312 66.3711C6.125 68.1953 6.19922 69.5898 6.69141 70.5312C7.01953 71.1875 7.48438 71.5156 8.09766 71.5156C8.45703 71.5156 8.76953 71.3828 9.02344 71.0859C9.17578 70.875 9.39844 70.5469 9.69922 70.0977C9.84766 69.7383 9.96875 69.5586 10.0586 69.5586C10.418 69.5586 10.4609 70.0977 10.1328 71.2031ZM47.1328 60.6875C47.1328 61.3867 46.9844 62.1289 46.6641 62.9141C46.3672 63.6797 46.1133 64.082 45.9023 64.082C45.7969 64.082 45.4336 63.6797 44.8203 62.875C44.2266 62.0664 43.6953 61.6602 43.2305 61.6602C41.957 61.6602 39.9609 62.957 37.2461 65.5859C34.5312 68.1953 33.1719 70.1914 33.1719 71.5508C33.1719 72.1836 33.832 72.8438 35.168 73.5C36.3125 74.0977 37.4141 74.4336 38.4766 74.5195C41.4453 74.793 43.4609 75.2422 44.543 75.8359C45.5195 76.4297 46.0312 77.2773 46.0312 78.4219C46.0312 80.6484 45.4766 82.4766 44.332 83.8945C42.5078 86.2305 38.9023 88.6484 33.5547 91.1523C27.7422 93.8242 22.6719 95.1836 18.3633 95.1836C12.8086 95.1836 8.98828 92.7227 6.95312 87.8008C5.84766 85.0625 5.72266 81.7734 6.61328 77.9141C7.12109 75.707 7.86328 73.6055 8.85938 71.5898C9.53906 70.2344 9.96484 69.5977 10.1758 69.6836C10.3867 69.7656 10.2812 70.4883 9.79297 71.8906C8.64844 75.1367 8.05469 77.6992 8.05469 79.6094C8.05469 82.625 8.94531 85.125 10.7695 87.1211C12.8477 89.4102 15.8633 90.5586 19.8086 90.5586C23.1172 90.5586 26.8516 89.75 31.0078 88.1406C34.1055 86.9492 37.1602 85.4453 40.1758 83.6016C42.7188 82.0703 43.9922 81.1797 43.9922 80.8828C43.9922 80.0977 42.8477 79.5664 40.5547 79.3125C34.2773 78.6133 31.1367 76.8516 31.1367 74.0547C31.1367 70.7422 32.7695 67.0938 36.0586 63.0625C39.2187 59.1992 41.9141 57.25 44.1602 57.25C44.9492 57.25 45.6484 57.5898 46.2422 58.2891C46.8359 58.9687 47.1328 59.7734 47.1328 60.6875ZM33.8672 98.1562L31.7461 101.977L27.418 99.4336L25.6367 102.613L21.2227 100.027L23.3438 96.207L27.6719 98.7539L29.4531 95.5703L33.8672 98.1562Z" fill="white"/>
<path d="M78.6328 79.1055C77.2734 79.0234 76.5938 78.6836 76.5938 78.1328C76.5938 77.8789 76.7852 77.625 77.125 77.4102C77.4844 77.1758 77.7812 77.0703 77.9961 77.0703C79.0547 77.1563 80.0742 77.8359 81.0938 79.0664C80.4141 79.1484 79.5859 79.1484 78.6328 79.1055ZM135.48 60.8281C134.246 54.1445 133.059 47.4844 131.914 40.8438C132.68 41.6094 133.187 42.1172 133.398 42.3281C134.121 43.0078 134.547 43.2852 134.715 43.1797C134.777 43.1133 134.801 43.0508 134.801 43.0078C134.801 42.668 134.035 40.8008 132.551 37.4531C131.109 34.1406 130.262 32.4844 130.008 32.4844C129.879 32.4844 129.625 33.0156 129.242 34.0547C128.773 35.2891 128.437 36.2188 128.18 36.8555C128.055 37.0898 128.309 37.4063 128.902 37.7891C129.898 44.75 130.684 49.9648 131.234 53.4453C133.844 68.2109 135.141 77.1445 135.141 80.2188C135.141 80.5586 134.652 81.0039 133.676 81.5117C132.707 82.0391 131.867 82.293 131.172 82.2969C130.961 82.2969 130.758 82.2852 130.555 82.2617C129.645 82.1602 128.816 81.8398 128.059 81.3203C127.562 81.0234 127.195 80.6797 126.949 80.2812C126.672 79.8359 126.551 79.3203 126.57 78.7344C126.59 78.4805 126.602 78.2617 126.605 78.0781C126.621 77.6133 126.602 77.3633 126.57 77.3359C126.273 77.207 125.809 77.7578 125.172 78.9023C124.832 79.668 124.449 80.4297 124.07 81.1523C123.473 82.043 122.543 82.4258 121.27 82.3828C119.746 82.3281 118.875 81.793 118.652 80.7773C118.77 80.0195 118.961 79.2695 119 78.5039C119.098 78.0977 119.078 77.8789 118.934 77.8438C118.637 77.7773 118.215 78.2031 117.617 79.0742C117.059 79.9063 116.578 80.5703 116.168 81.082C116.023 81.2227 115.871 81.3555 115.711 81.4805C114.523 82.4883 113.062 83.4063 111.5 83.5859C111.297 83.6016 111.09 83.6094 110.883 83.6133C110.855 83.6133 110.828 83.6133 110.805 83.6133C110.48 83.6016 110.156 83.5547 109.828 83.4688C109.73 83.4531 109.633 83.4336 109.531 83.4062C108.492 83.0273 107.891 82.1289 107.734 80.7266C107.734 80.2617 107.797 79.7109 107.902 79.0742C107.965 78.6719 107.902 78.4375 107.734 78.3945C107.52 78.332 107.203 78.5234 106.758 78.9023C106.137 79.5508 105.609 80.0977 105.172 80.5469C104.898 80.8281 104.66 81.0703 104.461 81.2773C104.164 81.5469 103.863 81.8164 103.555 82.0742C103.324 82.2656 103.094 82.4531 102.852 82.6289C102.449 82.9336 102.031 83.2148 101.59 83.4688C101.312 83.6289 101.016 83.75 100.703 83.832C99.8906 84.043 99.0391 84.1758 98.1953 84.1836C97.6953 84.1914 97.1992 84.1563 96.707 84.0703C95.7969 83.9063 95.1016 83.1523 95.0156 82.2344C94.9609 81.6484 95.0508 81.0234 95.1758 80.4766C95.3789 79.6289 95.5117 78.7461 95.7539 77.9023C95.8672 77.5039 96.0078 77.1133 96.1875 76.7383C97.0312 76.2656 97.9297 75.9063 98.832 75.5664C99.9297 75.1484 101.043 74.7578 102.094 74.2305C102.793 73.8477 103.621 73.5586 104.203 73C104.383 72.8242 104.539 72.625 104.66 72.3828C105.164 71.4805 105.66 70.5547 105.824 69.5273C103.648 70.2578 101.637 71.3906 99.4531 72.1016C98.4727 72.4805 97.4453 72.8672 96.3984 73.1016C96.3789 73.1055 96.3594 73.1094 96.3398 73.1133C95.0859 73.3867 93.8047 73.4297 92.5508 72.9648C89.9648 72.2305 88.0469 70.25 86.6836 68.0156C86.5273 67.7617 86.3789 67.5039 86.2344 67.2422C85.9023 66.4766 85.3516 65.3438 86.2578 64.7539C88.8945 63.125 92.1055 62.9766 95.1094 62.7031C97.1992 62.4336 99.1602 63.3867 101.223 63.3828C99.1563 61.5898 96.6562 60.0703 93.8555 59.8945C91.2852 59.5781 88.4336 59.9453 86.4688 61.7656C84.8633 63.0664 84.0195 65.1016 83.8086 67.125C83.7734 67.4414 83.7852 67.7617 83.8398 68.082C83.9883 68.9648 84.2305 69.8398 84.5586 70.6836C84.7578 71.1875 84.9883 71.6836 85.2578 72.1562C85.7305 72.9961 86.3125 73.7695 87.0078 74.4414C87.7305 75.0547 88.5117 75.5938 89.25 76.1914C87.7188 76.8438 86.2422 77.6797 84.6328 78.125C84.3398 77.5195 83.9844 76.8984 83.5547 76.2656C82.1328 74.1836 80.668 73.1016 79.1406 72.9961C77.6992 72.9141 76.4258 73.6758 75.3203 75.2461C74.3242 76.668 73.8359 78.0898 73.8359 79.5312C73.8359 81.9922 75.3633 83.2227 78.418 83.2227C80.6055 83.2227 82.3242 82.9883 83.5547 82.543C83.9336 83.0938 84.1055 83.7109 84.1055 84.4102C84.1055 85.5547 82.0703 87.6367 77.9961 90.6914C73.5195 94.043 69.7227 95.6953 66.625 95.6953C64.418 95.6953 62.6797 94.9531 61.4258 93.4883C60.1523 92.0039 59.5391 90.1797 59.5391 88.0156C59.5391 86.7461 59.707 85.4297 60.0078 84.1133C60.3164 82.8008 60.4688 82.1641 60.4727 82.1641C60.4727 82.0352 60.4297 81.9688 60.3867 81.9492C60.0469 81.8672 59.582 82.7773 59.0312 84.6641C58.3945 86.7461 58.0977 88.7383 58.0977 90.6914C58.0977 93.4492 58.7539 95.6563 60.0469 97.3086C61.4688 99.1563 63.5273 100.066 66.1992 100.066C69.0625 100.066 72.4375 98.668 76.2969 95.8672C79.6719 93.4492 82.2148 90.9883 83.9336 88.4414C84.9375 86.9961 85.4492 84.8711 85.5 82.0586C88.293 81.2773 91.4414 79.7344 94.9375 77.4453C94.0859 79.9609 93.4336 82.6523 93.9297 85.3125C94.2695 86.4492 95.0117 87.5859 96.2031 87.9453C97.8945 88.2578 99.7305 88.1836 101.273 87.3516C101.684 87.1797 102.055 86.957 102.398 86.6953C103.676 85.957 104.82 84.8281 105.824 83.3164C105.824 86.3477 107.223 87.8555 109.98 87.8555C112.695 87.8555 114.988 86.2461 116.855 83.0625C116.727 83.9961 116.984 84.8203 117.555 85.543C117.941 86.0117 118.391 86.3281 118.902 86.4922C119.176 86.582 119.473 86.625 119.781 86.625C122.117 86.625 123.812 85.1211 124.918 82.1289C124.98 82.1289 125.125 82.418 125.332 82.957C125.336 82.9609 125.34 82.9688 125.34 82.9766C125.66 83.6992 125.957 84.207 126.23 84.5469C127.211 85.7969 128.48 86.4297 130.059 86.4531C130.07 86.4531 130.078 86.457 130.09 86.457C130.102 86.457 130.109 86.457 130.117 86.457C130.125 86.457 130.133 86.457 130.137 86.457C130.145 86.457 130.152 86.4531 130.16 86.4531C133.43 86.4297 135.527 84.6484 136.453 81.1523C137.027 78.8828 137.305 76.9531 137.305 75.3398C137.305 72.8984 136.687 68.0625 135.48 60.8281Z" fill="white"/>
<path d="M64.3711 56.2109C64.0195 57.4648 63.4609 58.0977 62.6914 58.0977C62.2617 58.0977 61.9375 57.9414 61.7227 57.6172C61.2734 56.8984 61.0469 56.125 61.0469 55.293C61.0469 54.707 61.1445 53.8945 61.3594 52.8477C61.5938 51.5664 62.0234 50.1328 62.6406 48.5273C62.875 47.9414 63.0703 47.6484 63.207 47.6484C63.2578 47.668 63.2852 47.7344 63.2852 47.8438C63.2852 48.0273 63.2188 48.3125 63.082 48.6836C62.8281 49.457 62.457 50.9141 61.9648 53.0547C61.75 54.2461 61.8008 55.1562 62.1211 55.7734C62.3398 56.2031 62.6406 56.418 63.043 56.418C63.2773 56.418 63.4805 56.3281 63.6484 56.1328C63.7461 55.9961 63.8906 55.7812 64.0898 55.4883C64.1836 55.2539 64.2656 55.1367 64.3203 55.1367C64.5586 55.1367 64.5859 55.4883 64.3711 56.2109Z" fill="white"/>
<path d="M58.0587 100.07C58.1369 100.195 58.09 100.477 57.9025 100.883C57.7189 101.27 57.5783 101.488 57.4845 101.535C54.8517 102.516 52.2189 103.5 49.5704 104.48C46.2189 105.758 43.7892 106.816 42.2931 107.676C42.215 107.504 42.1994 107.176 42.2931 106.707C42.3869 106.285 42.4962 106.039 42.6212 105.945C47.3439 103.824 52.4845 101.863 58.0587 100.07Z" fill="white"/>
<path d="M91.9445 44.2383C91.9445 44.3594 91.8507 44.5859 91.671 44.9492C91.4913 45.2969 91.3859 45.4766 91.339 45.4766C90.839 45.4023 90.2804 45.2344 89.6476 44.9648C88.4718 46.8047 86.0382 48.7539 82.3663 50.793C82.0656 50.9453 81.296 51.2617 80.0577 51.7422C78.8195 52.2148 78.171 52.4414 78.0812 52.3945C78.0499 52.3203 78.6827 51.9102 80.0109 51.1562C84.5734 48.7227 87.6554 46.5938 89.2257 44.7812C87.8663 44.1641 87.171 43.4258 87.171 42.5469C87.171 42.0625 87.4601 41.4609 88.046 40.7344C88.6202 40.0117 89.1788 39.6484 89.7101 39.6484C90.3702 39.6484 90.7062 40.3867 90.7062 41.8828C90.7062 42.457 90.6124 43.0312 90.4015 43.6055C91.4288 43.9375 91.9445 44.1484 91.9445 44.2383ZM89.8898 43.4258C90.2218 42.0195 90.0109 41.3086 89.2257 41.3086C88.5304 41.3086 88.1671 41.5977 88.1671 42.1836C88.1671 42.6094 88.7413 43.0156 89.8898 43.4258Z" fill="white"/>
<path d="M123.036 51.0938C123.036 51.2148 122.946 51.4414 122.766 51.8008C122.587 52.1484 122.477 52.332 122.434 52.332C121.934 52.2539 121.376 52.0898 120.743 51.8164C119.563 53.6602 117.134 55.6094 113.462 57.6484C113.161 57.7969 112.391 58.1133 111.153 58.5977C109.915 59.0664 109.266 59.293 109.173 59.2461C109.145 59.1719 109.778 58.7656 111.106 58.0117C115.669 55.5781 118.747 53.4492 120.317 51.6367C118.962 51.0156 118.266 50.2773 118.266 49.4023C118.266 48.918 118.552 48.3125 119.141 47.5898C119.716 46.8633 120.274 46.5 120.802 46.5C121.466 46.5 121.802 47.2422 121.802 48.7383C121.802 49.3125 121.708 49.8828 121.497 50.457C122.524 50.7891 123.036 51.0039 123.036 51.0938ZM120.985 50.2773C121.317 48.8711 121.106 48.1602 120.317 48.1602C119.626 48.1602 119.263 48.4492 119.263 49.0391C119.263 49.4609 119.837 49.8672 120.985 50.2773Z" fill="white"/>
<path d="M120.867 94.0234C120.867 95.1094 120.465 95.668 119.664 95.668C119.344 95.668 119.07 95.5586 118.836 95.3359C118.719 95.2422 118.598 95.2656 118.492 95.4297C118.113 96.0078 117.559 96.3047 116.848 96.3047C116.566 96.3047 116.316 96.2461 116.129 96.1055C115.488 95.7266 114.699 95.7266 113.754 96.1523C113.34 96.375 112.629 96.9414 111.625 97.8516C111.047 98.3242 110.48 98.8086 109.922 99.293C109.004 100.004 107.902 100.617 106.637 101.141C105.609 101.551 104.91 101.766 104.555 101.766C104.465 101.766 104.402 101.742 104.402 101.672C104.496 101.578 104.687 101.48 104.945 101.387C105.422 101.223 106.082 100.937 106.922 100.512C108.469 99.6367 109.828 98.6094 110.996 97.418C111.957 96.3516 112.984 95.5469 114.094 94.9922C114.863 94.5781 115.523 94.543 116.082 94.8984C116.328 95.0859 116.602 95.1836 116.898 95.1836C117.703 95.1836 118.258 94.8047 118.551 94.0234C118.703 93.5508 118.895 93.3008 119.129 93.3008C119.191 93.3008 119.215 93.375 119.18 93.5391C119.082 93.8945 119.059 94.0937 119.129 94.168C119.344 94.4492 119.676 94.543 120.102 94.4141C120.383 94.3555 120.422 94.2227 120.195 94.0234C120.027 93.9297 119.992 93.7852 120.102 93.5859C120.289 93.1367 120.406 92.9141 120.48 92.9141C120.738 92.9141 120.867 93.2773 120.867 94.0234Z" fill="white"/>
<path d="M33.207 49.9492C33.207 51.4492 32.8672 52.6992 32.1445 53.75C31.4688 54.75 30.7461 55.2734 29.9844 55.2734C29.5195 55.2734 29.1562 55.0977 28.8594 54.75C27.7188 55.8984 26.6992 56.5 25.832 56.5C24.5586 56.5 23.9023 55.75 23.9023 54.25C23.9023 53.6992 24.1133 52.875 24.5586 51.75C24.9844 50.625 25.3438 50.0508 25.6406 50.0508C25.8711 50.0508 25.9805 50.2773 25.9141 50.75C25.7891 51.7773 25.7227 52.3008 25.7227 52.3008C25.7227 52.625 25.9805 52.8008 26.5078 52.8008C27.2734 52.8008 27.9687 52.3984 28.6055 51.5742C29.2422 50.7773 29.5391 50.3516 29.4766 50.3516C29.75 50.3516 29.9414 50.5508 30.0273 50.9766C30.1133 51.375 30.2383 51.5742 30.4297 51.5742C31.1094 51.5742 31.6602 51.1758 32.0625 50.3516C32.4648 49.5508 32.6953 49.125 32.7617 49.125C33.0586 49.125 33.207 49.4023 33.207 49.9492Z" fill="white"/>
<path d="M122.82 61.75C122.82 63.2461 122.48 64.4961 121.762 65.5469C121.086 66.5469 120.363 67.0703 119.602 67.0703C119.133 67.0703 118.773 66.8945 118.477 66.5469C117.332 67.6953 116.316 68.2969 115.445 68.2969C114.176 68.2969 113.52 67.5469 113.52 66.0469C113.52 65.4961 113.73 64.6719 114.176 63.5469C114.598 62.4219 114.961 61.8477 115.258 61.8477C115.488 61.8477 115.594 62.0742 115.531 62.5469C115.406 63.5703 115.34 64.0977 115.34 64.0977C115.34 64.4219 115.594 64.5977 116.125 64.5977C116.887 64.5977 117.59 64.1953 118.223 63.3711C118.859 62.5703 119.156 62.1445 119.09 62.1445C119.367 62.1445 119.559 62.3477 119.645 62.7695C119.727 63.1719 119.855 63.3711 120.047 63.3711C120.723 63.3711 121.273 62.9727 121.68 62.1445C122.078 61.3477 122.313 60.9219 122.379 60.9219C122.672 60.9219 122.82 61.1992 122.82 61.75Z" fill="white"/>
<path d="M94.832 99.0312C93.4883 100.777 91.7422 101.652 89.5859 101.652C88.0703 101.617 87.3008 101.016 87.3008 99.8516C87.3008 99.3047 87.5312 98.5234 87.9922 97.4688C88.5039 96.3398 88.9961 95.5937 89.4609 95.2305C88.6289 94.5937 88.1953 93.9727 88.1953 93.3711C88.1953 92.8828 88.5195 92.2266 89.168 91.4062C89.8164 90.5898 90.418 90.1719 90.9727 90.1719C91.4375 90.1719 91.668 90.5156 91.668 91.207C91.668 91.4063 91.6055 91.6797 91.4648 92.0469C91.3437 92.3711 91.2188 92.5547 91.0938 92.5547C91.0195 92.5156 90.957 92.4062 90.9102 92.2617C90.8359 91.9727 90.6641 91.8086 90.4023 91.8086C90.2773 91.8086 90.0781 91.8984 89.7695 92.1172C89.4766 92.3008 89.3203 92.5 89.3203 92.6992C89.3203 93.3359 89.9062 93.6641 91.0938 93.6641C91.3438 93.6641 91.7305 93.4453 92.2383 93.0117C92.5781 92.6641 92.8398 92.5 93.0547 92.5547C93.1797 92.5547 93.1641 92.9531 92.9961 93.7539C92.918 93.9375 92.6992 94.1367 92.3633 94.3398C91.6523 94.6289 90.8008 95.3008 89.832 96.3555C88.7813 97.3945 88.2578 98.1602 88.2578 98.668C88.2578 99.3945 88.9648 99.7773 90.4023 99.7773C91.5742 99.7773 92.9492 99.3945 94.5078 98.5938C94.7539 98.5039 94.9219 98.4687 95.0156 98.5234C95.0938 98.6133 95.0469 98.7773 94.832 99.0312Z" fill="white"/>
<path d="M300.319 75.4922C300.319 76.7656 300.194 78.0586 299.898 79.3945C299.429 81.8555 299.007 83.0859 298.663 83.0859C298.476 83.0859 298.347 82.5781 298.284 81.5586C298.155 79.3945 298.069 78.1641 298.069 77.9102C297.542 72.6055 296.183 63.6758 293.999 51.1367C293.382 47.6562 292.558 42.4609 291.538 35.5234C291.026 35.0781 290.816 34.7383 290.901 34.5078C291.112 33.8906 291.476 32.9766 291.964 31.7461C292.343 30.7305 292.597 30.2188 292.683 30.2188C292.855 30.2188 293.702 31.8516 295.23 35.1406C296.925 38.7891 297.667 40.6992 297.437 40.8711C297.222 40.9961 296.776 40.7422 296.12 40.0195C295.929 39.8086 295.441 39.3008 294.636 38.4922C295.612 43.7148 297.054 52.0508 298.964 63.4844C299.855 69.4453 300.319 73.4531 300.319 75.4922Z" fill="white"/>
<path d="M286.992 81.9062C285.824 81.9062 284.699 81.207 283.641 79.8281C284.191 79.5938 285.039 79.5742 286.188 79.7422C286.59 79.8047 286.992 80.0391 287.414 80.4219C287.84 80.8242 288.051 81.1641 288.051 81.4414C288.051 81.7578 287.691 81.9062 286.992 81.9062ZM285.59 75.2031C284.586 75.2031 283.293 75.5234 281.754 76.1602C281.09 74.3086 280.41 71.5 279.727 67.6914C278.219 55.8984 277.137 46.457 276.5 39.3906C277.266 40.1992 277.73 40.668 277.898 40.8359C278.539 41.5977 278.961 41.918 279.215 41.8086V41.5547C279.215 41.2187 278.578 39.3906 277.352 36.082C276.098 32.7734 275.312 31.1172 275.016 31.1172C274.887 31.1172 274.633 31.6484 274.254 32.6875C273.914 33.3242 273.469 34.2187 272.938 35.3633C272.871 35.6172 273.105 35.9766 273.574 36.4219C274.379 49.918 275.48 60.5859 276.926 68.4141C277.719 72.9766 278.379 75.9297 278.895 77.2852C278.91 77.3281 278.918 77.3672 278.93 77.4102C275.301 79.0859 272.906 79.9102 271.719 79.9102C271.609 79.9102 271.512 79.9297 271.414 79.9492C270.367 79.832 269.52 79.4609 268.84 78.8398C268.605 78.668 268.289 78.2031 267.906 77.4375C267.566 76.7617 267.312 76.4219 267.184 76.4219C267.059 76.4219 266.887 77.0586 266.676 78.332C266.441 79.6016 266.336 80.3672 266.336 80.5781C266.336 80.4062 266.844 81.3633 267.863 83.3984C268.883 85.457 269.391 87.0937 269.391 88.3008C269.391 89.1289 267.145 91.0586 262.688 94.0703C258.637 96.7852 255.07 98.1445 251.996 98.1445C247.18 98.1445 244.781 95.8086 244.781 91.1836C244.781 89.7852 245.078 88.1328 245.672 86.2227C246.141 84.6094 246.309 83.8047 246.266 83.8047C245.969 83.6367 245.629 83.8867 245.207 84.5664C243.805 87.1992 243.129 90.3359 243.129 93.9844C243.129 99.6523 245.801 102.473 251.145 102.473C253.926 102.473 257.34 101.242 261.371 98.8242C265.316 96.4883 268.012 94.1133 269.477 91.6953C269.941 90.9531 270.305 89.7422 270.559 88.0664C270.832 86.375 270.875 85.0859 270.75 84.1523C272.328 84.1445 274.07 83.7227 276.004 82.9258C277.422 82.2461 278.844 81.5664 280.246 80.8867C282.176 84.3672 284.234 86.1055 286.398 86.1055C288.816 86.1055 290.004 83.9219 290.004 79.5742C290.004 76.6445 288.52 75.2031 285.59 75.2031Z" fill="white"/>
<path d="M188.965 64.4648L184.551 61.875L182.43 65.6953L186.844 68.2812L188.965 64.4648Z" fill="white"/>
<path d="M261.422 69.8555C260.316 68.7969 259.043 67.9922 257.602 67.4375C255.055 66.5039 251.023 66.3789 245.508 67.0156C237.363 67.8633 231.254 68.5625 227.18 69.0938C220.816 69.668 216.086 69.7109 213.008 69.2617C209.551 68.7969 207.832 68.0312 207.832 66.9297C207.832 65.8672 209.57 64.1289 213.008 61.7109C219.184 57.4687 223.996 55.3477 227.434 55.3477C227.922 55.3477 228.238 55.4727 228.41 55.6875C228.879 56.2812 229.133 56.5781 229.176 56.5781C229.43 56.5781 229.727 56.0898 230.023 55.1328C230.34 54.1602 230.488 53.4375 230.488 52.9297C230.488 51.7617 230.023 51.1875 229.09 51.1875C225.441 51.1875 220.602 53.2656 214.578 57.4258C208.426 61.668 205.371 65.6992 205.371 69.5195C205.371 71.5547 207.363 72.8047 211.312 73.2539C215.129 73.7383 220.668 73.5469 227.902 72.7422C236.641 71.7461 242.668 71.0859 245.977 70.75C249.859 70.4102 252.723 70.5352 254.547 71.0859C257.922 72.0859 260.039 73.6758 260.91 75.8828C252.848 77.4531 243.875 78.8086 234.012 79.957C224.125 81.125 216.234 81.6953 210.336 81.6953C210.316 81.6953 210.297 81.6992 210.277 81.7031C210.258 81.6992 210.242 81.6953 210.223 81.6953C198.617 81.6953 191.406 79.3203 188.582 74.5664C188.18 73.9102 187.926 73.5898 187.82 73.5898C187.691 73.5898 187.48 74.3359 187.16 75.8164C186.82 77.3047 186.715 78.1094 186.758 78.2148C189.199 81.4805 190.406 84.0703 190.406 86.0234C190.406 86.5117 190.238 86.9141 189.898 87.2539C188.625 88.6523 186.25 90.3945 182.77 92.4727C178.23 95.082 174.539 96.375 171.652 96.375C166.902 96.375 164.527 94.043 164.527 89.418C164.527 88.0156 164.781 86.3633 165.289 84.4531C165.777 82.8398 165.969 81.9922 165.926 81.9492C165.605 81.8203 165.289 82.1172 164.949 82.7969C163.508 85.4297 162.785 88.5664 162.785 92.2188C162.785 97.8828 165.48 100.703 170.848 100.703C174.328 100.703 178.508 99.0898 183.363 95.8672C187.734 92.9375 190.281 90.5625 191.004 88.7383C191.723 87.1484 192.062 85.3867 192.062 83.4336C195.434 85.0469 201.164 85.8516 209.246 85.8516C209.25 85.8516 209.254 85.8516 209.262 85.8516C209.266 85.8516 209.27 85.8516 209.273 85.8516C215.617 85.8516 225.523 84.9609 239.02 83.1797C250.305 81.5898 256.945 80.5508 258.918 80.043C259.742 79.8711 260.527 79.6992 261.25 79.5312C261.422 79.5312 261.887 78.7266 262.648 77.1328C263.414 75.5234 263.797 74.6094 263.797 74.3984C263.797 72.7422 262.988 71.2344 261.422 69.8555Z" fill="white"/>
<path d="M163.09 97.793L160.965 101.609L156.641 99.0625L154.855 102.246L150.445 99.6562L152.566 95.8398L156.895 98.3867L158.676 95.2031" fill="white"/>
<path d="M180.621 59.7266C180.621 60.4258 180.472 61.168 180.156 61.957C179.859 62.7187 179.601 63.1211 179.39 63.1211C179.285 63.1211 178.925 62.7187 178.308 61.9102C177.714 61.1055 177.183 60.7031 176.718 60.7031C175.445 60.7031 173.449 61.9961 170.734 64.6289C168.019 67.2383 166.664 69.2305 166.664 70.5898C166.664 71.2266 167.32 71.8828 168.656 72.5391C169.8 73.1328 170.906 73.4727 171.964 73.5586C174.937 73.8359 176.953 74.2812 178.035 74.875C179.011 75.4688 179.519 76.3164 179.519 77.4609C179.519 79.6875 178.968 81.5156 177.82 82.9375C175.996 85.2695 172.39 87.6875 167.043 90.1914C161.23 92.8633 156.16 94.2227 151.855 94.2227C146.296 94.2227 142.476 91.7617 140.441 86.8398C139.339 84.1016 139.211 80.8125 140.101 76.9531C140.609 74.7461 141.355 72.6445 142.351 70.6289C143.031 69.2734 143.453 68.6367 143.664 68.7227C143.878 68.8086 143.773 69.5273 143.285 70.9297C142.14 74.1719 141.546 76.7422 141.546 78.6484C141.546 81.6641 142.437 84.1641 144.261 86.1602C146.339 88.4531 149.351 89.5977 153.296 89.5977C156.605 89.5977 160.339 88.7891 164.5 87.1797C167.597 85.9922 170.652 84.4844 173.664 82.6367C176.211 81.1094 177.48 80.2188 177.48 79.9219C177.48 79.1367 176.336 78.6094 174.046 78.3516C167.765 77.6523 164.625 75.8906 164.625 73.0898C164.625 69.7812 166.261 66.1328 169.546 62.1016C172.711 58.2422 175.402 56.2891 177.652 56.2891C178.437 56.2891 179.136 56.6289 179.73 57.332C180.324 58.0078 180.621 58.8164 180.621 59.7266Z" fill="white"/>
<path d="M266.145 45.3125C266.145 45.4375 266.02 45.8086 265.742 46.4492C265.477 47.0703 265.258 47.4141 265.086 47.4609C257.469 50.0156 251.422 52.0742 246.953 53.6602C238.477 56.6211 232.418 58.9258 228.758 60.5469C228.758 60.1406 228.91 59.6758 229.238 59.1602C229.551 58.6641 229.848 58.3359 230.098 58.1797C240.566 53.8008 252.578 49.5156 266.145 45.3125Z" fill="white"/>
<path d="M203.117 92.5C203.191 92.625 203.144 92.9062 202.961 93.3125C202.773 93.6992 202.632 93.918 202.539 93.9648C199.906 94.9453 197.273 95.9297 194.625 96.9102C191.273 98.1875 188.843 99.2461 187.351 100.102C187.269 99.9336 187.257 99.6055 187.351 99.1367C187.441 98.7188 187.55 98.4688 187.675 98.375C192.398 96.2539 197.539 94.293 203.117 92.5Z" fill="white"/>
<path d="M289.429 92.293C289.429 93.4375 289.23 94.0156 288.808 94.0156C287.679 94.0156 286.679 93.6328 285.788 92.8594C285.675 93.5078 285.394 94.1289 284.94 94.7227C284.405 95.3438 282.683 96.2578 279.776 97.4844C277.39 98.5625 275.968 99.1523 275.515 99.293C273.581 99.7031 271.901 100 270.491 100.195H270.179C270.108 100.168 270.081 100.129 270.124 100.086C270.124 100.012 270.21 99.957 270.405 99.9141C270.913 99.7734 272.241 99.2656 274.413 98.418C276.87 97.4609 278.659 96.7266 279.776 96.2188C282.487 95.0742 284.179 94.1719 284.858 93.5078C285.253 93.1094 285.507 92.7734 285.616 92.4648C285.761 91.9531 286.069 91.4023 286.534 90.8125C286.987 90.2188 287.382 89.9219 287.706 89.9219C288.116 89.9219 288.511 90.1758 288.878 90.6992C289.245 91.207 289.429 91.7422 289.429 92.293ZM288.44 92.6328C288.44 91.7852 288.144 91.3633 287.538 91.3633C287.03 91.3633 286.776 91.5312 286.776 91.8711C286.776 91.9414 286.972 92.082 287.382 92.2773C287.776 92.4766 288.132 92.5898 288.44 92.6328Z" fill="white"/>
<path d="M169.718 43.207C169.718 43.332 169.628 43.5586 169.444 43.918C169.265 44.2656 169.159 44.4453 169.112 44.4453C168.616 44.3711 168.058 44.207 167.421 43.9336C166.245 45.7734 163.812 47.7266 160.144 49.7656C159.839 49.9141 159.069 50.2305 157.831 50.7148C156.593 51.1836 155.944 51.4102 155.855 51.3633C155.823 51.2891 156.46 50.8789 157.788 50.125C162.347 47.6914 165.429 45.5625 166.999 43.7539C165.64 43.1328 164.944 42.3945 164.944 41.5156C164.944 41.0312 165.234 40.4297 165.823 39.707C166.394 38.9805 166.952 38.6172 167.484 38.6172C168.148 38.6172 168.48 39.3555 168.48 40.8516C168.48 41.4258 168.39 42 168.175 42.5742C169.202 42.9062 169.718 43.1172 169.718 43.207ZM167.663 42.3945C167.995 40.9883 167.784 40.2773 166.999 40.2773C166.304 40.2773 165.941 40.5664 165.941 41.1562C165.941 41.5781 166.515 41.9844 167.663 42.3945Z" fill="white"/>
<path d="M169.195 51.0977C169.195 52.5977 168.855 53.8477 168.133 54.8984C167.457 55.8945 166.734 56.4219 165.973 56.4219C165.508 56.4219 165.145 56.2461 164.848 55.8945C163.703 57.0469 162.687 57.6445 161.82 57.6445C160.547 57.6445 159.891 56.8945 159.891 55.3945C159.891 54.8477 160.102 54.0234 160.547 52.8984C160.973 51.7734 161.332 51.1992 161.629 51.1992C161.859 51.1992 161.969 51.4219 161.902 51.8984C161.777 52.9219 161.715 53.4453 161.715 53.4453C161.715 53.7734 161.969 53.9453 162.496 53.9453C163.262 53.9453 163.961 53.5469 164.594 52.7227C165.23 51.9219 165.527 51.4961 165.465 51.4961C165.738 51.4961 165.93 51.6992 166.016 52.1211C166.102 52.5234 166.227 52.7227 166.418 52.7227C167.098 52.7227 167.648 52.3242 168.051 51.4961C168.453 50.6992 168.684 50.2734 168.75 50.2734C169.047 50.2734 169.195 50.5469 169.195 51.0977Z" fill="white"/>
<path d="M210.98 39.424C211.129 39.5959 211.129 40.0255 210.98 40.7326C210.871 41.424 210.726 41.7873 210.523 41.7873C210.523 41.7873 210.379 41.5724 210.07 41.0998C209.777 40.6271 209.468 40.3888 209.101 40.3888C208.41 40.3888 207.918 41.9162 207.605 45.0138C207.316 48.0919 207.043 49.6154 206.785 49.5529C206.492 49.5529 206.183 48.8849 205.82 47.5099C205.418 45.8302 204.742 44.4982 203.793 43.5529C203.757 43.6584 203.683 43.7677 203.574 43.8966C203.429 43.9591 203.027 43.7873 202.336 43.338C201.679 42.9044 201.312 42.4982 201.257 42.1544C201.113 40.5607 201.351 39.7677 202.007 39.7677C203.191 39.7248 204.468 41.2091 205.82 44.2599C206.004 44.9044 206.273 45.6388 206.64 46.4552C206.785 44.9904 206.984 43.5294 207.242 42.0451C207.644 39.3576 208.261 38.0255 209.101 38.088C209.742 38.088 210.359 38.5177 210.98 39.424Z" fill="white"/>
<path d="M238.035 90.811C238.18 90.9828 238.18 91.4125 238.035 92.1235C237.926 92.811 237.781 93.1781 237.578 93.1781C237.578 93.1781 237.434 92.9633 237.121 92.4867C236.832 92.0141 236.52 91.7797 236.156 91.7797C235.465 91.7797 234.973 93.3071 234.66 96.4008C234.367 99.4789 234.094 101.006 233.84 100.94C233.547 100.94 233.238 100.276 232.871 98.8969C232.473 97.2211 231.797 95.8852 230.848 94.9399C230.813 95.0492 230.738 95.1547 230.629 95.2836C230.484 95.35 230.082 95.1781 229.391 94.725C228.73 94.2953 228.367 93.8852 228.313 93.5414C228.168 91.9516 228.402 91.1547 229.063 91.1547C230.246 91.1117 231.523 92.5961 232.871 95.6508C233.055 96.2953 233.328 97.0258 233.695 97.8422C233.84 96.3813 234.039 94.9203 234.297 93.436C234.695 90.7446 235.316 89.4125 236.156 89.4789C236.797 89.4789 237.414 89.9086 238.035 90.811Z" fill="white"/>
<path d="M272.926 60.2031C272.926 62.5586 271.879 63.7578 269.758 63.7578C268.711 63.7578 268.176 63.1133 268.176 61.7852C268.176 60.332 268.656 58.8945 269.613 57.5C269.852 56.6875 270.055 56.2812 270.203 56.2812C270.352 56.2812 270.387 56.375 270.273 56.5977C270.129 56.9297 270.055 57.2383 270.055 57.5C271.969 58.6406 272.926 59.543 272.926 60.2031ZM272.023 60.957C272.023 60.8672 271.656 60.5547 270.922 60.0195C270.203 59.5039 269.816 59.2266 269.758 59.2266C269.668 59.2266 269.52 59.4687 269.34 59.9805C269.172 60.4766 269.078 60.8281 269.078 61.0312C269.078 61.582 269.355 61.8594 269.906 61.8594C270.145 61.8594 270.551 61.75 271.141 61.5273C271.73 61.3086 272.023 61.1055 272.023 60.957Z" fill="white"/>
<path d="M403.571 84.9102C403.571 86.1836 403.442 87.4805 403.145 88.8164C402.681 91.2773 402.255 92.5078 401.915 92.5078C401.724 92.5078 401.599 92 401.532 90.9805C401.407 88.8164 401.321 87.5859 401.321 87.332C400.79 82.0273 399.434 73.0977 397.247 60.5586C396.634 57.082 395.806 51.8828 394.786 44.9453C394.278 44.5 394.063 44.1602 394.149 43.9258C394.364 43.3086 394.724 42.3984 395.212 41.168C395.595 40.1484 395.849 39.6406 395.934 39.6406C396.102 39.6406 396.95 41.2734 398.477 44.5625C400.177 48.2109 400.919 50.1211 400.684 50.293C400.474 50.418 400.028 50.1641 399.372 49.4414C399.181 49.2305 398.688 48.7227 397.884 47.9141C398.86 53.1328 400.302 61.4727 402.212 72.9062C403.102 78.8672 403.571 82.875 403.571 84.9102Z" fill="white"/>
<path d="M343.809 68.6641L339.395 66.0781L337.273 69.8945L341.688 72.4844L343.809 68.6641Z" fill="white"/>
<path d="M371.906 92.168L376.32 94.7578L378.441 90.9375L374.031 88.3516L371.906 92.168Z" fill="white"/>
<path d="M390.676 65.1953C389.824 60.043 388.938 54.8867 388.004 49.7109C388.828 50.5391 389.316 51.0664 389.488 51.2773C390.121 52.0039 390.547 52.2773 390.801 52.1719V52.0039C390.801 51.6211 390.059 49.7734 388.598 46.4414C387.152 43.1328 386.305 41.4805 386.094 41.4805C385.965 41.4805 385.625 42.1797 385.031 43.5586C384.629 44.6211 384.375 45.3398 384.27 45.7227C384.203 45.957 384.418 46.3164 384.863 46.7812C385.797 53.2734 386.559 57.9844 387.109 60.9531C388.598 69.4805 389.465 75.5273 389.742 79.1133C389.805 80.2188 389.211 81.1719 388.004 81.957C386.949 82.6445 385.82 82.9805 384.617 83.0117C384.559 82.9883 384.496 82.9727 384.426 82.9727C383.066 82.9727 382.008 82.5273 381.242 81.6562C380.605 80.918 380.414 79.75 380.605 78.1797C380.668 77.6719 380.543 77.4141 380.266 77.4141C380.098 77.4141 379.586 77.6719 378.781 78.1797C376.488 79.582 373.352 80.7227 369.363 81.6562C365.629 82.5508 362.215 82.9727 359.137 82.9727C352.648 82.9727 348.598 81.9336 346.961 79.8789C346.027 78.7109 345.773 77.5859 346.199 76.5234C346.348 76.1445 346.242 75.9727 345.945 75.9727C345.457 75.9727 344.672 76.8633 343.57 78.6484C341.957 81.3203 340.176 82.6367 338.266 82.6367C338.191 82.6367 338.129 82.6523 338.062 82.6602C336.715 82.4883 335.695 81.875 335.02 80.8086C334.105 79.3633 333.301 76.4609 332.602 72.1094C331.668 66.1289 330.945 61.6719 330.438 58.7461C328.824 48.0117 327.426 40.4805 326.277 36.1328C325.727 33.9688 325.387 32.9062 325.219 32.9062C325.152 32.9062 324.941 33.6914 324.602 35.2188C324.242 36.7656 324.07 37.6797 324.07 37.9531C324.07 37.7852 325.133 43.7891 327.211 55.9453C329.312 68.1211 330.352 75.207 330.352 77.2461C330.352 78.6875 329.715 79.832 328.441 80.6367C325.727 82.3789 322.289 83.9883 318.176 85.4727C313.188 87.3008 308.883 88.1914 305.234 88.1914C301.859 88.1914 299.207 87.3438 297.277 85.668C295.324 83.9688 294.371 81.7813 294.371 79.0664C294.371 78.2383 294.586 76.9883 294.965 75.3359C295.348 74 295.391 73.3008 295.137 73.2578C294.84 73.043 294.477 73.4883 294.031 74.5273C292.93 77.0313 292.379 79.4297 292.379 81.7422C292.379 85.0078 293.395 87.6172 295.434 89.5938C297.555 91.7148 300.629 92.7734 304.641 92.7734C307.93 92.7734 312.129 91.8398 317.238 90.0156C322.059 88.1914 325.789 86.3242 328.441 84.3711C330.012 83.207 330.945 81.3594 331.285 78.8125C332.199 83.7539 334.113 86.4023 337.008 86.8125C337.078 86.8555 337.156 86.8789 337.246 86.8789C337.344 86.8789 337.438 86.8633 337.531 86.8594C337.629 86.8633 337.723 86.875 337.82 86.875C337.988 86.875 338.145 86.8438 338.289 86.793C340.172 86.5078 341.687 85.4414 342.805 83.5664C343.801 81.9141 344.332 81.1094 344.375 81.1094C345.648 85.1797 350.227 87.2188 358.117 87.2188H358.121C361.602 87.2188 365.586 86.582 370.039 85.3086C374.18 84.1406 377.191 82.9102 379.078 81.6172C379.395 85.3477 380.84 87.2188 383.406 87.2188C383.551 87.2188 383.684 87.1953 383.809 87.1641C386.402 87.0469 388.441 85.8633 389.91 83.6094C391.313 81.4023 391.949 78.7969 391.906 75.8047C391.906 73.3008 391.48 69.7773 390.676 65.1953Z" fill="white"/>
<path d="M305.801 77.5703C309.195 77.4414 311.273 77.1445 311.992 76.6562C312.738 76.1484 313.586 75.2344 314.539 73.9219C315.707 72.3086 316.277 70.9492 316.277 69.8477C316.277 68.7461 315.41 68.1914 313.672 68.1914C311.93 68.1914 311.062 68.0234 311.062 67.6836C311.062 66.5156 311.953 65.7969 313.691 65.5195C313.863 65.457 314.156 64.9258 314.562 63.9062C314.984 62.8906 315.176 62.2109 315.176 61.8711C315.176 61.6992 315.051 61.6172 314.797 61.6172C313.883 61.6172 312.609 62.7422 310.996 64.9453C309.363 67.1758 308.559 69 308.559 70.4414C308.559 71.9258 310.211 72.6914 313.523 72.7344C313.141 73.4102 312.016 74.1953 310.129 75.0664C308.684 75.6406 307.199 76.2539 305.672 76.8906C305.203 77.0586 304.992 77.2109 304.992 77.3164C304.992 77.5508 305.27 77.6133 305.801 77.5703Z" fill="white"/>
<path d="M320.449 56.8281C320.098 58.082 319.539 58.7148 318.766 58.7148C318.336 58.7148 318.016 58.5586 317.797 58.2383C317.348 57.5156 317.125 56.7422 317.125 55.9102C317.125 55.3242 317.223 54.5117 317.438 53.4648C317.672 52.1836 318.102 50.75 318.719 49.1445C318.953 48.5586 319.148 48.2656 319.285 48.2656C319.336 48.2852 319.363 48.3516 319.363 48.4609C319.363 48.6445 319.297 48.9297 319.156 49.3047C318.902 50.0742 318.531 51.5312 318.043 53.6719C317.828 54.8633 317.879 55.7734 318.199 56.3906C318.414 56.8203 318.719 57.0352 319.117 57.0352C319.352 57.0352 319.559 56.9453 319.723 56.75C319.824 56.6133 319.969 56.3984 320.164 56.1055C320.262 55.8711 320.34 55.7539 320.398 55.7539C320.633 55.7539 320.664 56.1055 320.449 56.8281Z" fill="white"/>
<path d="M369.137 77.8438C368.785 79.0977 368.227 79.7305 367.453 79.7305C367.023 79.7305 366.703 79.5742 366.488 79.2539C366.035 78.5313 365.812 77.7578 365.812 76.9258C365.812 76.3398 365.91 75.5273 366.125 74.4844C366.359 73.1992 366.789 71.7656 367.406 70.1602C367.641 69.5742 367.836 69.2812 367.973 69.2812C368.023 69.3008 368.051 69.3672 368.051 69.4766C368.051 69.6602 367.984 69.9453 367.848 70.3164C367.594 71.0898 367.219 72.5469 366.73 74.6875C366.516 75.8789 366.566 76.7891 366.887 77.4062C367.102 77.8359 367.406 78.0508 367.809 78.0508C368.039 78.0508 368.246 77.9609 368.414 77.7656C368.512 77.6289 368.656 77.4141 368.852 77.1211C368.949 76.8867 369.031 76.7695 369.09 76.7695C369.324 76.7695 369.352 77.1211 369.137 77.8438Z" fill="white"/>
<path d="M385.582 60.0156C385.582 60.1406 385.457 60.5156 385.18 61.1523C384.914 61.7773 384.695 62.1211 384.523 62.1641C376.906 64.7188 370.859 66.7773 366.391 68.3672C357.914 71.3281 351.855 73.6328 348.191 75.25C348.191 74.8477 348.348 74.3789 348.676 73.8672C348.988 73.3672 349.281 73.0391 349.531 72.8828C360.004 68.5078 372.016 64.2227 385.582 60.0156Z" fill="white"/>
<path d="M318.859 45.9258C318.859 46.0469 318.769 46.2734 318.589 46.6367C318.405 46.9844 318.3 47.1641 318.253 47.1641C317.757 47.0898 317.198 46.9219 316.562 46.6523C315.386 48.4922 312.952 50.4414 309.284 52.4805C308.98 52.6328 308.21 52.9492 306.972 53.4336C305.734 53.9023 305.085 54.1289 304.995 54.082C304.964 54.0078 305.597 53.5977 306.929 52.8438C311.487 50.4102 314.569 48.2812 316.14 46.4727C314.78 45.8516 314.085 45.1133 314.085 44.2344C314.085 43.7539 314.374 43.1484 314.964 42.4219C315.534 41.6992 316.093 41.3359 316.624 41.3359C317.288 41.3359 317.62 42.0742 317.62 43.5703C317.62 44.1445 317.53 44.7187 317.319 45.293C318.343 45.625 318.859 45.8359 318.859 45.9258ZM316.804 45.1133C317.136 43.707 316.925 42.9961 316.14 42.9961C315.444 42.9961 315.085 43.2852 315.085 43.875C315.085 44.2969 315.655 44.7031 316.804 45.1133Z" fill="white"/>
<path d="M363.93 42.3203C364.027 42.4336 364.027 42.8242 363.93 43.5039C363.867 43.7656 363.758 43.7773 363.586 43.5039C363.363 43.0977 363.07 42.8984 362.727 42.8984C362.227 42.8984 361.969 43.2422 361.969 43.9648C361.906 45.2656 361.848 46.8086 361.773 48.5859C361.934 48.5859 362.262 48.832 362.754 49.3242C363.242 49.8125 363.5 50.1328 363.535 50.2891C363.563 50.4922 363.535 50.7539 363.414 51.0703C363.305 51.375 363.219 51.5312 363.145 51.5312C362.445 51.6016 361.711 51.8203 360.953 52.1797C360.195 52.5273 359.824 52.875 359.863 53.207C361.102 60.2812 361.723 64.1484 361.723 64.7852C361.723 65.2617 361.676 65.5078 361.578 65.5078C361.516 65.4766 361.469 65.3477 361.43 65.1328C361.211 63.5586 360.816 61.293 360.281 58.3438C359.742 55.7461 359.473 54.1172 359.473 53.4375C359.473 52.6133 359.715 51.8789 360.23 51.2422C360.648 50.6953 361.16 50.3477 361.773 50.2305C361.613 50.0898 361.367 50 361.039 50C360.828 50 360.656 50.1602 360.523 50.4766C360.402 50.7969 360.305 50.9531 360.23 50.9531C360.203 50.9531 360.18 50.8672 360.18 50.6641C360.18 50.2617 360.281 49.8555 360.477 49.4258C360.695 48.875 360.965 48.5859 361.281 48.5859C361.258 48.3242 361.051 47.8047 360.672 47.0547C360.254 46.1602 359.887 45.5977 359.57 45.3828C359.508 45.6992 359.445 45.8711 359.371 45.8711C359.25 45.8711 358.906 45.6836 358.367 45.2812C357.828 44.8906 357.562 44.6172 357.562 44.457C357.562 43.3867 357.707 42.8398 358.027 42.8398C358.516 42.8398 359.078 43.1719 359.715 43.8516C360.414 44.6328 361 45.6719 361.48 46.9414V46.8828C361.48 46.2461 361.492 45.207 361.527 43.7344C361.652 42.2344 362.02 41.4844 362.629 41.4844C363.035 41.4844 363.465 41.7578 363.93 42.3203Z" fill="white"/>
<path d="M342.914 53.6797C342.914 56.0352 341.867 57.2305 339.75 57.2305C338.699 57.2305 338.164 56.5859 338.164 55.2617C338.164 53.8086 338.645 52.3711 339.602 50.9727C339.844 50.1602 340.043 49.7578 340.191 49.7578C340.34 49.7578 340.375 49.8516 340.266 50.0703C340.117 50.4023 340.043 50.7148 340.043 50.9727C341.957 52.1133 342.914 53.0156 342.914 53.6797ZM342.016 54.4336C342.016 54.3398 341.645 54.0273 340.91 53.4922C340.191 52.9805 339.805 52.7031 339.75 52.7031C339.656 52.7031 339.512 52.9414 339.324 53.457C339.16 53.9531 339.066 54.3047 339.066 54.5078C339.066 55.0586 339.344 55.3359 339.895 55.3359C340.137 55.3359 340.539 55.2266 341.129 55.0039C341.719 54.7812 342.016 54.582 342.016 54.4336Z" fill="white"/>
<path d="M239.535 122.047H408.434V120.547H239.535V122.047Z" fill="white"/>
<path d="M0.179688 122.047H169.078V120.547H0.179688V122.047Z" fill="white"/>
<path d="M182.16 117.652C181.781 116.273 181.105 114.719 179.254 114.719C177.609 114.719 176.832 115.879 176.832 117.051C176.832 118.566 177.848 119.297 179.637 120.164C181.5 121.074 183.438 122.09 183.438 124.453C183.438 126.758 181.473 128.59 178.477 128.59C177.566 128.59 176.832 128.43 176.273 128.238C175.719 128.062 175.41 127.887 175.188 127.785C175.039 127.359 174.719 125.406 174.586 124.363L175.246 124.172C175.613 125.539 176.687 127.785 178.934 127.785C180.531 127.785 181.473 126.801 181.473 125.258C181.473 123.703 180.297 122.969 178.621 122.09C177.098 121.324 174.996 120.254 174.996 117.891C174.996 115.746 176.73 113.969 179.594 113.969C180.637 113.969 181.617 114.219 182.441 114.484C182.527 115.246 182.633 116.129 182.824 117.535" fill="white"/>
<path d="M191.574 116.922H191.527C190.824 118.695 190.133 120.531 189.473 122.266H193.496L191.574 116.922ZM193.73 128.254V127.637C195.094 127.445 195.285 127.254 194.992 126.391C194.684 125.539 194.289 124.465 193.816 123.23H189.105C188.738 124.219 188.445 125.055 188.164 125.902C187.695 127.211 187.871 127.461 189.531 127.637V128.254H184.688V127.637C186.109 127.418 186.422 127.27 187.199 125.359L191.809 114.16L192.57 113.969C193.98 117.773 195.391 121.59 196.844 125.359C197.547 127.254 197.855 127.488 199.281 127.637V128.254" fill="white"/>
<path d="M212.902 128.258V127.641C214.68 127.465 214.77 127.32 214.738 125.059L214.664 116.441H214.578L209.203 128.125H208.766L203.816 116.734H203.758L203.434 122.766C203.348 124.543 203.348 125.453 203.391 126.305C203.434 127.32 203.949 127.465 205.402 127.613V128.258H200.246V127.613C201.512 127.492 201.938 127.187 202.113 126.336C202.23 125.586 202.363 124.66 202.539 122.355L202.863 118.039C203.055 115.25 202.922 115.133 200.953 114.941V114.297H204.695L209.672 124.852L214.723 114.297H218.57V114.941C216.648 115.102 216.516 115.176 216.59 117.305L216.793 125.059C216.867 127.32 216.926 127.465 218.836 127.641V128.258" fill="white"/>
<path d="M226.805 116.922H226.762C226.059 118.695 225.367 120.531 224.707 122.266H228.73L226.805 116.922ZM228.965 128.254V127.637C230.328 127.445 230.52 127.254 230.227 126.391C229.918 125.539 229.523 124.465 229.051 123.23H224.34C223.973 124.219 223.68 125.055 223.398 125.902C222.93 127.211 223.105 127.461 224.766 127.637V128.254H219.922V127.637C221.344 127.418 221.652 127.27 222.43 125.359L227.039 114.16L227.805 113.969C229.215 117.773 230.621 121.59 232.078 125.359C232.781 127.254 233.09 127.488 234.516 127.637V128.254" fill="white"/>
<path d="M18.1719 146.246C17.2578 142.934 15.6367 139.199 11.1992 139.199C7.25391 139.199 5.38672 141.98 5.38672 144.801C5.38672 148.43 7.81641 150.188 12.1133 152.266C16.5859 154.449 21.2344 156.879 21.2344 162.551C21.2344 168.078 16.5156 172.48 9.33203 172.48C7.14844 172.48 5.38672 172.094 4.05078 171.637C2.71094 171.215 1.97266 170.789 1.44531 170.543C1.09375 169.523 0.316406 164.84 0 162.34L1.58594 161.883C2.46484 165.156 5.03516 170.543 10.4258 170.543C14.2617 170.543 16.5156 168.184 16.5156 164.488C16.5156 160.754 13.6992 158.992 9.68359 156.879C6.02344 155.047 0.984375 152.477 0.984375 146.809C0.984375 141.668 5.14063 137.406 12.0078 137.406C14.5078 137.406 16.8672 138.004 18.8398 138.637C19.0508 140.469 19.3008 142.582 19.7578 145.961" fill="white"/>
<path d="M37.543 159.348C36.4844 159.879 34.3711 160.863 33.2812 161.355C31.2383 162.238 30.1133 163.258 30.1133 165.16C30.1133 167.871 32.1562 169.07 33.7031 169.07C34.9375 169.07 36.6289 168.293 37.543 167.379V159.348ZM41.6641 172.273C40.6758 172.273 39.5508 171.816 38.9883 171.254C38.2813 170.582 37.9648 169.879 37.7188 169.07C35.6055 170.406 33.1406 172.273 31.6602 172.273C27.7539 172.273 25.1836 169.176 25.1836 165.934C25.1836 163.363 26.5898 161.812 29.4453 160.898C32.7891 159.844 36.4141 158.504 37.543 157.555V156.637C37.543 152.941 35.8516 150.969 33.3516 150.969C32.4375 150.969 31.6602 151.32 31.1328 151.883C30.4648 152.551 30.0078 153.715 29.5469 155.371C29.2305 156.285 28.668 156.637 27.8594 156.637C26.8359 156.637 25.4648 155.582 25.4648 154.348C25.4648 153.574 26.1328 152.941 27.1562 152.234C28.668 151.145 32.2266 149.172 35.1484 148.609C36.8047 148.609 38.3164 148.996 39.5156 149.91C41.4531 151.531 42.0156 153.68 42.0156 156.426V165.688C42.0156 167.977 42.9297 168.754 43.8828 168.754C44.4805 168.754 45.1836 168.504 45.75 168.188L46.2773 169.562" fill="white"/>
<path d="M73.1836 170.445C71.9883 170.59 70.5078 170.906 69.0625 171.258C67.6211 171.645 66.2109 171.996 65.1211 172.277L64.7695 171.996V168.332C63.5703 169.215 62.5469 170.094 61.0703 170.973C59.5195 171.82 58.3945 172.277 56.9141 172.277C53.25 172.277 50.293 170.094 50.293 164.566V154.738C50.293 151.922 49.8711 151.676 48.5312 151.359L47.125 151.008V149.773C48.1797 149.738 49.5898 149.562 51.0664 149.422C52.5469 149.246 54.0977 149 55.0117 148.859C54.8711 150.441 54.8711 152.91 54.8711 156.324V163.262C54.8711 167.559 57.0547 168.898 59.3789 168.898C61.2109 168.898 63.0781 168.191 64.7695 166.609V154.738C64.7695 151.922 64.3086 151.605 62.6211 151.324L60.7539 151.008V149.773C62.2305 149.738 64.0977 149.562 65.6836 149.352C67.2305 149.246 68.5 149 69.3086 148.859V165.832C69.3086 168.512 69.7344 168.863 71.7773 169.004L73.1836 169.074" fill="white"/>
<path d="M93.9023 153.254C92.6367 151.457 90.5937 150.578 88.5859 150.578C86.3672 150.578 82 152.441 82 159.906C82 166.07 85.9102 168.891 89.1484 168.891C90.875 168.891 92.6367 168.113 93.9023 167.27V153.254ZM102.426 170.332C101.301 170.543 97.2148 171.215 93.9023 172.27V168.961L90.8047 170.789C88.7266 171.988 87.3516 172.27 86.7891 172.27C82.4219 172.27 76.8242 168.535 76.8242 161.316C76.8242 154.168 83.2305 148.605 90.5234 148.605C91.2617 148.605 92.6367 148.746 93.9023 149.168V141.914C93.9023 138.566 93.5508 138.426 89.8516 138.18V136.84C92.7773 136.488 96.3672 135.715 98.4453 135.047V165.578C98.4453 168.398 98.832 168.645 100.945 168.855L102.426 168.996" fill="white"/>
<path d="M107.172 141.457C107.172 139.805 108.508 138.57 110.059 138.57C111.609 138.57 112.805 139.805 112.805 141.457C112.805 142.937 111.609 144.242 109.988 144.242C108.508 144.242 107.172 142.937 107.172 141.457ZM104.426 171.676V170.301C107.699 169.984 108.086 169.668 108.086 166.074V155.723C108.086 152.48 107.91 152.234 104.812 151.707V150.473C107.629 150.02 110.27 149.418 112.629 148.504V166.074C112.629 169.633 112.98 169.914 116.328 170.301V171.676" fill="white"/>
<path d="M158.457 162.836C157.754 165.301 156.309 169.352 155.395 171.008C153.844 171.355 149.195 172.484 145.285 172.484C131.691 172.484 125.637 163.504 125.637 155.371C125.637 144.523 134.402 137.406 146.625 137.406C151.133 137.406 154.937 138.641 156.414 138.887C156.84 141.812 157.227 144.027 157.543 146.953L155.957 147.305C154.516 141.602 150.992 139.348 145.25 139.348C136.27 139.348 131.48 146.602 131.48 154.277C131.48 163.996 137.434 170.477 145.711 170.477C151.168 170.477 154.16 167.555 156.941 162.234" fill="white"/>
<path d="M172.441 150.547C170.188 150.547 167.934 152.555 167.195 156.852C169.977 156.852 172.758 156.852 175.68 156.746C176.598 156.711 176.914 156.43 176.914 155.762C176.914 153.051 175.223 150.547 172.477 150.547H172.441ZM181.527 167.102C178.148 171.359 174.379 172.277 172.688 172.277C166.242 172.277 162.441 167.102 162.441 161.359C162.441 157.945 163.672 154.844 165.785 152.555C168.039 150.09 170.891 148.609 173.676 148.609H173.711C178.184 148.609 181.738 152.449 181.738 156.535C181.738 157.523 181.457 157.98 180.508 158.191C179.555 158.332 173.004 158.859 166.945 159.07C167.055 165.727 170.961 168.543 174.59 168.543C176.738 168.543 178.746 167.734 180.648 165.973" fill="white"/>
<path d="M200.906 171.68V170.305C203.898 169.988 204.254 169.566 204.254 165.938V157.559C204.254 153.965 202.809 151.816 199.602 151.816C197.629 151.816 195.691 153.051 194.109 154.352V166.254C194.109 169.777 194.391 169.988 197.422 170.305V171.68H185.797V170.305C189.285 169.883 189.566 169.637 189.566 166.184V155.832C189.566 152.484 189.215 152.277 186.465 151.781V150.477C188.969 150.09 191.68 149.422 194.109 148.438V152.59C195.164 151.816 196.293 151.008 197.629 150.125C199.109 149.176 200.414 148.613 201.965 148.613C206.117 148.613 208.758 151.535 208.758 156.641V166.254C208.758 169.777 209.074 169.918 212.105 170.305V171.68" fill="white"/>
<path d="M225.688 171.57C224.738 172.098 223.93 172.273 223.469 172.273C219.984 172.273 218.047 170.301 218.047 166.145V151.355H214.488L214.242 150.758L215.688 149.207H218.047V145.473L221.887 141.883L222.59 142.023V149.207H228.438C228.965 149.77 228.789 150.898 228.086 151.355H222.59V164.348C222.59 168.508 224.387 169.211 225.688 169.211C226.922 169.211 228.086 168.715 228.859 168.328L229.316 169.738" fill="white"/>
<path d="M242.555 154.176C244.281 151.359 246.43 148.613 248.859 148.613C250.762 148.613 252.027 149.984 252.027 151.254C252.027 152.449 251.324 153.508 250.195 154.035C249.562 154.281 249.105 154.176 248.785 153.895C247.977 153.156 247.379 152.84 246.496 152.84C245.16 152.84 243.574 154.352 242.449 157.098V166.289C242.449 169.672 242.695 169.988 246.781 170.305V171.68H234.277V170.305C237.449 169.988 237.906 169.672 237.906 166.289V155.621C237.906 152.344 237.625 152.133 234.699 151.711V150.547C237.309 150.125 239.773 149.527 242.449 148.438V154.176" fill="white"/>
<path d="M268.051 159.348C266.992 159.879 264.883 160.863 263.789 161.355C261.746 162.238 260.621 163.258 260.621 165.16C260.621 167.871 262.664 169.07 264.211 169.07C265.445 169.07 267.137 168.293 268.051 167.379V159.348ZM272.172 172.273C271.184 172.273 270.059 171.816 269.496 171.254C268.789 170.582 268.473 169.879 268.227 169.07C266.113 170.406 263.648 172.273 262.172 172.273C258.262 172.273 255.688 169.176 255.688 165.934C255.688 163.363 257.098 161.812 259.949 160.898C263.297 159.844 266.922 158.504 268.051 157.555V156.637C268.051 152.941 266.359 150.969 263.859 150.969C262.945 150.969 262.172 151.32 261.641 151.883C260.973 152.551 260.516 153.715 260.055 155.371C259.738 156.285 259.176 156.637 258.367 156.637C257.344 156.637 255.973 155.582 255.973 154.348C255.973 153.574 256.641 152.941 257.66 152.234C259.176 151.145 262.73 149.172 265.656 148.609C267.312 148.609 268.824 148.996 270.023 149.91C271.961 151.531 272.523 153.68 272.523 156.426V165.688C272.523 167.977 273.438 168.754 274.391 168.754C274.988 168.754 275.691 168.504 276.258 168.188L276.785 169.562" fill="white"/>
<path d="M277.281 171.672V170.297C280.555 169.91 281.012 169.629 281.012 166.176V142.02C281.012 138.531 280.66 138.426 277.422 138.109V136.84C280.238 136.523 283.617 135.645 285.52 135.047V166.176C285.52 169.664 285.98 169.98 289.395 170.297V171.672" fill="white"/>
<path d="M308.77 165.059C308.77 168.898 309.789 169.883 313.102 169.848C317.223 169.777 320.957 167.664 320.957 162.348C320.957 157.168 317.363 154.809 310.953 154.809H308.77V165.059ZM311.059 153.016C316.766 153.016 319.16 150.793 319.16 146.535C319.16 142.836 317.082 139.914 312.289 139.914C311.023 139.914 309.828 140.195 309.367 140.547C308.91 140.863 308.77 141.461 308.77 143.047V153.016H311.059ZM317.117 153.684C322.504 154.387 326.625 156.641 326.625 161.816C326.625 165.27 324.723 167.945 321.625 169.637C318.914 171.082 315.32 171.68 311.129 171.68H299.016V170.199C303.523 169.883 303.875 169.531 303.875 165.199V144.738C303.875 140.336 303.629 140.02 299.473 139.738V138.188H313.418C317.434 138.188 319.723 138.785 321.484 139.984C323.316 141.215 324.441 143.469 324.441 145.863C324.441 150.762 320.18 152.766 317.117 153.508" fill="white"/>
<path d="M343.461 159.348C342.402 159.879 340.289 160.863 339.199 161.355C337.156 162.238 336.027 163.258 336.027 165.16C336.027 167.871 338.07 169.07 339.621 169.07C340.855 169.07 342.547 168.293 343.461 167.379V159.348ZM347.582 172.273C346.594 172.273 345.469 171.816 344.902 171.254C344.199 170.582 343.883 169.879 343.637 169.07C341.523 170.406 339.059 172.273 337.578 172.273C333.672 172.273 331.098 169.176 331.098 165.934C331.098 163.363 332.508 161.812 335.359 160.898C338.707 159.844 342.332 158.504 343.461 157.555V156.637C343.461 152.941 341.77 150.969 339.27 150.969C338.355 150.969 337.578 151.32 337.051 151.883C336.383 152.551 335.926 153.715 335.465 155.371C335.148 156.285 334.586 156.637 333.773 156.637C332.754 156.637 331.383 155.582 331.383 154.348C331.383 153.574 332.051 152.941 333.07 152.234C334.586 151.145 338.145 149.172 341.066 148.609C342.723 148.609 344.234 148.996 345.434 149.91C347.367 151.531 347.934 153.68 347.934 156.426V165.688C347.934 167.977 348.848 168.754 349.801 168.754C350.398 168.754 351.102 168.504 351.664 168.188L352.195 169.562" fill="white"/>
<path d="M368.68 171.68V170.305C371.672 169.988 372.023 169.566 372.023 165.938V157.559C372.023 153.965 370.578 151.816 367.375 151.816C365.402 151.816 363.465 153.051 361.883 154.352V166.254C361.883 169.777 362.16 169.988 365.191 170.305V171.68H353.57V170.305C357.055 169.883 357.336 169.637 357.336 166.184V155.832C357.336 152.484 356.984 152.277 354.238 151.781V150.477C356.738 150.09 359.449 149.422 361.883 148.438V152.59C362.937 151.816 364.062 151.008 365.402 150.125C366.883 149.176 368.184 148.613 369.734 148.613C373.891 148.613 376.531 151.535 376.531 156.641V166.254C376.531 169.777 376.848 169.918 379.875 170.305V171.68" fill="white"/>
<path d="M401.008 171.777C398.613 169.172 395.34 164.91 392.594 161.633C391.957 160.859 391.535 160.578 391.078 160.578C390.867 160.543 390.617 160.578 390.305 160.648V166.246C390.305 169.664 390.762 169.91 394.105 170.297V171.672H381.992V170.297C385.477 169.91 385.828 169.559 385.828 166.246V142.02C385.828 138.672 385.512 138.391 382.344 138.074V136.84C384.809 136.594 387.98 135.75 390.305 135.047V159.309C391.852 158.992 392.695 158.289 393.543 157.516C394.672 156.422 396.254 154.344 397.137 153.008C398.191 151.457 397.98 151.035 395.586 150.754V149.344L406.574 148.887V150.223C403.016 150.789 401.68 151.352 399.672 153.215C398.297 154.52 397.418 155.508 395.27 157.973C396.359 159.555 401.781 165.719 403.438 167.48C405.234 169.348 406.715 170.191 408.613 170.297V171.672" fill="white"/>
<path d="M514.559 138.527H512.703C512.762 136.141 514.559 136.25 514.559 136.25V138.527ZM518.246 125.484C516.539 126.785 514.824 128.082 512.953 129.133C513.395 129.637 513.863 130.141 514.32 130.645C514.32 131.219 514.324 131.801 514.336 132.383C512.828 132.945 511.012 133.312 510.133 134.801C508.922 136.84 509.352 139.301 509.234 141.555C512.242 141.562 515.242 141.578 518.25 141.551C518.227 136.191 518.156 130.84 518.246 125.484Z" fill="white"/>
<path d="M561.398 138.913C560.473 138.913 559.723 138.163 559.723 137.238C559.723 136.312 560.473 135.562 561.398 135.562C562.324 135.562 563.074 136.312 563.074 137.238C563.074 138.163 562.324 138.913 561.398 138.913ZM566.383 135.96C565.445 134.195 564 132.187 561.773 132.23C560.07 132.089 558.68 133.323 557.68 134.55C556.391 136.636 556.098 139.179 556.418 141.57C558.148 141.98 560.062 141.511 561.867 141.777C561.223 144.675 557.902 145.097 555.434 144.773C555.469 145.031 555.539 145.55 555.574 145.808C556.922 146.363 558.316 146.851 559.773 147.046C565.031 147.073 568.871 140.57 566.383 135.96Z" fill="white"/>
<path d="M542.676 128.625H538.898L547.324 137.824H539.809V137.742C539.816 137.402 539.777 137.074 539.719 136.754C539.727 136.844 539.738 136.934 539.738 137.023L539.688 136.664C539.695 136.691 539.707 136.723 539.719 136.754C539.695 136.625 539.695 136.504 539.676 136.383C539.367 134.203 537.527 132.535 535.277 132.492C535.258 132.48 535.227 132.48 535.195 132.48H525.758C525.258 132.023 524.746 131.555 524.246 131.113C523.195 132.98 521.898 134.703 520.598 136.402C521.438 136.395 522.535 136.383 523.777 136.375C524.426 136.375 525.098 136.363 525.824 136.363H535.316V137.824H520.598V141.547H523.324C531.523 141.594 542.273 141.543 550.75 141.551L551.898 142.824H555.648L544.277 129.363C543.875 128.895 543.285 128.625 542.676 128.625Z" fill="white"/>
<path d="M561.844 88.1055H558.934V86.1953L559.734 85.1953H561.043L561.844 86.1953V88.1055ZM565.531 85.1523C565.273 84.3672 564.625 83.8086 564.219 83.1094C564.652 82.1133 565.77 81.3906 565.637 80.1797C565.633 79.5625 565.625 78.9453 565.621 78.332C565.645 76.1523 565.602 73.9727 565.617 71.793C565.621 71.1914 565.621 70.5938 565.641 70C565.805 69.9141 566.039 69.7969 566.285 69.6719C566.438 69.5938 566.59 69.5195 566.738 69.4453C566.773 69.4258 566.809 69.4102 566.84 69.3906C566.949 69.3359 567.051 69.2852 567.129 69.2461C566.605 68.8477 566.113 68.4102 565.645 67.957C565.23 67.5625 564.836 67.1484 564.445 66.7305C564.168 66.4336 563.891 66.1328 563.613 65.832C563.41 65.6055 563.203 65.3828 562.996 65.1641C562.594 64.7305 562.187 64.3008 561.762 63.8906C561.742 65.5508 561.73 67.2148 561.719 68.8789C561.723 69.8477 561.727 70.8203 561.727 71.793C561.73 73.0937 561.734 74.3945 561.73 75.6953C561.703 76.5898 561.77 77.582 561.73 78.5508C561.699 79.3164 561.605 80.0664 561.34 80.7422C561.219 80.75 561.07 80.75 560.914 80.7461H560.895C560.73 80.7422 560.555 80.7383 560.391 80.7383V80.7461C559.922 80.75 559.531 80.7461 559.438 80.7422C559.172 80.0664 559.078 79.3164 559.047 78.5508C559.008 77.582 559.074 76.5898 559.047 75.6953C559.043 74.3945 559.047 73.0937 559.051 71.793C559.051 70.8203 559.055 69.8477 559.059 68.8789C559.047 67.2148 559.031 65.5508 559.016 63.8906C558.59 64.3008 558.184 64.7305 557.781 65.1641C557.574 65.3828 557.367 65.6055 557.164 65.832C556.887 66.1328 556.609 66.4336 556.332 66.7305C555.941 67.1484 555.547 67.5625 555.133 67.957C554.664 68.4102 554.172 68.8477 553.648 69.2461C553.727 69.2852 553.828 69.3359 553.938 69.3906C553.969 69.4102 554.004 69.4258 554.039 69.4453C554.187 69.5195 554.34 69.5938 554.492 69.6719C554.734 69.7969 554.973 69.9141 555.137 70C555.152 70.5938 555.156 71.1914 555.16 71.793C555.176 73.9727 555.133 76.1523 555.156 78.332C555.152 78.9453 555.145 79.5625 555.141 80.1797C555.008 81.3906 556.121 82.1133 556.559 83.1094C556.152 83.8086 555.504 84.3672 555.246 85.1523C555.07 87.3008 555.254 89.457 555.137 91.6055H565.641C565.523 89.457 565.703 87.3008 565.531 85.1523Z" fill="white"/>
<path d="M548.734 72.2227C548.554 70.8672 549.831 70.1016 550.573 69.1797C549.195 68.4492 547.784 67.6172 546.96 66.2539C546.405 65.3047 545.695 64.4727 544.804 63.8438C544.843 73.0977 544.726 82.3555 544.866 91.6055H548.769C548.765 85.1445 548.71 78.6836 548.734 72.2227Z" fill="white"/>
<path d="M512.75 87.8398C512.758 87.8203 512.766 87.7969 512.773 87.7773C512.981 85.7305 514.606 85.8242 514.606 85.8242V88.1016H512.75C512.754 88.0078 512.762 87.9258 512.77 87.8359C512.766 87.8398 512.758 87.8398 512.75 87.8398ZM541.223 91.6016C541.363 85.0859 541.145 77.7344 541.188 71.2969C541.004 70.0781 542.031 69.3555 542.781 68.6055C540.481 67.4727 539.379 65.0391 537.356 63.5781C537.395 71.5938 537.41 79.6172 537.332 87.6406C530.953 87.6055 524.582 87.6289 518.215 87.7305C518.301 83.543 518.16 79.3555 518.262 75.1602C516.574 76.5313 514.711 77.6328 512.871 78.7656C513.379 79.2656 513.902 79.7578 514.438 80.2422C514.41 80.8945 514.371 81.5508 514.305 82.207C512.914 82.8438 511.234 83.1953 510.293 84.5195C508.992 86.293 509.289 89.3047 509.301 91.6016" fill="white"/>
<path d="M554.715 119.09H551.801V117.176L552.602 116.176H553.914L554.715 117.176V119.09ZM558.402 116.133C558.141 115.352 557.492 114.793 557.09 114.094C557.523 113.098 558.641 112.375 558.504 111.164C558.504 110.547 558.492 109.93 558.488 109.312C558.516 107.133 558.473 104.953 558.484 102.773C558.488 102.176 558.492 101.578 558.508 100.98C558.672 100.898 558.91 100.777 559.152 100.656C559.309 100.578 559.461 100.5 559.605 100.43C559.641 100.41 559.676 100.391 559.711 100.375C559.816 100.32 559.918 100.27 560 100.23C559.473 99.832 558.984 99.3945 558.512 98.9414C558.102 98.5469 557.703 98.1328 557.316 97.7148C557.035 97.4141 556.758 97.1133 556.484 96.8125C556.277 96.5898 556.07 96.3672 555.863 96.1445C555.461 95.7148 555.055 95.2852 554.629 94.875C554.613 96.5352 554.602 98.1992 554.586 99.8594C554.59 100.832 554.594 101.805 554.598 102.773C554.598 104.074 554.602 105.379 554.602 106.68C554.574 107.574 554.637 108.566 554.598 109.531C554.566 110.297 554.473 111.051 554.207 111.727C554.09 111.73 553.941 111.73 553.785 111.73H553.762C553.598 111.727 553.426 111.723 553.258 111.719V111.73C552.789 111.73 552.398 111.73 552.309 111.727C552.039 111.051 551.945 110.297 551.914 109.531C551.879 108.566 551.941 107.574 551.914 106.68C551.91 105.379 551.914 104.074 551.918 102.773C551.922 101.805 551.922 100.832 551.93 99.8594C551.914 98.1992 551.902 96.5352 551.887 94.875C551.461 95.2852 551.055 95.7148 550.648 96.1445C550.441 96.3672 550.234 96.5898 550.031 96.8125C549.758 97.1133 549.48 97.4141 549.199 97.7148C548.809 98.1328 548.414 98.5469 548.004 98.9414C547.531 99.3945 547.043 99.832 546.516 100.23C546.598 100.27 546.699 100.32 546.805 100.375C546.84 100.391 546.871 100.41 546.91 100.43C547.055 100.5 547.207 100.578 547.359 100.656C547.605 100.777 547.84 100.898 548.008 100.98C548.023 101.578 548.023 102.176 548.027 102.773C548.043 104.953 548 107.133 548.023 109.312C548.02 109.93 548.012 110.547 548.012 111.164C547.875 112.375 548.992 113.098 549.426 114.094C549.023 114.793 548.371 115.352 548.113 116.133C547.941 118.285 548.121 120.441 548.004 122.59H558.512C558.391 120.441 558.574 118.285 558.402 116.133Z" fill="white"/>
<path d="M541.512 103.094C541.379 101.977 542.379 101.352 543.113 100.73C543.199 100.57 543.371 100.246 543.461 100.086C540.695 99.3477 539.895 96.2969 537.586 95C537.641 104.195 537.91 113.387 537.703 122.586H541.598C541.652 116.09 541.664 109.59 541.512 103.094Z" fill="white"/>
<path d="M565.227 103.207C565.047 101.852 566.325 101.086 567.067 100.164C565.692 99.4336 564.278 98.6016 563.454 97.2344C562.899 96.2891 562.192 95.457 561.297 94.8281C561.336 104.082 561.219 113.34 561.364 122.59H565.262C565.262 116.129 565.204 109.668 565.227 103.207Z" fill="white"/>
<path d="M514.651 119.352H512.796C512.855 116.965 514.651 117.078 514.651 117.078V119.352ZM532.46 97.2461C531.89 96.25 531.222 95.3203 530.362 94.5625C530.269 95.4453 530.218 96.332 530.253 97.2227C530.437 104.449 530.144 111.676 530.304 118.902C528.64 118.902 526.972 118.957 525.319 118.938C525.366 113.516 525.273 108.094 525.323 102.672C525.148 101.496 526.237 100.789 526.89 99.9844C524.679 98.6797 523.296 96.5 521.433 94.8086C521.593 102.848 521.558 110.895 521.433 118.934C520.386 118.945 519.339 118.961 518.304 118.973C518.339 114.754 518.339 110.539 518.284 106.324C516.593 107.641 514.894 108.93 513.023 109.984C514.226 110.801 514.624 112.063 514.48 113.477C512.968 114.027 511.222 114.434 510.28 115.867C508.987 117.863 509.401 120.336 509.359 122.586H533.687C533.812 122.586 533.933 122.586 534.058 122.582C533.937 117.457 533.753 112.328 533.999 107.195C534.089 105.41 533.628 103.582 534.14 101.828C534.519 101.062 535.234 100.543 535.808 99.9219C534.612 99.1484 533.175 98.543 532.46 97.2461Z" fill="white"/>
<path d="M456.219 68.1328C459.992 59.4297 464.969 51.1953 471.324 44.125C472.461 44.5547 473.234 45.5625 474.094 46.3789C472.777 48.2773 470.883 49.7148 469.82 51.8086C467.41 54.6797 465.742 58.0586 463.695 61.1836C462.699 63.0664 461.773 64.9961 460.871 66.9336C462.047 67.5273 464.051 68.3711 464.805 66.7422C467.312 61.4062 470.496 56.4023 474.219 51.8359C474.949 50.7812 475.629 49.6289 476.766 48.9453C477.219 50.9883 477.969 52.957 478.992 54.7812C477.898 54.9297 476.535 54.4062 475.664 55.2578C472.098 59.5586 469.621 64.582 466.957 69.4531C466.344 70.8945 464.668 71.4453 463.219 71.1094C460.598 70.9102 458.602 69.0273 456.219 68.1328Z" fill="white"/>
<path d="M505.742 19.9805C507.504 19.1406 509.379 18.5938 511.215 17.9375C513.024 20.9688 511.168 24.2187 510.008 27.082C512.844 29.5742 516.973 30.8984 518.336 34.7617C519.711 38.2227 516.633 41.0625 515.785 44.2109C511.328 40.6367 506.477 37.6211 501.863 34.2461C500.848 33.3594 499.75 34.8516 498.711 35.0586C497.801 34.5195 497.059 33.75 496.36 32.9844C496.223 33.0547 495.938 33.1992 495.797 33.2734C497.762 32.0977 499.539 30.5664 501.715 29.7617C503.82 30.4805 505.047 32.582 507.012 33.5781C509.606 35.0312 511.746 37.9062 514.969 37.8203C514.731 36.5 514.438 35.1016 513.481 34.0938C510.985 31.8008 508.02 30.1133 505.117 28.4023C505.715 26.6797 507.106 25.2812 507.188 23.3555C503.485 25.1836 499.531 26.5508 496.125 28.9258C493.024 30.5117 490.371 32.7773 487.438 34.625C486.285 35.4375 485.383 36.543 484.246 37.3672C481.926 38.957 480.227 41.2656 477.942 42.8906C477.52 41.7305 476.113 40.4766 476.617 39.2461C482.621 33.4922 489.227 28.2773 496.598 24.375C499.438 22.4922 502.727 21.5117 505.742 19.9805Z" fill="white"/>
<path d="M500.917 160.238C501.992 159.016 502.238 156.973 503.804 156.281C504.534 158.793 504.851 161.41 505.675 163.902C504.695 164.262 503.558 164.352 502.73 165.008C499.663 169.945 496.515 174.848 493.507 179.82C492.425 180.141 491.363 179.176 490.409 178.742C489.492 178.344 490.195 177.332 490.562 176.793C492.312 174.367 493.8 171.777 495.253 169.168C497.281 166.277 498.702 163.008 500.917 160.238Z" fill="white"/>
<path d="M457.215 78.8047C458.582 78.8047 459.692 79.9141 459.692 81.2812C459.692 82.6484 458.582 83.7578 457.215 83.7578C455.848 83.7578 454.739 82.6484 454.739 81.2812C454.739 79.9141 455.848 78.8047 457.215 78.8047ZM496.575 150.074C496.41 150.102 496.09 150.16 495.926 150.188C492.102 156.508 487.84 162.559 484.055 168.906C483.168 169.062 482.578 168.332 481.989 167.824C479.446 165.398 476.75 163.121 474.516 160.402C477.024 158.457 479.27 156.199 481.985 154.535C480.664 153.563 479.172 152.859 477.848 151.906C476.797 154.504 474.078 155.73 472.133 157.555C470.063 154.988 467.864 152.449 466.403 149.48C469.102 148.129 471.426 146.172 474.172 144.91C474.168 144.762 474.157 144.457 474.153 144.309C473.078 143.285 471.934 142.363 470.879 141.336C469.348 143.742 466.657 144.902 464.203 146.129C462.539 143.75 461.778 140.883 460.106 138.516C460.239 138.359 460.5 138.063 460.637 137.91C463.551 136.891 466.301 135.488 469.114 134.211C467.801 133.203 466.696 131.988 465.782 130.617C464.145 132.965 461.176 133.629 458.68 134.68C455.938 128.125 454.344 121.156 453.512 114.105C456.817 114.691 459.489 116.781 462.539 118.004C462.36 116.469 462.297 114.922 462.016 113.406C460.086 112.484 457.918 111.969 455.891 111.238C457.723 110.066 459.797 109.398 461.785 108.551C461.735 106.867 461.653 105.187 461.473 103.512C459.883 104.285 458.782 105.727 457.262 106.594C455.828 107.422 454.399 108.23 452.969 109.047C452.563 106.117 452.645 103.156 452.707 100.203C452.664 95.7539 453.836 91.4375 454.258 87.0312C456.618 87.0742 459.196 87.0781 461.106 85.4609C462.438 84.2578 463.996 83.3516 465.332 82.1523C464.625 82.0625 463.922 81.9883 463.223 81.9297C462.371 80.0859 461.719 77.9023 459.84 76.8281C458.653 76.0352 457.051 75.5234 455.625 75.7812C454.965 75.8984 454.34 76.1641 453.817 76.6758C452.274 77.7148 451.996 79.6758 451.575 81.3398C451.493 81.3008 451.403 81.2617 451.321 81.2227C450.231 80.7227 449.051 80.2187 448.512 79.0742C447.403 77.1211 448.196 74.8438 448.164 72.75C446.118 74.8203 444.477 77.9688 445.743 80.8789C446.422 83.1289 448.493 84.3555 450.289 85.6523C449.114 91.418 448.493 97.3867 448.493 103.5C448.493 132.836 462.75 158.836 484.711 174.961L485.141 174.285C485.215 174.195 485.282 174.098 485.336 173.98C485.586 173.578 485.84 173.184 486.09 172.781C489.141 167.906 492.313 163.105 495.368 158.23C495.957 157.328 497.168 157.332 498.078 156.922C497.66 154.617 497.118 152.348 496.575 150.074Z" fill="white"/>
<path d="M617.086 134.758C615.922 136.328 617.441 137.977 618.762 138.789C619.687 138.5 620.867 138.625 621.586 137.844C622.516 137.137 622.367 135.793 622.121 134.797C621.215 132.758 618.027 132.742 617.086 134.758ZM599.176 119.047C600.754 117.414 602.398 115.844 604.012 114.234C605.293 114.781 606.344 115.973 607.871 115.844C614.137 115.836 620.371 116.66 626.648 116.637C626.141 121.574 624.902 126.395 623.246 131.066C624.309 132.199 625.703 133.34 625.703 135.039C626.027 137.168 625.234 139.379 623.57 140.75C622.301 141.988 620.434 141.988 618.805 142.336C617.727 145.051 616.004 147.441 614.637 150.012C616.406 151.605 618.891 152.922 619.27 155.504C619.43 157.559 618.539 160.227 616.332 160.789C616.254 159.508 616.312 158.219 616.293 156.934C614.312 154.883 611.77 153.48 609.211 152.293C608.016 151.652 606.648 151.668 605.348 151.672C605.418 149.566 605.363 147.457 605.059 145.367C607.039 146.359 608.832 147.738 610.949 148.469C612.773 146.258 614.008 143.547 615.367 141.008C613.34 138.656 612.355 134.859 614.559 132.293C615.664 130.344 617.945 129.832 619.965 129.402C620.953 126.48 621.746 123.504 622.363 120.477C618.566 119.82 614.723 119.613 610.887 119.391C606.996 118.949 603.078 118.957 599.176 119.047Z" fill="white"/>
<path d="M510.023 167.852C511.516 164.777 515.336 164.887 517.91 163.219C518.352 165.395 518.637 167.613 519.395 169.711C520.582 173.246 521.074 176.973 522.23 180.516C523.023 180.781 524.301 180.328 524.816 181.207C525.215 182.238 525.293 183.363 525.523 184.445C523.266 184.195 521.066 183.629 518.828 183.277C517.75 178.371 517.234 173.25 515.078 168.66C514.793 168.684 514.23 168.73 513.949 168.75C512.414 171.527 513.418 174.652 514.199 177.484C514.652 179.109 515.074 180.746 515.629 182.34C514.125 182.66 512.676 183.16 511.277 183.797C511.277 184 511.273 184.414 511.273 184.621C516.59 186.668 522.266 187.516 527.875 188.332C533.848 188.824 539.871 189.246 545.855 188.539C545.582 189.832 545.219 191.102 544.824 192.363C538.078 192.828 531.266 192.652 524.59 191.566C517.555 190.848 510.914 188.359 504.273 186.09C504.84 182.648 508.328 181.32 510.914 179.645C510.289 175.789 508.316 171.695 510.023 167.852Z" fill="white"/>
<path d="M600.301 111.277C602.477 109.535 604.121 107.199 606.5 105.703C607.48 106.262 608.168 107.414 609.352 107.562C615.383 107.82 621.449 107.691 627.461 108.301C627.414 109.508 627.348 110.711 627.281 111.914C618.285 111.805 609.289 111.449 600.301 111.277Z" fill="white"/>
<path d="M598.633 155.222C600.387 154.147 602.637 154.593 604.16 155.866C605.57 156.874 606.988 157.991 607.84 159.546C605.109 163.366 601.562 166.511 598.262 169.823C592.605 174.839 586.34 179.144 579.68 182.71C575.762 184.44 571.977 186.519 567.832 187.683C564.094 188.71 560.488 190.28 556.609 190.741C556.766 192.827 557.512 195.214 556.199 197.085C555.035 198.233 553.289 198.491 551.734 198.222C552.297 197.605 552.937 196.999 553.289 196.222C553.687 193.913 552.848 191.644 552.434 189.397C552.047 187.675 550.93 186.269 549.758 185.015C551.488 183.897 552.82 182.323 554.176 180.8C554.77 182.94 555.418 185.073 555.836 187.257C560.996 186.269 565.883 184.351 570.844 182.671C581.66 178.05 591.723 171.519 599.879 162.991C600.941 161.741 602.117 160.577 603.418 159.565C602.508 158.812 601.398 157.651 600.102 158.265C599 158.956 598.156 159.976 597.191 160.827C591.699 166.589 585.203 171.327 578.312 175.28C576.176 176.308 574.055 177.374 571.941 178.44C569.305 179.745 566.383 180.292 563.746 181.569C563.059 181.855 562.312 181.929 561.609 182.081C563.465 179.659 564.559 176.792 566.199 174.23C567.363 172.276 568.137 170.101 569.383 168.187C569.359 171.206 567.887 173.913 567.055 176.749C576.633 173.163 585.363 167.433 592.77 160.401C594.883 158.843 596.09 156.226 598.633 155.222Z" fill="white"/>
<path d="M552.02 174.855C552.02 173.648 551.039 172.672 549.836 172.672C548.629 172.672 547.648 173.648 547.648 174.855C547.648 176.062 548.629 177.039 549.836 177.039C551.039 177.039 552.02 176.062 552.02 174.855Z" fill="white"/>
<path d="M565 17.9844C566.305 18.332 567.586 18.7734 568.879 19.1719C567.508 24.3594 565.539 29.3398 564.184 34.5234C563.414 37.8945 561.75 40.9648 561.031 44.3477C559.723 41.9727 558.477 39.5508 557.246 37.1406C558.164 36.3828 559.352 35.832 559.82 34.6484C560.68 32.6797 561.023 30.5195 561.754 28.5039C563.105 25.0859 564.086 21.5352 565 17.9844Z" fill="white"/>
<path d="M573.09 21.0312C575.66 21.9102 578.164 23.0352 580.492 24.4414C593.23 31.1172 604.145 41.1133 612.242 52.9609C614.344 55.4922 615.555 58.5938 617.395 61.2969C619.797 66.3477 622.285 71.3906 623.715 76.8242C626.289 84.4258 627.406 92.4648 627.555 100.473C625.797 100.508 624.047 100.602 622.297 100.621C622.949 99.4141 623.586 98.1328 623.484 96.7148C623.512 91.1602 622.309 85.6797 621.004 80.3086C619.906 77.4805 619.141 74.5391 618.043 71.7109C615.164 64.375 611.152 57.5391 606.484 51.207C606.328 51.1406 606.031 51.0156 605.883 50.957C605.348 51.7188 604.758 52.4492 604.359 53.2891C604.344 54.5234 605.293 55.4258 605.961 56.3555C610.191 62.6172 613.859 69.3359 616.152 76.5703C618.672 82.7969 619.398 89.5234 620.277 96.125C618.051 94.6328 616.352 92.5234 614.242 90.8945C612.637 89.668 611.125 88.3203 609.449 87.1914C609.016 86.7813 608.598 86.3437 608.227 85.8867C611.141 86.7773 613.773 88.3828 616.223 90.1758C614.977 85.0156 614.184 79.6719 611.859 74.8438C610.594 70.9414 608.551 67.3867 606.645 63.7773C605.074 60.8789 602.82 58.3828 601.449 55.3867C600.285 52.7422 601.922 49.8945 604.125 48.4102C602.594 46.1641 600.617 44.2969 598.641 42.4492C597.121 44.8594 593.664 46.2969 594.07 49.6055C592.324 48.8867 590.523 48.3398 588.68 47.9766C591.008 45.1445 593.57 42.5117 595.898 39.6797C593.02 37.4336 590.395 34.8477 587.234 32.9922C585.492 35.3359 583.031 37.6367 583.344 40.8242C581.773 39.9961 580.035 39.668 578.309 39.3594C580.023 36.3398 582.297 33.6992 584.156 30.7773C581.238 29.2695 578.609 27.2188 575.492 26.1133C574.598 30.2461 572.969 34.1523 571.961 38.2539C571.23 41.6445 569.918 44.875 569.141 48.2461C568.949 48.2383 568.57 48.2305 568.379 48.2227C567.676 45.9805 565.855 44.3086 565.211 42.0664C565.848 41.8906 566.477 41.6836 567.109 41.4453C568.32 39.4492 568.352 37.0352 569.105 34.8789C570.727 30.3516 571.852 25.668 573.09 21.0312Z" fill="white"/>
<path d="M593.379 24.9023C593.379 23.6992 592.398 22.7188 591.191 22.7188C589.984 22.7188 589.008 23.6992 589.008 24.9023C589.008 26.1094 589.984 27.0898 591.191 27.0898C592.398 27.0898 593.379 26.1094 593.379 24.9023Z" fill="white"/>
<path d="M589.734 53.8555C589.734 52.6484 588.754 51.6719 587.551 51.6719C586.344 51.6719 585.363 52.6484 585.363 53.8555C585.363 55.0625 586.344 56.0391 587.551 56.0391C588.754 56.0391 589.734 55.0625 589.734 53.8555Z" fill="white"/>
<path d="M538.199 207.496C481.816 207.496 435.949 161.629 435.949 105.25C435.949 53.2852 474.914 10.25 525.156 3.82812C525.723 8.19922 528.437 11.8945 532.211 13.8281C527.957 16.0078 525.043 20.4258 525.043 25.5312C525.043 30.6367 527.957 35.0508 532.211 37.2305C527.957 39.4102 525.043 43.8281 525.043 48.9336C525.043 48.9687 525.047 49 525.047 49.0352C499.504 54.9883 480.465 77.8906 480.465 105.25C480.465 137.133 506.312 162.98 538.199 162.98C570.086 162.98 595.934 137.133 595.934 105.25C595.934 77.8906 576.895 54.9883 551.348 49.0352C551.348 49 551.352 48.9687 551.352 48.9336C551.352 43.8281 548.438 39.4102 544.188 37.2305C548.438 35.0508 551.352 30.6367 551.352 25.5312C551.352 20.4258 548.438 16.0078 544.188 13.8281C547.957 11.8945 550.672 8.19922 551.238 3.82812C601.48 10.25 640.445 53.2852 640.445 105.25C640.445 161.629 594.578 207.496 538.199 207.496ZM527.992 25.5312C527.992 19.9023 532.57 15.3242 538.199 15.3242C543.824 15.3242 548.402 19.9023 548.402 25.5312C548.402 31.1562 543.824 35.7344 538.199 35.7344C532.57 35.7344 527.992 31.1562 527.992 25.5312ZM538.199 47.5156C534.723 47.5156 531.324 47.8398 528.02 48.4258C528.285 43.0352 532.742 38.7266 538.199 38.7266C543.652 38.7266 548.109 43.0352 548.379 48.4258C545.07 47.8398 541.672 47.5156 538.199 47.5156ZM528.312 51.4258C531.52 50.8359 534.82 50.5156 538.199 50.5156C541.574 50.5156 544.871 50.8359 548.082 51.4258C549.055 51.6016 550.016 51.8047 550.969 52.0312C575.008 57.8047 592.934 79.4648 592.934 105.25C592.934 135.43 568.379 159.98 538.199 159.98C508.016 159.98 483.465 135.43 483.465 105.25C483.465 79.4648 501.387 57.8047 525.426 52.0312C526.379 51.8047 527.34 51.6016 528.312 51.4258ZM538.199 3C541.605 3 544.977 3.17187 548.301 3.5C547.625 8.47656 543.355 12.332 538.199 12.332C533.039 12.332 528.77 8.47656 528.098 3.5C531.422 3.17187 534.789 3 538.199 3ZM551.285 0.808594C550.281 0.683594 549.27 0.574219 548.258 0.480469C544.945 0.167969 541.59 0 538.199 0C534.805 0 531.449 0.167969 528.137 0.480469C527.125 0.574219 526.113 0.683594 525.109 0.808594C473.16 7.25391 432.949 51.5547 432.949 105.25C432.949 163.375 480.07 210.496 538.199 210.496C596.324 210.496 643.445 163.375 643.445 105.25C643.445 51.5547 603.234 7.25391 551.285 0.808594Z" fill="white"/>
</g>
<defs>
<clipPath id="clip0_548_6906">
<rect width="643.45" height="210.5" fill="white"/>
</clipPath>
</defs>
</svg>
