<svg xmlns="http://www.w3.org/2000/svg" xmlns:xlink="http://www.w3.org/1999/xlink" width="85" height="85" viewBox="0 0 85 85"><defs><style>.a{fill:#d0d0d0;}.b{fill:#fff;stroke:#dedede;}.c{clip-path:url(#a);}.d{fill:#02aa7c;}.e{fill:#502c84;}.f{stroke:none;}.g{fill:none;}</style><clipPath id="a"><rect class="a" width="50" height="50" transform="translate(866 689)"/></clipPath></defs><g transform="translate(-848 -671)"><g class="b" transform="translate(848 671)"><rect class="f" width="85" height="85" rx="5"/><rect class="g" x="0.5" y="0.5" width="84" height="84" rx="4.5"/></g><g class="c"><g transform="translate(862.555 685.556)"><path class="d" d="M35.874,31.951V24.186H37.19v.623a2.125,2.125,0,0,1,1.732-.773,2.677,2.677,0,0,1,2.605,2.942,2.7,2.7,0,0,1-2.605,2.963,2.126,2.126,0,0,1-1.732-.787v2.8H35.874Zm1.317-5.69v1.431a1.629,1.629,0,0,0,1.5,1c.873,0,1.46-.651,1.46-1.725s-.587-1.7-1.46-1.7a1.612,1.612,0,0,0-1.5.995"/><path class="d" d="M42.379,28.18a1.654,1.654,0,0,1,1.56-1.725l2.24-.286v-.279a.45.45,0,0,0-.487-.515H42.88v-1.2h2.863c1.138,0,1.761.558,1.761,1.546v4.044H46.173v-.68a2.156,2.156,0,0,1-1.847.852,1.764,1.764,0,0,1-1.947-1.761m2.269.687a1.639,1.639,0,0,0,1.524-.938v-.7l-1.711.236c-.472.064-.737.315-.737.723,0,.437.336.68.923.68"/><path class="d" d="M48.463,30.756h.959a.608.608,0,0,0,.651-.494l.172-.494-2.033-5.59h1.374l1.267,3.894h.029l1.21-3.894h1.353L51.219,30.6c-.3.88-.7,1.353-1.682,1.353H48.463v-1.2Z"/><path class="e" d="M8.276,35.795A5.129,5.129,0,0,0,11.9,34.514a3.32,3.32,0,0,0,.988-2.4,3.114,3.114,0,0,0-.916-2.24,4.787,4.787,0,0,0-2.519-1.238l-1.761-.344c-.73-.136-1.145-.5-1.145-1.009,0-.666.644-1.124,1.675-1.124a2.173,2.173,0,0,1,1.56.573,1.733,1.733,0,0,1,.437.938l2.541-.573a3.137,3.137,0,0,0-.938-1.9A5.132,5.132,0,0,0,8.19,23.842a4.966,4.966,0,0,0-3.371,1.188,3.343,3.343,0,0,0-1.074,2.476,2.848,2.848,0,0,0,.823,2.1,5.015,5.015,0,0,0,2.4,1.217l1.739.415c.873.208,1.26.53,1.26,1.1,0,.709-.644,1.124-1.7,1.124A2.356,2.356,0,0,1,6.515,32.8a1.6,1.6,0,0,1-.458-1.052l-2.612.573a3.267,3.267,0,0,0,.988,2.018,5.3,5.3,0,0,0,3.843,1.453m19.339,0a5.433,5.433,0,0,0,3.893-1.489,5.09,5.09,0,0,0,1.374-2.312L30.205,31.1a2.543,2.543,0,0,1-.709,1.188A2.6,2.6,0,0,1,27.614,33a2.9,2.9,0,0,1-2.04-.823,3.32,3.32,0,0,1-.852-2.362,3.284,3.284,0,0,1,.852-2.362,2.786,2.786,0,0,1,2.018-.8,2.429,2.429,0,0,1,1.811.687,2.916,2.916,0,0,1,.687,1.217l2.727-.916a5.212,5.212,0,0,0-1.281-2.269,5.576,5.576,0,0,0-4.008-1.532,5.787,5.787,0,0,0-4.144,1.675,6.263,6.263,0,0,0,.043,8.617,5.851,5.851,0,0,0,4.187,1.668m-9.254,0a3.828,3.828,0,0,0,2.4-.687V32.631a2.645,2.645,0,0,1-1.539.458,1.6,1.6,0,0,1-1.145-.365,1.6,1.6,0,0,1-.344-1.145V21.094H14.71v3.092h6.048v2.934H14.71v5.2a3.5,3.5,0,0,0,.895,2.5,3.833,3.833,0,0,0,2.755.973"/></g></g></g></svg>