<svg xmlns="http://www.w3.org/2000/svg" xmlns:xlink="http://www.w3.org/1999/xlink" width="85" height="85" viewBox="0 0 85 85"><defs><style>.a{fill:#d0d0d0;}.b,.e{fill:#fff;}.b{stroke:#dedede;}.c{clip-path:url(#a);}.d{fill:#016fd0;}.f{stroke:none;}.g{fill:none;}</style><clipPath id="a"><rect class="a" width="50" height="50" transform="translate(866 689)"/></clipPath></defs><g transform="translate(-848 -671)"><g class="b" transform="translate(848 671)"><rect class="f" width="85" height="85" rx="5"/><rect class="g" x="0.5" y="0.5" width="84" height="84" rx="4.5"/></g><g class="c"><g transform="translate(863.225 638.944)"><path class="d" d="M2.775,50.117H52.651V77.042L50.182,80.9l2.469,3.433V99.993H2.775V74.612l1.543-1.775-1.543-1.7Z"/><path class="e" d="M12.457,84.872v-7.83h8.291l.89,1.16.919-1.16H52.651v7.29a3.475,3.475,0,0,1-1.7.54H34.29l-1-1.234v1.234H30V82.765a2.757,2.757,0,0,1-1.42.294H27.462v1.813H22.486L21.6,83.688l-.9,1.184Z"/><path class="e" d="M2.775,71.14l1.87-4.359H7.878l1.061,2.442V66.781h4.019l.632,1.765.612-1.765H32.245v.887a3.893,3.893,0,0,1,2.507-.887l5.854.02,1.043,2.41v-2.43h3.364l.926,1.384V66.781h3.394v7.83H45.939l-.887-1.389v1.389H40.11l-.5-1.234H38.284L37.8,74.612H34.444a3.313,3.313,0,0,1-2.2-.869v.869H27.192l-1-1.234v1.234H7.4l-.5-1.234H5.578l-.493,1.234H2.775Z"/><path class="d" d="M5.306,67.746,2.785,73.61H4.426l.465-1.174H7.6L8.06,73.61H9.738L7.218,67.746H5.306Zm.933,1.365.825,2.052H5.412l.827-2.052Z"/><path class="d" d="M9.911,73.608V67.745l2.333.009,1.357,3.78,1.325-3.789H17.24v5.863H15.774v-4.32l-1.554,4.32H12.935l-1.558-4.32v4.32Z"/><path class="d" d="M18.243,73.608V67.745h4.783v1.312h-3.3v1h3.225v1.234H19.724v1.041h3.3v1.273Z"/><path class="d" d="M23.875,67.746V73.61h1.466V71.527h.617l1.758,2.083h1.791l-1.929-2.16a1.786,1.786,0,0,0,1.608-1.8,1.9,1.9,0,0,0-2.049-1.9H23.875Zm1.466,1.312h1.676a.673.673,0,0,1,.694.617.662.662,0,0,1-.673.617h-1.7V69.058Z"/><path class="d" d="M31.281,73.608h-1.5V67.745h1.5Z"/><path class="d" d="M34.83,73.608h-.323c-1.563,0-2.512-1.231-2.512-2.907a2.686,2.686,0,0,1,2.912-2.956h1.62v1.389H34.848a1.41,1.41,0,0,0-1.368,1.582,1.435,1.435,0,0,0,1.582,1.612h.386Z"/><path class="d" d="M38.019,67.746,35.5,73.61h1.642l.465-1.174h2.7l.463,1.174h1.678l-2.519-5.863H38.019Zm.933,1.365.825,2.052H38.125Z"/><path class="d" d="M42.622,73.608V67.745h1.864l2.38,3.684V67.745h1.466v5.863h-1.8l-2.44-3.78v3.78Z"/><path class="d" d="M13.46,83.869V78.006h4.783v1.312h-3.3v1h3.225v1.234H14.941V82.6h3.3V83.87Z"/><path class="d" d="M36.9,83.869V78.006H41.68v1.312h-3.3v1h3.209v1.234H38.379V82.6h3.3V83.87Z"/><path class="d" d="M18.429,83.869l2.329-2.9-2.384-2.968H20.22l1.42,1.835,1.425-1.835h1.774l-2.353,2.932,2.333,2.932H22.973l-1.379-1.806-1.345,1.806Z"/><path class="d" d="M24.993,78.007V83.87h1.5V82.019h1.543a2.028,2.028,0,0,0,2.3-2.04,1.93,1.93,0,0,0-2.1-1.972H24.993Zm1.5,1.326h1.625a.662.662,0,0,1,.723.675.676.676,0,0,1-.728.675H26.5v-1.35Z"/><path class="d" d="M30.972,78.006v5.863h1.466V81.786h.617l1.758,2.083H36.6l-1.929-2.16a1.786,1.786,0,0,0,1.608-1.8,1.9,1.9,0,0,0-2.049-1.9H30.972Zm1.466,1.312h1.676a.673.673,0,0,1,.694.617.662.662,0,0,1-.673.617h-1.7V79.317Z"/><path class="d" d="M42.359,83.869V82.6h2.934c.434,0,.622-.235.622-.492s-.187-.5-.622-.5H43.967a1.639,1.639,0,0,1-1.794-1.756c0-.94.588-1.847,2.3-1.847h2.854l-.617,1.319H44.242c-.472,0-.617.248-.617.484a.511.511,0,0,0,.54.511h1.389A1.608,1.608,0,0,1,47.4,82a1.758,1.758,0,0,1-1.912,1.866Z"/><path class="d" d="M47.739,83.869V82.6h2.934c.434,0,.622-.235.622-.492s-.187-.5-.622-.5H49.347a1.639,1.639,0,0,1-1.794-1.756c0-.94.588-1.847,2.3-1.847h2.854l-.617,1.319H49.622c-.472,0-.617.248-.617.484a.511.511,0,0,0,.54.511h1.389A1.608,1.608,0,0,1,52.775,82a1.758,1.758,0,0,1-1.912,1.866Z"/></g></g></g></svg>