<svg xmlns="http://www.w3.org/2000/svg" width="99.998" height="100" viewBox="0 0 99.998 100">
  <defs>
    <style>.a{fill:#cfcfcf;}.b{fill:#FFB349;}</style>
  </defs>
  <g transform="translate(0.062 0.065)">
    <g transform="translate(-0.062 -0.065)">
      <g transform="translate(0)">
        <path class="a" d="M95.134,28.552A50,50,0,0,0,7.565,23.436a50,50,0,0,0,42.33,76.5H50.5a50.235,50.235,0,0,0,26.222-7.771,4.88,4.88,0,0,0-5.233-8.24,40.211,40.211,0,0,1-42.877.156A40.238,40.238,0,1,1,89.921,54.462a4.882,4.882,0,0,0,9.7,1.074,50.193,50.193,0,0,0-4.491-26.984Z" transform="translate(0.062 0.065)"/>
        <path class="b" d="M171.272,163.345l-23.547,23.547L139,178.165a4.887,4.887,0,0,0-6.912,6.912l12.184,12.184a4.9,4.9,0,0,0,6.912,0l26.984-27a4.881,4.881,0,1,0-6.892-6.912Z" transform="translate(-105.128 -130.297)"/>
      </g>
    </g>
  </g>
</svg>