<svg xmlns="http://www.w3.org/2000/svg" xmlns:xlink="http://www.w3.org/1999/xlink" width="425.232" height="400" viewBox="0 0 425.232 400">
  <defs>
    <linearGradient id="linear-gradient" x1="0.165" y1="-0.473" x2="5.612" y2="5.718" gradientUnits="objectBoundingBox">
      <stop offset="0" stop-color="#a82e11"/>
      <stop offset="1" stop-color="#03008e"/>
    </linearGradient>
    <linearGradient id="linear-gradient-2" x1="0.036" y1="-1.876" x2="2.988" y2="6.924" xlink:href="#linear-gradient"/>
    <linearGradient id="linear-gradient-3" x1="1.569" y1="-3.8" x2="-2.811" y2="1.803" gradientUnits="objectBoundingBox">
      <stop offset="0" stop-color="#1f1c9b"/>
      <stop offset="1" stop-color="#bf644f"/>
    </linearGradient>
    <linearGradient id="linear-gradient-4" x1="1.167" y1="0.277" x2="2.371" y2="0.277" gradientUnits="objectBoundingBox">
      <stop offset="0" stop-color="#b4d5f2"/>
      <stop offset="0.503" stop-color="#d3e7f8"/>
      <stop offset="1" stop-color="#d6e8f8"/>
    </linearGradient>
    <linearGradient id="linear-gradient-5" x1="-0.614" y1="0.656" x2="0.387" y2="0.656" gradientUnits="objectBoundingBox">
      <stop offset="0" stop-color="#2877bb"/>
      <stop offset="1" stop-color="#1c466a"/>
    </linearGradient>
  </defs>
  <g id="empty-orders" transform="translate(-163.194 -171.136)">
    <path id="Path_325" data-name="Path 325" d="M517.329,515.148A153.921,153.921,0,0,1,490.3,537.091c-70.01,46.747-150.039,33.272-174.782,28.667-39.92-7.43-73.618-12.671-102.571-38.829-65.788-59.438-62.588-183.43-12.317-260.236,5.961-9.107,56.156-83.512,136.358-94,1.962-.256,3.425-.4,4.707-.538,12.408-1.314,89.291-8.247,151.984,44.276A187.02,187.02,0,0,1,530.482,258.2C579.45,333.825,579.605,450.956,517.329,515.148Z" fill="#f5f5f5"/>
    <g id="Group_499" data-name="Group 499" transform="translate(176.684 184.343)">
      <path id="Path_326" data-name="Path 326" d="M256.907,269.736a6.779,6.779,0,0,1,7.653-6.8c27.12,3.534,120.37,14.416,197.389,8.1a6.267,6.267,0,0,1,6.78,5.876l16.863,288.921a7.213,7.213,0,0,1-6.737,7.621c-32.4,2.086-165.813,10.193-213.442,5.456a5.715,5.715,0,0,1-5.144-5.629Z" transform="translate(-256.907 -262.878)" fill="#2d506e"/>
      <path id="Path_327" data-name="Path 327" d="M279.347,321.471a6.523,6.523,0,0,1,7.365-6.544c26.1,3.4,115.837,13.873,189.955,7.8a6.032,6.032,0,0,1,6.525,5.655l16.228,278.042a6.942,6.942,0,0,1-6.484,7.335c-31.175,2.008-159.569,9.811-205.4,5.25a5.5,5.5,0,0,1-4.949-5.417Z" transform="translate(-276.117 -307.386)" fill="#a7b7c5"/>
      <path id="Path_328" data-name="Path 328" d="M447.8,483.6l3.081,59.612a3.791,3.791,0,0,0,3.7,3.6c11.044.253,45.458.914,64.882-.2a4.233,4.233,0,0,0,3.988-4.113c.312-11.184.954-43.734-1.666-57.326a4.777,4.777,0,0,0-4.555-3.862l-65.282-1.943A4.028,4.028,0,0,0,447.8,483.6Z" transform="translate(-420.313 -448.202)" fill="#fff" opacity="0.78"/>
      <circle id="Ellipse_23" data-name="Ellipse 23" cx="12.818" cy="12.818" r="12.818" transform="translate(52.336 43.705)" fill="url(#linear-gradient)"/>
      <path id="Path_329" data-name="Path 329" d="M555.84,810.383l40.836-.213a3.162,3.162,0,0,0,2.63-4.887c-3.5-5.41-10.8-13.345-23.363-12.92-12.111.41-19.254,7.65-22.836,12.834A3.3,3.3,0,0,0,555.84,810.383Z" transform="translate(-509.959 -716.126)" fill="url(#linear-gradient-2)"/>
      <g id="Group_487" data-name="Group 487" transform="translate(117.42 34.797)" opacity="0.6">
        <path id="Path_330" data-name="Path 330" d="M1145.961,509.544a2.112,2.112,0,0,0,2.256-2.012,2.317,2.317,0,0,0-2.394-2.03l-71.581-.9a1.511,1.511,0,0,0-1.542,2.159l.347.97a3.524,3.524,0,0,0,3.109,2.177Z" transform="translate(-1072.573 -504.599)" fill="#fff"/>
      </g>
      <g id="Group_488" data-name="Group 488" transform="translate(117.479 45.913)" opacity="0.6">
        <path id="Path_331" data-name="Path 331" d="M1074.653,581.819a1.511,1.511,0,0,0-1.542,2.159l.347.97a3.524,3.524,0,0,0,3.109,2.177l69.8-.363a2.112,2.112,0,0,0,2.256-2.013,2.317,2.317,0,0,0-2.394-2.03Z" transform="translate(-1072.983 -581.819)" fill="#fff"/>
      </g>
      <g id="Group_489" data-name="Group 489" transform="translate(117.538 57.191)" opacity="0.6">
        <path id="Path_332" data-name="Path 332" d="M1075.063,660.159a1.511,1.511,0,0,0-1.542,2.159l.347.97a3.524,3.524,0,0,0,3.109,2.177l69.8-.363a2.112,2.112,0,0,0,2.256-2.013,2.317,2.317,0,0,0-2.394-2.03Z" transform="translate(-1073.393 -660.159)" fill="#fff"/>
      </g>
      <g id="Group_490" data-name="Group 490" transform="translate(28.905 112.018)" opacity="0.6">
        <path id="Path_333" data-name="Path 333" d="M626.952,1045.486a2.022,2.022,0,0,0,2.182-2.011,2.391,2.391,0,0,0-2.467-2.005l-167.685-.449c-1.278,0-1.67.809-.868,1.805l1.379,1.713a5.475,5.475,0,0,0,3.783,1.8Z" transform="translate(-457.697 -1041.02)" fill="#fff"/>
      </g>
      <g id="Group_491" data-name="Group 491" transform="translate(28.962 123.133)" opacity="0.6">
        <path id="Path_334" data-name="Path 334" d="M459.381,1118.23c-1.278,0-1.67.809-.868,1.805l1.379,1.713a5.475,5.475,0,0,0,3.783,1.8l163.676-.852a2.022,2.022,0,0,0,2.182-2.011,2.391,2.391,0,0,0-2.467-2.005Z" transform="translate(-458.097 -1118.23)" fill="#fff"/>
      </g>
      <path id="Path_335" data-name="Path 335" d="M447.793,1243.658c4.029-.33,11.58-.512,15.734-.592a3.767,3.767,0,0,1,3.733,2.86,61.38,61.38,0,0,1,1.848,15.207,3.345,3.345,0,0,1-3.358,3.292l-15.337-.085a3.683,3.683,0,0,1-3.645-3.321l-1.424-14.42A2.688,2.688,0,0,1,447.793,1243.658Z" transform="translate(-418.207 -1101.962)" fill="#fff" opacity="0.6"/>
      <g id="Group_492" data-name="Group 492" transform="translate(55.985 147.471)" opacity="0.6">
        <path id="Path_336" data-name="Path 336" d="M647.8,1287.3a1.85,1.85,0,0,0-1.966,2.213l.384,2.472a2.8,2.8,0,0,0,2.682,2.286l37.247-.194a2.3,2.3,0,0,0,2.285-2.336l-.011-.629a2.491,2.491,0,0,0-2.365-2.41Z" transform="translate(-645.809 -1287.299)" fill="#fff"/>
      </g>
      <path id="Path_337" data-name="Path 337" d="M1028.192,1240.638c4.029-.33,11.58-.513,15.734-.592a3.767,3.767,0,0,1,3.733,2.86,61.372,61.372,0,0,1,1.848,15.208,3.345,3.345,0,0,1-3.358,3.292l-15.337-.085a3.683,3.683,0,0,1-3.645-3.321l-1.424-14.42A2.686,2.686,0,0,1,1028.192,1240.638Z" transform="translate(-915.054 -1099.376)" fill="#fff" opacity="0.6"/>
      <g id="Group_493" data-name="Group 493" transform="translate(139.537 147.037)" opacity="0.6">
        <path id="Path_338" data-name="Path 338" d="M1228.2,1284.281a1.85,1.85,0,0,0-1.967,2.213l.384,2.472a2.8,2.8,0,0,0,2.682,2.286l37.247-.194a2.3,2.3,0,0,0,2.285-2.336l-.012-.629a2.49,2.49,0,0,0-2.365-2.41Z" transform="translate(-1226.209 -1284.279)" fill="#fff"/>
      </g>
      <g id="Group_498" data-name="Group 498" transform="translate(32.112 179.451)">
        <path id="Path_339" data-name="Path 339" d="M499.386,1528.823h-.039l-14.152-.062a3.8,3.8,0,0,1-3.9-3.216l-1.306-11.868a2.585,2.585,0,0,1,.6-1.943,3.106,3.106,0,0,1,2.159-1.08h0c1.192-.088,2.87-.239,4.647-.4,3.741-.338,8.4-.759,11.018-.806a3.954,3.954,0,0,1,3.977,2.751c.751,2.722.714,7.882.6,13.379A3.5,3.5,0,0,1,499.386,1528.823Zm-16.558-17.085a2.014,2.014,0,0,0-1.4.691,1.5,1.5,0,0,0-.354,1.13l1.306,11.868a2.72,2.72,0,0,0,2.824,2.247l14.152.062h.029a2.41,2.41,0,0,0,2.526-2.178c.109-5.414.15-10.487-.563-13.068a2.92,2.92,0,0,0-2.911-1.953c-2.581.046-7.216.465-10.939.8-1.784.16-3.466.312-4.667.4Z" transform="translate(-479.975 -1509.448)" fill="#fff"/>
        <path id="Path_340" data-name="Path 340" d="M499.628,1528.09c2.971-.219,9.431-.908,12.494-.963a2.741,2.741,0,0,1,2.752,1.88c.6,2.184.547,6.543.465,10.568a2.354,2.354,0,0,1-2.477,2.167l-11.309-.05a2.613,2.613,0,0,1-2.686-2.182l-1.044-9.484A1.837,1.837,0,0,1,499.628,1528.09Z" transform="translate(-495.245 -1524.582)" fill="#fff" opacity="0.6"/>
        <g id="Group_494" data-name="Group 494" transform="translate(31.678 6.913)" opacity="0.6">
          <path id="Path_341" data-name="Path 341" d="M700.148,1561.983a3.515,3.515,0,0,0,3.442,2.6l130.934-1.8a2.658,2.658,0,0,0-.037-5.315l-130.946.083A3.516,3.516,0,0,0,700.148,1561.983Z" transform="translate(-700.025 -1557.47)" fill="#fff"/>
        </g>
        <path id="Path_342" data-name="Path 342" d="M500.486,1739.506h-.039l-14.152-.062a3.8,3.8,0,0,1-3.9-3.216l-1.306-11.868a2.585,2.585,0,0,1,.6-1.943,3.107,3.107,0,0,1,2.159-1.08h0c1.192-.088,2.87-.239,4.647-.4,3.741-.338,8.4-.759,11.018-.806h.058a3.946,3.946,0,0,1,3.92,2.752c.751,2.722.714,7.882.6,13.379A3.5,3.5,0,0,1,500.486,1739.506Zm-16.558-17.083a2.014,2.014,0,0,0-1.4.691,1.5,1.5,0,0,0-.354,1.13l1.306,11.868a2.723,2.723,0,0,0,2.824,2.249l14.152.062h.029a2.41,2.41,0,0,0,2.526-2.178c.109-5.414.15-10.487-.563-13.068a2.9,2.9,0,0,0-2.911-1.953c-2.581.046-7.216.465-10.939.8-1.784.158-3.466.309-4.667.4Z" transform="translate(-480.916 -1689.801)" fill="#fff"/>
        <path id="Path_343" data-name="Path 343" d="M500.728,1738.78c2.971-.219,9.431-.908,12.494-.963a2.741,2.741,0,0,1,2.752,1.88c.6,2.184.547,6.543.465,10.568a2.354,2.354,0,0,1-2.477,2.167l-11.309-.05a2.613,2.613,0,0,1-2.686-2.182l-1.044-9.484A1.838,1.838,0,0,1,500.728,1738.78Z" transform="translate(-496.187 -1704.942)" fill="#fff" opacity="0.6"/>
        <g id="Group_495" data-name="Group 495" transform="translate(31.836 37.245)" opacity="0.6">
          <path id="Path_344" data-name="Path 344" d="M701.248,1772.683a3.515,3.515,0,0,0,3.442,2.6l130.933-1.8a2.658,2.658,0,0,0-.037-5.315l-130.946.083A3.515,3.515,0,0,0,701.248,1772.683Z" transform="translate(-701.125 -1768.17)" fill="#fff"/>
        </g>
        <path id="Path_345" data-name="Path 345" d="M501.576,1950.206h-.039l-14.152-.062a3.8,3.8,0,0,1-3.9-3.214l-1.306-11.868a2.588,2.588,0,0,1,.6-1.945,3.106,3.106,0,0,1,2.159-1.08h0c1.192-.088,2.87-.239,4.647-.4,3.741-.338,8.4-.759,11.018-.806h.058a3.946,3.946,0,0,1,3.92,2.752c.751,2.722.714,7.882.6,13.379A3.5,3.5,0,0,1,501.576,1950.206Zm-16.556-17.085a2.014,2.014,0,0,0-1.4.691,1.5,1.5,0,0,0-.354,1.13l1.306,11.868a2.72,2.72,0,0,0,2.824,2.247l14.152.062h.029a2.41,2.41,0,0,0,2.526-2.178c.109-5.414.15-10.487-.563-13.068a2.9,2.9,0,0,0-2.911-1.953c-2.581.046-7.217.465-10.939.8-1.784.16-3.466.312-4.667.4Z" transform="translate(-481.849 -1870.169)" fill="#fff"/>
        <path id="Path_346" data-name="Path 346" d="M501.828,1949.48c2.971-.219,9.431-.908,12.494-.963a2.741,2.741,0,0,1,2.752,1.88c.6,2.184.547,6.543.465,10.568a2.354,2.354,0,0,1-2.477,2.167l-11.309-.05a2.612,2.612,0,0,1-2.686-2.182l-1.044-9.484A1.837,1.837,0,0,1,501.828,1949.48Z" transform="translate(-497.128 -1885.31)" fill="#fff" opacity="0.6"/>
        <g id="Group_496" data-name="Group 496" transform="translate(31.993 67.575)" opacity="0.6">
          <path id="Path_347" data-name="Path 347" d="M702.341,1983.373a3.513,3.513,0,0,0,3.442,2.6l130.933-1.8a2.658,2.658,0,0,0-.037-5.315l-130.946.083A3.517,3.517,0,0,0,702.341,1983.373Z" transform="translate(-702.219 -1978.86)" fill="#fff"/>
        </g>
        <path id="Path_348" data-name="Path 348" d="M502.676,2160.906h-.039l-14.152-.062a3.8,3.8,0,0,1-3.9-3.215l-1.306-11.868a2.588,2.588,0,0,1,.6-1.945,3.106,3.106,0,0,1,2.159-1.08h0c1.192-.088,2.87-.239,4.647-.4,3.741-.338,8.4-.759,11.018-.806h.058a3.946,3.946,0,0,1,3.92,2.752c.751,2.722.714,7.882.6,13.379A3.5,3.5,0,0,1,502.676,2160.906Zm-16.558-17.084a2.013,2.013,0,0,0-1.4.691,1.5,1.5,0,0,0-.354,1.13l1.306,11.868a2.72,2.72,0,0,0,2.824,2.247l14.152.062h.029a2.41,2.41,0,0,0,2.526-2.178c.109-5.414.15-10.487-.563-13.068a2.9,2.9,0,0,0-2.911-1.954c-2.581.046-7.216.465-10.939.8-1.784.16-3.466.313-4.667.4Z" transform="translate(-482.791 -2050.538)" fill="#fff"/>
        <path id="Path_349" data-name="Path 349" d="M502.918,2160.18c2.971-.219,9.431-.908,12.494-.963a2.741,2.741,0,0,1,2.752,1.88c.6,2.184.547,6.543.465,10.568a2.354,2.354,0,0,1-2.477,2.167l-11.309-.051a2.612,2.612,0,0,1-2.686-2.182l-1.044-9.484A1.837,1.837,0,0,1,502.918,2160.18Z" transform="translate(-498.061 -2065.679)" fill="#fff" opacity="0.6"/>
        <g id="Group_497" data-name="Group 497" transform="translate(32.151 97.906)" opacity="0.6">
          <path id="Path_350" data-name="Path 350" d="M703.438,2194.073h0a3.514,3.514,0,0,0,3.442,2.6l130.933-1.8a2.658,2.658,0,0,0-.037-5.315l-130.946.083A3.516,3.516,0,0,0,703.438,2194.073Z" transform="translate(-703.315 -2189.56)" fill="#fff"/>
        </g>
        <path id="Path_351" data-name="Path 351" d="M511.365,2118.27h0a2.172,2.172,0,0,1,3,.8l2.817,4.99a.7.7,0,0,0,1.245-.06l6.844-15.449a.773.773,0,0,1,1.48.327,30.439,30.439,0,0,1-8.744,21.225s-4.16-1.592-7.542-8.917A2.277,2.277,0,0,1,511.365,2118.27Z" transform="translate(-505.895 -2021.91)" fill="url(#linear-gradient-3)"/>
      </g>
    </g>
    <g id="Group_512" data-name="Group 512" transform="translate(193.78 202.34)">
      <path id="Path_352" data-name="Path 352" d="M375.667,394.756a6.779,6.779,0,0,1,7.653-6.8c27.12,3.534,120.37,14.416,197.389,8.1a6.267,6.267,0,0,1,6.78,5.876l16.863,288.921a7.213,7.213,0,0,1-6.737,7.621c-32.4,2.086-165.812,10.193-213.442,5.456a5.716,5.716,0,0,1-5.144-5.629Z" transform="translate(-375.667 -387.898)" fill="#2d506e"/>
      <path id="Path_353" data-name="Path 353" d="M398.107,446.481a6.523,6.523,0,0,1,7.365-6.544c26.1,3.4,115.837,13.873,189.955,7.8a6.032,6.032,0,0,1,6.526,5.655l16.228,278.042a6.942,6.942,0,0,1-6.484,7.335c-31.175,2.008-159.569,9.811-205.4,5.25a5.5,5.5,0,0,1-4.949-5.417Z" transform="translate(-394.877 -432.398)" fill="#a7b7c5"/>
      <path id="Path_354" data-name="Path 354" d="M566.567,608.614l3.081,59.612a3.791,3.791,0,0,0,3.7,3.6c11.044.253,45.458.914,64.882-.2a4.233,4.233,0,0,0,3.988-4.113c.312-11.184.954-43.734-1.666-57.326a4.777,4.777,0,0,0-4.555-3.862l-65.283-1.943A4.027,4.027,0,0,0,566.567,608.614Z" transform="translate(-539.081 -573.213)" fill="#fff" opacity="0.78"/>
      <circle id="Ellipse_24" data-name="Ellipse 24" cx="12.818" cy="12.818" r="12.818" transform="translate(52.336 43.705)" fill="#34648e"/>
      <path id="Path_355" data-name="Path 355" d="M674.6,935.4l40.836-.213a3.162,3.162,0,0,0,2.63-4.887c-3.5-5.41-10.8-13.345-23.363-12.92-12.111.41-19.254,7.65-22.836,12.834A3.3,3.3,0,0,0,674.6,935.4Z" transform="translate(-628.72 -841.146)" fill="#34648e"/>
      <g id="Group_500" data-name="Group 500" transform="translate(117.421 34.796)" opacity="0.6">
        <path id="Path_356" data-name="Path 356" d="M1264.731,634.554a2.112,2.112,0,0,0,2.256-2.012,2.317,2.317,0,0,0-2.394-2.03l-71.581-.9a1.511,1.511,0,0,0-1.542,2.159l.347.97a3.524,3.524,0,0,0,3.109,2.177Z" transform="translate(-1191.343 -629.609)" fill="#fff"/>
      </g>
      <g id="Group_501" data-name="Group 501" transform="translate(117.479 45.912)" opacity="0.6">
        <path id="Path_357" data-name="Path 357" d="M1193.413,706.829a1.511,1.511,0,0,0-1.542,2.159l.347.97a3.524,3.524,0,0,0,3.109,2.177l69.8-.363a2.113,2.113,0,0,0,2.256-2.013,2.317,2.317,0,0,0-2.394-2.03Z" transform="translate(-1191.743 -706.829)" fill="#fff"/>
      </g>
      <g id="Group_502" data-name="Group 502" transform="translate(117.538 57.189)" opacity="0.6">
        <path id="Path_358" data-name="Path 358" d="M1193.823,785.169a1.511,1.511,0,0,0-1.542,2.159l.347.97a3.524,3.524,0,0,0,3.109,2.177l69.8-.363a2.112,2.112,0,0,0,2.256-2.013,2.317,2.317,0,0,0-2.394-2.03Z" transform="translate(-1192.153 -785.169)" fill="#fff"/>
      </g>
      <g id="Group_503" data-name="Group 503" transform="translate(28.905 112.017)" opacity="0.6">
        <path id="Path_359" data-name="Path 359" d="M745.712,1170.5a2.022,2.022,0,0,0,2.182-2.011,2.392,2.392,0,0,0-2.467-2.005l-167.685-.449c-1.278,0-1.67.809-.868,1.805l1.379,1.713a5.475,5.475,0,0,0,3.783,1.8Z" transform="translate(-576.457 -1166.03)" fill="#fff"/>
      </g>
      <g id="Group_504" data-name="Group 504" transform="translate(28.962 123.131)" opacity="0.6">
        <path id="Path_360" data-name="Path 360" d="M578.141,1243.24c-1.278,0-1.67.809-.868,1.805l1.379,1.713a5.474,5.474,0,0,0,3.783,1.8l163.676-.852a2.022,2.022,0,0,0,2.182-2.011,2.392,2.392,0,0,0-2.467-2.005Z" transform="translate(-576.857 -1243.24)" fill="#fff"/>
      </g>
      <path id="Path_361" data-name="Path 361" d="M566.562,1368.667c4.029-.33,11.58-.512,15.734-.592a3.767,3.767,0,0,1,3.733,2.86,61.381,61.381,0,0,1,1.848,15.208,3.345,3.345,0,0,1-3.358,3.292l-15.337-.085a3.683,3.683,0,0,1-3.645-3.321l-1.424-14.42A2.687,2.687,0,0,1,566.562,1368.667Z" transform="translate(-536.974 -1226.973)" fill="#fff" opacity="0.6"/>
      <g id="Group_505" data-name="Group 505" transform="translate(55.986 147.47)" opacity="0.6">
        <path id="Path_362" data-name="Path 362" d="M766.573,1412.311a1.85,1.85,0,0,0-1.966,2.213l.384,2.47a2.8,2.8,0,0,0,2.682,2.286l37.247-.194a2.3,2.3,0,0,0,2.285-2.336l-.012-.629a2.49,2.49,0,0,0-2.365-2.41Z" transform="translate(-764.579 -1412.309)" fill="#fff"/>
      </g>
      <path id="Path_363" data-name="Path 363" d="M1146.952,1365.648c4.029-.33,11.58-.512,15.734-.592a3.767,3.767,0,0,1,3.733,2.86,61.378,61.378,0,0,1,1.848,15.207,3.345,3.345,0,0,1-3.358,3.292l-15.337-.085a3.683,3.683,0,0,1-3.645-3.321l-1.424-14.42A2.687,2.687,0,0,1,1146.952,1365.648Z" transform="translate(-1033.814 -1224.388)" fill="#fff" opacity="0.6"/>
      <g id="Group_506" data-name="Group 506" transform="translate(139.537 147.035)" opacity="0.6">
        <path id="Path_364" data-name="Path 364" d="M1346.963,1409.291A1.85,1.85,0,0,0,1345,1411.5l.384,2.472a2.8,2.8,0,0,0,2.682,2.286l37.247-.194a2.3,2.3,0,0,0,2.285-2.336l-.012-.629a2.49,2.49,0,0,0-2.365-2.41Z" transform="translate(-1344.969 -1409.289)" fill="#fff"/>
      </g>
      <g id="Group_511" data-name="Group 511" transform="translate(32.112 173.809)">
        <path id="Path_365" data-name="Path 365" d="M618.146,1653.834h-.039l-14.152-.062a3.8,3.8,0,0,1-3.9-3.216l-1.306-11.868a2.585,2.585,0,0,1,.6-1.943,3.106,3.106,0,0,1,2.159-1.08h0c1.192-.088,2.87-.239,4.647-.4,3.741-.338,8.4-.759,11.018-.806a3.955,3.955,0,0,1,3.977,2.751c.751,2.722.714,7.882.6,13.379A3.5,3.5,0,0,1,618.146,1653.834Zm-16.556-17.085a2.014,2.014,0,0,0-1.4.691,1.5,1.5,0,0,0-.354,1.13l1.306,11.868a2.72,2.72,0,0,0,2.824,2.247l14.152.062h.029a2.41,2.41,0,0,0,2.526-2.178c.109-5.414.15-10.487-.563-13.068a2.92,2.92,0,0,0-2.911-1.953c-2.581.046-7.216.465-10.939.8-1.784.16-3.466.312-4.667.4Z" transform="translate(-598.734 -1628.818)" fill="#fff"/>
        <path id="Path_366" data-name="Path 366" d="M618.4,1653.1c2.971-.219,9.431-.908,12.494-.963a2.741,2.741,0,0,1,2.752,1.88c.6,2.184.547,6.543.465,10.568a2.354,2.354,0,0,1-2.477,2.167l-11.309-.05a2.613,2.613,0,0,1-2.686-2.182l-1.044-9.484A1.837,1.837,0,0,1,618.4,1653.1Z" transform="translate(-614.014 -1643.951)" fill="#fff" opacity="0.6"/>
        <g id="Group_507" data-name="Group 507" transform="translate(31.678 12.553)" opacity="0.6">
          <path id="Path_367" data-name="Path 367" d="M818.911,1686.993a3.515,3.515,0,0,0,3.442,2.6l130.933-1.8a2.658,2.658,0,0,0-.037-5.315l-130.946.083A3.517,3.517,0,0,0,818.911,1686.993Z" transform="translate(-818.789 -1682.48)" fill="#fff"/>
        </g>
        <path id="Path_368" data-name="Path 368" d="M619.246,1864.526h-.039l-14.152-.062a3.8,3.8,0,0,1-3.9-3.216l-1.306-11.868a2.585,2.585,0,0,1,.6-1.943,3.106,3.106,0,0,1,2.159-1.08h0c1.192-.088,2.87-.239,4.647-.4,3.741-.338,8.4-.759,11.018-.806h.058a3.946,3.946,0,0,1,3.92,2.752c.751,2.722.714,7.882.6,13.379A3.5,3.5,0,0,1,619.246,1864.526Zm-16.558-17.085a2.014,2.014,0,0,0-1.4.691,1.5,1.5,0,0,0-.354,1.13l1.306,11.868a2.723,2.723,0,0,0,2.824,2.249l14.152.062h.029a2.41,2.41,0,0,0,2.526-2.178c.109-5.414.15-10.487-.563-13.068a2.9,2.9,0,0,0-2.911-1.953c-2.581.046-7.216.465-10.939.8-1.784.158-3.466.311-4.667.4Z" transform="translate(-599.676 -1809.179)" fill="#fff"/>
        <path id="Path_369" data-name="Path 369" d="M619.488,1863.8c2.971-.219,9.431-.908,12.494-.963a2.741,2.741,0,0,1,2.752,1.88c.6,2.184.547,6.543.465,10.568a2.354,2.354,0,0,1-2.477,2.167l-11.309-.05a2.612,2.612,0,0,1-2.686-2.182l-1.044-9.484A1.837,1.837,0,0,1,619.488,1863.8Z" transform="translate(-614.947 -1824.32)" fill="#fff" opacity="0.6"/>
        <g id="Group_508" data-name="Group 508" transform="translate(31.836 42.885)" opacity="0.6">
          <path id="Path_370" data-name="Path 370" d="M820.011,1897.693a3.515,3.515,0,0,0,3.442,2.6l130.934-1.8a2.658,2.658,0,0,0-.037-5.315l-130.946.083A3.517,3.517,0,0,0,820.011,1897.693Z" transform="translate(-819.888 -1893.18)" fill="#fff"/>
        </g>
        <path id="Path_371" data-name="Path 371" d="M620.346,2075.216h-.039l-14.152-.062a3.8,3.8,0,0,1-3.9-3.215l-1.306-11.868a2.588,2.588,0,0,1,.6-1.945,3.106,3.106,0,0,1,2.159-1.08h0c1.192-.088,2.87-.239,4.647-.4,3.741-.338,8.4-.759,11.018-.806h.058a3.946,3.946,0,0,1,3.92,2.752c.751,2.722.714,7.882.6,13.379A3.5,3.5,0,0,1,620.346,2075.216Zm-16.558-17.083a2.012,2.012,0,0,0-1.4.691,1.5,1.5,0,0,0-.354,1.13l1.306,11.868a2.72,2.72,0,0,0,2.824,2.247l14.152.062h.029a2.41,2.41,0,0,0,2.526-2.178c.109-5.414.15-10.487-.563-13.068a2.9,2.9,0,0,0-2.911-1.954c-2.581.046-7.216.465-10.939.8-1.784.16-3.466.311-4.667.4Z" transform="translate(-600.618 -1989.539)" fill="#fff"/>
        <path id="Path_372" data-name="Path 372" d="M620.588,2074.5c2.971-.219,9.431-.908,12.494-.963a2.741,2.741,0,0,1,2.752,1.88c.6,2.184.547,6.543.465,10.568a2.354,2.354,0,0,1-2.477,2.167l-11.309-.051a2.612,2.612,0,0,1-2.686-2.182l-1.044-9.484A1.837,1.837,0,0,1,620.588,2074.5Z" transform="translate(-615.888 -2004.688)" fill="#fff" opacity="0.6"/>
        <g id="Group_509" data-name="Group 509" transform="translate(31.994 73.216)" opacity="0.6">
          <path id="Path_373" data-name="Path 373" d="M821.108,2108.393a3.513,3.513,0,0,0,3.442,2.6l130.933-1.8a2.657,2.657,0,0,0-.037-5.315l-130.946.083A3.516,3.516,0,0,0,821.108,2108.393Z" transform="translate(-820.985 -2103.88)" fill="#fff"/>
        </g>
        <path id="Path_374" data-name="Path 374" d="M621.436,2285.916H621.4l-14.152-.062a3.8,3.8,0,0,1-3.9-3.215l-1.306-11.868a2.589,2.589,0,0,1,.6-1.945,3.107,3.107,0,0,1,2.159-1.08h0c1.192-.088,2.87-.239,4.647-.4,3.741-.338,8.4-.759,11.018-.806h.058a3.946,3.946,0,0,1,3.92,2.752c.751,2.722.714,7.882.6,13.379A3.494,3.494,0,0,1,621.436,2285.916Zm-16.556-17.085a2.014,2.014,0,0,0-1.4.691,1.5,1.5,0,0,0-.354,1.13l1.306,11.868a2.72,2.72,0,0,0,2.824,2.247l14.152.062h.029a2.41,2.41,0,0,0,2.526-2.178c.109-5.414.15-10.487-.563-13.068a2.9,2.9,0,0,0-2.911-1.953c-2.581.046-7.216.465-10.939.8-1.784.16-3.466.313-4.667.4Z" transform="translate(-601.551 -2169.907)" fill="#fff"/>
        <path id="Path_375" data-name="Path 375" d="M621.688,2285.19c2.971-.219,9.431-.908,12.494-.963a2.741,2.741,0,0,1,2.752,1.88c.6,2.184.547,6.543.465,10.568a2.354,2.354,0,0,1-2.477,2.167l-11.309-.05a2.613,2.613,0,0,1-2.686-2.182l-1.044-9.484A1.836,1.836,0,0,1,621.688,2285.19Z" transform="translate(-616.83 -2185.048)" fill="#fff" opacity="0.6"/>
        <g id="Group_510" data-name="Group 510" transform="translate(32.152 103.546)" opacity="0.6">
          <path id="Path_376" data-name="Path 376" d="M822.2,2319.083h0a3.514,3.514,0,0,0,3.442,2.6l130.933-1.8a2.658,2.658,0,0,0-.037-5.315l-130.946.083A3.517,3.517,0,0,0,822.2,2319.083Z" transform="translate(-822.078 -2314.57)" fill="#fff"/>
        </g>
        <path id="Path_377" data-name="Path 377" d="M630.125,2243.29h0a2.173,2.173,0,0,1,3,.8l2.817,4.99a.7.7,0,0,0,1.245-.06l6.844-15.449a.773.773,0,0,1,1.48.327,30.439,30.439,0,0,1-8.744,21.225s-4.16-1.592-7.542-8.917A2.277,2.277,0,0,1,630.125,2243.29Z" transform="translate(-624.655 -2141.288)" fill="#8e1d02"/>
        <path id="Path_378" data-name="Path 378" d="M624.915,2024.2h0a2.172,2.172,0,0,1,3,.8l2.817,4.99a.7.7,0,0,0,1.245-.06l6.844-15.449a.773.773,0,0,1,1.48.327,30.439,30.439,0,0,1-8.744,21.225s-4.16-1.592-7.542-8.917A2.278,2.278,0,0,1,624.915,2024.2Z" transform="translate(-620.195 -1953.738)" fill="#8e1d02"/>
        <path id="Path_379" data-name="Path 379" d="M624.915,1813.95h0a2.173,2.173,0,0,1,3,.8l2.817,4.99a.7.7,0,0,0,1.245-.061l6.844-15.449a.773.773,0,0,1,1.48.327,30.439,30.439,0,0,1-8.744,21.225s-4.16-1.592-7.542-8.915A2.279,2.279,0,0,1,624.915,1813.95Z" transform="translate(-620.195 -1773.754)" fill="#8e1d02"/>
        <path id="Path_380" data-name="Path 380" d="M630.125,1605.46h0a2.172,2.172,0,0,1,3,.8l2.817,4.99a.7.7,0,0,0,1.245-.06l6.844-15.449a.773.773,0,0,1,1.48.327,30.439,30.439,0,0,1-8.744,21.225s-4.16-1.592-7.542-8.917A2.278,2.278,0,0,1,630.125,1605.46Z" transform="translate(-624.655 -1595.278)" fill="#8e1d02"/>
      </g>
    </g>
    <g id="Group_513" data-name="Group 513" transform="translate(368.558 374.147)">
      <path id="Path_381" data-name="Path 381" d="M1615.58,2274.29l2.256,70.141a22.824,22.824,0,0,0,22.725,22.037l167.963.99a16.465,16.465,0,0,0,16.417-14.013c2.626-17.712,5.973-49.406,2.2-79.154H1615.58Z" transform="translate(-1611.865 -2174.54)" fill="#649fd2"/>
      <path id="Path_382" data-name="Path 382" d="M1832.712,2360.464a.5.5,0,0,1-.019-1,15.265,15.265,0,0,0,2.882-.384.5.5,0,0,1,.227.977,16.251,16.251,0,0,1-3.072.41A.074.074,0,0,0,1832.712,2360.464Zm-7.015-.026h0l-3.007-.017a.5.5,0,0,1,0-1h0l3.007.017a.5.5,0,0,1,0,1Zm-10.025-.059h0l-3.007-.017a.5.5,0,0,1,0-1h0l3.007.017a.5.5,0,0,1,0,1Zm-10.024-.061h0l-3.007-.017a.5.5,0,0,1,0-1h0l3.007.017a.5.5,0,0,1,0,1Zm-10.025-.058h0l-3.007-.017a.5.5,0,0,1-.5-.5.529.529,0,0,1,.5-.5l3.007.017a.5.5,0,0,1,0,1Zm-10.024-.059h0l-3.007-.017a.5.5,0,0,1,0-1h0l3.007.017a.5.5,0,0,1,0,1Zm-10.024-.061h0l-3.007-.017a.5.5,0,0,1,0-1h0l3.007.017a.5.5,0,0,1,0,1Zm-10.025-.058h0l-3.007-.017a.5.5,0,0,1,0-1h0l3.007.017a.5.5,0,0,1,0,1Zm-10.024-.059h0l-3.007-.017a.5.5,0,0,1,0-1h0l3.007.017a.5.5,0,0,1,0,1Zm-10.024-.061h0l-3.007-.017a.5.5,0,0,1,0-1h0l3.007.017a.5.5,0,0,1,0,1Zm-10.025-.059h0l-3.007-.017a.5.5,0,0,1,0-1h0l3.007.017a.5.5,0,0,1,0,1Zm-10.024-.058h0l-3.007-.017a.5.5,0,0,1,0-1h0l3.007.017a.5.5,0,0,1,0,1Zm-10.024-.06h0l-3.007-.017a.5.5,0,0,1,0-1h0l3.007.017a.5.5,0,0,1,0,1Zm-10.025-.059h0l-3.007-.017a.5.5,0,0,1,0-1h0l3.007.017a.5.5,0,0,1,0,1Zm-10.024-.059h0l-3.007-.017a.5.5,0,0,1-.5-.5.555.555,0,0,1,.5-.5l3.007.017a.5.5,0,0,1,0,1Zm-10.024-.059h0l-3.007-.017a.5.5,0,0,1,0-1h0l3.007.017a.5.5,0,0,1,0,1Zm-10.025-.059h0l-3.007-.017a.5.5,0,0,1,0-1h0l3.007.017a.5.5,0,0,1,0,1Zm-9.9-1.12a.458.458,0,0,1-.157-.026,22.313,22.313,0,0,1-2.844-1.165.5.5,0,1,1,.445-.9,21.412,21.412,0,0,0,2.715,1.113.5.5,0,0,1-.158.976Zm176.52-1.4a.5.5,0,0,1-.314-.894,15.32,15.32,0,0,0,2.086-2.024.5.5,0,0,1,.764.649,16.312,16.312,0,0,1-2.223,2.158A.509.509,0,0,1,1841.949,2357.031Zm-184.987-3.789a.5.5,0,0,1-.353-.146,22.189,22.189,0,0,1-2.033-2.308.5.5,0,0,1,.8-.609,21.656,21.656,0,0,0,1.94,2.2.5.5,0,0,1,0,.708A.489.489,0,0,1,1656.962,2353.242Zm190.348-4.476a.486.486,0,0,1-.127-.016.5.5,0,0,1-.36-.61,15,15,0,0,0,.32-1.575l.2-1.33a.5.5,0,1,1,.99.142l-.2,1.334a15.917,15.917,0,0,1-.341,1.679A.5.5,0,0,1,1847.31,2348.766Zm-195.629-3.94a.5.5,0,0,1-.475-.34,21.8,21.8,0,0,1-.785-2.973.5.5,0,0,1,.985-.187,20.932,20.932,0,0,0,.749,2.837.5.5,0,0,1-.312.636A.523.523,0,0,1,1651.682,2344.826Zm197.087-5.976a.44.44,0,0,1-.062,0,.5.5,0,0,1-.436-.558q.179-1.456.357-2.981a.5.5,0,0,1,1,.115q-.177,1.531-.358,2.99A.5.5,0,0,1,1848.769,2338.85Zm-198.341-3.918a.5.5,0,0,1-.5-.485l-.1-3.006a.5.5,0,0,1,.485-.517.512.512,0,0,1,.517.485l.1,3.006a.5.5,0,0,1-.485.517Zm199.436-6.046h-.047a.5.5,0,0,1-.452-.547q.14-1.473.274-2.99a.51.51,0,0,1,.543-.456.5.5,0,0,1,.456.543q-.132,1.522-.274,3A.5.5,0,0,1,1849.864,2328.886Zm-199.759-3.973a.5.5,0,0,1-.5-.485l-.1-3.006a.5.5,0,0,1,.485-.517.508.508,0,0,1,.517.485l.1,3.006a.5.5,0,0,1-.485.517Zm200.568-6.02a.238.238,0,0,1-.033,0,.5.5,0,0,1-.467-.534q.1-1.484.184-3a.5.5,0,0,1,1,.056c-.056,1.01-.118,2.015-.184,3.007A.5.5,0,0,1,1850.673,2318.892Zm-200.89-4a.5.5,0,0,1-.5-.485l-.1-3.006a.5.5,0,1,1,1-.032l.1,3.006a.5.5,0,0,1-.485.517Zm201.394-6.013h-.017a.5.5,0,0,1-.484-.518q.05-1.492.086-3a.538.538,0,0,1,.512-.489.5.5,0,0,1,.49.512q-.037,1.516-.088,3.011A.5.5,0,0,1,1851.177,2308.88Zm-201.717-4a.5.5,0,0,1-.5-.485l-.1-3.006a.5.5,0,0,1,.485-.517.526.526,0,0,1,.517.485l.1,3.006a.5.5,0,0,1-.485.517Zm201.885-6.02a.5.5,0,0,1-.5-.5q0-1.494-.022-3a.5.5,0,0,1,.5-.507.527.527,0,0,1,.508.5q.019,1.512.022,3.011a.5.5,0,0,1-.5.5Zm-202.206-4a.5.5,0,0,1-.5-.485l-.1-3.006a.5.5,0,0,1,.485-.517.528.528,0,0,1,.517.485l.1,3.006a.5.5,0,0,1-.485.517Zm201.994-6.02a.5.5,0,0,1-.5-.481q-.063-1.5-.144-3a.5.5,0,0,1,1-.056q.084,1.505.145,3.01a.5.5,0,0,1-.479.522A.112.112,0,0,1,1851.134,2288.836Zm-202.317-4a.5.5,0,0,1-.5-.485l-.1-3.006a.5.5,0,0,1,.485-.517.512.512,0,0,1,.517.485l.1,3a.5.5,0,0,1-.485.518Zm201.673-6.006a.5.5,0,0,1-.5-.458q-.134-1.494-.288-2.986a.5.5,0,0,1,1-.1q.155,1.5.289,3a.5.5,0,0,1-.455.543A.258.258,0,0,1,1850.49,2278.831Zm-202-4.013a.5.5,0,0,1-.5-.485l-.1-3.006a.5.5,0,0,1,.485-.517.531.531,0,0,1,.517.485l.1,3.006a.5.5,0,0,1-.485.517Zm198.28-3.006h-3.007a.5.5,0,0,1,0-1h3.007a.5.5,0,0,1,0,1Zm-10.025,0h-3.007a.5.5,0,1,1,0-1h3.007a.5.5,0,0,1,0,1Zm-10.024,0h-3.007a.5.5,0,0,1,0-1h3.007a.5.5,0,0,1,0,1Zm-10.025,0h-3.007a.5.5,0,0,1,0-1h3.007a.5.5,0,0,1,0,1Zm-10.024,0h-3.007a.5.5,0,0,1,0-1h3.007a.5.5,0,0,1,0,1Zm-10.025,0h-3.007a.5.5,0,0,1,0-1h3.007a.5.5,0,0,1,0,1Zm-10.024,0h-3.007a.5.5,0,0,1,0-1h3.007a.5.5,0,0,1,0,1Zm-10.025,0H1773.6a.5.5,0,0,1,0-1h3.007a.5.5,0,0,1,0,1Zm-10.024,0h-3.007a.5.5,0,0,1,0-1h3.007a.5.5,0,0,1,0,1Zm-10.025,0h-3.007a.5.5,0,0,1,0-1h3.007a.5.5,0,0,1,0,1Zm-10.024,0h-3.007a.5.5,0,0,1,0-1h3.007a.5.5,0,0,1,0,1Zm-10.025,0H1733.5a.5.5,0,0,1,0-1h3.007a.5.5,0,0,1,0,1Zm-10.024,0h-3.007a.5.5,0,0,1,0-1h3.007a.5.5,0,0,1,0,1Zm-10.024,0h-3.007a.5.5,0,0,1,0-1h3.007a.5.5,0,0,1,0,1Zm-10.025,0h-3.007a.5.5,0,0,1,0-1h3.007a.5.5,0,0,1,0,1Zm-10.024,0H1693.4a.5.5,0,0,1,0-1h3.007a.5.5,0,0,1,0,1Zm-10.025,0h-3.007a.5.5,0,0,1,0-1h3.007a.5.5,0,0,1,0,1Zm-10.024,0h-3.007a.5.5,0,0,1,0-1h3.007a.5.5,0,0,1,0,1Zm-10.025,0h-3.007a.5.5,0,0,1,0-1h3.007a.5.5,0,0,1,0,1Zm-10.024,0h-3.007a.5.5,0,0,1,0-1h3.007a.5.5,0,0,1,0,1Z" transform="translate(-1639.531 -2171.561)" fill="#fff"/>
      <path id="Path_383" data-name="Path 383" d="M1957.52,1868.663l.505-5.41a4.16,4.16,0,0,1,3.154-2.428c5.233-.833,18.21-2.3,24.46,2.372l.933,6.287Z" transform="translate(-1904.581 -1819.832)" fill="#558fc2"/>
      <path id="Path_384" data-name="Path 384" d="M2034.705,1764.831a7.512,7.512,0,0,1-3.62,0,3.271,3.271,0,0,1-2.495-3.168V1744.72h8.62v16.926A3.286,3.286,0,0,1,2034.705,1764.831Z" transform="translate(-1965.42 -1721.205)" fill="#558fc2"/>
      <path id="Path_385" data-name="Path 385" d="M2537.5,1868.663l.505-5.41a4.16,4.16,0,0,1,3.154-2.428c5.233-.833,18.21-2.3,24.459,2.372l.934,6.287Z" transform="translate(-2401.069 -1819.832)" fill="#558fc2"/>
      <path id="Path_386" data-name="Path 386" d="M2614.685,1754.216a7.515,7.515,0,0,1-3.62,0,3.271,3.271,0,0,1-2.495-3.169V1732.32h8.62v18.71A3.286,3.286,0,0,1,2614.685,1754.216Z" transform="translate(-2461.908 -1710.59)" fill="#558fc2"/>
      <path id="Path_387" data-name="Path 387" d="M1995.861,1609.037l92.7-3.069a4.47,4.47,0,0,0,4.27-3.668,37.753,37.753,0,0,0,.288-11.751,10.693,10.693,0,0,0-10.365-9.051c-17.293-.412-61.319-.4-85.584,9.2a8.471,8.471,0,0,0-5.119,5.881,20.546,20.546,0,0,0-.222,9.413A3.989,3.989,0,0,0,1995.861,1609.037Z" transform="translate(-1933.568 -1581.37)" fill="#68a6db"/>
      <path id="Path_388" data-name="Path 388" d="M2004.975,1635.937a1,1,0,0,1-1-.9,22.4,22.4,0,0,1,.573-7.2,8.33,8.33,0,0,1,5.67-5.766c5.191-1.523,15.115-4.113,23.247-4.342a1,1,0,0,1,.055,2.005c-7.906.222-17.64,2.764-22.738,4.261a6.307,6.307,0,0,0-4.3,4.365,20.528,20.528,0,0,0-.513,6.475,1,1,0,0,1-.9,1.1C2005.043,1635.935,2005.009,1635.937,2004.975,1635.937Z" transform="translate(-1944.287 -1612.494)" fill="#fff"/>
      <path id="Path_389" data-name="Path 389" d="M1599.7,1903.022c29.95-.383,159.509-1.745,197.143,2.8a7.662,7.662,0,0,1,6.586,5.934c2.224,10.054,6.7,33.408,6.167,56.557a6.709,6.709,0,0,1-5.492,6.4l-85.907,16.253h-30.516l-91.534-18.195a7.158,7.158,0,0,1-5.771-6.645c-.595-11.646-1.525-38.974,1.625-56.564A7.918,7.918,0,0,1,1599.7,1903.022Z" transform="translate(-1589.774 -1856.299)" fill="#7daed9"/>
      <path id="Path_390" data-name="Path 390" d="M1729.466,2025.1a.461.461,0,0,1-.1-.01l-2.95-.586a.5.5,0,1,1,.2-.982l2.924.582a.509.509,0,0,1,.068,0h3.007a.5.5,0,0,1,0,1h-3.007a.546.546,0,0,1-.069,0Zm23.194,0h-3.007a.5.5,0,0,1,0-1h3.007a.5.5,0,0,1,0,1Zm-10.025,0h-3.007a.5.5,0,0,1,0-1h3.007a.5.5,0,0,1,0,1Zm17.021-.207a.5.5,0,0,1-.094-.995l2.955-.558a.5.5,0,1,1,.187.985l-2.955.558A.415.415,0,0,1,1759.656,2024.888Zm-40.023-1.746a.462.462,0,0,1-.1-.01l-2.95-.586a.5.5,0,1,1,.2-.982l2.95.586a.5.5,0,0,1-.1.992Zm49.872-.118a.5.5,0,0,1-.094-.995l2.955-.558a.5.5,0,0,1,.187.985l-2.955.559A.414.414,0,0,1,1769.506,2023.024Zm-59.7-1.837a.461.461,0,0,1-.1-.01l-2.95-.586a.5.5,0,1,1,.2-.982l2.95.586a.5.5,0,0,1-.1.992Zm69.554-.026a.5.5,0,0,1-.094-.995l2.955-.558a.5.5,0,1,1,.187.985l-2.955.559A.413.413,0,0,1,1779.355,2021.161Zm9.849-1.863a.5.5,0,0,1-.094-.995l2.955-.559a.5.5,0,0,1,.187.985l-2.955.559A.506.506,0,0,1,1789.2,2019.3Zm-89.235-.065a.452.452,0,0,1-.1-.01l-2.95-.586a.5.5,0,0,1,.2-.982l2.95.586a.5.5,0,0,1-.1.992Zm99.085-1.8a.5.5,0,0,1-.094-.995l2.955-.559a.5.5,0,1,1,.187.985l-2.955.559A.4.4,0,0,1,1799.054,2017.434Zm-108.916-.155a.455.455,0,0,1-.1-.01l-2.95-.586a.5.5,0,1,1,.194-.982l2.95.586a.5.5,0,0,1-.1.992Zm118.766-1.707a.5.5,0,0,1-.094-.995l2.955-.559a.5.5,0,0,1,.187.985l-2.955.559A.423.423,0,0,1,1808.9,2015.571Zm-128.6-.248a.462.462,0,0,1-.1-.01l-2.95-.586a.5.5,0,1,1,.2-.982l2.95.586a.5.5,0,0,1-.1.992Zm138.448-1.615a.5.5,0,0,1-.094-.995l2.955-.559a.5.5,0,0,1,.187.985l-2.955.558A.423.423,0,0,1,1818.754,2013.708Zm-148.28-.338a.462.462,0,0,1-.1-.01l-2.95-.586a.5.5,0,0,1,.2-.982l2.95.586a.5.5,0,0,1-.1.992Zm158.13-1.526a.5.5,0,0,1-.094-.995l2.955-.559a.507.507,0,0,1,.586.4.5.5,0,0,1-.4.586l-2.955.558A.414.414,0,0,1,1828.6,2011.844Zm-167.962-.429a.462.462,0,0,1-.1-.01l-2.95-.586a.5.5,0,1,1,.2-.982l2.95.586a.5.5,0,0,1-.1.992Zm177.811-1.434a.5.5,0,0,1-.094-.995l2.955-.558a.5.5,0,1,1,.186.985l-2.955.558A.4.4,0,0,1,1838.453,2009.981Zm-187.643-.52a.461.461,0,0,1-.1-.01l-2.95-.586a.5.5,0,0,1,.2-.982l2.95.586a.5.5,0,0,1-.1.992Zm-9.832-1.955a.453.453,0,0,1-.1-.01l-2.548-.507-.06-1.192a.5.5,0,0,1,.477-.524.477.477,0,0,1,.524.477l.02.409,1.782.354a.5.5,0,0,1-.1.993Zm202.3-3.566a.5.5,0,0,1-.5-.5q-.019-1.5-.063-3a.5.5,0,0,1,.487-.515.52.52,0,0,1,.515.486q.043,1.5.063,3.015a.5.5,0,0,1-.5.507Zm-204.794-4.676a.5.5,0,0,1-.5-.485c-.033-.966-.063-1.971-.092-3.009a.5.5,0,0,1,.488-.515.528.528,0,0,1,.515.488c.029,1.036.059,2.04.091,3a.5.5,0,0,1-.484.518Zm204.4-5.338a.5.5,0,0,1-.5-.469q-.1-1.507-.214-2.994a.5.5,0,0,1,.461-.538.5.5,0,0,1,.538.461q.117,1.494.216,3.009a.5.5,0,0,1-.468.533Zm-204.629-4.686a.5.5,0,0,1-.5-.5q-.017-1.484-.024-3.012a.5.5,0,0,1,.5-.5h0a.5.5,0,0,1,.5.5q.006,1.522.024,3a.5.5,0,0,1-.5.507Zm203.759-5.306a.5.5,0,0,1-.5-.448q-.164-1.512-.341-2.983a.5.5,0,0,1,.438-.557.5.5,0,0,1,.558.438q.177,1.477.343,2.994a.5.5,0,0,1-.445.551A.345.345,0,0,1,1842.015,1983.935Zm-203.746-4.719h-.007a.5.5,0,0,1-.494-.51q.024-1.5.061-3.011a.512.512,0,0,1,.514-.488.5.5,0,0,1,.488.514c-.026,1-.046,2.005-.061,3A.5.5,0,0,1,1638.268,1979.217Zm202.475-5.227a.5.5,0,0,1-.5-.429q-.224-1.52-.452-2.97a.5.5,0,1,1,.989-.156q.229,1.453.455,2.981a.5.5,0,0,1-.423.569A.643.643,0,0,1,1840.744,1973.99Zm-202.148-4.8h-.026a.5.5,0,0,1-.475-.527c.053-1.009.112-2.014.179-3.009a.5.5,0,0,1,.534-.467.5.5,0,0,1,.466.534q-.1,1.488-.177,3A.5.5,0,0,1,1638.6,1969.194Zm200.515-5.1a.5.5,0,0,1-.492-.412q-.285-1.553-.557-2.951a.5.5,0,1,1,.983-.193q.272,1.4.56,2.963a.5.5,0,0,1-.4.583A.424.424,0,0,1,1839.11,1964.094Zm-199.729-4.893c-.019,0-.037,0-.055,0a.5.5,0,0,1-.443-.553q.168-1.531.367-3a.492.492,0,0,1,.564-.429.5.5,0,0,1,.43.564q-.2,1.453-.364,2.973A.5.5,0,0,1,1639.381,1959.2Zm197.316-4.533-.059,0q-1.393-.162-2.981-.32a.5.5,0,0,1-.449-.548.509.509,0,0,1,.547-.451q1.6.158,3,.323a.5.5,0,0,1-.058,1Zm-9.983-.9h-.037q-1.447-.1-3-.2a.5.5,0,0,1,.065-1q1.555.1,3,.2a.5.5,0,0,1-.036,1Zm-10.006-.6h-.026q-1.466-.076-3-.145a.5.5,0,1,1,.046-1q1.538.071,3.006.145a.5.5,0,0,1-.024,1Zm-10.015-.439h-.02l-3-.108a.5.5,0,0,1-.484-.518.522.522,0,0,1,.518-.484l3.007.108a.5.5,0,0,1-.017,1Zm-10.021-.333h-.016l-3.006-.085a.5.5,0,0,1-.488-.515.487.487,0,0,1,.515-.488l3.007.085a.5.5,0,0,1-.013,1Zm-10.021-.261h-.012l-3.006-.066a.5.5,0,0,1,.01-1h.01l3.007.066a.5.5,0,0,1-.01,1Zm-10.024-.2h-.009l-3.006-.052a.5.5,0,0,1,.009-1h.009l3.009.052a.5.5,0,0,1-.012,1Zm-133.348,0a.5.5,0,0,1-.006-1l3.01-.036h.006a.5.5,0,0,1,.006,1l-3.009.036Zm10.029-.115a.5.5,0,0,1,0-1l3.009-.03h0a.5.5,0,0,1,0,1l-3.009.03Zm113.295-.042h-.007l-3.006-.039a.5.5,0,0,1,.006-1h.006l3.007.039a.5.5,0,0,1-.006,1Zm-103.265-.055a.5.5,0,0,1,0-1l3.009-.026h0a.5.5,0,0,1,0,1l-3.009.026Zm93.24-.063h0l-3.007-.029a.5.5,0,0,1,0-1h0l3.007.029a.5.5,0,0,1,0,1Zm-83.212-.019a.5.5,0,0,1,0-1l3.007-.021h0a.5.5,0,0,1,0,1l-3.009.021Zm73.188-.068h0l-3.007-.02a.5.5,0,0,1,0-1h0l3.007.02a.5.5,0,0,1,0,1Zm-63.162,0a.5.5,0,0,1,0-1l3.009-.017h0a.5.5,0,0,1,0,1l-3.007.017Zm10.028-.049a.5.5,0,0,1,0-1l3.009-.012h0a.5.5,0,0,1,0,1l-3.009.011Zm43.109-.009h0l-3.007-.011a.5.5,0,0,1,0-1h0l3.007.012a.5.5,0,0,1,0,1Zm-33.082-.026a.5.5,0,0,1,0-1l3.009-.007a.5.5,0,1,1,0,1l-3.007.007h0Zm23.057-.006h0l-3.007,0a.5.5,0,1,1,0-1h0l3.007,0a.5.5,0,0,1,0,1Zm-13.031-.01a.5.5,0,1,1,0-1h3a.5.5,0,0,1,.505.5.5.5,0,0,1-.5.5Z" transform="translate(-1630.826 -1897.336)" fill="#fff"/>
      <path id="Path_391" data-name="Path 391" d="M2243.436,2370.927H2216.7a6.907,6.907,0,0,1-6.87-6.069l-3.089-25.725a6.9,6.9,0,0,1,6.87-7.7h32.116a6.9,6.9,0,0,1,6.891,7.494l-2.293,25.725A6.9,6.9,0,0,1,2243.436,2370.927Z" transform="translate(-2117.885 -2223.455)" fill="#FFB349"/>
    </g>
    <g id="Group_522" data-name="Group 522" transform="translate(358.067 174.04)">
      <g id="Group_517" data-name="Group 517" transform="translate(55.65)">
        <g id="Group_514" data-name="Group 514">
          <path id="Path_392" data-name="Path 392" d="M1905.414,263.773a1.609,1.609,0,0,1-1.6-1.441c-.19-1.808-.3-3.651-.338-5.476a1.609,1.609,0,0,1,1.578-1.64h.032a1.609,1.609,0,0,1,1.608,1.578c.033,1.735.141,3.485.321,5.2a1.609,1.609,0,0,1-1.432,1.768C1905.527,263.77,1905.469,263.773,1905.414,263.773Zm.1-14.017a1.729,1.729,0,0,1-.192-.012,1.609,1.609,0,0,1-1.409-1.786c.214-1.812.508-3.633.875-5.413a1.609,1.609,0,1,1,3.153.648c-.347,1.691-.626,3.422-.831,5.144A1.61,1.61,0,0,1,1905.518,249.756Zm3.187-13.644a1.61,1.61,0,0,1-1.516-2.149c.61-1.716,1.3-3.426,2.061-5.085a1.609,1.609,0,1,1,2.928,1.336c-.718,1.575-1.378,3.2-1.958,4.828A1.612,1.612,0,0,1,1908.705,236.112Zm6.16-12.593a1.61,1.61,0,0,1-1.355-2.475c.98-1.536,2.038-3.049,3.145-4.5a1.609,1.609,0,0,1,2.555,1.956c-1.051,1.373-2.057,2.81-2.989,4.271A1.606,1.606,0,0,1,1914.865,223.519Zm8.813-10.9a1.608,1.608,0,0,1-1.13-2.752c1.294-1.278,2.66-2.518,4.061-3.687a1.609,1.609,0,0,1,2.06,2.472c-1.333,1.11-2.631,2.289-3.861,3.5A1.609,1.609,0,0,1,1923.678,212.617Zm11-8.682a1.608,1.608,0,0,1-.851-2.974c1.546-.962,3.154-1.869,4.776-2.7a1.609,1.609,0,0,1,1.461,2.868c-1.542.786-3.069,1.648-4.539,2.562A1.609,1.609,0,0,1,1934.682,203.935Zm58.958-3.831a1.607,1.607,0,0,1-.665-.144c-1.573-.715-3.2-1.372-4.834-1.949a1.609,1.609,0,0,1,1.075-3.033c1.72.609,3.433,1.3,5.09,2.053a1.609,1.609,0,0,1-.667,3.073Zm-46.312-2.191a1.61,1.61,0,0,1-.526-3.131c1.722-.595,3.491-1.12,5.257-1.563a1.609,1.609,0,1,1,.783,3.121c-1.677.422-3.357.921-4.992,1.484A1.571,1.571,0,0,1,1947.328,197.913Zm32.98-2.132a1.642,1.642,0,0,1-.322-.032c-1.694-.346-3.428-.62-5.149-.822a1.609,1.609,0,0,1,.373-3.2c1.811.212,3.635.5,5.418.864a1.61,1.61,0,0,1-.32,3.187Zm-19.3-.914a1.609,1.609,0,0,1-.168-3.209c1.81-.193,3.651-.311,5.475-.348h.034a1.609,1.609,0,0,1,.033,3.217c-1.732.036-3.481.148-5.2.333C1961.118,194.864,1961.06,194.867,1961,194.867Z" transform="translate(-1903.478 -191.31)" fill="#4d677e"/>
          <path id="Path_393" data-name="Path 393" d="M2575.722,263.585a1.6,1.6,0,0,1-.917-.288c-.681-.474-1.383-.941-2.087-1.389a1.608,1.608,0,1,1,1.728-2.714c.741.471,1.479.963,2.2,1.461a1.608,1.608,0,0,1-.918,2.93Z" transform="translate(-2475.739 -249.205)" fill="#4d677e"/>
        </g>
        <g id="Group_515" data-name="Group 515" transform="translate(24.568 50.138)">
          <path id="Path_394" data-name="Path 394" d="M2767.311,545.346a1.609,1.609,0,0,1-1.586-1.355c-.131-.819-.282-1.65-.448-2.467a1.609,1.609,0,0,1,3.154-.641c.174.861.333,1.735.471,2.6a1.608,1.608,0,0,1-1.334,1.843A1.3,1.3,0,0,1,2767.311,545.346Z" transform="translate(-2665.756 -539.594)" fill="#4d677e"/>
          <path id="Path_395" data-name="Path 395" d="M2169.922,683.67q-1.11,0-2.23-.037a1.61,1.61,0,0,1,.11-3.217c1.722.058,3.44.046,5.13-.037a1.608,1.608,0,1,1,.157,3.213C2172.044,683.644,2170.979,683.67,2169.922,683.67Zm-10.679-.9a1.621,1.621,0,0,1-.273-.023c-1.769-.3-3.546-.684-5.28-1.132a1.609,1.609,0,1,1,.806-3.115c1.647.426,3.334.787,5.015,1.075a1.609,1.609,0,0,1-.268,3.194Zm22.254-.174a1.609,1.609,0,0,1-.3-3.19c1.67-.314,3.35-.7,4.992-1.16a1.609,1.609,0,1,1,.861,3.1c-1.73.481-3.5.891-5.259,1.222A1.784,1.784,0,0,1,2181.5,682.593Zm-35.515-3.633a1.611,1.611,0,0,1-.612-.122c-1.658-.684-3.308-1.445-4.9-2.266a1.609,1.609,0,0,1,1.473-2.86c1.513.779,3.079,1.5,4.654,2.151a1.61,1.61,0,0,1-.613,3.1Zm48.7-.4a1.61,1.61,0,0,1-.638-3.088c1.559-.674,3.112-1.424,4.615-2.23a1.609,1.609,0,1,1,1.52,2.836c-1.582.848-3.217,1.638-4.86,2.348A1.6,1.6,0,0,1,2194.679,678.558Zm11.977-6.831a1.609,1.609,0,0,1-.947-2.911c1.379-1,2.731-2.073,4.019-3.184a1.609,1.609,0,0,1,2.1,2.437c-1.356,1.169-2.78,2.3-4.231,3.351A1.6,1.6,0,0,1,2206.656,671.727Zm10.2-9.278a1.609,1.609,0,0,1-1.2-2.673c1.129-1.278,2.215-2.619,3.23-3.985a1.609,1.609,0,0,1,2.583,1.92c-1.068,1.437-2.213,2.847-3.4,4.192A1.6,1.6,0,0,1,2216.859,662.449Zm7.936-11.282a1.609,1.609,0,0,1-1.408-2.384c.822-1.494,1.588-3.039,2.279-4.594a1.609,1.609,0,0,1,2.941,1.306c-.727,1.638-1.535,3.266-2.4,4.838A1.609,1.609,0,0,1,2224.795,651.167Zm5.269-12.754a1.611,1.611,0,0,1-1.548-2.054c.471-1.634.877-3.31,1.209-4.981a1.609,1.609,0,0,1,3.157.628c-.35,1.759-.777,3.524-1.274,5.244A1.61,1.61,0,0,1,2230.064,638.413Zm2.335-13.591-.1,0a1.609,1.609,0,0,1-1.507-1.7c.076-1.252.115-2.521.115-3.773,0-.453-.006-.905-.014-1.356a1.61,1.61,0,0,1,1.573-1.644,1.591,1.591,0,0,1,1.644,1.573q.015.713.016,1.427c0,1.317-.04,2.652-.121,3.969A1.61,1.61,0,0,1,2232.4,624.822Z" transform="translate(-2130.173 -605.292)" fill="#4d677e"/>
          <path id="Path_396" data-name="Path 396" d="M2077.821,976.891a1.609,1.609,0,0,1-.924-.292c-.713-.5-1.428-1.026-2.126-1.562a1.609,1.609,0,1,1,1.958-2.554c.664.508,1.343,1.008,2.02,1.483a1.609,1.609,0,0,1-.927,2.925Z" transform="translate(-2074.141 -909.882)" fill="#4d677e"/>
        </g>
        <g id="Group_516" data-name="Group 516" transform="translate(15.781 15.244)">
          <path id="Path_397" data-name="Path 397" d="M2027.743,380.443a.751.751,0,0,0,.842.23l8.59-3.158a39.9,39.9,0,0,0,11.373,6.125l2.094,8.9a.751.751,0,0,0,.656.576l10.922,1.107a.754.754,0,0,0,.759-.432l3.838-8.3a39.9,39.9,0,0,0,12.37-3.72l7.782,4.817a.754.754,0,0,0,.871-.056l8.506-6.942a.751.751,0,0,0,.23-.842l-3.158-8.59a39.856,39.856,0,0,0,6.124-11.372l8.9-2.095a.751.751,0,0,0,.576-.656l1.107-10.922a.753.753,0,0,0-.433-.759l-8.3-3.838a39.858,39.858,0,0,0-3.72-12.37l4.818-7.782a.754.754,0,0,0-.056-.871l-6.941-8.506a.751.751,0,0,0-.842-.23l-8.59,3.158a39.893,39.893,0,0,0-11.373-6.125l-2.094-8.9a.751.751,0,0,0-.656-.576l-10.922-1.106a.75.75,0,0,0-.759.433l-3.838,8.3a39.859,39.859,0,0,0-12.37,3.72l-7.782-4.817a.754.754,0,0,0-.871.056l-8.506,6.942a.751.751,0,0,0-.23.842l3.158,8.59a39.855,39.855,0,0,0-6.124,11.372l-8.9,2.095a.751.751,0,0,0-.576.656l-1.107,10.922a.754.754,0,0,0,.432.759l8.3,3.838a39.9,39.9,0,0,0,3.72,12.37l-4.817,7.782a.754.754,0,0,0,.056.871Z" transform="translate(-2013.104 -297.202)" fill="#34648e"/>
          <path id="Path_398" data-name="Path 398" d="M2284.474,579.6a11.036,11.036,0,1,1,1.616-.118A11.2,11.2,0,0,1,2284.474,579.6Zm.026-19.5a8.462,8.462,0,1,0,8.354,7.229,8.464,8.464,0,0,0-8.354-7.229Z" transform="translate(-2235.967 -520.049)" fill="#fff" opacity="0.56"/>
          <path id="Path_399" data-name="Path 399" d="M2189.965,498.827a27.431,27.431,0,0,1-2.784-.141h0q-.44-.045-.878-.1a27.389,27.389,0,0,1-4.248-.917l-.056-.017-.16-.05q-.156-.048-.311-.1a.646.646,0,0,1-.446-.612.633.633,0,0,1,.032-.2.643.643,0,0,1,.811-.413,25.877,25.877,0,0,0,28.3-8.6,25.84,25.84,0,1,0-43.714-5.014.619.619,0,0,1,.06.274.644.644,0,0,1-1.226.274,27.064,27.064,0,0,1-2.561-11.5,27.558,27.558,0,0,1,.138-2.752,27.137,27.137,0,0,1,54.135,2.679q0,1.388-.141,2.788a27.148,27.148,0,0,1-26.946,24.406Z" transform="translate(-2141.233 -423.34)" fill="#fff" opacity="0.56"/>
        </g>
      </g>
      <g id="Group_521" data-name="Group 521" transform="translate(0 59.2)">
        <g id="Group_518" data-name="Group 518">
          <path id="Path_400" data-name="Path 400" d="M1525.876,963.109a.993.993,0,0,1-.953-.714c-.237-.809-.453-1.637-.643-2.46a.993.993,0,0,1,1.936-.445c.18.785.386,1.573.613,2.345a.994.994,0,0,1-.953,1.274Z" transform="translate(-1523.196 -907.445)" fill="#4d677e"/>
          <path id="Path_401" data-name="Path 401" d="M1518.109,650.71a.994.994,0,0,1-.988-.893,42.933,42.933,0,0,1-.222-4.366c0-.305,0-.612.01-.92a1.028,1.028,0,0,1,1.015-.973,1,1,0,0,1,.973,1.013c-.006.294-.01.587-.01.88a41.5,41.5,0,0,0,.212,4.165.993.993,0,0,1-.887,1.09Q1518.159,650.71,1518.109,650.71Zm.219-10.316a.948.948,0,0,1-.142-.01,1,1,0,0,1-.842-1.126,43.2,43.2,0,0,1,1.073-5.18.994.994,0,1,1,1.917.521,41.031,41.031,0,0,0-1.024,4.941A1,1,0,0,1,1518.328,640.394Zm2.712-9.955a.993.993,0,0,1-.918-1.372,42.962,42.962,0,0,1,2.315-4.761.994.994,0,0,1,1.73.977,40.736,40.736,0,0,0-2.207,4.539A.994.994,0,0,1,1521.04,630.44Zm5.079-8.984a.994.994,0,0,1-.8-1.586,43.006,43.006,0,0,1,3.407-4.048.994.994,0,0,1,1.438,1.372,40.842,40.842,0,0,0-3.249,3.859A.987.987,0,0,1,1526.119,621.456Zm7.117-7.47a.994.994,0,0,1-.63-1.762,43.2,43.2,0,0,1,4.287-3.1.994.994,0,1,1,1.064,1.679,41.318,41.318,0,0,0-4.09,2.955A1,1,0,0,1,1533.236,613.986Zm8.715-5.516a.994.994,0,0,1-.426-1.893,42.659,42.659,0,0,1,4.912-1.958.994.994,0,0,1,.619,1.889,41.072,41.072,0,0,0-4.683,1.866A.956.956,0,0,1,1541.951,608.469Zm9.795-3.217a.993.993,0,0,1-.19-1.968,42.879,42.879,0,0,1,5.244-.692.994.994,0,0,1,.14,1.984,40.869,40.869,0,0,0-5,.659A1.108,1.108,0,0,1,1551.746,605.252Zm15.429-.125a.889.889,0,0,1-.174-.016,41.183,41.183,0,0,0-4.356-.534c-.222-.016-.439-.03-.656-.04a1,1,0,0,1-.942-1.044.984.984,0,0,1,1.044-.941c.232.013.464.026.7.043a43.346,43.346,0,0,1,4.562.56.994.994,0,0,1-.173,1.972Z" transform="translate(-1516.9 -602.548)" fill="#4d677e"/>
        </g>
        <g id="Group_519" data-name="Group 519" transform="translate(16.448 60.678)">
          <path id="Path_402" data-name="Path 402" d="M1696.46,1049.158a.994.994,0,0,1-.013-1.988,41.1,41.1,0,0,0,4.948-.364.994.994,0,1,1,.266,1.971,43.367,43.367,0,0,1-5.188.381Zm-5.079-.24a.889.889,0,0,1-.108-.006,43.279,43.279,0,0,1-5.132-.865.994.994,0,0,1,.448-1.938,41.727,41.727,0,0,0,4.9.826.994.994,0,0,1-.1,1.982Zm15.134-1.119a.994.994,0,0,1-.252-1.955,41.55,41.55,0,0,0,4.716-1.55.994.994,0,0,1,.733,1.848,43.363,43.363,0,0,1-4.943,1.625A1.025,1.025,0,0,1,1706.515,1047.8Zm-25.024-1.173a.986.986,0,0,1-.341-.06,42.547,42.547,0,0,1-4.774-2.08.994.994,0,0,1,.9-1.771,40.884,40.884,0,0,0,4.551,1.982.995.995,0,0,1-.34,1.929Zm34.451-2.575a.994.994,0,0,1-.476-1.866,40.959,40.959,0,0,0,4.2-2.637.994.994,0,1,1,1.156,1.617,42.969,42.969,0,0,1-4.406,2.765A1,1,0,0,1,1715.943,1044.05Zm8.255-5.9a.994.994,0,0,1-.672-1.726,41.379,41.379,0,0,0,3.452-3.567.993.993,0,1,1,1.509,1.293,43.288,43.288,0,0,1-3.619,3.74A.984.984,0,0,1,1724.2,1038.148Zm6.6-7.709a.994.994,0,0,1-.826-1.545,40.4,40.4,0,0,0,2.495-4.291.994.994,0,0,1,1.776.893,43.23,43.23,0,0,1-2.616,4.5A1,1,0,0,1,1730.8,1030.439Z" transform="translate(-1669.403 -1024.056)" fill="#4d677e"/>
          <path id="Path_403" data-name="Path 403" d="M1634.163,1128.171a.979.979,0,0,1-.556-.171c-.7-.476-1.4-.976-2.061-1.484a.994.994,0,0,1,1.209-1.578c.633.485,1.294.962,1.966,1.417a.993.993,0,0,1-.559,1.817Z" transform="translate(-1631.157 -1110.241)" fill="#4d677e"/>
        </g>
        <g id="Group_520" data-name="Group 520" transform="translate(10.487 10.069)">
          <path id="Path_404" data-name="Path 404" d="M1599.545,728.194a.5.5,0,0,0,.563.154l5.748-2.113a26.71,26.71,0,0,0,7.61,4.1l1.4,5.958a.5.5,0,0,0,.439.386l7.309.74a.506.506,0,0,0,.508-.289l2.568-5.555a26.66,26.66,0,0,0,8.277-2.489l5.207,3.223a.505.505,0,0,0,.583-.037l5.692-4.644a.5.5,0,0,0,.154-.563l-2.113-5.748a26.7,26.7,0,0,0,4.1-7.611l5.958-1.4a.5.5,0,0,0,.386-.439l.74-7.309a.5.5,0,0,0-.289-.507l-5.555-2.568a26.66,26.66,0,0,0-2.489-8.277l3.223-5.208a.505.505,0,0,0-.037-.583l-4.644-5.692a.5.5,0,0,0-.563-.154l-5.748,2.113a26.71,26.71,0,0,0-7.609-4.1l-1.4-5.958a.5.5,0,0,0-.439-.386l-7.309-.74a.5.5,0,0,0-.507.289l-2.568,5.555a26.66,26.66,0,0,0-8.277,2.489l-5.207-3.223a.5.5,0,0,0-.583.037l-5.692,4.644a.5.5,0,0,0-.154.563l2.113,5.748a26.7,26.7,0,0,0-4.1,7.611l-5.958,1.4a.5.5,0,0,0-.386.439l-.74,7.309a.506.506,0,0,0,.289.508l5.555,2.568a26.663,26.663,0,0,0,2.489,8.277l-3.223,5.207a.5.5,0,0,0,.037.583Z" transform="translate(-1589.752 -672.492)" fill="#34648e"/>
          <path id="Path_405" data-name="Path 405" d="M1770.529,860.822a7.523,7.523,0,1,1,1.11-.081A7.791,7.791,0,0,1,1770.529,860.822Zm.019-13.047a5.744,5.744,0,0,0-.81.059,5.529,5.529,0,1,0,1.612,10.941h0a5.529,5.529,0,0,0-.8-11Z" transform="translate(-1738.083 -820.841)" fill="#fff" opacity="0.56"/>
          <path id="Path_406" data-name="Path 406" d="M1704.7,804.611a18.9,18.9,0,0,1-5.639-.862l-.163-.052a.994.994,0,0,1,.612-1.892,16.807,16.807,0,0,0,3.487.731h0c.065.007.131.013.2.019a16.56,16.56,0,0,0,8.093-1.283,16.828,16.828,0,0,0,3.859-2.325l.029-.023.088-.072a16.619,16.619,0,0,0,6.068-11.277,16.836,16.836,0,0,0,.088-1.72,16.733,16.733,0,1,0-31.888,7.133.96.96,0,0,1,.094.422.994.994,0,0,1-1.894.422,18.678,18.678,0,0,1-1.768-7.932q0-.95.095-1.9a18.721,18.721,0,0,1,37.346,1.85,19.19,19.19,0,0,1-.1,1.923A18.74,18.74,0,0,1,1704.7,804.611Z" transform="translate(-1672.11 -753.536)" fill="#fff" opacity="0.56"/>
        </g>
      </g>
    </g>
    <g id="Group_523" data-name="Group 523" transform="translate(177.275 262.198)" opacity="0.87">
      <path id="Path_407" data-name="Path 407" d="M405.815,1966.4l-140.05,115.408a13.057,13.057,0,0,0-1.1,19.137l.867.9a12.138,12.138,0,0,0,17.219.26l130.538-127.458Z" transform="translate(-261.012 -1799.023)" fill="url(#linear-gradient-4)"/>
      <ellipse id="Ellipse_25" data-name="Ellipse 25" cx="84.182" cy="82.664" rx="84.182" ry="82.664" transform="translate(99.306 56.183) rotate(-19.493)" fill="#fff" opacity="0.5"/>
      <path id="Path_408" data-name="Path 408" d="M1106.9,905.267c-48.769,17.262-74.563,70.076-57.614,117.966s70.226,72.718,119,55.458,74.563-70.076,57.614-117.966S1155.672,888.005,1106.9,905.267Zm56.873,160.685c-41.6,14.725-87.054-6.456-101.515-47.311s7.546-85.911,49.151-100.637,87.056,6.456,101.515,47.311S1205.38,1051.227,1163.775,1065.952Z" transform="translate(-931.355 -885.95)" fill="url(#linear-gradient-5)"/>
      <path id="Path_409" data-name="Path 409" d="M1096.4,1067.542a.24.24,0,0,1-.214-.132c-.985-1.951-1.9-3.969-2.737-6a.24.24,0,1,1,.445-.183c.828,2.015,1.743,4.022,2.722,5.961a.24.24,0,0,1-.107.323A.217.217,0,0,1,1096.4,1067.542Zm-7.977-24.46a.239.239,0,0,1-.236-.2,84.343,84.343,0,0,1-1-17.907,86.143,86.143,0,0,1,16.948-47,88.872,88.872,0,0,1,90.364-33.7.24.24,0,0,1-.105.468,88.391,88.391,0,0,0-89.873,33.513A85.673,85.673,0,0,0,1087.667,1025a83.848,83.848,0,0,0,1,17.8.241.241,0,0,1-.2.276Z" transform="translate(-968.162 -922.247)" fill="#fff"/>
      <path id="Path_410" data-name="Path 410" d="M299.761,2720.407c-5.387,0-8.876-1.879-10.372-5.587a9.754,9.754,0,0,1,2.868-10.981l16.638-14.358a.24.24,0,1,1,.314.363L292.57,2704.2a9.276,9.276,0,0,0-2.737,10.438c1.431,3.546,4.808,5.326,10.094,5.286h0a.24.24,0,0,1,0,.481C299.876,2720.406,299.819,2720.407,299.761,2720.407Z" transform="translate(-284.735 -2417.963)" fill="#fff"/>
      <path id="Path_411" data-name="Path 411" d="M464.126,2648.085a.24.24,0,0,1-.157-.422l2.156-1.861a.24.24,0,1,1,.314.363l-2.156,1.861A.235.235,0,0,1,464.126,2648.085Z" transform="translate(-434.682 -2380.571)" fill="#fff"/>
    </g>
  </g>
</svg>
