<svg
              class="noborder"
              xmlns="http://www.w3.org/2000/svg"
              xmlns:xlink="http://www.w3.org/1999/xlink"
              width="24"
              height="24"
              viewBox="0 0 24 24"
            >
              <defs>
                <clipPath id="a">
                  <rect
                    class="a"
                    width="24"
                    height="24"
                    transform="translate(1501 382)"
                  />
                </clipPath>
              </defs>
              <g class="b" transform="translate(-1501 -382)">
                <g transform="translate(1501 384.495)">
                  <path
                    class="a"
                    d="M20.986,8.9H13.5a2.484,2.484,0,0,1-2.481-2.481V4.359H2.876A1.681,1.681,0,0,0,1.195,6.04v8.782H20.986Zm0,0"
                  />
                  <path
                    class="a"
                    d="M22.94,0H13.5a1.061,1.061,0,0,0-1.061,1.061v.861H24V1.061A1.06,1.06,0,0,0,22.94,0Zm0,0"
                  />
                  <path
                    class="a"
                    d="M12.443,3.343V6.416A1.06,1.06,0,0,0,13.5,7.476H22.94A1.06,1.06,0,0,0,24,6.416V3.343H12.443ZM14.5,6.407a.877.877,0,1,1,.961-.962A.879.879,0,0,1,14.5,6.407Zm2.31,0a.877.877,0,1,1,.961-.962A.879.879,0,0,1,16.806,6.407Zm0,0"
                  />
                  <path
                    class="a"
                    d="M0,16.244v1.317a1.449,1.449,0,0,0,1.449,1.449H20.322a1.449,1.449,0,0,0,1.449-1.449V16.244Zm0,0"
                  />
                </g>
              </g>
            </svg>