<svg xmlns="http://www.w3.org/2000/svg" xmlns:xlink="http://www.w3.org/1999/xlink" width="120" height="120" viewBox="0 0 120 120"><defs><clipPath id="a"><rect width="120" height="120" transform="translate(1300 1552)" fill="#b9b9b9"/></clipPath></defs><g transform="translate(-1300 -1552)" clip-path="url(#a)"><g transform="translate(1300 1552)"><path d="M103.359,13.125H42.188l-13.828,8.2V57.422H8.438v46.406H82.266V70.547h27.188A10.563,10.563,0,0,0,120,60V21.328Z" fill="#ffb349"/><path d="M114.68,8.648h0a10.438,10.438,0,0,0-5.227-1.383H38.906A10.563,10.563,0,0,0,28.359,17.813v3.516H120V17.813A10.584,10.584,0,0,0,114.68,8.648Zm-33.586,40.8H10.547A10.563,10.563,0,0,0,0,60v42.188a10.563,10.563,0,0,0,10.547,10.547H81.094a10.563,10.563,0,0,0,10.547-10.547V60A10.563,10.563,0,0,0,81.094,49.453ZM60,63.516a3.516,3.516,0,1,1-3.516,3.516A3.511,3.511,0,0,1,60,63.516Zm-14.062,0a3.516,3.516,0,1,1-3.516,3.516A3.511,3.511,0,0,1,45.938,63.516Zm-28.125,0A3.516,3.516,0,1,1,14.3,67.031,3.511,3.511,0,0,1,17.813,63.516ZM35.391,95.156a3.511,3.511,0,0,1-3.516,3.516H17.813A3.511,3.511,0,0,1,14.3,95.156V81.094a3.511,3.511,0,0,1,3.516-3.516H31.875a3.511,3.511,0,0,1,3.516,3.516ZM31.875,70.547a3.516,3.516,0,1,1,3.516-3.516A3.511,3.511,0,0,1,31.875,70.547ZM74.063,98.672H45.938a3.516,3.516,0,0,1,0-7.031H74.063a3.516,3.516,0,0,1,0,7.031Zm0-14.062H45.938a3.516,3.516,0,0,1,0-7.031H74.063a3.516,3.516,0,0,1,0,7.031Zm0-14.062a3.516,3.516,0,1,1,3.516-3.516A3.511,3.511,0,0,1,74.063,70.547Z" fill="#3a5f62"/></g></g></svg>