<svg xmlns="http://www.w3.org/2000/svg" xmlns:xlink="http://www.w3.org/1999/xlink" width="120" height="120" viewBox="0 0 120 120"><defs><clipPath id="a"><rect width="120" height="120" transform="translate(1300 1552)" fill="#b9b9b9"/></clipPath></defs><g transform="translate(-1300 -1552)" clip-path="url(#a)"><g transform="translate(1300 1552)"><path d="M17.578,63.516a17.366,17.366,0,0,0-3.516.352l-2.109,4.57V80.859H23.437V68.2l-2.344-4.687ZM116.484,0H3.516A3.511,3.511,0,0,0,0,3.516V45.7a3.511,3.511,0,0,0,3.516,3.516H116.484A3.511,3.511,0,0,0,120,45.7V3.516A3.511,3.511,0,0,0,116.484,0Z" fill="#ffb349"/><path d="M38.672,63.516H35.156V35.156a7.031,7.031,0,1,0-14.062,0V74.062a3.516,3.516,0,1,1-7.031,0v-10.2A17.537,17.537,0,0,0,0,80.976a63.726,63.726,0,0,0,6.656,28.57l.375.75v6.187A3.511,3.511,0,0,0,10.547,120H45.7a3.511,3.511,0,0,0,3.516-3.516v-6.211l.375-.75a63.726,63.726,0,0,0,6.656-28.57A17.555,17.555,0,0,0,38.672,63.516ZM67.031,28.125H45.7a3.516,3.516,0,0,0,0,7.031H67.031a3.516,3.516,0,0,0,0-7.031Zm0-14.062H17.578a3.516,3.516,0,0,0,0,7.031H67.031a3.516,3.516,0,0,0,0-7.031Zm34.125,4.547a3.494,3.494,0,0,0-4.969,0l-8.062,8.062-1.031-1.031a3.513,3.513,0,0,0-4.969,4.969l3.516,3.516a3.508,3.508,0,0,0,4.969,0l10.547-10.547a3.494,3.494,0,0,0,0-4.969Z" fill="#3a5f62"/></g></g></svg>