<svg xmlns="http://www.w3.org/2000/svg" xmlns:xlink="http://www.w3.org/1999/xlink" width="120" height="120" viewBox="0 0 120 120"><defs><clipPath id="a"><rect width="120" height="120" transform="translate(1300 1552)" fill="#b9b9b9"/></clipPath></defs><g transform="translate(-1300 -1552)" clip-path="url(#a)"><g transform="translate(1300 1552)"><path d="M102.188,19.125c-19.453,0-39.633-18.047-39.82-18.211a3.522,3.522,0,0,0-4.734,0c-.188.187-20.32,18.211-39.82,18.211A3.511,3.511,0,0,0,14.3,22.641V64.734c0,34.125,25.359,47.742,44.438,55.031A3.283,3.283,0,0,0,60,120a3.453,3.453,0,0,0,1.266-.234C88.008,109.547,105.7,93.633,105.7,64.758V22.641A3.511,3.511,0,0,0,102.188,19.125Z" fill="#3a5f62"/><path d="M60,35.391A24.609,24.609,0,1,0,84.609,60,24.636,24.636,0,0,0,60,35.391Zm9.516,23.578L58.969,69.516a3.508,3.508,0,0,1-4.969,0L50.484,66a3.513,3.513,0,0,1,4.969-4.969l1.031,1.031L64.547,54a3.513,3.513,0,0,1,4.969,4.969Z" fill="#ffb349"/></g></g></svg>