<!DOCTYPE svg PUBLIC "-//W3C//DTD SVG 1.1//EN" "http://www.w3.org/Graphics/SVG/1.1/DTD/svg11.dtd">
<!-- Uploaded to: SVG Repo, www.svgrepo.com, Transformed by: SVG Repo Mixer Tools -->
<svg fill="#000000" height="64px" width="64px" version="1.1" id="Layer_1" xmlns="http://www.w3.org/2000/svg" xmlns:xlink="http://www.w3.org/1999/xlink" viewBox="0 0 511.997 511.997" xml:space="preserve">
<g id="SVGRepo_bgCarrier" stroke-width="0"/>
<g id="SVGRepo_tracerCarrier" stroke-linecap="round" stroke-linejoin="round"/>
<g id="SVGRepo_iconCarrier"> <g> <g> <path d="M506.747,0.662c-3.191-1.323-6.869-0.614-9.318,1.843l-28.1,28.1l-28.1-28.1c-3.328-3.328-8.738-3.328-12.066,0 l-28.1,28.1l-28.1-28.1c-3.328-3.328-8.738-3.328-12.066,0l-28.1,28.1l-28.1-28.1c-3.328-3.328-8.738-3.328-12.066,0l-28.1,28.1 l-28.1-28.1c-2.449-2.44-6.118-3.183-9.301-1.852c-3.183,1.314-5.265,4.429-5.265,7.885c0,185.187-15.112,291.374-46.165,324.261 H8.537c-2.466,0-4.813,1.067-6.434,2.927c-1.621,1.869-2.355,4.335-2.022,6.775c11.477,82.866,33.604,167.805,110.855,169.495 h273.062c0.026,0,0.06,0,0.094,0c116.785-0.905,127.426-385.555,127.904-503.424C512.012,5.108,509.938,1.985,506.747,0.662z M322.447,494.93H111.123c-48.716-1.058-76.577-43.152-91.954-140.047c-0.41-2.594,1.604-5.018,4.232-5.018h155.773 c0.009-0.009,0.034-0.009,0.051,0h91.305c2.108,0,3.883,1.536,4.198,3.618c7.953,52.744,21.017,104.796,50.662,134.176 C328.105,490.357,326.27,494.93,322.447,494.93z M452.263,187.736H273.066c-4.71,0-8.533-3.823-8.533-8.533 s3.823-8.533,8.533-8.533h179.197c4.71,0,8.533,3.823,8.533,8.533S456.973,187.736,452.263,187.736z M452.263,145.07H273.066 c-4.71,0-8.533-3.823-8.533-8.533s3.823-8.533,8.533-8.533h179.197c4.71,0,8.533,3.823,8.533,8.533S456.973,145.07,452.263,145.07 z M452.263,102.404H273.066c-4.71,0-8.533-3.823-8.533-8.533s3.823-8.533,8.533-8.533h179.197c4.71,0,8.533,3.823,8.533,8.533 S456.973,102.404,452.263,102.404z"/> </g> </g> </g>
</svg>