<svg xmlns="http://www.w3.org/2000/svg" width="8.558" height="28.886" viewBox="0 0 8.558 28.886">
  <g id="Group_148" data-name="Group 148" transform="translate(-848.365 -514.114)">
    <g id="Group_34" data-name="Group 34" transform="translate(848.365 514.114)">
      <path id="Path_49" data-name="Path 49" d="M370.176,220.325a.273.273,0,0,1,.02.283c0-.04.02-.081-.02-.1-.02,0-.02.02-.02.04a.1.1,0,0,0-.04-.081,1,1,0,0,0-.04.343c-.04-.02,0-.1-.04-.081-.061.02-.02.121,0,.182a1.006,1.006,0,0,1-.04-.868,1.848,1.848,0,0,1,.363-.444c.02-.02.061-.081,0-.081-.061-.02-.1.04-.121.1l-.04-.04c-.02.061-.061.121-.081.182,0-.02,0-.081-.02-.081-.061.02-.061.121-.081.182,0-.02,0-.081-.02-.061-.061.04-.061.141-.081.222,0-.02.02-.081-.02-.081-.061.02-.04.1-.04.161a.071.071,0,0,0-.02-.04c-.061.061-.04.141-.04.2-.04-.02-.02-.081-.04-.081-.061.061-.04.141-.061.222-.02-.04.02-.1-.02-.141a.642.642,0,0,0-.061.182c-.02-.061.02-.121-.02-.161-.04.061,0,.141-.02.2a.923.923,0,0,1,.02-.525,1.512,1.512,0,0,1,.141-.242,1.058,1.058,0,0,1,.222-.2c.121-.1.283-.121.384-.242-.04-.04-.1.02-.141-.02l-.04.04c0-.02,0-.04-.02-.04a.1.1,0,0,0-.081.04c0-.02,0-.04-.02-.04-.04,0-.061.04-.081.061a.071.071,0,0,0-.02-.04c-.02.02-.081.02-.081.081l-.04-.04a.1.1,0,0,0-.04.081c0-.02,0-.04-.02-.04a.1.1,0,0,0-.04.081l-.02-.02a.288.288,0,0,0-.04.121.071.071,0,0,0-.02-.04c-.04.04-.02.1-.04.141a.432.432,0,0,1,.283-.525.861.861,0,0,1,.706-.02.071.071,0,0,0,.02-.04c-.02-.061-.081-.182-.161-.1a.074.074,0,0,1,.02-.061c-.04-.061-.1.02-.141,0l.02-.02c-.04-.061-.081.02-.121,0l.02-.02c0-.02-.02-.02-.04-.02-.02.02-.081.02-.081.081,0-.02.02-.081-.02-.081-.061.02-.081.1-.121.141a.165.165,0,0,1,.081-.2.629.629,0,0,1,.565-.081.473.473,0,0,1,.242.242,1,1,0,0,0,.081-.262.074.074,0,0,0,.02.061c.04-.081.02-.182.06-.262.04.081.02.182.061.262a.074.074,0,0,0,.02-.061,1,1,0,0,0,.081.262.471.471,0,0,1,.323-.262c.222-.04.585.02.565.3-.04-.04-.061-.121-.121-.141-.04,0-.02.061-.02.081,0-.061-.061-.061-.081-.081s-.04,0-.04.02.02.02.02.04c-.04-.02-.081-.061-.121-.02.02,0,.02.02.02.04a.287.287,0,0,0-.121-.04c-.04.02.02.061,0,.081-.02-.04-.061-.02-.081-.02-.04.04-.121.161-.1.161a1.055,1.055,0,0,1,.747.02.514.514,0,0,1,.242.182.648.648,0,0,1,.04.343c-.04-.04,0-.1-.04-.141a.071.071,0,0,0-.02.04c0-.081-.061-.121-.1-.182-.02,0-.02.02-.02.04a.1.1,0,0,0-.04-.081l-.04.04c0-.061-.061-.061-.081-.081a.071.071,0,0,0-.02.04l-.061-.061c-.04,0-.061.04-.1,0-.02-.02-.04,0-.04.04l-.04-.04c-.04.04-.1-.02-.141.02.182.161.444.222.606.444a.894.894,0,0,1,.161.767c-.02-.061.02-.141-.02-.2-.04.04,0,.1-.02.161a.645.645,0,0,0-.061-.182c-.04.04-.02.1-.02.141-.02-.081,0-.161-.061-.222-.02,0,0,.061-.04.081,0-.061.02-.141-.04-.2a.071.071,0,0,0-.02.04c0-.061.02-.141-.04-.161-.04,0-.02.061-.02.081-.02-.081-.02-.182-.081-.222-.02-.02-.02.04-.02.061-.02-.061-.02-.161-.081-.182-.02,0-.02.061-.02.081-.02-.061-.061-.121-.081-.182l-.04.04a.182.182,0,0,0-.121-.121c-.02,0-.02.04-.02.061.121.161.283.283.383.444a1.029,1.029,0,0,1-.04.908c.02-.061.061-.161,0-.182-.04-.02,0,.061-.04.081a1,1,0,0,0-.04-.343.1.1,0,0,0-.04.081c0-.02,0-.04-.02-.04-.04.02-.02.061-.02.1a.456.456,0,0,1,.04-.323.286.286,0,0,0-.04-.121.1.1,0,0,0-.04.081,1.181,1.181,0,0,0-.04-.262c-.04.02-.02.061-.02.081-.04-.06.02-.141-.04-.182-.02,0,0,.061-.04.081,0-.061.02-.141-.04-.182-.02,0-.02.061-.02.081,0-.061-.02-.161-.081-.182-.02,0,0,.061-.02.081h-.04c0-.02,0-.04-.02-.04s-.04,0-.04.02c.02.061.1.061.121.121,0,.061.061.081.061.141a.076.076,0,0,0-.121-.02c.1.04.2.1.182.222a.134.134,0,0,0-.081-.1c-.02,0-.06,0-.06.02.081.081.161.161.141.283a.111.111,0,0,0-.061-.1.07.07,0,0,0-.04.02.516.516,0,0,1,.081.383c0-.04.02-.1-.02-.081-.04,0-.02.061-.02.1l-.02-.02c-.04.061.02.1,0,.162s-.02.1-.04.161c-.02-.061.02-.141-.02-.2a.641.641,0,0,0-.04.283c0-.02,0-.04-.02-.04-.04.02,0,.081-.04.1a3.017,3.017,0,0,0-.04-.424c.02,0,.04,0,.04-.02,0-.04.02-.121-.02-.121-.04-.02,0,.081-.04.1,0-.081,0-.161-.061-.182-.04-.02.02.061-.04.081-.081.02-.04-.061-.081-.1a13.819,13.819,0,0,0,0,2.042c0,.1.061.2.04.3a.177.177,0,0,0-.02.141.325.325,0,0,0,.061.182c.02.081-.061.161-.04.242a2.149,2.149,0,0,0,.222.424h-.807c.081-.161.222-.3.2-.484,0-.061-.04-.121-.02-.182.1-.161.02-.3.04-.485a.286.286,0,0,0,.04-.121,17.556,17.556,0,0,0,0-2.062c-.04.02-.02.061-.02.081-.02.04-.081.02-.1-.02.02,0,.02-.02.02-.04-.04-.061-.04.02-.061.02a.215.215,0,0,0-.02.161c-.04-.02,0-.121-.04-.1-.04,0-.02.081-.02.121,0,.02.02.02.04.02a3,3,0,0,0-.04.424c-.04-.02,0-.081-.04-.1-.02,0-.02.02-.02.04a.641.641,0,0,0-.04-.283c-.04.061,0,.141-.02.2-.02-.061-.02-.1-.04-.161s.04-.1,0-.162l-.02.02c0-.04.02-.1-.02-.1-.04-.02-.02.04-.02.081a.4.4,0,0,1,.081-.363c.02-.02,0-.04-.02-.04-.061,0-.061.061-.081.1-.02-.121.061-.2.141-.283,0-.02-.04-.02-.061-.02a.134.134,0,0,0-.081.1c-.02-.121.081-.182.182-.222a.076.076,0,0,0-.121.02.513.513,0,0,1,.161-.2.1.1,0,0,0-.081-.04c.04-.02,0-.061.04-.081,0-.02-.02-.02-.04-.02a.248.248,0,0,0-.1.2c0-.02,0-.081-.02-.081-.061.04-.04.121-.04.182-.04-.02,0-.081-.04-.081-.061.04,0,.121-.04.182,0-.02.02-.06-.02-.081a1.183,1.183,0,0,0-.04.262.1.1,0,0,0-.04-.081c-.02.061-.061.1-.02.161Z" transform="translate(-366.765 -218.468)" fill="#424242"/>
      <path id="Path_50" data-name="Path 50" d="M315.007,314.736a5.791,5.791,0,0,1,1.8.969,5.081,5.081,0,0,1,4.259-1.11,5.913,5.913,0,0,0-3.976,1.433l.848.787c.081-.121.081-.283.182-.4a.458.458,0,0,1,.4-.162.314.314,0,0,1,.242.363.337.337,0,0,1-.545.161c-.04-.02-.1.121-.061.182a.74.74,0,0,0,.4.283.321.321,0,0,1,.525,0,.274.274,0,0,1-.1.4c-.383.161-.787-.1-1.09-.343-.182.283-.666.585-.949.222a.281.281,0,0,1-.04-.222.314.314,0,0,1,.363-.242.268.268,0,0,1,.2.121c.04.061-.02.161.061.141.06,0,.161-.1.141-.121-.2-.384-.585-.585-.888-.868a5.037,5.037,0,0,0-.888.848c-.04.061.081.141.141.141.081,0,.04-.182.141-.222a.4.4,0,0,1,.3-.02.339.339,0,0,1,.182.343.387.387,0,0,1-.444.262.814.814,0,0,1-.545-.384,1.405,1.405,0,0,1-.989.4.291.291,0,0,1-.2-.141.308.308,0,1,1,.525-.323.74.74,0,0,0,.4-.283c.04-.06-.02-.2-.081-.182a.5.5,0,0,1-.343.061.34.34,0,0,1-.182-.343.31.31,0,0,1,.384-.242.712.712,0,0,1,.262.162c.1.121.1.283.182.4l.848-.787a5.914,5.914,0,0,0-3.976-1.433,5.273,5.273,0,0,1,2.5.141Z" transform="translate(-312.504 -309.828)" fill="#424242"/>
    </g>
    <text id="K_S_A" data-name="K
S
A" transform="translate(851 528)" fill="#424242" font-size="5" font-family="Cairo-Bold, Cairo" font-weight="700"><tspan x="0" y="0">K</tspan><tspan x="0" y="5">S</tspan><tspan x="0" y="10">A</tspan></text>
    <circle id="Ellipse_30" data-name="Ellipse 30" cx="1.5" cy="1.5" r="1.5" transform="translate(851 540)" fill="#575a5b"/>
  </g>
</svg>
