<svg xmlns="http://www.w3.org/2000/svg" xmlns:xlink="http://www.w3.org/1999/xlink" width="255" height="120" viewBox="0 0 255 120"><defs><style>.a{fill:#c6c6c6;}.b{clip-path:url(#a);}.c{fill:#5194b6;}.d{fill:#5293b3;}.e{fill:#333e48;}</style><clipPath id="a"><rect class="a" width="255" height="120" transform="translate(985 1131)"/></clipPath></defs><g class="b" transform="translate(-985 -1131)"><g transform="translate(982.139 1042.435)"><path class="c" d="M43.137,125.7a1.472,1.472,0,0,0-.025,1.79c.123.172,3.433,4.414,10.521,4.414,3.532,0,6.45-1.619,9.246-3.188,2.82-1.57,5.469-3.041,8.706-3.041,3.188,0,5.788,1.57,8.535,3.213,2.845,1.717,5.763,3.482,9.466,3.482,7.382,0,10.472-4.758,10.595-4.954a1.439,1.439,0,0,0-.1-1.692,36.649,36.649,0,0,0-56.946-.025" transform="translate(-2.41)"/><path class="d" d="M34.866,142.373a36.645,36.645,0,0,0,28.5,49.319,1.483,1.483,0,0,0,1.57-.883c.1-.2,2.109-5.2-1.447-11.33-1.766-3.041-4.635-4.758-7.406-6.425-2.747-1.643-5.371-3.213-6.989-6.033-1.594-2.771-1.545-5.788-1.471-8.976.074-3.311.123-6.744-1.717-9.932-3.7-6.4-9.368-6.7-9.589-6.7a1.538,1.538,0,0,0-1.447.956" transform="translate(0 -6.791)"/><path class="d" d="M114.163,141.574c-.221.025-5.543.785-9.1,6.916-1.766,3.066-1.815,6.4-1.864,9.614s-.1,6.254-1.717,9.05c-1.594,2.771-4.243,4.218-7.039,5.788-2.894,1.594-5.91,3.262-7.75,6.45a13.943,13.943,0,0,0-1.986,6.989,10.5,10.5,0,0,0,.981,4.66,1.485,1.485,0,0,0,1.521.76,36.651,36.651,0,0,0,28.473-49.319,1.464,1.464,0,0,0-1.521-.907" transform="translate(-12.124 -6.825)"/><path class="e" d="M227.92,123.055a1.334,1.334,0,0,1,1.373-1.251,1.256,1.256,0,1,1,0,2.5,1.351,1.351,0,0,1-1.373-1.251m-62.341,17.56a1.334,1.334,0,0,0-1.373,1.251,1.351,1.351,0,0,0,1.373,1.251,1.318,1.318,0,0,0,1.373-1.251,1.3,1.3,0,0,0-1.373-1.251m-18.05-9.466a2.159,2.159,0,0,1-.49,1.275c-.956.883-2.8,1.1-4.267.956-1.5-.147-2.894-.932-2.894-2.33,0-1.447.441-2.943,3.115-2.992h3.139c.441,0,1.153-.025,1.422-.343v3.433Zm30.043-4.39a1.13,1.13,0,0,0-.343.834v6.573c0,1.3-.907,2.036-2.305,2.036H174.9l-7.7.025c-1.4,0-2.305-.736-2.305-2.036h0v-9.81h-2.526v9.908a2.05,2.05,0,0,1-2.305,1.962l-7.7.025c-1.839,0-2.256-.711-2.33-1.937V124.4h-2.5v1.128c-.245.392-.956.466-1.643.466h-2.894c-4.047.025-5.616,2.232-5.567,4.954.049,2.8,2.33,4.414,5.3,4.635,3.409.245,4.831-.858,4.831-.858v.025s-.123,3.85,3.433,3.85h9.172a4.558,4.558,0,0,0,3.556-1.153,4.669,4.669,0,0,0,3.36,1.128h7.946c3.041,0,4.709-1.643,4.709-4.341v-7.75h-1.3a.932.932,0,0,0-.858.27m.932-4.954a1.256,1.256,0,1,0,0,2.5,1.256,1.256,0,1,0,0-2.5m9.442,14.42c-1.888,0-3.213-1.545-3.213-3.752a4.266,4.266,0,0,1,1.128-3.115,3.165,3.165,0,0,1,2.4-1.055c1.717,0,2.845.809,2.894,2.649,0,0,.074,4.66.074,5.273Zm.368-9.785a5.817,5.817,0,0,0-3.777,1.324,6.63,6.63,0,0,0-.76,9.074,5.041,5.041,0,0,0,3.973,1.717h2.943a5.466,5.466,0,0,1-2.452,2.722,13.63,13.63,0,0,1-4.537,1.545l1.03,2.183a11.464,11.464,0,0,0,6.622-3.139c1.79-1.79,2.354-3.581,2.354-6.425v-3.752c0-3.507-1.717-5.248-5.4-5.248m61.679,12.115h2.649V119.915h-2.649Zm-35.683-3.948s-3.115-2.526-3.777-3.115c-1.03-.956-1.055-3.262,3.654-3.262a5.823,5.823,0,0,1,4.537,1.937Zm30.8-14.347a1.172,1.172,0,0,0-.343.858V134.36c-.049,1.226-.956,1.937-2.33,1.937h-7.6a2.056,2.056,0,0,1-2.33-2.085h0v-7.75h-1.3a1.3,1.3,0,0,0-.883.319,1.13,1.13,0,0,0-.343.834v6.573c0,1.275-1.2,2.036-2.575,2.085H217.056a1.3,1.3,0,0,1-.907-.368l5.543-5.714s-1.766-3.826-7.75-3.826c-6.327,0-7.259,4.194-5.616,5.812,1.545,1.521,4.169,3.605,4.194,3.63-.54.564-2.085.417-4.733.417h-6.842c-2.232,0-2.134-2.379-2.134-2.379V119.891h-1.3a1.359,1.359,0,0,0-.883.294,1.159,1.159,0,0,0-.343.834v13.832s.1,3.7,3.752,3.7h11.232a4.847,4.847,0,0,0,3.213-1.079,4.2,4.2,0,0,0,3.09,1.079h9.785c2.354,0,2.967-.294,3.85-1.128h0a4.97,4.97,0,0,0,3.458,1.128h7.9c3.041,0,4.684-1.643,4.684-4.365V119.94h-1.3a1.27,1.27,0,0,0-.834.319m-11.993,4.047a1.256,1.256,0,1,0,0-2.5,1.334,1.334,0,0,0-1.373,1.251,1.368,1.368,0,0,0,1.373,1.251m-71.366,16.309a1.334,1.334,0,0,0-1.373,1.251,1.351,1.351,0,0,0,1.373,1.251,1.256,1.256,0,1,0,0-2.5M146.18,122.27a1.256,1.256,0,1,0,0-2.5,1.256,1.256,0,1,0,0,2.5m-3.85,0a1.256,1.256,0,1,0,0-2.5,1.256,1.256,0,1,0,0,2.5m19.522,53.292a1.562,1.562,0,0,1-.466,1.079c-1.03.834-2.232.907-3.924.907-1.471,0-3.066-.834-3.066-2.207,0-1.422,1.57-2.305,3.041-2.305h3.041a3.426,3.426,0,0,0,1.373-.27v2.8Zm.2,3.924H164.3v-10.3c0-2.747-2.869-4.169-5.69-4.169-3.188,0-5.3,1.2-6.107,3.482l-.049.123,2.281.736.049-.123c.613-1.717,2.379-2.085,3.777-2.085,1.594,0,3.286.638,3.286,2.036v1.4a2.565,2.565,0,0,1-1.594.441h-2.82c-2.869-.049-5.543,1.5-5.543,4.316,0,2.722,2.82,4.341,5.543,4.341a9.494,9.494,0,0,0,4.611-1.1v.907m87.969-3.924a1.562,1.562,0,0,1-.466,1.079c-1.03.834-2.232.907-3.924.907-1.471,0-3.066-.834-3.066-2.207,0-1.422,1.57-2.305,3.016-2.305h3.041a3.626,3.626,0,0,0,1.4-.27Zm.2,3.924h2.256v-10.3c0-2.747-2.869-4.169-5.69-4.169-3.188,0-5.3,1.2-6.107,3.482l-.049.123,2.281.736.049-.123c.613-1.717,2.379-2.085,3.777-2.085,1.594,0,3.286.638,3.286,2.036v1.4a2.565,2.565,0,0,1-1.594.441H245.6c-2.869-.049-5.543,1.5-5.543,4.316,0,2.722,2.82,4.341,5.543,4.341a9.494,9.494,0,0,0,4.611-1.1v.907m-95.719-18.712H137.425v2.207h7.284v16.5h2.6v-16.5h7.284v-2.207Zm83.114,4.733a1.394,1.394,0,0,0-.638.834c0-.025-3.605,8.387-4.243,9.932-.221-.515-4.635-11.012-4.635-11.012h-2.649s5.91,13.954,5.935,14.053c-.049.1-1.177,2.7-1.177,2.7a2.372,2.372,0,0,1-2.6,1.643l-.785-.049-.025,2.183h1.1a4.655,4.655,0,0,0,4.66-2.992l7.578-17.535h-1.521a3.126,3.126,0,0,0-1.005.245m-16.186.074a1.13,1.13,0,0,0-.343.834v13.023H223.6V165.261h-1.3a1.6,1.6,0,0,0-.883.319m-.441-3.679a1.379,1.379,0,1,0,1.373-1.251,1.334,1.334,0,0,0-1.373,1.251m-12.851,4.586v-1.2h-2.5v14.175h2.5V170.73a3.665,3.665,0,0,1,3.924-3.532c3.482,0,4.194,1.619,4.194,4.047v8.216H218.7V171.1c0-4.022-2.232-6.058-6.646-6.058a6.025,6.025,0,0,0-3.924,1.447m-6.818-.858a1.173,1.173,0,0,0-.343.858v8.093c0,1.937-2.036,2.992-3.924,2.992-3.482,0-4.194-1.668-4.194-4.194v-8.093h-2.5v8.093c0,4.365,2.06,6.3,6.7,6.3a6.991,6.991,0,0,0,3.924-1.177v.932h2.452V165.261h-1.3a1.418,1.418,0,0,0-.809.368m-12.507-.343h-1.2a2.666,2.666,0,0,0-1.079.27,1.631,1.631,0,0,0-.589.858s-2.894,7.774-3.482,9.344c-.221-.54-4.39-10.472-4.39-10.472h-2.305s-4.145,9.908-4.365,10.472c-.2-.564-3.85-10.472-3.85-10.472h-2.649l5.224,14.175h2.354s4.218-10.08,4.439-10.595c.221.515,4.439,10.595,4.439,10.595H183.7l5.3-14.175Z" transform="translate(-24.35 -1.77)"/></g></g></svg>