<svg xmlns="http://www.w3.org/2000/svg" xmlns:xlink="http://www.w3.org/1999/xlink" width="85" height="85" viewBox="0 0 85 85"><defs><style>.a{fill:#d0d0d0;}.b{fill:#fff;stroke:#dedede;}.c{clip-path:url(#a);}.d{fill:#84b740;}.e{fill:#259bd6;}.f{fill:#27292d;}.g{stroke:none;}.h{fill:none;}</style><clipPath id="a"><rect class="a" width="50" height="50" transform="translate(866 689)"/></clipPath></defs><g transform="translate(-848 -671)"><g class="b" transform="translate(848 671)"><rect class="g" width="85" height="85" rx="5"/><rect class="h" x="0.5" y="0.5" width="84" height="84" rx="4.5"/></g><g class="c"><g transform="translate(866 705.664)"><rect class="d" width="21.15" height="7.046" transform="translate(0 9.614)"/><rect class="e" width="21.15" height="7.052"/><path class="f" d="M42.3,15.229l-.094.019a3.084,3.084,0,0,1-.685.088c-.553,0-1.206-.283-1.206-1.614,0-.685.113-1.6,1.143-1.6h.006a3.093,3.093,0,0,1,.754.144l.082.025v2.933Zm.17-6.638-.17.031v2.462l-.151-.044-.044-.013a3.466,3.466,0,0,0-.936-.163c-2.06,0-2.493,1.557-2.493,2.864a2.539,2.539,0,0,0,2.757,2.82,5.588,5.588,0,0,0,1.84-.257.813.813,0,0,0,.691-.892V8.333c-.49.088-1,.176-1.495.257"/><path class="f" d="M48.424,15.273l-.088.025-.314.082a3.273,3.273,0,0,1-.76.119c-.484,0-.772-.239-.772-.647,0-.264.119-.71.911-.71h1.024Zm-.722-4.44a6.95,6.95,0,0,0-2.1.364l-.528.157.176,1.193.515-.17a6.055,6.055,0,0,1,1.714-.289c.226,0,.917,0,.917.747v.327h-.961c-1.752,0-2.562.559-2.562,1.758,0,1.024.747,1.639,2,1.639a6.477,6.477,0,0,0,1.394-.188l.025-.006.025.006.157.025c.49.088,1,.176,1.495.27V12.748c0-1.269-.766-1.915-2.273-1.915"/><path class="f" d="M36.222,15.273l-.088.025-.314.082a3.225,3.225,0,0,1-.76.119c-.484,0-.772-.239-.772-.647,0-.264.119-.71.9-.71h1.024l.006,1.13Zm-.716-4.44a6.918,6.918,0,0,0-2.1.364l-.528.157.176,1.193.515-.17a6.055,6.055,0,0,1,1.714-.289c.226,0,.917,0,.917.747v.327h-.961c-1.752,0-2.568.559-2.568,1.758,0,1.024.747,1.639,2.01,1.639a6.477,6.477,0,0,0,1.394-.188l.025-.006.025.006.151.025c.5.088,1,.176,1.495.276V12.754c.006-1.281-.76-1.922-2.267-1.922"/><path class="f" d="M29.609,10.845a4.238,4.238,0,0,0-1.7.377l-.063.031-.057-.044a2.576,2.576,0,0,0-1.526-.371,6.243,6.243,0,0,0-1.8.27c-.534.163-.741.421-.741.9v4.478h1.67V12.352l.082-.025a2.126,2.126,0,0,1,.735-.132.661.661,0,0,1,.728.76V16.5H28.58V12.886a1.215,1.215,0,0,0-.05-.364l-.057-.107.113-.05a1.98,1.98,0,0,1,.816-.17.665.665,0,0,1,.728.76V16.5H31.77V12.792c0-1.312-.7-1.947-2.16-1.947"/><path class="f" d="M47.193,4.6a5.7,5.7,0,0,1-.973-.088l-.094-.019V2.072a1.183,1.183,0,0,0-.044-.345l-.05-.1.107-.044c.025-.013.05-.019.082-.031l.019-.013.113-.038a.16.16,0,0,1,.044-.013,3.9,3.9,0,0,1,.86-.1h.006c1.024,0,1.143.911,1.143,1.6C48.4,4.314,47.739,4.6,47.193,4.6M47.187,0h-.044a2.959,2.959,0,0,0-2.3.779,1.571,1.571,0,0,0-.3.936h0V4.207a.737.737,0,0,1-.05.314l-.057.107H41.4V2.9H41.4A2.584,2.584,0,0,0,38.715.063H37.189c-.063.446-.113.76-.176,1.206h1.52c.8,0,1.218.678,1.218,1.721V4.735l-.107-.057a1.153,1.153,0,0,0-.358-.05H36.662c-.05.333-.113.766-.182,1.2h8.07c.276-.057.6-.107.873-.151a4.545,4.545,0,0,0,1.689.308A2.755,2.755,0,0,0,50,3a2.769,2.769,0,0,0-2.813-3"/><path class="f" d="M33.038,6.562h.075c1.752,0,2.568-.578,2.568-2a1.834,1.834,0,0,0-2-1.84H32.065a.7.7,0,0,1-.772-.741c0-.314.119-.7.911-.7h3.529c.075-.458.113-.747.182-1.206H32.247c-1.708,0-2.568.716-2.568,1.909s.747,1.8,2,1.8H33.3a.762.762,0,0,1,.772.785.789.789,0,0,1-.9.81h-.27l-5.168-.013h-.942c-.8,0-1.356-.452-1.356-1.5V3.134c0-1.093.433-1.771,1.356-1.771h1.532c.069-.465.113-.76.176-1.2H26.4a2.62,2.62,0,0,0-2.681,2.876h0v.816a2.478,2.478,0,0,0,2.681,2.7h1.526l2.8.006h2.311Z"/></g></g></g></svg>