<svg
              class="noborder"
              xmlns="http://www.w3.org/2000/svg"
              xmlns:xlink="http://www.w3.org/1999/xlink"
              width="24"
              height="24"
              viewBox="0 0 24 24"
            >
              <defs>
                <clipPath id="a">
                  <rect
                    class="a"
                    width="24"
                    height="24"
                    transform="translate(1501 382)"
                  />
                </clipPath>
              </defs>
              <g class="b" transform="translate(-1501 -382)">
                <g transform="translate(1501 382)">
                  <path
                    class="a"
                    d="M0,13.219V23.3a.7.7,0,0,0,.7.7H23.3a.7.7,0,0,0,.7-.7V13.219Z"
                  />
                  <path
                    class="a"
                    d="M9.188,6.422A1.642,1.642,0,0,0,7.547,8.063V8.3h3.281V8.063A1.642,1.642,0,0,0,9.188,6.422Z"
                  />
                  <circle
                    class="a"
                    cx="0.703"
                    cy="0.703"
                    r="0.703"
                    transform="translate(8.484 3.609)"
                  />
                  <path
                    class="a"
                    d="M19.266,0H4.734a.7.7,0,0,0-.7.7V11.813H19.969V.7A.7.7,0,0,0,19.266,0ZM12.234,9a.7.7,0,0,1-.7.7H6.844a.7.7,0,0,1-.7-.7V8.063A3.046,3.046,0,0,1,7.476,5.543a2.109,2.109,0,1,1,3.423,0,3.046,3.046,0,0,1,1.335,2.519Zm4.922.234H13.875a.7.7,0,0,1,0-1.406h3.281a.7.7,0,0,1,0,1.406Zm0-2.812H13.875a.7.7,0,0,1,0-1.406h3.281a.7.7,0,0,1,0,1.406Zm0-2.812H13.875a.7.7,0,0,1,0-1.406h3.281a.7.7,0,0,1,0,1.406Z"
                  />
                  <path
                    class="a"
                    d="M23.3,5.719H21.375v6.094H24V6.422A.7.7,0,0,0,23.3,5.719Z"
                  />
                  <path
                    class="a"
                    d="M.7,8.063a.7.7,0,0,0-.7.7v3.047H2.625V8.063Z"
                  />
                </g>
              </g>
            </svg>