<svg id="Layer_x0020_1" xmlns="http://www.w3.org/2000/svg" width="100" height="66.905" viewBox="0 0 100 66.905">
  <g id="_2194105826576">
    <g id="Group_280" data-name="Group 280" transform="translate(36.422 18.404)">
      <path id="Path_120" data-name="Path 120" d="M1550.819,916.255a.509.509,0,0,0-.309-.145c.073.085-.074.016.123.1A.777.777,0,0,0,1550.819,916.255Z" transform="translate(-1536.413 -904.666)" fill="#b4d6aa" fill-rule="evenodd"/>
      <path id="Path_121" data-name="Path 121" d="M1140.15,565.017l.1-.045.029-.112C1140.153,564.943,1140.208,564.9,1140.15,565.017Z" transform="translate(-1139.424 -564.86)" fill="#b4d6aa" fill-rule="evenodd"/>
      <path id="Path_122" data-name="Path 122" d="M1117.86,721.039l.188-.189c-.123.056-.011-.046-.121.07C1117.839,721.012,1117.907,720.937,1117.86,721.039Z" transform="translate(-1117.86 -715.768)" fill="#b4d6aa" fill-rule="evenodd"/>
    </g>
    <g id="Group_281" data-name="Group 281" transform="translate(34.286 20.29)">
      <path id="Path_123" data-name="Path 123" d="M1053.6,708.294c-.239.133-.4.456-.595.509-.084-.062-.234-.222-.325-.308s-.228-.282-.39-.3c.1.328.2.1.225.387.227.042.113.036.229.173l.2.148c.071.037.2-.024.257-.061l.026-.016.131-.141A.9.9,0,0,0,1053.6,708.294Z" transform="translate(-1052.29 -705.406)" fill="#fcfed9" fill-rule="evenodd"/>
      <path id="Path_124" data-name="Path 124" d="M1134.67,657.506c.1.025.093.059.093-.018a.318.318,0,0,1,.227-.091c.017-.246-.031-.164.142-.266l.035-.141c-.122.056-.057.008-.158.108-.032.032-.075.079-.114.122C1134.792,657.336,1134.73,657.363,1134.67,657.506Z" transform="translate(-1131.986 -655.874)" fill="#fcfed9" fill-rule="evenodd"/>
      <path id="Path_125" data-name="Path 125" d="M1130,623.083a.354.354,0,0,0-.093-.175c-.084-.091-.045-.015-.125-.131l-.138-.047A.629.629,0,0,0,1130,623.083Z" transform="translate(-1127.12 -622.73)" fill="#fcfed9" fill-rule="evenodd"/>
    </g>
    <g id="Group_282" data-name="Group 282" transform="translate(25.677 22.989)">
      <path id="Path_126" data-name="Path 126" d="M881.371,706.991a1.166,1.166,0,0,1-.6-.048c-.005-.012-.018-.011-.026-.017a2.454,2.454,0,0,1-.772-.083l.076-.89.03-.382a1.641,1.641,0,0,0-.123.7c-.025.254-.122.4-.01.679l1.242.133C881.408,707.076,881.323,707.069,881.371,706.991Z" transform="translate(-876.898 -705.57)" fill="#fafcc9" fill-rule="evenodd"/>
      <path id="Path_127" data-name="Path 127" d="M789.073,1067.73l-.227-.151c-.064-.034-.155-.073-.219-.1a2.1,2.1,0,0,1-.437-.205l.04-.232c-.1.053-.1,0-.15.234.216.3.257.045.394.338a.413.413,0,0,1,.437.137Z" transform="translate(-788.08 -1055.263)" fill="#fafcc9" fill-rule="evenodd"/>
      <path id="Path_128" data-name="Path 128" d="M1169.2,1486.171c.526-.185.138-.165.433-.4.234-.187.14-.376-.131-.45.081.163.1.084.179.256l-.371.426C1169.236,1486.071,1169.222,1486.052,1169.2,1486.171Z" transform="translate(-1156.782 -1459.914)" fill="#fafcc9" fill-rule="evenodd"/>
      <path id="Path_129" data-name="Path 129" d="M1376.57,1134.035a.551.551,0,0,0-.112-.259.337.337,0,0,1-.083-.257c.165-.109.371-.127.465-.3a1.447,1.447,0,0,0-.56.3c.081.522.008.337.22.467Z" transform="translate(-1357.115 -1119.286)" fill="#fafcc9" fill-rule="evenodd"/>
      <path id="Path_130" data-name="Path 130" d="M1188.75,1321.675c.342-.118.248-.084.414-.379.064-.113-.01.1.042-.106a.606.606,0,0,0-.249.217C1188.868,1321.511,1188.778,1321.534,1188.75,1321.675Z" transform="translate(-1175.695 -1301.132)" fill="#fafcc9" fill-rule="evenodd"/>
    </g>
    <g id="Group_283" data-name="Group 283" transform="translate(1.874 52.238)">
      <path id="Path_131" data-name="Path 131" d="M91.75,1603.932a1.869,1.869,0,0,0,.689,0l-.008-.61a1.381,1.381,0,0,0-.675,0Z" transform="translate(-90.635 -1603.28)" fill="#a8a8a8" fill-rule="evenodd"/>
      <path id="Path_132" data-name="Path 132" d="M57.53,1604.134l.644,0,.017-.669-.648,0Z" transform="translate(-57.53 -1603.454)" fill="#a8a8a8" fill-rule="evenodd"/>
    </g>
    <g id="Group_284" data-name="Group 284" transform="translate(44.762 29.373)">
      <path id="Path_133" data-name="Path 133" d="M1377.228,1393.333c-.066.056-.052-.032-.1.075-.059-.149-.117.422-.074.557,0,.006.026.072.027.077l.01.054a.094.094,0,0,0,0,.013,4.188,4.188,0,0,1,1.176.062,7.635,7.635,0,0,0,1.165.17c.058-.238.072-.074.107-.23.017-.076,0-.329,0-.432a3.618,3.618,0,0,0,.063-.849c-.036.047-.027.013-.054.1s-.108,1.073-.181,1.3l-2.192-.282Z" transform="translate(-1376.932 -1376.822)" fill="#ebfce8" fill-rule="evenodd"/>
      <path id="Path_134" data-name="Path 134" d="M1373.82,901.973c.151-.134.088-.151.2-.305a2.032,2.032,0,0,1,.448.181c.153.075.282.135.426.2l-.155.432.2-.183a1.26,1.26,0,0,0,.077-.287c-.508-.221-.167-.151-.438-.266-.4-.169-.239.007-.492-.214a.228.228,0,0,0-.027-.023C1373.923,901.574,1373.847,901.608,1373.82,901.973Z" transform="translate(-1373.82 -901.51)" fill="#ebfce8" fill-rule="evenodd"/>
    </g>
    <g id="Group_285" data-name="Group 285" transform="translate(33.228 24.076)">
      <path id="Path_135" data-name="Path 135" d="M1026.82,1247.836a6.681,6.681,0,0,0,.671.637c.109-.04.09-.047.179-.142a.615.615,0,0,0-.219-1.211,1.171,1.171,0,0,0-.165.152C1027.174,1247.392,1026.852,1247.684,1026.82,1247.836Z" transform="translate(-1026.592 -1230.563)" fill="#acacac" fill-rule="evenodd"/>
      <path id="Path_136" data-name="Path 136" d="M1197.932,1250.017a4.388,4.388,0,0,0,.081-.977l-.968-.1a7.818,7.818,0,0,0-.082.971A4.443,4.443,0,0,0,1197.932,1250.017Z" transform="translate(-1191.181 -1232.323)" fill="#acacac" fill-rule="evenodd"/>
      <path id="Path_137" data-name="Path 137" d="M1272.26,1214.226l.989.117a5.866,5.866,0,0,0,.088-1.006,6.887,6.887,0,0,0-.96-.077Z" transform="translate(-1264.035 -1197.798)" fill="#acacac" fill-rule="evenodd"/>
      <path id="Path_138" data-name="Path 138" d="M1019.83,739.9a.232.232,0,0,0,.106.038l.878.09a3.817,3.817,0,0,0,.074-.952l-.951-.139Z" transform="translate(-1019.83 -738.94)" fill="#acacac" fill-rule="evenodd"/>
    </g>
    <g id="Group_286" data-name="Group 286" transform="translate(40.664 23.13)">
      <path id="Path_139" data-name="Path 139" d="M1248.06,710.142l.25,1.391,1.368-.247a3.776,3.776,0,0,0-.108-.684,2.341,2.341,0,0,0-.15-.692Z" transform="translate(-1248.06 -709.91)" fill="#27b5b8" fill-rule="evenodd"/>
      <path id="Path_140" data-name="Path 140" d="M1326.79,1147.03a3.793,3.793,0,0,0,.461.842,2.99,2.99,0,0,0,.855-.445,6.828,6.828,0,0,0-.458-.857A7.942,7.942,0,0,0,1326.79,1147.03Z" transform="translate(-1324.225 -1132.343)" fill="#27b5b8" fill-rule="evenodd"/>
      <path id="Path_141" data-name="Path 141" d="M1377.65,989.891a3.666,3.666,0,0,0,.867.405,2.3,2.3,0,0,0,.407-.892c-.267-.1-.573-.3-.844-.384A3.95,3.95,0,0,0,1377.65,989.891Z" transform="translate(-1373.428 -979.926)" fill="#27b5b8" fill-rule="evenodd"/>
    </g>
    <g id="Group_287" data-name="Group 287" transform="translate(26.778 23.873)">
      <path id="Path_142" data-name="Path 142" d="M821.87,1126.194a10.055,10.055,0,0,0,1.237.586,3.329,3.329,0,0,0,.3-.608c.053-.116.1-.212.151-.324l.106-.253a.166.166,0,0,0-.018-.1,8.291,8.291,0,0,0-1.21-.546c-.007.008-.016.01-.019.025l-.275.567a3.62,3.62,0,0,0-.269.651Z" transform="translate(-821.87 -1112.17)" fill="#58b35a" fill-rule="evenodd"/>
      <path id="Path_143" data-name="Path 143" d="M1392.38,1191.059l.471.91a.9.9,0,0,0,.194.29,7.341,7.341,0,0,0,1.2-.644,3.4,3.4,0,0,0-.306-.615c-.107-.192-.224-.439-.338-.6A11.3,11.3,0,0,0,1392.38,1191.059Z" transform="translate(-1373.792 -1175.488)" fill="#58b35a" fill-rule="evenodd"/>
      <path id="Path_144" data-name="Path 144" d="M1190.7,733.41a2.7,2.7,0,0,0,.474.494c.024.022.052.05.082.075l.133.089a2.24,2.24,0,0,0,.65-.717,5.853,5.853,0,0,0-.689-.63A3.924,3.924,0,0,0,1190.7,733.41Z" transform="translate(-1178.683 -732.72)" fill="#58b35a" fill-rule="evenodd"/>
    </g>
    <g id="Group_288" data-name="Group 288" transform="translate(27.293 23.339)">
      <path id="Path_145" data-name="Path 145" d="M1319.92,1274.2a8.29,8.29,0,0,0,1.41.164l.163-1.366-1.4-.186Z" transform="translate(-1304.207 -1254.678)" fill="#74b64c" fill-rule="evenodd"/>
      <path id="Path_146" data-name="Path 146" d="M1248.208,1264.624l0-.206a.321.321,0,0,1-.108-.022c-.132-.051-.088-.046-.133-.078l-1.107-.118-.182,1.393a7.583,7.583,0,0,0,1.421.132Z" transform="translate(-1233.354 -1246.349)" fill="#74b64c" fill-rule="evenodd"/>
      <path id="Path_147" data-name="Path 147" d="M837.67,997.479a2.319,2.319,0,0,0,.9.373c.065-.156.346-.729.367-.85a2.91,2.91,0,0,0-.9-.385A3.837,3.837,0,0,0,837.67,997.479Z" transform="translate(-837.67 -987.484)" fill="#74b64c" fill-rule="evenodd"/>
      <path id="Path_148" data-name="Path 148" d="M884.9,837.612a6.26,6.26,0,0,0,.423.82,2.981,2.981,0,0,0,.867-.463,4.4,4.4,0,0,0-.44-.819c-.189,0-.277.1-.431.191-.064.038-.145.082-.2.113-.037.021-.066.034-.1.057C884.922,837.572,884.966,837.535,884.9,837.612Z" transform="translate(-883.361 -833.213)" fill="#74b64c" fill-rule="evenodd"/>
      <path id="Path_149" data-name="Path 149" d="M1368.47,906.655c-.009.195-.172.312-.18.561a2.631,2.631,0,0,0,.855.39l.243-.441.155-.432c-.144-.067-.273-.127-.426-.2a2.032,2.032,0,0,0-.448-.181C1368.558,906.5,1368.621,906.521,1368.47,906.655Z" transform="translate(-1351.001 -900.158)" fill="#74b64c" fill-rule="evenodd"/>
      <path id="Path_150" data-name="Path 150" d="M952.3,1215.806a6.285,6.285,0,0,0,.15.962,4.753,4.753,0,0,0,.967-.165,4.892,4.892,0,0,0-.169-.952Z" transform="translate(-948.566 -1199.381)" fill="#74b64c" fill-rule="evenodd"/>
      <path id="Path_151" data-name="Path 151" d="M1108.879,716.458l-.188.189c-.087.1-.318.294-.309.372a6.185,6.185,0,0,0,.672.646l.1-.071a1.079,1.079,0,0,0,.085-.069l.49-.546a3.21,3.21,0,0,0-.509-.523c-.155-.127-.091-.11-.2-.146C1108.944,716.372,1108.941,716.4,1108.879,716.458Z" transform="translate(-1099.561 -716.31)" fill="#74b64c" fill-rule="evenodd"/>
    </g>
    <g id="Group_289" data-name="Group 289" transform="translate(24.521 28.695)">
      <path id="Path_152" data-name="Path 152" d="M752.6,881.37a5.382,5.382,0,0,0,.677,1.206,12.154,12.154,0,0,0,1.188-.647,7.585,7.585,0,0,0-.668-1.229,3.761,3.761,0,0,0-.6.318A5.865,5.865,0,0,0,752.6,881.37Z" transform="translate(-752.6 -880.7)" fill="#2b85c3" fill-rule="evenodd"/>
      <path id="Path_153" data-name="Path 153" d="M883.476,1209.238a9.8,9.8,0,0,0,.238,1.354l1.35-.245a5.761,5.761,0,0,0-.192-1.189s-.021-.091-.023-.1a.222.222,0,0,0-.043-.091A7.289,7.289,0,0,0,883.476,1209.238Z" transform="translate(-879.21 -1198.274)" fill="#2b85c3" fill-rule="evenodd"/>
    </g>
    <g id="Group_290" data-name="Group 290" transform="translate(23.65 20.248)">
      <path id="Path_154" data-name="Path 154" d="M725.87,1173.9l.782.333c.111.059.255.132.375.179.167.067.232.154.431.165a6.738,6.738,0,0,0,.566-1.148,1.035,1.035,0,0,0,.16-.443,11.588,11.588,0,0,0-1.621-.734l-.534,1.2C725.961,1173.623,725.873,1173.691,725.87,1173.9Z" transform="translate(-725.87 -1154.304)" fill="#ccd636" fill-rule="evenodd"/>
      <path id="Path_155" data-name="Path 155" d="M817.31,846.288a1.424,1.424,0,0,0,.294.614c.122.195.2.4.338.578a2.632,2.632,0,0,0,.649-.307c.744-.437.707-.205.1-1.2-.06-.1-.094-.218-.156-.306A3.01,3.01,0,0,0,817.31,846.288Z" transform="translate(-814.331 -838.362)" fill="#ccd636" fill-rule="evenodd"/>
      <path id="Path_156" data-name="Path 156" d="M1460.96,980.916a8,8,0,0,0,1.248.56,6.136,6.136,0,0,0,.527-1.27,12.233,12.233,0,0,0-1.23-.567A6.307,6.307,0,0,0,1460.96,980.916Z" transform="translate(-1437.009 -967.969)" fill="#ccd636" fill-rule="evenodd"/>
      <path id="Path_157" data-name="Path 157" d="M898.026,1281.1a7.533,7.533,0,0,0,.266,1.342,2.849,2.849,0,0,0,.658-.118c.093-.024.266-.053.338-.065a.757.757,0,0,0,.342-.093,6.026,6.026,0,0,0-.282-1.359c-.02-.005-.541.109-.657.131A3.281,3.281,0,0,0,898.026,1281.1Z" transform="translate(-892.416 -1259.321)" fill="#ccd636" fill-rule="evenodd"/>
      <path id="Path_158" data-name="Path 158" d="M1147.209,1290.921c.028-.14.118-.163.208-.268a.606.606,0,0,1,.249-.217.825.825,0,0,0,.083-.15.763.763,0,0,0-.236-.228c-.174-.132-.314-.33-.494-.46-.421-.306-.205-.338-.991.5a.8.8,0,0,0-.218.267,4.706,4.706,0,0,0,.765.748c.064.05,0,.007.063.058.224.177.276.047.382-.084C1147.1,1290.992,1147.13,1291,1147.209,1290.921Z" transform="translate(-1132.127 -1267.637)" fill="#ccd636" fill-rule="evenodd"/>
      <path id="Path_159" data-name="Path 159" d="M1440.27,868.651a5.3,5.3,0,0,0,.6.323,2.483,2.483,0,0,0,.683.253,5.669,5.669,0,0,0,.5-1.273l-.593-.281a1.573,1.573,0,0,0-.62-.244Z" transform="translate(-1416.993 -859.415)" fill="#ccd636" fill-rule="evenodd"/>
      <path id="Path_160" data-name="Path 160" d="M993.407,1326.378a.358.358,0,0,1-.162-.106.362.362,0,0,1-.1-.158,3,3,0,0,1-.558-.494c-.091-.1-.088-.124-.273-.1-.177.3-.844.844-.83.971a3.668,3.668,0,0,0,.474.474c.094.094.451.457.554.438l.694-.735C993.322,1326.547,993.351,1326.565,993.407,1326.378Z" transform="translate(-982.83 -1302.569)" fill="#ccd636" fill-rule="evenodd"/>
      <path id="Path_161" data-name="Path 161" d="M1045.033,668.937l.151.046.055.142-.01.029c.162.022.287.208.39.3s.24.245.324.308c.192-.052.356-.376.595-.509.1-.352.655-.28.151-.712-.122-.1-.146-.155-.255-.262a2.454,2.454,0,0,0-.531-.445c-.39.436-.517.5-.912.978Z" transform="translate(-1034.592 -666.328)" fill="#ccd636" fill-rule="evenodd"/>
      <path id="Path_162" data-name="Path 162" d="M1311.69,693.092l.231,1.356a3.593,3.593,0,0,0,.672-.088l.488-.093c.185-.022.25-.037.181-.406-.018-.1-.051-.178-.073-.308a2.826,2.826,0,0,0-.149-.693Z" transform="translate(-1292.603 -690.533)" fill="#ccd636" fill-rule="evenodd"/>
      <path id="Path_163" data-name="Path 163" d="M1379.622,1125.211c-.095.173-.3.191-.465.3a.336.336,0,0,0,.083.257.549.549,0,0,1,.112.259,1.673,1.673,0,0,1,.191.31,1.116,1.116,0,0,1,.092.191.564.564,0,0,0,.14.183,5.724,5.724,0,0,0,1.188-.6c.005-.208-.046-.176-.124-.307-.375-.628-.307-1.086-.875-.737A1.026,1.026,0,0,1,1379.622,1125.211Z" transform="translate(-1357.87 -1108.536)" fill="#ccd636" fill-rule="evenodd"/>
      <path id="Path_164" data-name="Path 164" d="M791.49,1037.05l-.04.232a2.1,2.1,0,0,0,.437.205c.064.029.155.068.219.1l.227.151c.177,0,.1.072.336.1l.58-1.226a6.1,6.1,0,0,0-1.29-.575C791.811,1036.372,791.645,1036.731,791.49,1037.05Z" transform="translate(-789.313 -1022.532)" fill="#ccd636" fill-rule="evenodd"/>
      <path id="Path_165" data-name="Path 165" d="M1099.746,621.493c-.094.2-.014.158-.148.258a.944.944,0,0,0-.189.167c-.323.393-.3.112-.228.408a.62.62,0,0,0-.105.008.218.218,0,0,0-.1.049l.017.15c.069.12.262.238.4.41.064.078.4.4.482.392.064-.009.123-.111.188-.167l.075-.053c.06-.143.122-.17.224-.285.039-.044.082-.09.114-.123.1-.1.036-.052.158-.108.039-.1.1-.092.156-.216-.051-.238-.418-.362-.459-.548a.63.63,0,0,1-.356-.353c-.09-.012-.027-.04-.21-.042Z" transform="translate(-1086.814 -621.44)" fill="#ccd636" fill-rule="evenodd"/>
    </g>
    <g id="Group_291" data-name="Group 291" transform="translate(23.251 25.293)">
      <path id="Path_166" data-name="Path 166" d="M713.61,797.215c.142.369.659,1.112.864,1.564.35-.11,1.233-.734,1.586-.853a14.4,14.4,0,0,0-.9-1.577Z" transform="translate(-713.61 -795.696)" fill="#1a3a6b" fill-rule="evenodd"/>
      <path id="Path_167" data-name="Path 167" d="M1405.88,1033.274c.179.417.469.8.649,1.23a7.639,7.639,0,0,0,1.25-.688,11.159,11.159,0,0,0-.682-1.2Z" transform="translate(-1383.325 -1024.268)" fill="#1a3a6b" fill-rule="evenodd"/>
      <path id="Path_168" data-name="Path 168" d="M848.73,1079.45a3.7,3.7,0,0,0,.916.406l.392-.9-.9-.395A5.31,5.31,0,0,0,848.73,1079.45Z" transform="translate(-844.328 -1068.711)" fill="#1a3a6b" fill-rule="evenodd"/>
      <path id="Path_169" data-name="Path 169" d="M944.66,777.265l.965.112a4.648,4.648,0,0,0,.124-.99l-.992-.1Z" transform="translate(-937.132 -776.29)" fill="#1a3a6b" fill-rule="evenodd"/>
      <path id="Path_170" data-name="Path 170" d="M1108.82,1262.61l.7.659a6.614,6.614,0,0,0,.669-.7,3.976,3.976,0,0,0-.709-.67Z" transform="translate(-1095.943 -1246.078)" fill="#1a3a6b" fill-rule="evenodd"/>
    </g>
    <g id="Group_292" data-name="Group 292" transform="translate(25.845 18.285)">
      <path id="Path_171" data-name="Path 171" d="M1151.65,562.488a11.807,11.807,0,0,0,1.286,1.232,14.847,14.847,0,0,0,1.218-1.272,10.513,10.513,0,0,0-1.312-1.238,7.649,7.649,0,0,1-.588.635C1152.066,562.048,1151.826,562.262,1151.65,562.488Z" transform="translate(-1139.971 -561.21)" fill="#ababab" fill-rule="evenodd"/>
      <path id="Path_172" data-name="Path 172" d="M793.222,697.695l1.777.2.192-1.785-1.8-.2A14.3,14.3,0,0,0,793.222,697.695Z" transform="translate(-793.216 -691.521)" fill="#ababab" fill-rule="evenodd"/>
      <path id="Path_173" data-name="Path 173" d="M1050.8,1290.9a3.536,3.536,0,0,0,.479.481,5.148,5.148,0,0,0,.522.47,3.107,3.107,0,0,0,.475-.476c.1-.112.424-.433.468-.515a5.176,5.176,0,0,0-1.022-.948A9.854,9.854,0,0,0,1050.8,1290.9Z" transform="translate(-1042.407 -1266.167)" fill="#ababab" fill-rule="evenodd"/>
      <path id="Path_174" data-name="Path 174" d="M1322.67,1209.45a8.562,8.562,0,0,0,1.389.135,7.661,7.661,0,0,0,.147-1.377,11.567,11.567,0,0,0-1.377-.13Z" transform="translate(-1305.419 -1186.995)" fill="#ababab" fill-rule="evenodd"/>
      <path id="Path_175" data-name="Path 175" d="M1408.48,935.036c.3.073,1.077.554,1.272.551a7.138,7.138,0,0,0,.555-1.271c-.191-.079-.4-.186-.591-.277a2.5,2.5,0,0,0-.659-.269,5.584,5.584,0,0,0-.289.592A3.674,3.674,0,0,0,1408.48,935.036Z" transform="translate(-1388.433 -921.631)" fill="#ababab" fill-rule="evenodd"/>
      <path id="Path_176" data-name="Path 176" d="M811.61,1201.79a4.762,4.762,0,0,0,.6.3c.215.1.459.212.649.287a8.386,8.386,0,0,0,.6-1.258,8.1,8.1,0,0,0-1.273-.568Z" transform="translate(-811.011 -1179.719)" fill="#ababab" fill-rule="evenodd"/>
      <path id="Path_177" data-name="Path 177" d="M1218.94,1327.893l-.19,1.371,1.4.17.173-1.406A11.931,11.931,0,0,0,1218.94,1327.893Z" transform="translate(-1204.885 -1302.905)" fill="#ababab" fill-rule="evenodd"/>
      <path id="Path_178" data-name="Path 178" d="M1394.22,772.754a7.594,7.594,0,0,0,.243,1.334c.062.062.237.017.316,0s.222-.04.341-.064l.7-.134-.234-1.38Z" transform="translate(-1374.638 -765.625)" fill="#ababab" fill-rule="evenodd"/>
      <path id="Path_179" data-name="Path 179" d="M844.51,911.18c.119.177.379.649.473.846.32-.063.58-.337.89-.461l-.36-.628c-.075-.133-.042-.124-.146-.216C845.188,910.774,844.718,911.077,844.51,911.18Z" transform="translate(-842.839 -899.332)" fill="#ababab" fill-rule="evenodd"/>
      <path id="Path_180" data-name="Path 180" d="M893.92,1155.195l.163.955a2.992,2.992,0,0,0,.961-.182,4.5,4.5,0,0,0-.182-.938Z" transform="translate(-890.639 -1135.682)" fill="#ababab" fill-rule="evenodd"/>
      <path id="Path_181" data-name="Path 181" d="M1367.3,1073.737a2.932,2.932,0,0,0,.49.844l.785-.427.029-.021a8.776,8.776,0,0,0-.427-.864l-.849.446Z" transform="translate(-1348.595 -1056.586)" fill="#ababab" fill-rule="evenodd"/>
      <path id="Path_182" data-name="Path 182" d="M1271.49,772.936l.151.95.968-.18-.156-.943A2.763,2.763,0,0,0,1271.49,772.936Z" transform="translate(-1255.907 -765.864)" fill="#ababab" fill-rule="evenodd"/>
    </g>
    <g id="Group_293" data-name="Group 293" transform="translate(41.748 19.766)">
      <path id="Path_183" data-name="Path 183" d="M1396.351,1268.348a9.308,9.308,0,0,0-.195,1.782l1.724.205a10.282,10.282,0,0,0,.233-1.8A15.805,15.805,0,0,0,1396.351,1268.348Z" transform="translate(-1392.407 -1246.784)" fill="#1b3c71" fill-rule="evenodd"/>
      <path id="Path_184" data-name="Path 184" d="M1281.32,606.965l.32,1.784,1.767-.326-.31-1.773Z" transform="translate(-1281.32 -606.65)" fill="#1b3c71" fill-rule="evenodd"/>
    </g>
    <g id="Group_294" data-name="Group 294" transform="translate(24.042 18.297)">
      <path id="Path_185" data-name="Path 185" d="M1541.03,812.038l2.044.952.947-2.032c-.092-.072-1.866-.912-2.011-.948Z" transform="translate(-1514.862 -801.915)" fill="#283876" fill-rule="evenodd"/>
      <path id="Path_186" data-name="Path 186" d="M1022.08,562.866c.223.213.39.364.626.594l.643.627c.176-.148.452-.433.63-.623l.618-.678a17.5,17.5,0,0,0-1.295-1.227A10.89,10.89,0,0,0,1022.08,562.866Z" transform="translate(-1012.82 -561.56)" fill="#283876" fill-rule="evenodd"/>
      <path id="Path_187" data-name="Path 187" d="M737.89,991.52l1.268.555.59-1.291a11.314,11.314,0,0,0-1.3-.544A8.778,8.778,0,0,0,737.89,991.52Z" transform="translate(-737.89 -976.273)" fill="#283876" fill-rule="evenodd"/>
      <path id="Path_188" data-name="Path 188" d="M1442.3,1087.942a5.346,5.346,0,0,0,.324.615,5.84,5.84,0,0,0,.341.6,7.652,7.652,0,0,0,1.223-.668l-.561-1.057a.319.319,0,0,0-.044-.074.283.283,0,0,0-.062-.07A11.62,11.62,0,0,0,1442.3,1087.942Z" transform="translate(-1419.349 -1070.161)" fill="#283876" fill-rule="evenodd"/>
      <path id="Path_189" data-name="Path 189" d="M960.935,1263.366a12.275,12.275,0,0,0,.242,1.383c.352.012.972-.2,1.379-.24l-.251-1.375C961.987,1263.109,961.327,1263.342,960.935,1263.366Z" transform="translate(-953.667 -1240.273)" fill="#283876" fill-rule="evenodd"/>
    </g>
    <g id="Group_295" data-name="Group 295" transform="translate(22.238 18.78)">
      <path id="Path_190" data-name="Path 190" d="M1544.66,1108.7a9.18,9.18,0,0,0,.517.983l.543.962a17.887,17.887,0,0,0,1.945-1.073c-.054-.261-.855-1.5-1.015-1.926a5.021,5.021,0,0,0-1.035.51A8.688,8.688,0,0,0,1544.66,1108.7Z" transform="translate(-1516.57 -1090.34)" fill="#2886c4" fill-rule="evenodd"/>
      <path id="Path_191" data-name="Path 191" d="M811.164,1369.369a17.98,17.98,0,0,0,.435,2.206l2.177-.425-.42-2.18C813.035,1368.935,811.616,1369.305,811.164,1369.369Z" transform="translate(-806.972 -1343.144)" fill="#2886c4" fill-rule="evenodd"/>
      <path id="Path_192" data-name="Path 192" d="M1369.99,576.759l.386,2.2,2.176-.377c0-.021.01-.048.01-.043s.009-.024.01-.032c.015-.185.011.09,0-.066l-.375-2.062Z" transform="translate(-1347.59 -576.38)" fill="#2886c4" fill-rule="evenodd"/>
      <path id="Path_193" data-name="Path 193" d="M682.51,1052.261a17.275,17.275,0,0,0,1.612.735,13.486,13.486,0,0,0,.75-1.608,11.907,11.907,0,0,0-1.624-.728A13.258,13.258,0,0,0,682.51,1052.261Z" transform="translate(-682.51 -1035.207)" fill="#2886c4" fill-rule="evenodd"/>
      <path id="Path_194" data-name="Path 194" d="M1378.84,845.56a7.164,7.164,0,0,0,1.265.586c.193-.384.413-.806.571-1.221l-.118-.1c-.036-.02-.111-.047-.165-.073a3.615,3.615,0,0,0-1-.414C1379.258,844.667,1378.889,845.314,1378.84,845.56Z" transform="translate(-1356.152 -835.61)" fill="#2886c4" fill-rule="evenodd"/>
      <path id="Path_195" data-name="Path 195" d="M1104.92,1340.7a7.04,7.04,0,0,0,.737.722c.049.048.076.075.123.118a.359.359,0,0,0,.164.111c.157-.146.333-.329.472-.482l.456-.509a8.172,8.172,0,0,0-1.007-.953Z" transform="translate(-1091.157 -1314.839)" fill="#2886c4" fill-rule="evenodd"/>
      <path id="Path_196" data-name="Path 196" d="M987,652.251l.026-.145c-.084-.086-.072.054-.081-.2,0-.1.107-.417.032-.518a2.208,2.208,0,0,0-1.217-.079c-.04.183.016.148-.007.359a2.253,2.253,0,0,0-.011.277c0,.2-.1.354-.044.475a2.37,2.37,0,0,0,.569.045c.318,0,.281.131.546.062C986.9,652.386,986.837,652.268,987,652.251Z" transform="translate(-975.799 -648.823)" fill="#2886c4" fill-rule="evenodd"/>
    </g>
    <g id="Group_296" data-name="Group 296" transform="translate(20.028 20.114)">
      <path id="Path_197" data-name="Path 197" d="M614.71,829.036a11.823,11.823,0,0,0,1.122,1.956c.278-.123.684-.388.953-.548a6.876,6.876,0,0,0,.952-.562c-.076-.19-1-1.81-1.112-1.912C616.461,828.012,614.995,828.882,614.71,829.036Z" transform="translate(-614.71 -821.107)" fill="#23b4bc" fill-rule="evenodd"/>
      <path id="Path_198" data-name="Path 198" d="M624.52,1128.885l2.02.911c.151-.312.864-1.807.9-2.021l-.228-.147c-.1-.048-.161-.078-.244-.116l-1.529-.682A16.761,16.761,0,0,0,624.52,1128.885Z" transform="translate(-624.2 -1110.23)" fill="#23b4bc" fill-rule="evenodd"/>
      <path id="Path_199" data-name="Path 199" d="M1161.86,1381.239a12.921,12.921,0,0,0,1.311,1.206,17.493,17.493,0,0,0,1.2-1.286c-.191-.32-1-.9-1.277-1.229A13.27,13.27,0,0,0,1161.86,1381.239Z" transform="translate(-1144.033 -1355.084)" fill="#23b4bc" fill-rule="evenodd"/>
      <path id="Path_200" data-name="Path 200" d="M1463.33,1157.415a12.451,12.451,0,0,0,.824,1.595,4.255,4.255,0,0,0,.828-.42,3.8,3.8,0,0,0,.743-.439,12.41,12.41,0,0,0-.828-1.521A13.891,13.891,0,0,0,1463.33,1157.415Z" transform="translate(-1435.68 -1139.059)" fill="#23b4bc" fill-rule="evenodd"/>
      <path id="Path_201" data-name="Path 201" d="M1459.08,783.52a9.782,9.782,0,0,0,1.661.758c.12-.381.69-1.375.718-1.586a8.941,8.941,0,0,0-1.625-.753Z" transform="translate(-1431.569 -776.576)" fill="#23b4bc" fill-rule="evenodd"/>
      <path id="Path_202" data-name="Path 202" d="M895.26,619.135a15.957,15.957,0,0,0,1.81.152c.012-.3.053-.592.082-.867.018-.163.035-.272.048-.431l.03-.388c-.029-.174-.687-.158-.86-.174a6.318,6.318,0,0,0-.917-.076Z" transform="translate(-886.119 -617.348)" fill="#23b4bc" fill-rule="evenodd"/>
      <path id="Path_203" data-name="Path 203" d="M1501.93,1033.527c.02.12.736,1.418.826,1.547a10.25,10.25,0,0,0,1.585-.832c-.137-.385-.747-1.305-.817-1.551a3.345,3.345,0,0,0-.809.4C1502.481,1033.227,1502.153,1033.365,1501.93,1033.527Z" transform="translate(-1473.023 -1019.157)" fill="#23b4bc" fill-rule="evenodd"/>
      <path id="Path_204" data-name="Path 204" d="M1292.2,1346.866l1.762.216.229-1.78-1.8-.232A13.465,13.465,0,0,0,1292.2,1346.866Z" transform="translate(-1270.117 -1321.359)" fill="#23b4bc" fill-rule="evenodd"/>
      <path id="Path_205" data-name="Path 205" d="M1386.76,683.206l.3,1.775,1.774-.308c0-.138-.284-1.709-.315-1.742A12.979,12.979,0,0,0,1386.76,683.206Z" transform="translate(-1361.605 -680.784)" fill="#23b4bc" fill-rule="evenodd"/>
      <path id="Path_206" data-name="Path 206" d="M915.17,1352.652a12.778,12.778,0,0,0,.33,1.728c.036.02.01.029.089.034l1.645-.352a17.451,17.451,0,0,0-.309-1.732Z" transform="translate(-905.38 -1328.383)" fill="#23b4bc" fill-rule="evenodd"/>
      <path id="Path_207" data-name="Path 207" d="M760.213,1104.491a9.706,9.706,0,0,0,1.267.539l.556-1.243a7.128,7.128,0,0,0-1.275-.568,2.713,2.713,0,0,0-.3.625A1.915,1.915,0,0,0,760.213,1104.491Z" transform="translate(-755.472 -1087.389)" fill="#23b4bc" fill-rule="evenodd"/>
      <path id="Path_208" data-name="Path 208" d="M1149.27,672.256a6.363,6.363,0,0,0,.967.96,2.792,2.792,0,0,0,.492-.468,2.438,2.438,0,0,0,.469-.532,10.185,10.185,0,0,0-1-.946A12.313,12.313,0,0,0,1149.27,672.256Z" transform="translate(-1131.853 -669.513)" fill="#23b4bc" fill-rule="evenodd"/>
      <path id="Path_209" data-name="Path 209" d="M789.4,935.977a12.062,12.062,0,0,0,.669,1.18,7.877,7.877,0,0,0,1.218-.664l-.655-1.193A5.478,5.478,0,0,0,789.4,935.977Z" transform="translate(-783.708 -924.941)" fill="#23b4bc" fill-rule="evenodd"/>
      <path id="Path_210" data-name="Path 210" d="M883.5,772.817a3.006,3.006,0,0,0,.869.048,8.571,8.571,0,0,0,.09-.868c.037-.372.215-.595-.327-.5a2.106,2.106,0,0,1-.516-.033,2.343,2.343,0,0,0-.239,0c-.413.011-.159.031-.295.853C882.96,773.015,883.4,772.522,883.5,772.817Z" transform="translate(-874.314 -766.436)" fill="#23b4bc" fill-rule="evenodd"/>
    </g>
    <g id="Group_297" data-name="Group 297" transform="translate(22.079 15.768)">
      <path id="Path_211" data-name="Path 211" d="M791.849,590.371a15.955,15.955,0,0,0-.21,2.174l2.178.226a18.229,18.229,0,0,0,.26-2.223,10.947,10.947,0,0,0-1.092-.133l-.833-.085c-.309-.027-.241,0-.3.041Z" transform="translate(-787.92 -586.854)" fill="#73b947" fill-rule="evenodd"/>
      <path id="Path_212" data-name="Path 212" d="M1081.737,486.743c.058-.122,0-.074.127-.157.057-.034.956-1,1.025-1.1a20.4,20.4,0,0,0-1.594-1.533,14.042,14.042,0,0,0-1.147,1.182,1,1,0,0,1-.191.2,1.368,1.368,0,0,0-.093.108.7.7,0,0,0-.094.122.479.479,0,0,0,.174.2c.09.08.136.129.2.194.15.141.247.236.409.382l.795.748c.13-.057.1-.032.222-.176A1.123,1.123,0,0,1,1081.737,486.743Z" transform="translate(-1066.667 -483.95)" fill="#73b947" fill-rule="evenodd"/>
      <path id="Path_213" data-name="Path 213" d="M1381.333,1361.254l-.053.608,2.191.282c.073-.223.15-1.2.181-1.3s.019-.05.054-.1a3.9,3.9,0,0,1,.047-.836,19.768,19.768,0,0,0-2.221-.242Z" transform="translate(-1358.354 -1331.138)" fill="#73b947" fill-rule="evenodd"/>
      <path id="Path_214" data-name="Path 214" d="M1032.76,1384.2a8.794,8.794,0,0,0,1.327,1.2c.128-.172.409-.448.57-.615a5.723,5.723,0,0,0,.587-.665c-.044-.13-.022-.085-.126-.177a11.4,11.4,0,0,0-1.166-1.035,11.113,11.113,0,0,0-.9.942C1032.922,1383.983,1032.8,1384.061,1032.76,1384.2Z" transform="translate(-1021.189 -1353.62)" fill="#73b947" fill-rule="evenodd"/>
      <path id="Path_215" data-name="Path 215" d="M677.63,920.887a12.035,12.035,0,0,0,.818,1.536c.187.025.549-.236.8-.375.23-.128.549-.334.79-.44a11.265,11.265,0,0,0-.877-1.579,5.146,5.146,0,0,0-.754.42C678.149,920.616,677.919,920.714,677.63,920.887Z" transform="translate(-677.63 -905.822)" fill="#73b947" fill-rule="evenodd"/>
      <path id="Path_216" data-name="Path 216" d="M1502.564,905.521a.779.779,0,0,1-.186-.044c-.2-.085-.05-.015-.123-.1-.229-.078-.657-.406-.916-.356a15.5,15.5,0,0,0-.71,1.579,4.652,4.652,0,0,0,.776.373,2.823,2.823,0,0,0,.856.352,12.8,12.8,0,0,0,.71-1.6Z" transform="translate(-1473.815 -891.295)" fill="#73b947" fill-rule="evenodd"/>
      <path id="Path_217" data-name="Path 217" d="M808.878,1278.964a4.9,4.9,0,0,0,.145.885,4.329,4.329,0,0,0,.207.875l1.7-.322c.023-.045.052-.029.025-.191l-.328-1.571C810.4,1278.641,809.148,1278.9,808.878,1278.964Z" transform="translate(-804.601 -1252.748)" fill="#73b947" fill-rule="evenodd"/>
      <path id="Path_218" data-name="Path 218" d="M1209.633,638.3a.339.339,0,0,1-.178.193c-.076.111-.071.045-.114.186a5.306,5.306,0,0,0,.486.471c.573.52.376.654.992-.026.161-.177.372-.312.443-.525a1.539,1.539,0,0,0-.214-.236l-.752-.693a1.185,1.185,0,0,0-.34.31A2.279,2.279,0,0,1,1209.633,638.3Z" transform="translate(-1192.016 -632.661)" fill="#73b947" fill-rule="evenodd"/>
      <path id="Path_219" data-name="Path 219" d="M1325.19,765.5a12.831,12.831,0,0,0,.226,1.366l1.372-.253-.22-1.336Z" transform="translate(-1304.091 -756.114)" fill="#73b947" fill-rule="evenodd"/>
      <path id="Path_220" data-name="Path 220" d="M955.151,712.635c.09-.117.221-.032.34-.008l.656.059c.039-.157.046-.094.072-.229a8.468,8.468,0,0,1,.1-.951c-.008-.007-.021-.027-.026-.02l-.187-.165a6.609,6.609,0,0,0-1.116-.09l-.155,1.379Z" transform="translate(-945.808 -703.822)" fill="#73b947" fill-rule="evenodd"/>
    </g>
    <g id="Group_298" data-name="Group 298" transform="translate(5.196 1.2)">
      <path id="Path_221" data-name="Path 221" d="M360.53,105.651v10.493h.832l.363-.006V105.62l-1.195-.02Z" transform="translate(-353.979 -103.36)" fill="#a5a5a5" fill-rule="evenodd"/>
      <path id="Path_222" data-name="Path 222" d="M1915.271,1609.384h.643l.008-5.763-.651-.01Z" transform="translate(-1858.062 -1552.561)" fill="#a5a5a5" fill-rule="evenodd"/>
      <path id="Path_223" data-name="Path 223" d="M166.84,1914.5l.812,0-.009-4.6-.8,0Z" transform="translate(-166.6 -1848.872)" fill="#a5a5a5" fill-rule="evenodd"/>
      <path id="Path_224" data-name="Path 224" d="M1808.14,37.976a4.155,4.155,0,0,0,1.112-.021l.016-1.075a5.163,5.163,0,0,0-1.124-.023Z" transform="translate(-1754.423 -36.837)" fill="#a5a5a5" fill-rule="evenodd"/>
      <path id="Path_225" data-name="Path 225" d="M2525.654,466.389l1.129,0,0-1.134h-1.128Z" transform="translate(-2448.555 -451.301)" fill="#a5a5a5" fill-rule="evenodd"/>
      <path id="Path_226" data-name="Path 226" d="M159.46,1804.219h.665l.012-.678-.668.009Z" transform="translate(-159.46 -1745.977)" fill="#a5a5a5" fill-rule="evenodd"/>
      <path id="Path_227" data-name="Path 227" d="M194.392,1804.414h.658l.008-.674h-.668Z" transform="translate(-193.252 -1746.171)" fill="#a5a5a5" fill-rule="evenodd"/>
      <path id="Path_228" data-name="Path 228" d="M1311.682,1604.241l.673.017,0-.651-.677-.017Z" transform="translate(-1274.138 -1552.542)" fill="#a5a5a5" fill-rule="evenodd"/>
    </g>
    <g id="Group_299" data-name="Group 299">
      <path id="Path_229" data-name="Path 229" d="M2238.727,626.23a9.133,9.133,0,0,1,.267-2.675c.025-.1.073-.264.1-.356a8.187,8.187,0,0,1,1.578-2.874,7.419,7.419,0,0,1,5.377-2.534c5.83-.32,9.539,5.566,7.613,11.044a7.608,7.608,0,0,1-10.155,4.444,7.43,7.43,0,0,1-2.37-1.564A8.182,8.182,0,0,1,2238.727,626.23Zm21.344.364v-1.607c-.047-.114-.124-1.188-.17-1.453-.076-.437-.184-.905-.3-1.353a12.878,12.878,0,0,0-7.893-8.659,14.887,14.887,0,0,0-8.608-.561,13.52,13.52,0,0,0-4.585,1.992c-.349.236-.665.486-.949.721a13.5,13.5,0,0,0-1.667,1.63,14.3,14.3,0,0,0-1.371,1.961,13.1,13.1,0,0,0-1.711,6.568,12.878,12.878,0,0,0,7.783,12.05,14.955,14.955,0,0,0,11.082.207,13.178,13.178,0,0,0,6.977-6.287,12.374,12.374,0,0,0,1.225-3.744Z" transform="translate(-2160.07 -592.619)" fill="#a6a6a6" fill-rule="evenodd"/>
      <path id="Path_230" data-name="Path 230" d="M1599.955,630.8c.01,0,.024,0,.03.01s.023.008.031.008a.974.974,0,0,0,.111.009c.062,0,.137,0,.2,0l8.254,0a2.593,2.593,0,0,0,1.153-.591c.367-.24.7-.468,1.066-.684a10.246,10.246,0,0,1,1.1-.681,3.608,3.608,0,0,1-.5.531l-4.495,4.513c-.083.08-.127.129-.237.239l-1.269,1.272c-.254.27-1.3,1.349-1.509,1.5.024.3.8,3.391.871,3.632,2.5,0,6.693-.344,7.3,2.663a3.076,3.076,0,0,1-2.858,3.71,7.04,7.04,0,0,1-4.139-.763,6.969,6.969,0,0,1-1.021-.638,12.762,12.762,0,0,1-1.325-1.176,2.7,2.7,0,0,0-.407-.423l-1.945,1.82c-.329.331-1.8,1.652-1.927,1.867a13.237,13.237,0,0,0,1.406,1.435c2.779,2.584,7.413,3.475,11.176,2.715a8.039,8.039,0,0,0,6.209-5.344c.681-2.19.645-5.031-.775-6.96a6.64,6.64,0,0,0-2.343-1.984l-1.011-.451a10.462,10.462,0,0,0-2.3-.6c.069-.139,2.15-2.082,2.4-2.321.684-.659,2.249-2.191,2.845-2.713.175-.153.277-.254.407-.383.278-.277.528-.494.8-.773v-4.236l-17.325-.011c-.052,1.028-.006,3-.006,4.207q0,.159,0,.318Z" transform="translate(-1546.36 -605.584)" fill="#a6a6a6" fill-rule="evenodd"/>
      <path id="Path_231" data-name="Path 231" d="M6.395,620.13l3.4,2.758a2.17,2.17,0,0,0,.536.375,7.3,7.3,0,0,0,.6-.677,6.965,6.965,0,0,1,3.812-2.653c2.181-.418,4.375.75,4.263,3.36a5.193,5.193,0,0,1-1.667,3.525,28.34,28.34,0,0,1-2.707,2.448c-.25.192-.474.394-.7.568l-1.784,1.47c-.141.124-.221.184-.37.308l-3.205,2.623c-.114.1-.22.184-.352.286l-2.1,1.713a8.536,8.536,0,0,0-.078,2.268l.032,2.244c.236.077,14.68.024,16.563.024.73,0,1.672-.052,2.375.007l.007-4.863c-.417-.042-6.974-.01-7.58-.01-.621,0-1.244,0-1.865,0a2.956,2.956,0,0,0-1.4.523c-.372.182-2.373,1.2-2.585,1.255a11.3,11.3,0,0,1,1.028-.83l7.35-5.706c2.122-1.715,4.173-3.768,4.648-6.548a8.722,8.722,0,0,0-1.025-6.178,6.948,6.948,0,0,0-1.813-1.919,9.838,9.838,0,0,0-5.766-1.7,9.926,9.926,0,0,0-7.945,3.251c-.3.308-.6.65-.873.994a5.638,5.638,0,0,0-.794,1.079Z" transform="translate(-5.808 -594.773)" fill="#a6a6a6" fill-rule="evenodd"/>
      <path id="Path_232" data-name="Path 232" d="M1665.245,115.345c-1.592-.059-3.218.278-4.54-.795a4.033,4.033,0,0,1-1.194-1.46c-1.242-2.417.113-6.129,3.542-6.165.42,0,2.331-.047,2.594.033a2.866,2.866,0,0,0-.642.325c-.065,1.337-.01,2.814-.01,4.167,0,.687,0,1.376,0,2.063A7.753,7.753,0,0,0,1665.245,115.345Zm.175,1.051-.021-.774a4.221,4.221,0,0,0,.33.372,2.276,2.276,0,0,0,1.688.455h20.241l0-10.6-1.15.005c.071.64.028,9.29-.021,9.43-.246.09-14.809.032-14.868.032h-3.73c-.6,0-1.221.112-1.524-.362a3.18,3.18,0,0,1-.229-1.642c0-2.483.01-4.968,0-7.451l-3.287-.009a5.275,5.275,0,0,0-2.535.759,5.435,5.435,0,0,0-.8,8.452l.346.288a5.033,5.033,0,0,0,2.309.988A19.145,19.145,0,0,0,1665.419,116.4Z" transform="translate(-1603.846 -102.401)" fill="#a6a6a6" fill-rule="evenodd"/>
      <path id="Path_233" data-name="Path 233" d="M2057.513,1607.961a1.682,1.682,0,1,1-1.36-1.95A1.65,1.65,0,0,1,2057.513,1607.961Zm-6.238,0a1.685,1.685,0,1,1-1.341-1.952A1.659,1.659,0,0,1,2051.275,1607.961Zm-15.777.665a2.936,2.936,0,0,1-1.68-.282,1.454,1.454,0,0,1,.056-2.5c.628-.39.9-.223,1.635-.3Zm9.311,0-2.039-.007a6.341,6.341,0,0,0-.121-1.73,1.551,1.551,0,0,0-.906-.964,20.159,20.159,0,0,0-3.572-.111c.128-.36,1.114-2.06,1.161-2.314h-.7c-.1.281-.942,1.76-1.151,2.185-.147.3.1.6.228.784,1.092,0,2.186-.006,3.277,0a1.008,1.008,0,0,1,1.043.606,5.488,5.488,0,0,1,.079,1.527c-.2.053-5.554.064-5.941.011l0-3.711a5.234,5.234,0,0,0-2.591.366,2.056,2.056,0,0,0-1.087,1.856,1.947,1.947,0,0,0,1.1,1.811,5.534,5.534,0,0,0,2.6.339c3.889,0,7.778.008,11.667,0,.148.047.235.176.335.254a2.948,2.948,0,0,0,.365.228,2.389,2.389,0,0,0,2.752-.47l2.857-.009a2.359,2.359,0,0,0,2.7.509,1.967,1.967,0,0,0,.374-.219c.049-.036.129-.1.18-.142l.157-.144c.15-.049,2.972.051,3.273-.028l0-5.723a1.087,1.087,0,0,0-.3-.026.649.649,0,0,0-.339.034c-.086.3.025,4.259-.028,5.086l-2.155,0a3.416,3.416,0,0,0,.148-1.263,2.25,2.25,0,0,0-.412-1.06,2.319,2.319,0,0,0-4.206,1.1,3.146,3.146,0,0,0,.148,1.216l-1.947.01a2.492,2.492,0,0,0,.175-1.221,2.329,2.329,0,0,0-4.623-.034,3.139,3.139,0,0,0,.162,1.245l-2,.014c-.095-.885.08-4.78-.037-5.121l-.613-.008Z" transform="translate(-1966.267 -1551.255)" fill="#a6a6a6" fill-rule="evenodd"/>
      <path id="Path_234" data-name="Path 234" d="M384.994,1608.693c-1.178.16-2.418-.279-2.391-1.529.025-1.14,1.23-1.7,2.393-1.5Zm2.6-2.48a2.361,2.361,0,0,1,3.081,0c-.01.259-.813,2.047-.983,2.494h-1.139C388.411,1608.3,387.585,1606.45,387.6,1606.213Zm15.3,2.473a8.5,8.5,0,0,1-1.406,0,1.4,1.4,0,0,1-.932-.472c-.147-.189-.051-.375-.045-.655l-.007-2.183h-.643c-.013.76.024,1.554-.008,2.3-.066,1.583-2.376,1.349-2.467.04a20.8,20.8,0,0,1,.013-2.333l-.659-.008a16.668,16.668,0,0,1-.1,2.733c-.328.766-1.319.583-2.215.6l-.013-3.323-.657-.006,0,3.312-3.347.01a3.182,3.182,0,0,1,.255-.681,15.411,15.411,0,0,0,.8-2.049,5,5,0,0,0-.977-.671c-1.446-.753-2.555-.292-3.723.671a8.7,8.7,0,0,0,.531,1.373,13.65,13.65,0,0,1,.556,1.343l-2.187.014-.013-3.724a5.41,5.41,0,0,0-2.469.307,2.141,2.141,0,0,0-1.207,1.577,1.97,1.97,0,0,0,.768,1.975,4.088,4.088,0,0,0,2.245.529c.1,1.022-.666,1.174-1.472,1.075-.257-.032-.451-.162-.71-.2l-.179.61c.879.348,2.289.49,2.807-.452a2.314,2.314,0,0,0,.225-1.045h9.04a3.011,3.011,0,0,0,1.957-.312c.325-.243.268-.289.424-.378.214.179.136.285.615.543a2.08,2.08,0,0,0,2.444-.371c.016-.019.067-.089.068-.091.085-.1-.01-.021.1-.087.526.971,2.056.641,3.238.7,0-.678.053-5.532-.028-5.733-.042-.026.039-.026-.128-.046l-.487.011Z" transform="translate(-369.5 -1551.332)" fill="#a6a6a6" fill-rule="evenodd"/>
      <path id="Path_235" data-name="Path 235" d="M1246.93,115.875h1.169V108.6a1.743,1.743,0,0,0-.171-1.065,4.348,4.348,0,0,1-.355-.9,8.54,8.54,0,0,1,.942,1.136c.49.574,1.3,1.681,1.817,2.312.931,1.14,1.828,2.374,2.73,3.461l1.805,2.284.023.023a4.807,4.807,0,0,0,.98.022c0-3.327-.042-6.9,0-10.214.005-.421.032-.33-.4-.328a2.822,2.822,0,0,0-.735.027l-.037,7.564a5.139,5.139,0,0,0,.433,1.335,4.915,4.915,0,0,1-.662-.771l-6.415-8.142-1.115-.015Z" transform="translate(-1206.303 -101.889)" fill="#a6a6a6" fill-rule="evenodd"/>
      <path id="Path_236" data-name="Path 236" d="M865.993,105.955a4.255,4.255,0,0,1-2.011,3.255c-3.521,1.928-7.184-1.359-6.036-5.211a3.858,3.858,0,0,1,.308-.756,4.041,4.041,0,0,1,4.141-2.132A4.253,4.253,0,0,1,865.993,105.955Zm-4.509-5.968a5.621,5.621,0,0,0-2.135.584,5.252,5.252,0,0,0-2.512,2.882,5.412,5.412,0,1,0,10.416,1.563,5.328,5.328,0,0,0-3.415-4.715A5.506,5.506,0,0,0,861.484,99.988Z" transform="translate(-828.585 -96.709)" fill="#a6a6a6" fill-rule="evenodd"/>
      <path id="Path_237" data-name="Path 237" d="M2633.49,111.761a11.088,11.088,0,0,1-1.714-.02,2.626,2.626,0,0,1-2.463-2.884,2.733,2.733,0,0,1,1.51-2.063,6.7,6.7,0,0,1,3.216-.371.705.705,0,0,1-.276.178,1.571,1.571,0,0,0-.264.147Zm-.355,1.141c.049-.107.089-.208.143-.321.156-.331.065-.23.216-.3.024,1.2.1,2.053-.942,2.438a3.855,3.855,0,0,1-2.205-.03c-.2-.064-.476-.2-.639-.237a3.912,3.912,0,0,0-.34,1.091,10.218,10.218,0,0,0,1.608.422,4.624,4.624,0,0,0,1.856-.137c2.095-.653,1.8-2.672,1.8-4.354,0-.991.054-5.9-.023-6.171a16.462,16.462,0,0,0-2.295,0,5.191,5.191,0,0,0-2.665.919,3.787,3.787,0,0,0-1.406,2.161,3.533,3.533,0,0,0,1.131,3.5A5.866,5.866,0,0,0,2633.134,112.9Z" transform="translate(-2542.524 -101.827)" fill="#a6a6a6" fill-rule="evenodd"/>
      <path id="Path_238" data-name="Path 238" d="M454.683,108.877a5.046,5.046,0,0,1-.361.426,1.525,1.525,0,0,0-.343.478,6.463,6.463,0,0,0,2.526,1.423c1.534.436,3.564.345,4.679-.871a2.687,2.687,0,0,0-.529-4.1c-2.046-1.216-5.141-.686-5.065-2.939.039-1.134,1.271-1.68,2.407-1.624a4.5,4.5,0,0,1,2.268.706,3.551,3.551,0,0,0,.629.4l.662-.874a4.415,4.415,0,0,0-1.19-.783,5.02,5.02,0,0,0-4.8.135,2.491,2.491,0,0,0-.918,1.065,2.757,2.757,0,0,0-.224,1.691c.536,3.1,5.332,2.037,6.117,3.847a1.721,1.721,0,0,1-.158,1.629c-.923,1.269-3.167.986-4.5.252A12.589,12.589,0,0,1,454.683,108.877Z" transform="translate(-439.188 -97.302)" fill="#a6a6a6" fill-rule="evenodd"/>
      <path id="Path_239" data-name="Path 239" d="M0,105.6v.065l3.4,7.895c.372.9.751,1.8,1.142,2.664H5.595l2.269-5.3c.38-.878.753-1.829,1.138-2.663.114-.245.2-.448.287-.665s.191-.445.287-.677a14.219,14.219,0,0,1,.57-1.306l-1.3-.019c-.066.2-.173.422-.244.593-.1.233-.153.38-.245.594l-2.933,7.06a.952.952,0,0,0-.136.694,2.645,2.645,0,0,1,.041.77l-3.939-9.58c-.093-.194.015-.064-.121-.13L0,105.6Z" transform="translate(0 -102.159)" fill="#a6a6a6" fill-rule="evenodd"/>
      <path id="Path_240" data-name="Path 240" d="M1553.432,1606.034a2.233,2.233,0,0,1,1.532-.607,2.591,2.591,0,0,1,1.575.567l-.98,2.49-1.149,0a6.1,6.1,0,0,0-.239-.622c-.091-.222-.169-.4-.259-.614s-.182-.444-.254-.633A4.728,4.728,0,0,1,1553.432,1606.034Zm5.538,2.44-2.688.012c.029-.339,1.1-2.52,1.066-2.691a3.884,3.884,0,0,0-1-.713c-1.483-.752-2.539-.289-3.72.673a2,2,0,0,0,.249.7c.1.223.2.473.279.672a7.519,7.519,0,0,1,.534,1.367l-2.337-.006-.018-3.723-.65,0v3.171c0,2.04.211,2.308-.919,2.294l-.186.594a1.431,1.431,0,0,0,1.382-.223c.38-.38.331-.847.38-1.445.267-.07,7.774-.019,8.27-.021.074-.745.007-4.079.014-5.365l0-.279c-.018-.1-.023-.079-.033-.1a1.651,1.651,0,0,0-.618-.018Z" transform="translate(-1499.092 -1551.113)" fill="#a6a6a6" fill-rule="evenodd"/>
      <path id="Path_241" data-name="Path 241" d="M1222.265,1647.244c.126.468,0,2.409.029,3.063a2.944,2.944,0,0,1-1.678-.269,1.459,1.459,0,0,1,.028-2.5A2.652,2.652,0,0,1,1222.265,1647.244Zm6.948,3.724.008-4.378-.644,0v3.717l-2.4,0c-.058-.252-.021-3.191-.021-3.71l-.657-.009v3.716l-2.548,0,0-3.718c-1.169.01-2.628-.119-3.376,1.109a2.243,2.243,0,0,0-.2,1.828c.7,1.855,3.311,1.438,5.32,1.438C1226.182,1650.964,1227.735,1650.921,1229.213,1650.968Z" transform="translate(-1179.537 -1592.941)" fill="#a6a6a6" fill-rule="evenodd"/>
      <path id="Path_242" data-name="Path 242" d="M2887.056,115.368a3.92,3.92,0,0,0-.266,1.071,3.407,3.407,0,0,0,1.523.057,1.728,1.728,0,0,0,1.045-.69,5.469,5.469,0,0,0,.477-3.017c0-.76-.052-6.751.021-6.927l-1.162-.022c-.044,1.859,0,3.753,0,5.6,0,.9.21,3.4-.4,3.815a.979.979,0,0,1-.563.168C2887.447,115.437,2887.271,115.358,2887.056,115.368Z" transform="translate(-2792.731 -102.392)" fill="#a6a6a6" fill-rule="evenodd"/>
      <path id="Path_243" data-name="Path 243" d="M756.76,115.979a4.305,4.305,0,0,0,1.2,0V105.828a.822.822,0,0,1,.031-.344c-.295.011-.832-.052-1.214-.021Z" transform="translate(-732.103 -102.019)" fill="#a6a6a6" fill-rule="evenodd"/>
      <path id="Path_244" data-name="Path 244" d="M3,1647.035l.014,3.091c-.7-.056-1.091.058-1.661-.287a1.453,1.453,0,0,1,0-2.492C1.984,1646.952,2.224,1647.106,3,1647.035Zm-3,1.154v.752c.066.1.194,1.757,2.5,1.816.577.015,4.086.071,4.344-.02.107-.265.033-3.73.033-4.34l-.659,0v3.72c-.329.018-2.351.04-2.542-.019l-.008-3.7a5.328,5.328,0,0,0-2.42.283,2.222,2.222,0,0,0-.776.583,2.252,2.252,0,0,0-.373.662.867.867,0,0,1-.1.265Z" transform="translate(0 -1592.742)" fill="#a6a6a6" fill-rule="evenodd"/>
      <path id="Path_245" data-name="Path 245" d="M879.1,1911.313c.143.093,1.19,1.8,1.427,2.089.183-.123,1.235-1.9,1.466-2.1l.007,3.234.822-.013-.008-4.588-.859,0a4.474,4.474,0,0,0-.345.512c-.112.165-.22.354-.339.54-.136.214-.23.347-.341.523l-.364.532c-.226-.134-1.16-1.844-1.429-2.113l-.852.02-.016,4.581.819-.011Z" transform="translate(-849.654 -1847.701)" fill="#a6a6a6" fill-rule="evenodd"/>
      <path id="Path_246" data-name="Path 246" d="M2661.225,1912.2a8.221,8.221,0,0,1,1.415-.031c.418.035.782.171.775.649-.008.447-.4.558-.824.59a4.589,4.589,0,0,1-1.366-.052c0-.008-.011-.02-.014-.03l-.015-.23c0-.106,0-.212,0-.318A2.1,2.1,0,0,1,2661.225,1912.2Zm0-1.9a.313.313,0,0,1,.033-.013l.108-.024c.021,0,.1,0,.121,0,.514,0,1.3-.078,1.557.244a.553.553,0,0,1-.061.759c-.308.287-1.3.23-1.751.191a.532.532,0,0,1-.037-.3A4.639,4.639,0,0,1,2661.225,1910.3Zm2.146,1.465c.156-.19.262-.147.44-.428a1.089,1.089,0,0,0,.165-.617c0-1.189-1.27-1.183-2.012-1.183a13.085,13.085,0,0,0-1.569.02l0,4.562a15.66,15.66,0,0,0,1.771.022,2.725,2.725,0,0,0,1.5-.258.915.915,0,0,0,.448-.46A1.131,1.131,0,0,0,2663.371,1911.761Z" transform="translate(-2573.71 -1847.302)" fill="#a6a6a6" fill-rule="evenodd"/>
      <path id="Path_247" data-name="Path 247" d="M230.612,1911.377c.14.072,1.192,1.488,1.273,1.592l1.261,1.6.667-.021,0-4.58-.8.013-.007,3.085a.6.6,0,0,1-.186-.193c-.058-.074-.11-.129-.16-.2-.089-.116-.2-.265-.3-.383l-1.214-1.565c-.106-.135-.187-.244-.293-.379a4.3,4.3,0,0,1-.286-.382H229.8l0,4.6h.806Z" transform="translate(-222.313 -1847.739)" fill="#a6a6a6" fill-rule="evenodd"/>
      <path id="Path_248" data-name="Path 248" d="M702.647,1908.237a1.578,1.578,0,1,1-1.051,2.482A1.634,1.634,0,0,1,702.647,1908.237Zm-.194,3.976h.917a1.781,1.781,0,0,1,.454-.157,2.392,2.392,0,1,0-2.17-.165l.581.239.128.032A.224.224,0,0,1,702.453,1912.213Z" transform="translate(-677.679 -1845.308)" fill="#a6a6a6" fill-rule="evenodd"/>
      <path id="Path_249" data-name="Path 249" d="M2352.95,1910.124a12.986,12.986,0,0,1,1.4.014.71.71,0,0,1,.714.738c.013.99-1.334.775-2.116.775Zm1.884,2.141.029-.023c.007,0,.019-.016.028-.022l.057-.033.239-.11a1.242,1.242,0,0,0,.647-.782,1.567,1.567,0,0,0-.324-1.465,2.086,2.086,0,0,0-1.485-.453c-.541,0-1.387-.049-1.892.01l0,4.591.814-.014.009-1.586,1,0c.156.263.331.489.551.793l.542.806.979-.021-.6-.839A10.365,10.365,0,0,1,2354.834,1912.265Z" transform="translate(-2275.493 -1847.146)" fill="#a6a6a6" fill-rule="evenodd"/>
      <path id="Path_250" data-name="Path 250" d="M1108.875,1910.458a1.608,1.608,0,0,1,1.184-1.944,1.544,1.544,0,0,1,1.852,1.241,1.591,1.591,0,0,1-1.177,1.944A1.545,1.545,0,0,1,1108.875,1910.458Zm1.1,2.024h.784a2.689,2.689,0,0,0,1.467-.8,2.417,2.417,0,0,0,.567-1.738,2.32,2.32,0,0,0-2.383-2.206,2.378,2.378,0,0,0-1.9,3.9A2.7,2.7,0,0,0,1109.979,1912.482Z" transform="translate(-1071.883 -1845.577)" fill="#a6a6a6" fill-rule="evenodd"/>
      <path id="Path_251" data-name="Path 251" d="M1912.357,1913.374l-.017-3.1a3.158,3.158,0,0,1,1.784.222,1.565,1.565,0,0,1-.777,2.881A7.854,7.854,0,0,1,1912.357,1913.374Zm-.837.731a13.186,13.186,0,0,0,1.568.013,2.823,2.823,0,0,0,1.364-.272,2.19,2.19,0,0,0,1.234-2.034,2.307,2.307,0,0,0-2.557-2.294,13.417,13.417,0,0,0-1.6.02Z" transform="translate(-1849.239 -1847.288)" fill="#a6a6a6" fill-rule="evenodd"/>
      <path id="Path_252" data-name="Path 252" d="M550.422,1910.245a3.872,3.872,0,0,1,1.663.159,1.567,1.567,0,0,1-.829,2.955h-.834v-3.114Zm-.822,3.84a14.461,14.461,0,0,0,1.616.015c3.412-.023,3.438-4.6-.039-4.6-.455,0-1.149-.04-1.575.009Z" transform="translate(-531.693 -1847.267)" fill="#a6a6a6" fill-rule="evenodd"/>
      <path id="Path_253" data-name="Path 253" d="M385.366,1912.323h.672a5.5,5.5,0,0,0,.867-.271c.142-.072.583-.288.658-.458a13.935,13.935,0,0,0,.022-1.917H385.63v.713l1.168.01v.813a1.794,1.794,0,0,1-1.85.2,1.7,1.7,0,0,1,.173-3,2.04,2.04,0,0,1,1.811.375,4.7,4.7,0,0,0,.468-.592,2.162,2.162,0,0,0-.927-.523,2.431,2.431,0,0,0-2.878,3.543A2.369,2.369,0,0,0,385.366,1912.323Z" transform="translate(-370.785 -1845.419)" fill="#a6a6a6" fill-rule="evenodd"/>
      <path id="Path_254" data-name="Path 254" d="M21.385,1911.857a12.065,12.065,0,0,1,.939-1c.135-.156.324-.323.472-.476a4.859,4.859,0,0,0,.447-.493c-.227-.014-.483,0-.714-.005-.293,0-.294.024-.463.2-.191.2-.443.469-.654.693l-1.332,1.38-.013-2.276h-.8v4.6h.805l0-1.316a7.89,7.89,0,0,1,.706-.7c.108.047.059,0,.147.118l1.4,1.883,1,.012Z" transform="translate(-18.642 -1847.651)" fill="#a6a6a6" fill-rule="evenodd"/>
      <path id="Path_255" data-name="Path 255" d="M1595.654,1910.153c.129.133.1.19.2.4.074.159.129.285.195.44a5.769,5.769,0,0,1,.363.915H1594.9l.679-1.657C1595.635,1910.153,1595.624,1910.187,1595.654,1910.153Zm-2.374,3.567a2.126,2.126,0,0,0,.81,0l.486-1.089,2.161,0a8.455,8.455,0,0,0,.482,1.084,3.113,3.113,0,0,0,.827.028,7.608,7.608,0,0,0-.482-1.161l-1.254-2.875a4.9,4.9,0,0,0-.26-.573l-.78-.022-1.751,4.037C1593.459,1913.289,1593.317,1913.583,1593.28,1913.72Z" transform="translate(-1541.368 -1846.907)" fill="#a6a6a6" fill-rule="evenodd"/>
      <path id="Path_256" data-name="Path 256" d="M2183.807,1911.95a7.818,7.818,0,0,1,.375-.905c.109-.266.24-.611.357-.862.108.081,0-.046.1.1l.048.113.666,1.552Zm-.793,1.815a10.192,10.192,0,0,0,.478-1.1l2.15,0a5.413,5.413,0,0,1,.253.555,1.827,1.827,0,0,0,.255.553l.829,0c-.083-.3-.807-1.861-1.005-2.332l-1.014-2.292-.754.021c-.113.255-1.957,4.348-1.994,4.609Z" transform="translate(-2111.109 -1846.946)" fill="#a6a6a6" fill-rule="evenodd"/>
      <path id="Path_257" data-name="Path 257" d="M2859.4,1911.955c.018-.11.687-1.655.755-1.745a10.882,10.882,0,0,1,.768,1.758Zm-.315.732,2.142,0c.192.3.365.9.476,1.081a3.179,3.179,0,0,0,.869.007c-.078-.192-1.96-4.573-2.059-4.609l-.735,0c-.043.2-.594,1.38-.747,1.748-.213.513-1.189,2.633-1.238,2.882l.826-.018Z" transform="translate(-2764.677 -1846.965)" fill="#a6a6a6" fill-rule="evenodd"/>
      <path id="Path_258" data-name="Path 258" d="M1755.606,1914.518h.651c.2-.073.421-.065.651-.165a1.665,1.665,0,0,0,1.027-1.353c.08-.454.063-2.594.042-3.156h-.8c-.061.811.012,1.742-.01,2.572-.021.8-.325,1.37-1.171,1.346-.871-.025-1.132-.591-1.138-1.387-.006-.822.038-1.724-.006-2.536l-.812.024c-.034.339-.028,2.731.023,3.042C1754.3,1914.356,1755.226,1914.324,1755.606,1914.518Z" transform="translate(-1696.87 -1847.613)" fill="#a6a6a6" fill-rule="evenodd"/>
      <path id="Path_259" data-name="Path 259" d="M2491.918,1911.672c.029-.307.62-1.426.751-1.811.1.274.271.6.385.875a4.375,4.375,0,0,1,.363.932Zm-.8,1.806c.167-.277.3-.845.49-1.091l2.142,0,.464,1.108h.853l-.494-1.189c-.212-.437-1.384-3.237-1.537-3.434-.956-.006-.661-.14-.979.542-.095.2-.158.374-.253.579-.36.775-.656,1.566-1.014,2.317l-.5,1.188Z" transform="translate(-2409.151 -1846.667)" fill="#a6a6a6" fill-rule="evenodd"/>
      <path id="Path_260" data-name="Path 260" d="M1471.91,1912.712h.629c.01-.006.025-.026.031-.017a2.434,2.434,0,0,0,.854-.382,1.3,1.3,0,0,0,.111-1.815c-.757-.654-1.931-.521-2.2-1.01a.544.544,0,0,1,.042-.534c.265-.365,1.015-.273,1.455-.055.155.077.271.177.435.251a2.835,2.835,0,0,0,.429-.6c-1.287-1.014-3.093-.59-3.22.554a1.17,1.17,0,0,0,.471,1.21c.833.557,2.163.32,2.08,1.173-.054.561-1.082.64-1.759.252l-.5-.328a3.945,3.945,0,0,0-.468.552C1470.654,1912.478,1471.892,1912.7,1471.91,1912.712Z" transform="translate(-1422.395 -1845.807)" fill="#a6a6a6" fill-rule="evenodd"/>
      <path id="Path_261" data-name="Path 261" d="M1286.37,1914.566l.815.014,0-1.867,2.332-.005-.013-.746a19.358,19.358,0,0,1-2.278-.027,5.779,5.779,0,0,1-.03-1.207h2.629l-.02-.735-3.421-.012Z" transform="translate(-1244.457 -1847.749)" fill="#a6a6a6" fill-rule="evenodd"/>
      <path id="Path_262" data-name="Path 262" d="M239.846,1647.229c.634,0,1.518-.078,1.588,1.019a16.748,16.748,0,0,1,0,2.046c-.257.012-2.8-.031-2.978.034a2.435,2.435,0,0,0-.024.617l3.653,0c.055-.795.152-2.888-.224-3.553a1.582,1.582,0,0,0-.806-.7,3.2,3.2,0,0,0-1.209-.121Z" transform="translate(-230.657 -1592.926)" fill="#a6a6a6" fill-rule="evenodd"/>
      <path id="Path_263" data-name="Path 263" d="M2752.683,0h-1.126a1.18,1.18,0,0,0-.911.748,5.073,5.073,0,0,0-.081,1.586,20.029,20.029,0,0,0,2.444-.016l.016-.827a13.99,13.99,0,0,0-1.539-.033c-.065-.83.217-.672,1.179-.672l.02-.787Z" transform="translate(-2660.92)" fill="#a6a6a6" fill-rule="evenodd"/>
      <path id="Path_264" data-name="Path 264" d="M1102.22,1609.024l.638,0c.013-.1.061-5.382.016-5.641-.032-.184-.3-.15-.65-.118Z" transform="translate(-1066.307 -1551.006)" fill="#a6a6a6" fill-rule="evenodd"/>
      <path id="Path_265" data-name="Path 265" d="M2959.657,1603.648l-.028.064c-.05.25.007-.144-.013.074-.039.421.006,5.5.02,5.6l.633,0,0-5.76-.513-.013C2959.556,1603.616,2959.736,1603.612,2959.657,1603.648Z" transform="translate(-2863.171 -1551.367)" fill="#a6a6a6" fill-rule="evenodd"/>
      <path id="Path_266" data-name="Path 266" d="M2070.45,1914.535c.139-.009.265,0,.4,0a.84.84,0,0,0,.416-.042l.013-4.554-.821-.008Z" transform="translate(-2002.991 -1847.701)" fill="#a6a6a6" fill-rule="evenodd"/>
      <path id="Path_267" data-name="Path 267" d="M2808.792,1914.638l.813-.005-.01-4.592-.805.006Z" transform="translate(-2717.274 -1847.807)" fill="#a6a6a6" fill-rule="evenodd"/>
      <path id="Path_268" data-name="Path 268" d="M1876.81,38.211l1.119.018a5.347,5.347,0,0,0,.009-1.131l-1.106-.008Z" transform="translate(-1815.66 -35.882)" fill="#a6a6a6" fill-rule="evenodd"/>
      <path id="Path_269" data-name="Path 269" d="M2456.563,466.038l1.128,0c.005-.219-.065-1.031.037-1.109a5.4,5.4,0,0,0-1.167-.017Z" transform="translate(-2376.521 -449.744)" fill="#a6a6a6" fill-rule="evenodd"/>
      <path id="Path_270" data-name="Path 270" d="M1432.491,1803.107v.664l.661.007.012-.16,0-.119-.014-.419Z" transform="translate(-1385.817 -1744.332)" fill="#a6a6a6" fill-rule="evenodd"/>
      <path id="Path_271" data-name="Path 271" d="M1398.051,1804.263l.667,0,0-.655-.672-.021Z" transform="translate(-1352.499 -1744.825)" fill="#a6a6a6" fill-rule="evenodd"/>
      <path id="Path_272" data-name="Path 272" d="M2124.67,1604.13l.668.034c.025-.3.056-.638-.1-.662a1.862,1.862,0,0,0-.572.018Z" transform="translate(-2055.444 -1551.243)" fill="#a6a6a6" fill-rule="evenodd"/>
      <path id="Path_273" data-name="Path 273" d="M2090.02,1604.388l.668.008.006-.65-.672-.006Z" transform="translate(-2021.923 -1551.487)" fill="#a6a6a6" fill-rule="evenodd"/>
      <path id="Path_274" data-name="Path 274" d="M1276.98,1604.261l.669.034c.01-.129.006-.219.007-.342,0-.053-.005-.417-.071-.31l-.267-.019a1.35,1.35,0,0,0-.337.027Z" transform="translate(-1235.373 -1551.374)" fill="#a6a6a6" fill-rule="evenodd"/>
      <path id="Path_275" data-name="Path 275" d="M1504.88,1804.3l.652.007,0-.662-.654,0Z" transform="translate(-1455.848 -1744.874)" fill="#a6a6a6" fill-rule="evenodd"/>
    </g>
    <path id="Path_276" data-name="Path 276" d="M913.466,796.354c-.081-.036-.108-.088-.179-.169a1.228,1.228,0,0,0-1.853.107,1.538,1.538,0,0,1,.847-.015c.182.061.5.208.543.4a2.052,2.052,0,0,0-1.425.162,1.4,1.4,0,0,0-.719,1.053c.382-.21.466-.812,1.748-.72-.437.231-.759.173-1.259.87a1.951,1.951,0,0,0-.171,1.729,2.016,2.016,0,0,1,1.423-2,2.661,2.661,0,0,0-.723,2.832.309.309,0,0,0,.1.178,2.774,2.774,0,0,1,.66-2.115c.1-.092,0-.033.143-.092a3.232,3.232,0,0,1-.12.351,2.534,2.534,0,0,0,.518,2.5,4.387,4.387,0,0,1-.127-1.4c.057-.383.247-.878.579-1a20.31,20.31,0,0,1,.064,4.263c-.042.417-.14.976-.154,1.358a2.806,2.806,0,0,1-.673-.444,6.017,6.017,0,0,0-4.335-1.07,4.444,4.444,0,0,0-1.619.579,5.654,5.654,0,0,0,.84-.172,5.91,5.91,0,0,1,2.947.293,9.079,9.079,0,0,1,2.145,1.189,5.743,5.743,0,0,1,.644.515,18.418,18.418,0,0,1-2.39,2.06c-.731-.578-1.249.235-.933.658.785,1.052,2.621-1.135,3.293-1.7l.576-.52a1.506,1.506,0,0,1,.282.217,22.02,22.02,0,0,0,2.021,1.828c1.351,1.047,2.08-.051,1.471-.561-.3-.253-.584-.082-.8.081A13.533,13.533,0,0,1,914.6,805.7c-.1-.083-.066-.021-.15-.134.048-.131.164-.193.284-.282a9.615,9.615,0,0,1,2.442-1.446,5.9,5.9,0,0,1,3.817-.108c-.029-.129-.021-.089-.284-.208a5.743,5.743,0,0,0-5.614.658,3.094,3.094,0,0,1-.694.452,24.532,24.532,0,0,1-.135-5.255c0-.043.009-.136.014-.169,0-.014.008-.057.011-.07a.227.227,0,0,1,.048-.1c.662.317.677,1.644.4,2.362.281-.1.583-.914.636-1.3a2.776,2.776,0,0,0-.257-1.574c.24.048.584.66.673.908a2.59,2.59,0,0,1,.148.644,4.591,4.591,0,0,0,.025.716,2.46,2.46,0,0,0-.366-2.718,1.29,1.29,0,0,1-.238-.289,1.653,1.653,0,0,1,.994.681,2.365,2.365,0,0,1,.416,1.289,1.963,1.963,0,0,0-.183-1.717,2.144,2.144,0,0,0-1.284-.872,1.794,1.794,0,0,1,1.733.744c.221-.449-.844-1.65-2.109-1.228a.473.473,0,0,1,.2-.244,1.353,1.353,0,0,1,.322-.156,1.735,1.735,0,0,1,.867-.007,1.047,1.047,0,0,0-.414-.336,1.12,1.12,0,0,0-.618-.137c-.692.028-.627.335-.99.545a2.728,2.728,0,0,1-.245-.539,4.21,4.21,0,0,0-.185-.6A7.168,7.168,0,0,1,913.466,796.354Z" transform="translate(-877.197 -769.3)" fill="#6f787c" fill-rule="evenodd"/>
    <path id="Path_277" data-name="Path 277" d="M1092.84,1448.906c.022-.119.036-.1.11-.169l.371-.426c-.078-.171-.1-.093-.179-.256l-.161-.123c-.171-.153-1.109-1.073-1.252-1.132-.107.045-1.006,1.054-1.146,1.2-.442.463-.469.4.248,1.007l.6.55c.2.175.169.259.471.322Z" transform="translate(-1054.745 -1399.66)" fill="#cad534" fill-rule="evenodd"/>
    <path id="Path_278" data-name="Path 278" d="M801.146,778.665c.01.007.025.005.03.022l.083.094a1.47,1.47,0,0,0,.253.4c.165-.065.023-.011.118-.058l.438-.2c.162-.147.443-.232.6-.359.072-.129-.588-1.168-.635-1.22a2.188,2.188,0,0,0-.6.3c-.165.092-.436.236-.606.342C800.906,778.257,801.127,778.492,801.146,778.665Z" transform="translate(-774.728 -752.013)" fill="#73b94b" fill-rule="evenodd"/>
    <path id="Path_279" data-name="Path 279" d="M882.416,706.138l-.076.89a2.456,2.456,0,0,0,.772.083l.556.029.1-1.278-.732-.079c-.585-.059-.534.014-.554.158C882.454,706.152,882.5,706.061,882.416,706.138Z" transform="translate(-853.592 -682.767)" fill="#ccd731" fill-rule="evenodd"/>
    <path id="Path_280" data-name="Path 280" d="M1328.39,834.2l.15.93c.152.061.265.012.483-.029.161-.03.327-.073.5-.09l-.167-.965Z" transform="translate(-1285.108 -806.875)" fill="#5ab264" fill-rule="evenodd"/>
    <path id="Path_281" data-name="Path 281" d="M983.393,648.422c-.162.017-.1.135-.188.28-.264.069-.228-.058-.546-.062a2.37,2.37,0,0,1-.569-.045c-.06-.121.04-.272.044-.475a2.254,2.254,0,0,1,.011-.277c.022-.211-.033-.176.007-.359a2.208,2.208,0,0,1,1.217.079c.075.1-.035.42-.032.518.009.251,0,.11.081.2l.081-.833a9.089,9.089,0,0,0-1.413-.133l-.137,1.375a11.15,11.15,0,0,0,1.4.128Z" transform="translate(-949.956 -626.214)" fill="#3684b8" fill-rule="evenodd"/>
    <path id="Path_282" data-name="Path 282" d="M884.71,702.523l-.03.382c.087-.077.038.015.067-.2.02-.144-.031-.217.554-.158l.732.08-.1,1.278-.555-.029c.008.006.021,0,.026.017a1.166,1.166,0,0,0,.6.048,6.455,6.455,0,0,0,.083-1.386l-1.353-.137Z" transform="translate(-855.855 -679.534)" fill="#ced76e" fill-rule="evenodd"/>
    <path id="Path_283" data-name="Path 283" d="M880.247,770.028c-.094-.3-.535.2-.419-.5.136-.822-.118-.842.295-.853a2.325,2.325,0,0,1,.239,0,2.106,2.106,0,0,0,.516.033c-.078-.062-.064-.048-.236-.064a5.8,5.8,0,0,0-.8-.065l-.147,1.4Z" transform="translate(-851.038 -743.533)" fill="#4db0b1" fill-rule="evenodd"/>
    <path id="Path_284" data-name="Path 284" d="M964.39,715.424l1.091.121a6.134,6.134,0,0,0,.12-1.422l-.252-.013.187.165c0-.008.018.013.026.02a8.471,8.471,0,0,0-.1.951c-.026.135-.033.071-.072.229l-.656-.059C964.611,715.392,964.48,715.307,964.39,715.424Z" transform="translate(-932.968 -690.843)" fill="#8cb372" fill-rule="evenodd"/>
    <path id="Path_285" data-name="Path 285" d="M1095.978,624.109l-.017-.15a.216.216,0,0,1,.1-.048.622.622,0,0,1,.105-.008c-.069-.3-.094-.015.229-.408a.942.942,0,0,1,.189-.167c.134-.1.054-.058.148-.258a3.77,3.77,0,0,0-.877.929c.006.009.015.012.018.027a.048.048,0,0,0,.02.025.3.3,0,0,0,.08.058Z" transform="translate(-1060.155 -602.769)" fill="#c9d457" fill-rule="evenodd"/>
    <path id="Path_286" data-name="Path 286" d="M811.762,818.274l-.437.2c-.095.047.047-.007-.118.058a1.471,1.471,0,0,1-.253-.4l-.083-.094c0-.017-.02-.015-.03-.022.06.372-.037.262.327.586a.557.557,0,0,0,.173-.034l.28-.154C811.8,818.308,811.672,818.415,811.762,818.274Z" transform="translate(-784.421 -791.367)" fill="#e7f5cc" fill-rule="evenodd"/>
    <path id="Path_287" data-name="Path 287" d="M1286.479,1268.136c.014-.026.047.052.053-.144,0-.115,0-.048-.036-.142l-.256-.02c.045.032,0,.027.133.077a.318.318,0,0,0,.109.023Z" transform="translate(-1244.332 -1226.522)" fill="#aacf92" fill-rule="evenodd"/>
    <path id="Path_288" data-name="Path 288" d="M1042.722,1344.3c-.05-.14.025-.041-.108-.161a.525.525,0,0,0-.155-.1.362.362,0,0,0,.1.158.357.357,0,0,0,.162.106Z" transform="translate(-1008.495 -1300.249)" fill="#f6f9b8" fill-rule="evenodd"/>
    <path id="Path_289" data-name="Path 289" d="M1046.506,701.689l-.055-.142-.151-.046C1046.351,701.651,1046.359,701.642,1046.506,701.689Z" transform="translate(-1012.209 -678.644)" fill="#ecf0ac" fill-rule="evenodd"/>
    <path id="Path_290" data-name="Path 290" d="M1212.85,657.223a.339.339,0,0,0,.179-.193C1212.871,657.062,1212.887,657.076,1212.85,657.223Z" transform="translate(-1173.333 -635.623)" fill="#d6f4cc" fill-rule="evenodd"/>
  </g>
</svg>
