<svg xmlns="http://www.w3.org/2000/svg" width="450" height="110.407" viewBox="0 0 450 110.407">
  <g id="_366747" data-name="366747" transform="translate(-31.063 -200.796)">
    <path id="Path_287" data-name="Path 287" d="M137.049,263.065a7.09,7.09,0,0,1-.181-1.3c.1-2.348.244-4.7.373-7.042a1.762,1.762,0,0,0-1.089-1.971c-4.1-2-5.123-6.182-4.224-9.907.6-2.482.81-2.92,1.731-3.874a4.917,4.917,0,0,1,.325,1.237,10.1,10.1,0,0,1-.254,1.932,6.735,6.735,0,0,0,1.717,6.389,5.668,5.668,0,0,0,1.01.7l.361-.109c.027-1.16.1-2.321.072-3.48-.1-4.45-.189-8.9-.355-13.349a49.094,49.094,0,0,0-.506-5.273c-.185-1.261.675-1.946,1.276-3.179a19.233,19.233,0,0,1,1.178,2.323c.439,1.3.785,2.628,1.109,3.96.065.269-.1.846-.222.868-.9.15-.823.81-.8,1.41.081,2.749.183,5.5.285,8.246.1,2.71.22,5.42.313,8.131.047,1.365.2,1.616,1.6,1.538,2.882-.16,5.731-.461,8.325-1.968,1.92-1.116,3.937-2.064,5.911-3.085.128-.066.312-.074.393-.173.394-.477.762-.977,1.139-1.468a6.912,6.912,0,0,0-1.546-1.008c-1.982-.638-3.995-1.181-6-1.742-.646-.18-.763-.552-.569-1.146.557-1.7.873-1.873,2.7-2.076a13.246,13.246,0,0,0,3.116-.811,1.453,1.453,0,0,0,.872-2.11c-.97-2.31-1.978-4.6-2.986-6.9a3.2,3.2,0,0,1,.677-2.92.665.665,0,0,1,.637.016,17.956,17.956,0,0,1,1.561,1.781,2.289,2.289,0,0,1,.374,1.672,5.543,5.543,0,0,0,.741,2.392c1.408,3.187,1.989,5.013-.582,7.938-.479.545-.18.823.4,1.116a6.84,6.84,0,0,1,2.1,1.43,2.936,2.936,0,0,1-.342,3.888,45.366,45.366,0,0,1-3.31,3.237c-.514.48-.977.771-.822,1.734.111.693-.688,1.51-1.012,2.3a10.9,10.9,0,0,0-1.253,5.073,2.681,2.681,0,0,0,3.9,2.241,29.812,29.812,0,0,0,4.285-3.208c2.937-2.6,5.649-5.462,9.2-7.279.536-.274,1.075-.546,1.594-.852.631-.372.491-.829.033-1.218a12.315,12.315,0,0,0-1.814-1.37,2.7,2.7,0,0,0-1.21-.1c-.353-.006-.706.03-1.06.047a3.517,3.517,0,0,1,.133-1.229,4.16,4.16,0,0,1,3.18-2.174,13.5,13.5,0,0,1,6.444.379,29.028,29.028,0,0,1,4.046,1.658,1.229,1.229,0,0,1,.233,2.253,22.338,22.338,0,0,1-2.885,1.645c-.55.31-1.089.638-1.618.949a2.492,2.492,0,0,0,1.912,1.887,5.273,5.273,0,0,0,6.04-1.957,2.687,2.687,0,0,0,.477-1.379c-.014-2.1-.1-4.194-.185-6.29q-.27-6.723-.565-13.446c-.011-.251.056-.572-.072-.74-.92-1.207-.1-2.181.415-3.174a1.042,1.042,0,0,1,.766-.445.822.822,0,0,1,.6.491c.579,1.889,1.165,3.779,1.639,5.7.275,1.114-.135,1.4-1.244.967,0,.517-.019,1.01,0,1.5.212,4.874.6,9.747.586,14.62a7.056,7.056,0,0,1-4.424,6.854,8.053,8.053,0,0,1-3.644.709,4.661,4.661,0,0,1-4.286-2.933c-.495-1.039-1.138-1.335-2.069-.771-2.3,1.4-4.67,2.717-6.834,4.31a29.958,29.958,0,0,0-3.705,3.754c-1.531,1.62-2.952,3.316-5.163,4.151a3.422,3.422,0,0,1-3-.343,5.522,5.522,0,0,1-3-6.26,9.237,9.237,0,0,1,1.715-4.806c.284-.341.262-.938.4-1.487-.189.013-.4-.035-.516.045a19.5,19.5,0,0,1-10.89,3.355c-1.546.017-1.515.021-1.514,1.6,0,2.162.277,4.361-.616,6.429a13.567,13.567,0,0,1-.993,1.641Zm38.7-17.512c-.9-.126-1.746-.263-2.6-.351a.619.619,0,0,0-.52.245.746.746,0,0,0,.167.563C173.555,247.064,174.939,246.892,175.751,245.553Z" fill="#fff"/>
    <path id="Path_288" data-name="Path 288" d="M329.106,246.607a4.622,4.622,0,0,1-.153,1.364,1.387,1.387,0,0,0,.754,1.9,5.871,5.871,0,0,0,2.091.464,2.425,2.425,0,0,0,.286-.9,15.927,15.927,0,0,1,.241-2.225c.087-.315.627-.505.961-.752.218.307.558.586.633.925a6.713,6.713,0,0,1-.637,4.834c-1.075,1.925-4.462,1.88-5.623,0-.171-.276-.588-.4-.891-.594-.1.427-.234.849-.294,1.281-.046.333.029.68,0,1.017-.127,1.466-.508,2.944.219,4.365a3.573,3.573,0,0,0,4,2.052,28.325,28.325,0,0,0,5.42-1.719,23.42,23.42,0,0,0,7.681-5.7c.505-.565,1.43-1.173.917-1.978-.251-.393-1.287-.3-1.972-.4a9.569,9.569,0,0,1-1.712-.157c-1.159-.384-2.188-.918-2.275-2.413a4.313,4.313,0,0,1,2.035-4.244c.182-.115.4-.176.589-.276,1.715-.889,2.7-.652,3.741.98.594.93,1.111,1.908,1.693,2.916a7.388,7.388,0,0,0,3.335-3.1,11.888,11.888,0,0,1,4.062-4.761c.484-.309.945-.653,1.432-.958a2.151,2.151,0,0,1,2.815,1.125,18.481,18.481,0,0,1,1.188,2.993,3.236,3.236,0,0,1-1.022,3.522,2.738,2.738,0,0,1-2.963.263,15.309,15.309,0,0,1-2.691-1.347c-.7-.43-1.151-.368-1.451.377a8.312,8.312,0,0,1-4.27,4.661,1.223,1.223,0,0,0-.553.745c-1.011,4.091-3.772,6.814-7.18,8.92a48.835,48.835,0,0,1-6.35,3.182,8.285,8.285,0,0,1-5.635.265,3.848,3.848,0,0,1-2.039-1.922,8.371,8.371,0,0,1-.467-6.621,6.921,6.921,0,0,0,.177-1.142,4.528,4.528,0,0,0-1.291.455c-1.4,1.139-4.543.056-4.835-1.809-.14-.9-.607-.967-1.267-.372a7.059,7.059,0,0,1-4.488,1.887,5.157,5.157,0,0,1-4.934-2.306,6.132,6.132,0,0,0-.737.653c-1.83,2.267-4.009,2.046-5.359-.709a11.351,11.351,0,0,0-.993.732,4.941,4.941,0,0,1-3.465,1.53,2.845,2.845,0,0,1-2.9-1.817,6.406,6.406,0,0,0-.69-1.022c-1.981,2.4-4.456,2.919-7.283,2.466-2.041-.327-3.1-1.683-3.879-3.4-.148-.328-.266-.671-.4-1-.546-1.32-.866-1.508-2.254-1.1a7.063,7.063,0,0,0-3.954,3.2c-1.262,2.01-2.3,4.161-3.6,6.147a5.975,5.975,0,0,1-2.116,1.6c-.6.344-2.155-.366-2.623-1.127a5.47,5.47,0,0,1-.732-1.565c-.341-1.476-.631-2.967-.861-4.464-.285-1.86.47-3.51,1.069-5.182l.389-.042a7.5,7.5,0,0,1,.325,1.521c.011,1.445-.176,2.9-.061,4.333a11.222,11.222,0,0,0,.825,3.1,1.716,1.716,0,0,0,2.565.2,19.793,19.793,0,0,0,2.406-3.761c1.286-2.806,2.715-5.421,5.633-6.876,1.211-.6,3.046-.641,3.884.208a6.2,6.2,0,0,1,1.158,2.019,4.428,4.428,0,0,0,5.323,2.919,9.323,9.323,0,0,0,4.762-2.154,1.476,1.476,0,0,1,1.133-.286c.167.035.157.68.322,1,.331.643.627,1.672,1.116,1.788a4.888,4.888,0,0,0,2.965-.243c.822-.373,1.368-1.334,2.07-2a5.007,5.007,0,0,1,.933-.566,3.072,3.072,0,0,1,.406,1.04,1.95,1.95,0,0,0,2.706,1.974c.552-.217.949-.879,1.357-1.387.216-.27.239-.7.467-.953.294-.323.78-.806,1.05-.733a1.811,1.811,0,0,1,.9,1.03,3.628,3.628,0,0,0,3.738,2.026,8.061,8.061,0,0,0,5.191-2.608,2.351,2.351,0,0,1,.863-.6c.217-.075.662,0,.742.154a1.027,1.027,0,0,1-.021.86c-.61,1.052-.428,1.724.671,2.205a3.813,3.813,0,0,0,4.8-1.035c.593-.66,1.033-1.456,1.577-2.164a8.732,8.732,0,0,1,.868-.863C328.814,246.493,328.96,246.55,329.106,246.607Zm27.817-3.13a2.666,2.666,0,0,0-1.479-2.306c-.237-.142-.861.165-1.177.425a1,1,0,0,0-.067.928A3.1,3.1,0,0,0,356.923,243.477Zm-15.311,2.688-.154-.176-.891.769a6.778,6.778,0,0,0,.852.9.925.925,0,0,0,.728.092,8.516,8.516,0,0,0,1.15-.532,12.467,12.467,0,0,0-1.05-1.008C342.105,246.1,341.827,246.176,341.612,246.165Z" fill="#fff"/>
    <path id="Path_289" data-name="Path 289" d="M205.319,251.883a24.641,24.641,0,0,1-8.944,8.636,11.386,11.386,0,0,1-5.662,1.566c-2.088.036-3.234-1.183-3.491-3.24-.34-2.725-.182-5.413,1.454-7.8.04-.058.045-.143.09-.2.281-.334.724-.99.829-.941.806.383.246,1,.067,1.464-.6,1.564-1.386,3.074-1.164,4.833a2.839,2.839,0,0,0,3.3,2.615,15.336,15.336,0,0,0,3.577-1.14,26.074,26.074,0,0,0,8.514-6.693,2.859,2.859,0,0,0,.654-1.983c-.312-2.935-.71-5.866-1.209-8.775-.286-1.666-.925-3.27-1.223-4.935a7.525,7.525,0,0,1,.686-4.435,12.713,12.713,0,0,1,1.108,2c1.05,3.324,2.332,6.579,2.523,10.137.154,2.881.418,5.769.853,8.62.442,2.9,1.716,5.249,4.732,6.427a17.184,17.184,0,0,0,7.42,1,32.5,32.5,0,0,0,4.426-.447,38.552,38.552,0,0,0,10.111-2.959,1.669,1.669,0,0,0,.991-1.995,18.012,18.012,0,0,1-.157-5.06,6.892,6.892,0,0,1,1.532-3.134,2.065,2.065,0,0,1,3.408.524,15.638,15.638,0,0,1,1.248,4.088,5.815,5.815,0,0,1-1.976,4.945c-.968.956-.978,1.086-.1,2.107a4.183,4.183,0,0,0,4.5,1.086,8.627,8.627,0,0,0,4.987-4.2,7.893,7.893,0,0,1,1.379-1.274,19.866,19.866,0,0,1,.3,2.106,3.074,3.074,0,0,0,3.744,3.264c1.528-.177,2.868-.775,2.674-3.017-.545-6.306-.956-12.623-1.439-18.934-.229-2.989-.423-5.985-.789-8.958-.146-1.186-.427-2.315.153-3.435.141-.272.36-.706.543-.706a1.117,1.117,0,0,1,.888.469c.827,2.126,1.583,4.28,2.429,6.615-1.658-.108-1.66.687-1.526,1.719a174.138,174.138,0,0,1,1.5,24.228c-.041,3.879-3.465,6.474-7.685,5.01-1.25-.433-1.61-1.747-2-2.912-.106-.317-.191-.64-.246-.825-1.268,1.179-2.4,2.419-3.723,3.42-2.282,1.734-6.445.567-7.6-2a16.257,16.257,0,0,0-.937-1.568c-1.25.64-2.505,1.3-3.779,1.93a22.815,22.815,0,0,1-8.418,2.606,95.249,95.249,0,0,1-10.62.023,8.13,8.13,0,0,1-5.814-3,8.011,8.011,0,0,1-1.982-5.574A12.213,12.213,0,0,0,205.319,251.883Zm31.061-1.791a11.739,11.739,0,0,0,.236,1.825c.093.353.442.853.724.888a1.652,1.652,0,0,0,1.207-.477c.577-.594.436-3.149-.132-3.778a1.111,1.111,0,0,0-.462-.258C236.869,247.928,236.359,248.444,236.38,250.092Z" fill="#fff"/>
    <path id="Path_290" data-name="Path 290" d="M128.2,224.223c.9.576,2.65,5.858,2.4,7.327l-1.2-.165c0,.624-.039,1.182.006,1.734.425,5.258,1.071,10.5.864,15.8a13.055,13.055,0,0,1-1.457,5.248c-1.137,2.329-4.569,2.668-5.712.4a5.674,5.674,0,0,0-.827-.971c-.441.533-.781.981-1.158,1.394-1.648,1.8-3.519,1.6-4.817-.48a4.506,4.506,0,0,0-.8-.751c-1.077,1.65-2.364,2.794-4.319,2.875-2.325.1-2.937-1.531-3.232-3.536-.564.315-.955.554-1.364.758a24.968,24.968,0,0,1-3.859,1.848c-1.874.557-3.456-.4-4.8-1.623a23.306,23.306,0,0,1-1.956-2.262,38.135,38.135,0,0,1-4.472,2.173,4.58,4.58,0,0,0-3.094,2.681c-.868,1.929-2.918,2.865-4.79,3.677a46.351,46.351,0,0,1-7.5,2.687,15.192,15.192,0,0,1-5.684.178c-2.472-.373-4.143-2.807-3.909-6.026.194-2.662,1.532-4.739,3.132-6.718.605-.748,1.221-1.487,1.9-2.309.923.316.613.915.234,1.452-.725,1.029-1.51,2.015-2.246,3.036-1.628,2.255-1.381,5.861,1.187,7.2a7.452,7.452,0,0,0,3.993.583,28.358,28.358,0,0,0,11.8-4.22,9.866,9.866,0,0,0,1.117-.986c-1.232-.251-2.182-.516-3.15-.628-3.184-.368-3.343-2.741-2.58-4.733a4.723,4.723,0,0,1,4.29-2.8,2.86,2.86,0,0,1,2.569,2.14c.279.817.592,1.624.963,2.636,1.278-.493,2.532-.9,3.705-1.466.569-.277.721-.848.1-1.4a4.1,4.1,0,0,0-3.462-1.4c-1.175.166-1.514-.35-.908-1.386a3.834,3.834,0,0,1,1.628-1.617,14.187,14.187,0,0,1,8.311-.65,28.076,28.076,0,0,1,3.446,1.16,1.137,1.137,0,0,1,.8,1.549,3.679,3.679,0,0,1-1.252,1.706,29.413,29.413,0,0,1-3.337,1.646,3.73,3.73,0,0,0,2.768,2.682,6.973,6.973,0,0,0,4.652-1.038c.778-.453,1.528-.957,2.322-1.379.851-.453,1.241-.192,1.193.731-.119,2.294,1.33,3.139,3.545,2.183a9.971,9.971,0,0,0,3.273-2.913c.117-.129.236-.256.539-.585a4.335,4.335,0,0,1,.305,1.17,1.962,1.962,0,0,0,1.254,2.158,2.228,2.228,0,0,0,2.484-.554,14.982,14.982,0,0,0,1.258-1.6,2.337,2.337,0,0,1,1.111-.679c.137-.031.5.517.611.85a2.319,2.319,0,0,0,3.265,1.7,1.5,1.5,0,0,0,1.031-1.7c-.2-3.5-.372-7-.566-10.5q-.234-4.226-.5-8.45c-.091-1.441-.144-2.891-.353-4.317A3.911,3.911,0,0,1,128.2,224.223ZM95.538,246.9c1.281,1.484,2.127,1.517,3.471.141A5.951,5.951,0,0,0,95.538,246.9ZM83.57,250.851a21.1,21.1,0,0,0,1.972.887.865.865,0,0,0,.739-.2.686.686,0,0,0-.029-.679,3.485,3.485,0,0,0-1.395-.84C84.562,249.963,84.165,250.444,83.57,250.851Z" fill="#fff"/>
    <path id="Path_291" data-name="Path 291" d="M195.361,272.887H99.776q-33.291,0-66.583-.017c-.525,0-1.481.378-1.47-.527.011-.887.967-.518,1.5-.518q161.9-.024,323.8-.011a10.351,10.351,0,0,1,1.517.036c.223.034.41.3.614.463a3.479,3.479,0,0,1-.651.553,1.534,1.534,0,0,1-.643.029l-128.933.011q-16.782,0-33.564,0A.04.04,0,0,1,195.361,272.887Z" fill="#fff"/>
    <path id="Path_292" data-name="Path 292" d="M40.92,252.9a17.986,17.986,0,0,0,7.922-1.542c1.859-.846,3.754-1.61,5.616-2.449.787-.355.843-.919.094-1.358a24.624,24.624,0,0,0-2.7-1.317c-.821-.355-1.7-.579-2.51-.953a3.326,3.326,0,0,1-1.314-3.709,26.289,26.289,0,0,1,2.223-4.523,11.827,11.827,0,0,1,4.6-4.146,8.007,8.007,0,0,1,3.209-.818,2.314,2.314,0,0,1,1.865,3.662c-.459.711-.961.444-1.413-.041a2.563,2.563,0,0,0-3.2-.564,12.1,12.1,0,0,0-4.555,3.914c-1.761,2.522-.668,3.6,2.244,4.572.852.284,1.744.459,2.576.789,1.352.536,2.1,3.046,1.242,4.467a6.372,6.372,0,0,1-2.539,2.71,52.17,52.17,0,0,1-9.375,3.8,19.338,19.338,0,0,1-6.613.654,7.665,7.665,0,0,1-5.715-3.407c-2.072-2.741-1.657-5.7-.886-8.662a28.7,28.7,0,0,1,1.714-4.049c.072-.165.122-.4.253-.469.378-.212.792-.36,1.191-.534.036.465.237,1,.078,1.381-.439,1.055-1.206,1.995-1.53,3.075-1.305,4.354-.3,7.423,3.563,9.072C38.132,252.96,39.593,252.773,40.92,252.9Z" fill="#fff"/>
    <path id="Path_293" data-name="Path 293" d="M246.61,282.489c1.448-.916,7.392-.928,8.257.015-1.64,1.822.365,3.048.612,4.561l.3.07c.532-1.025,1.111-2.03,1.563-3.09.107-.251-.209-.684-.335-1.031-.088-.244-.316-.545-.241-.713a.909.909,0,0,1,.671-.428,18.8,18.8,0,0,1,2.489.029.923.923,0,0,1,.612.492c.059.125-.15.53-.311.58-1.178.372-1.35,1.534-1.789,2.391-1.409,2.751-2.633,5.6-3.991,8.374a3.243,3.243,0,0,1-3.887,1.533.979.979,0,0,1-.6-1.31c.15-.637.544-.868,1.112-.686a1.867,1.867,0,0,0,2.409-.917,4.056,4.056,0,0,0-.024-2.685c-.6-1.722-1.471-3.347-2.2-5.027-.5-1.162-.782-1.464-1.641-1.533-.433,1.294-.433,1.3-1.927,1.23-.909-.041-1.468.279-1.422,1.3.025.542.008,1.086,0,1.629-.009,1.135-.323,2.419,1.573,2.615l-.15.276c-.32.146-.641.418-.961.416-1.512-.006-3.024-.127-4.537-.128-1.1,0-2.2.121-3.3.182-.251.014-.576.1-.743-.018-.958-.686-1.818-.18-2.709.135a2.2,2.2,0,0,1-2.948-1.085c-.55-1.785.19-3.381,1.72-3.75a20.764,20.764,0,0,0,2.381-.665c.266-.1.617-.522.582-.744a1.322,1.322,0,0,0-.663-.834,1.7,1.7,0,0,0-2.1.294c-.221.211-.621.235-.939.345,0-.47-.193-1.192.034-1.365a5.876,5.876,0,0,1,2.432-1.282c2.352-.369,4.607.479,4.41,3.522-.07,1.082-.1,2.167-.109,3.251a1.223,1.223,0,0,0,1.31,1.394c.8-.033,1.565-.288,1.525-1.406-.046-1.3.036-2.607-.011-3.908a2.627,2.627,0,0,0-.455-1.018c-.163-.3-.369-.575-.745-1.15C243.629,282.455,245.079,281.171,246.61,282.489Zm-10.368,6.81a7.743,7.743,0,0,0,1.166-1.68c.068-.2-.68-.915-.734-.881a5.54,5.54,0,0,0-1.435,1.227C235.17,288.054,235.735,288.637,236.242,289.3Z" fill="#fff"/>
    <path id="Path_294" data-name="Path 294" d="M283.941,238.3c-.243-.178-.55-.291-.643-.5a.9.9,0,0,1,.06-.77,6.568,6.568,0,0,1,3.7-2.446c2.053-.541,4.072-1.211,6.127-1.74,2.682-.691,5.383-1.31,8.08-1.939q2.895-.675,5.8-1.294c1.621-.342,3.254-.623,4.877-.955,3.5-.716,6.987-1.457,10.485-2.167,1.2-.244,2.415-.423,3.622-.635,3.439-.6,6.88-1.2,10.315-1.821.814-.148,1.6-.436,2.415-.592a2.628,2.628,0,0,1,.9.156,8.257,8.257,0,0,1-.309.808,4.285,4.285,0,0,1-3.484,2.219c-3.264.57-6.492,1.342-9.747,1.965s-6.535,1.163-9.8,1.746c-2.946.525-5.9,1.025-8.833,1.6-2.225.436-4.449.9-6.639,1.484-3.226.862-6.415,1.857-9.629,2.764-1.315.371-2.663.625-3.977,1C286.167,237.5,285.1,237.908,283.941,238.3Z" fill="#fff"/>
    <path id="Path_295" data-name="Path 295" d="M184.814,289.926c1.9-.652,1.636-2.152,1.627-3.558-.008-1.477,0-2.953,0-4.43l-.324-.117c-.76,1.385-1.534,2.763-2.275,4.158-.723,1.362-1.364,2.771-2.134,4.106-.551.956-1.316.885-1.818-.1-1-1.954-1.97-3.923-2.981-5.872-.31-.6-.712-1.146-1.184-1.895a4.76,4.76,0,0,0-.2.851q-.02,2.551-.005,5.1c0,.638.072,1.228.889,1.395.205.042.353.365.528.559-.223.15-.441.419-.67.429-1.082.049-2.168.052-3.249.009-.227-.009-.444-.281-.666-.432.178-.191.329-.5.54-.551.688-.154.825-.612.831-1.2q.045-3.96.1-7.921a1.376,1.376,0,0,0-.794-1.51.951.951,0,0,1-.45-.761c.012-.172.453-.439.71-.448a25.806,25.806,0,0,1,3.463.047c.344.035.748.491.941.852,1.356,2.527,2.665,5.08,4.1,7.83.862-1.606,1.655-3.038,2.4-4.492.593-1.149,1.1-2.341,1.714-3.48.168-.314.545-.709.846-.726,1.381-.077,2.769-.034,4.46-.034-.328.562-.423.969-.632,1.04-.9.3-.949,1.012-.951,1.75q-.008,3.9.019,7.808c.005.7.167,1.3,1.074,1.309.162,0,.322.223.489.347C190.36,290.867,185.867,290.909,184.814,289.926Z" fill="#fff"/>
    <path id="Path_296" data-name="Path 296" d="M70.054,229.26l-.878.523a12.7,12.7,0,0,0,1.2,1.119c2.44,1.722,4.94,3.363,7.334,5.146a5.017,5.017,0,0,1-.681,8.438c-2.358,1.368-4.739,2.7-7.15,3.972-1.719.906-3.517,1.659-5.248,2.543a6.752,6.752,0,0,1-4.963.381,2.071,2.071,0,0,1-1.366-2.041,10.083,10.083,0,0,1,1.313-6.555c.2-.327.2-.786.408-1.1.168-.252.522-.381.793-.565.068.306.255.644.183.911a23.673,23.673,0,0,1-1.116,3.5,2.7,2.7,0,0,0,.492,3.2c.922.885,2.25.493,3.293.006,3.475-1.623,6.909-3.333,10.344-5.042a26.367,26.367,0,0,0,2.809-1.621c1.99-1.319,1.184-2.836-.273-3.655a40.509,40.509,0,0,1-8.3-5.812c-1.072-1.022-2.025-2.167-1.866-3.836.108-1.134.469-1.424,1.481-1,.746.315,1.449.733,2.171,1.1C70.041,229.009,70.048,229.134,70.054,229.26Z" fill="#fff"/>
    <path id="Path_297" data-name="Path 297" d="M95.436,290.265a3.367,3.367,0,0,1-.842.3,14.009,14.009,0,0,1-2.27.055,7.047,7.047,0,0,1-1.47-.442,5.535,5.535,0,0,0,.97-1.005c.689-1.208,1.353-2.436,1.935-3.7,1.1-2.374,2.092-4.8,3.229-7.148.171-.353.869-.58,1.341-.612a1.28,1.28,0,0,1,.919.679c1.105,2.327,2.138,4.688,3.217,7.028.492,1.067,1,2.131,1.567,3.157a1.794,1.794,0,0,0,2.049,1.049c.983-.2,1.261-.834,1.24-1.736-.023-.976-.017-1.953-.01-2.929,0-.6-.026-1.142-.722-1.418a.777.777,0,0,1-.374-.661c.076-.245.4-.577.623-.585,1.194-.044,2.428-1.03,3.6.11.092.089.4,0,.588-.067.163-.059.282-.268.442-.3.606-.118,1.222-.191,1.834-.281a17.191,17.191,0,0,1,.185,2.312c0,.127-.722.378-1.066.319-1.643-.281-2.1.059-2.135,1.722,0,.072,0,.145,0,.217.008,1.424-.522,3.054,1.637,3.655l-.148.257a4.007,4.007,0,0,1-1.124.343c-1.586-.005-3.173-.116-4.759-.113-1.618,0-3.235.1-4.852.144a4.809,4.809,0,0,1-1.189-.055c-.236-.053-.428-.3-.64-.46.171-.2.32-.543.516-.572.947-.139.68-.654.525-1.261a1.839,1.839,0,0,0-2.3-1.513c-.5.06-1.012-.005-1.518.008-1.347.036-1.926.459-2.185,1.746a1.41,1.41,0,0,0,.414.95,2.645,2.645,0,0,0,.8.454C95.448,290.034,95.442,290.149,95.436,290.265Zm2.092-8.179-.378.014a26.864,26.864,0,0,0-1.264,2.573c-.088.23.225.8.5.934a2.862,2.862,0,0,0,1.269.109c.79-.008,1.161-.4.884-1.181C98.238,283.706,97.867,282.9,97.528,282.086Z" fill="#fff"/>
    <path id="Path_298" data-name="Path 298" d="M353.034,283.561l1.335,3.332c1.544-.5,2.325-2.889,1.426-3.987a.766.766,0,0,1-.14-.652.8.8,0,0,1,.587-.351,16.244,16.244,0,0,1,2.271-.03,2.941,2.941,0,0,1,.923.428c-.149.291-.288.589-.449.873-.82,1.445-1.689,2.865-2.46,4.336-1.12,2.135-2.139,4.323-3.263,6.455a3.564,3.564,0,0,1-3.718,1.391c-.657-.217-1.039-.683-.766-1.3a1.452,1.452,0,0,1,1.092-.718c2.653.026,3.563-1.376,2.445-3.9-.741-1.67-1.5-3.334-2.243-5-.594-1.328-.8-1.391-2.1-.746a1.772,1.772,0,0,1-.94.174c-1-.119-1.275.4-1.23,1.269.021.4.006.8.01,1.193.025,2.172.025,2.172,1.941,2.9a2.114,2.114,0,0,1-2.249,1.812,2.521,2.521,0,0,1-2.706-2.017,24.236,24.236,0,0,1,.027-2.708c.04-1.121.3-2.3-1.432-3.03,1.623-.577,1.385-1.684,1.437-2.715a2.238,2.238,0,0,1,2.718-1.591,1.087,1.087,0,0,1,.4.788c.048.536-.046,1.082-.033,1.624.022.995.488,1.424,1.38.989,1.887-.92,3.875-.138,5.782-.521.239-.048.564.329.849.508C353.684,282.689,353.444,283.011,353.034,283.561Z" fill="#fff"/>
    <path id="Path_299" data-name="Path 299" d="M262.172,261.31a19.82,19.82,0,0,1-.233-2.126c.02-6.3.092-12.592.09-18.887,0-4.053-.11-8.1-.152-12.158a17.143,17.143,0,0,1,.126-2.967c.058-.349.643-.611.988-.912a4.85,4.85,0,0,1,.72,1.059c.409,1.186.755,2.4,1.093,3.6.21.753.361,1.523.608,2.581l-1.194-.349c0,1.967-.018,4.091,0,6.215q.081,8.032.2,16.066a19.218,19.218,0,0,1-1.377,7.046,1.845,1.845,0,0,1-.268.465A3.548,3.548,0,0,1,262.172,261.31Z" fill="#fff"/>
    <path id="Path_300" data-name="Path 300" d="M302.944,289.851c1.495-.181,1.4-1.243,1.4-2.284,0-2.061.031-4.122.032-6.184,0-1.227.114-2.5-1.255-3.282.039-.091.078-.183.116-.274.757-.108,1.513-.227,2.271-.321.6-.074,1.194-.118,1.791-.175.06.641.154,1.281.171,1.924.028,1.1.008,2.2.008,3.464,1.54-.924,2.879-1.464,4.479-.848a2.076,2.076,0,0,1,1.55,2.08c.017,1.447.022,2.893.04,4.34.007.6.08,1.152.833,1.322.179.04.3.336.449.514-.188.143-.367.4-.564.411a19.9,19.9,0,0,1-2.706.077c-.815-.05-1.045-.617-.963-1.391a25.076,25.076,0,0,0,.192-3.021,5.194,5.194,0,0,0-.421-1.65,1.176,1.176,0,0,0-1.655-.773,2.431,2.431,0,0,0-1.194,1.437,12.414,12.414,0,0,0-.05,2.81c.011.715-.085,1.5.971,1.625.136.016.3.291.335.467.019.113-.192.384-.293.381-1.778-.06-3.555-.15-5.332-.243C303.11,290.253,303.082,290.137,302.944,289.851Z" fill="#fff"/>
    <path id="Path_301" data-name="Path 301" d="M70.638,277.794c.2-.046.632-.153,1.069-.247a8.919,8.919,0,0,0,1.475-.311c1.046-.422,1.251-.334,1.247.823-.011,3.111-.079,6.222-.072,9.334,0,1-.23,2.169,1.309,2.551-.041.09-.082.181-.124.271a3.082,3.082,0,0,1-1.1.389c-1.021-.067-2.031-.331-3.051-.364a4.449,4.449,0,0,0-1.7.437,3.635,3.635,0,0,1-4.328-1.458,5.867,5.867,0,0,1-.52-3.788,4.473,4.473,0,0,1,3.408-3.381c.822-.273,1.747-.226,2.586-.463a1.133,1.133,0,0,0,.649-.889A27.526,27.526,0,0,0,70.638,277.794Zm.893,7.989-.052,0a5.563,5.563,0,0,1,0-.646,1.538,1.538,0,0,0-1.205-1.79,2.817,2.817,0,0,0-1.868.367c-1.166.686-.73,1.923-.715,2.951a2.269,2.269,0,0,0,2.061,2.105c1.084-.03,1.586-.619,1.715-2.019C71.5,286.427,71.511,286.1,71.531,285.783Z" fill="#fff"/>
    <path id="Path_302" data-name="Path 302" d="M267.68,290.023c2.033-1.174,2.583-3.227,3.431-5.092,1.014-2.229,2.027-4.46,3.133-6.644a1.578,1.578,0,0,1,1.264-.566,1.48,1.48,0,0,1,1.013.757c1.315,2.672,2.483,5.419,3.875,8.049.678,1.281.923,2.995,2.859,3.346l-.114.324a3.713,3.713,0,0,1-1.091.39q-2.383.053-4.769-.03c-.293-.01-.576-.3-.864-.465.234-.179.449-.468.707-.514.641-.114.622-.5.515-.961-.353-1.508-.727-1.811-2.282-1.832-.722-.009-1.451.082-2.165.009-.957-.1-1.382.432-1.671,1.194-.262.69-.438,1.346.587,1.6.18.044.341.323.422.529.029.074-.2.365-.313.363-1.424-.019-2.848-.07-4.271-.129C267.877,290.346,267.816,290.2,267.68,290.023Zm6.794-8.218a18.479,18.479,0,0,0-1.022,1.9c-.71,1.862-.273,2.354,1.724,2.018.686-.115.974-.477.67-1.139C275.464,283.746,275.036,282.933,274.474,281.8Z" fill="#fff"/>
    <path id="Path_303" data-name="Path 303" d="M31.827,286.665a6.8,6.8,0,0,1,.421.789,3.484,3.484,0,0,0,5.287,1.457,1.7,1.7,0,0,0-.23-2.917,9.907,9.907,0,0,0-2.119-.7c-.8-.208-1.635-.281-2.417-.532a2.292,2.292,0,0,1-1.6-2.222c-.231-3.179,1.217-4.821,4.431-4.929a18.265,18.265,0,0,1,3.453.177c.481.076,1.206.558,1.266.941a4.572,4.572,0,0,1-.322,2.3c-.211.526-.915.271-1.148-.4a2.79,2.79,0,0,0-4.578-.838c-.77.866-.743,1.686.292,2.22a14.219,14.219,0,0,0,2.766.809,12.809,12.809,0,0,1,2.247.638,3.193,3.193,0,0,1,1.173,4.782,6.329,6.329,0,0,1-6.638,2.639q-.9-.189-1.813-.331a1.263,1.263,0,0,1-1.177-1.522c.065-.778.188-1.551.285-2.326Z" fill="#fff"/>
    <path id="Path_304" data-name="Path 304" d="M123.8,277.9a36.417,36.417,0,0,1,3.907-.617c.233-.014.714.778.731,1.212.038.966-.184,1.938-.219,2.911a3.658,3.658,0,0,0,.313,1.09,5.96,5.96,0,0,0,.915-.343,4.131,4.131,0,0,1,4.409.219,4.01,4.01,0,0,1,1.106,4.041,6.525,6.525,0,0,1-5.471,4.526,6.754,6.754,0,0,1-1.484-.227,5.609,5.609,0,0,0-1.385-.137c-1.056.123-1.27-.052-1.263-1.175.016-2.82-.029-5.641.049-8.459A3.155,3.155,0,0,0,123.8,277.9Zm8.483,8.719a7.631,7.631,0,0,0-.263-1.469,1.932,1.932,0,0,0-1.995-1.478,1.769,1.769,0,0,0-1.767,1.465,5.5,5.5,0,0,0,.061,2.661,2.5,2.5,0,0,0,1.561,1.382,2.17,2.17,0,0,0,1.735-.738A5.235,5.235,0,0,0,132.284,286.618Z" fill="#fff"/>
    <path id="Path_305" data-name="Path 305" d="M195.694,242.952c-.232-4.049-.526-9.682-.9-15.311-.069-1.03-.565-2.054.177-3.006a1.067,1.067,0,0,1,.748-.435,1,1,0,0,1,.7.548q.861,2.379,1.608,4.8c.166.533.346,1.111-.44,1.453-.2.086-.289.626-.276.951.216,5.711.525,11.419.652,17.131a29.376,29.376,0,0,1-.635,5.568c-.074.43-.724.76-1.108,1.136a3.884,3.884,0,0,1-.495-1.254C195.676,251.2,195.694,247.873,195.694,242.952Z" fill="#fff"/>
    <path id="Path_306" data-name="Path 306" d="M158.6,290.158c-.967.747-4.626.714-5.7-.2,1.476-.365,1.209-1.51,1.224-2.528.014-.941.031-1.884-.026-2.822a1.761,1.761,0,0,0-.394-1.047c-.656-.684-.3-1.13.354-1.245,1.116-.2,2.264-.958,3.415-.016.112.091.445-.1.678-.143a11.93,11.93,0,0,1,2.5-.485,2.567,2.567,0,0,1,2.609,2.731c.037,1.085.042,2.171.054,3.256.008.785-.154,1.619.763,2.092a1.349,1.349,0,0,1-.178.707,25.164,25.164,0,0,1-3.226.024c-.168-.012-.407-.629-.414-.97-.029-1.338.051-2.678.036-4.016s-.441-1.808-1.5-1.784-1.472.5-1.492,1.814a15.219,15.219,0,0,0,.108,3.135C157.52,289.2,158.156,289.624,158.6,290.158Z" fill="#fff"/>
    <path id="Path_307" data-name="Path 307" d="M293.978,285.519c0,.759.038,1.52-.01,2.276-.052.815-.024,1.528.94,1.817.151.045.363.376.32.476-.085.2-.328.451-.509.454-1.265.018-2.569.465-3.778-.353a1.1,1.1,0,0,0-.915.093,3.578,3.578,0,0,1-3.783.22,3.182,3.182,0,0,1-1.436-2.969c-.037-.829.09-1.67.005-2.491a3.44,3.44,0,0,0-.573-1.525c-.465-.681-.366-1.125.469-1.306.671-.145,1.37-.178,2.026-.366.935-.269,1.2.186,1.2.978-.008,1.409-.062,2.819-.054,4.228.005.911.293,1.661,1.389,1.7a1.7,1.7,0,0,0,1.722-1.718,9.506,9.506,0,0,0-.008-2.038,6.4,6.4,0,0,0-.633-1.483c-.11-.243-.376-.548-.306-.709a1.139,1.139,0,0,1,.689-.541,11.788,11.788,0,0,1,2.436-.468c.264-.013.7.474.8.807a5.6,5.6,0,0,1,0,1.508c-.006.47,0,.94,0,1.41Z" fill="#fff"/>
    <path id="Path_308" data-name="Path 308" d="M214.934,289.923c-.844.718-3.437,1.018-4,.54a1.517,1.517,0,0,1-.318-1.027c-.029-1.439.022-2.88-.006-4.32-.016-.8-.346-1.4-1.287-1.413-.838-.015-1.583.172-1.616,1.159a30.565,30.565,0,0,0,.1,4.061c.04.4.586.742,1.006,1.235-.274.142-.554.4-.842.415-1.3.045-2.6.043-3.9,0-.263-.01-.516-.289-.774-.444a7.913,7.913,0,0,0,.629-.6c.226-.265.574-.552.591-.846.079-1.37.1-2.747.051-4.117-.012-.337-.372-.664-.581-.99-.137-.215-.446-.469-.4-.621.08-.265.359-.639.584-.661,1.11-.107,2.193-.765,3.366-.118.287.158.823-.024,1.2-.166a3.825,3.825,0,0,1,2.822-.3,2.658,2.658,0,0,1,1.907,2.708c.021.9.048,1.8.055,2.706C213.528,288.252,213.39,289.433,214.934,289.923Z" fill="#fff"/>
    <path id="Path_309" data-name="Path 309" d="M63.635,289.918a4.115,4.115,0,0,1-3.912.466,1.052,1.052,0,0,0-1.4-.024,3.031,3.031,0,0,1-4.195-.5,6.283,6.283,0,0,1-.631-2.743c-.089-.709.075-1.448,0-2.16a5.281,5.281,0,0,0-.518-1.314c-.142-.345-.421-.712-.373-1.029.03-.2.545-.369.868-.456.556-.15,1.149-.17,1.7-.342.985-.31,1.276-.137,1.269.94-.008,1.193-.07,2.386-.094,3.58a4.745,4.745,0,0,0,.065,1.08c.14.642.344,1.463,1.145,1.3.6-.126,1.5-.682,1.579-1.159.228-1.39.785-2.9-.479-4.194-.442-.452-.261-.973.418-1.12.813-.176,1.633-.323,2.457-.436s.734.541.741,1.013c.019,1.447-.017,2.894-.017,4.341C62.243,288.3,61.868,289.619,63.635,289.918Z" fill="#fff"/>
    <path id="Path_310" data-name="Path 310" d="M321.6,281.474a12.679,12.679,0,0,1,2.911.961c1.374.809,1.752,3.083,1.449,4.787-.594,3.337-4.084,4.208-6.773,3.509-1.347-.35-2.531-.856-2.9-2.252-.53-1.986-.787-4.031.879-5.685C318.271,281.69,319.8,281.763,321.6,281.474Zm1.5,5.031c-.235-.88-.463-1.74-.694-2.6a1.059,1.059,0,0,0-1.319-.82,2.738,2.738,0,0,0-1.518.724c-1.168,1.431-.641,2.964-.1,4.493.25.7.529,1.233,1.374,1.283.8.048,1.427-.122,1.67-.982C322.706,287.924,322.893,287.244,323.1,286.505Z" fill="#fff"/>
    <path id="Path_311" data-name="Path 311" d="M192.4,286.005c-.28-3.1,2.248-4.589,5.348-4.389,3.262.211,4.471,1.349,4.507,4.338.039,3.234-2.148,5.344-5.171,5.07C194.09,290.753,192.123,289.667,192.4,286.005Zm6.834.326c-.17-.736-.376-1.534-.535-2.341a1.051,1.051,0,0,0-1.219-.94c-.682.027-1.262.029-1.662.851-.782,1.6-.266,3.1.13,4.613a1.289,1.289,0,0,0,1.415,1.072,1.47,1.47,0,0,0,1.521-1.247C199.013,287.709,199.1,287.068,199.23,286.331Z" fill="#fff"/>
    <path id="Path_312" data-name="Path 312" d="M152.021,290.3a4.426,4.426,0,0,1-3.618.056,1.549,1.549,0,0,0-1.366.04,4.389,4.389,0,0,1-1.829.516c-1.47-.089-2-.781-2.081-2.374a2.42,2.42,0,0,1,2.136-2.68,19.522,19.522,0,0,0,2.278-.642.929.929,0,0,0,.5-.688.987.987,0,0,0-.482-.73c-.83-.4-1.725-.974-2.365.336a.82.82,0,0,1-.786.2c-.213-.12-.451-.6-.367-.767a2.981,2.981,0,0,1,1.023-1.317,4.974,4.974,0,0,1,4.585-.2c1.256.594,1.377,1.768,1.413,2.927.035,1.109-.17,2.235-.048,3.329A7.107,7.107,0,0,0,152.021,290.3Zm-4.346-3.641c-1.137.073-1.658.427-1.664,1.347-.005.709.432.826.992.824.848,0,1.161-.555,1.127-1.268C148.114,287.214,147.8,286.882,147.675,286.657Z" fill="#fff"/>
    <path id="Path_313" data-name="Path 313" d="M119.281,285.029c-.674-1.7-1.571-1.98-2.871-1.2a4.31,4.31,0,0,1-1.285.3c.172-.5.2-1.167.541-1.467,1.6-1.392,4.282-1.479,5.582-.2a2.712,2.712,0,0,1,.78,1.559c.105,1.256.014,2.528,0,3.793-.006.727-.1,1.477.859,1.764a.667.667,0,0,1,.313.581.7.7,0,0,1-.551.4c-1.128-.066-2.251-.218-3.379-.29a4.551,4.551,0,0,0-1.1.168,6.993,6.993,0,0,1-2.357.419c-1.246-.231-1.75-1.176-1.711-2.524a2.671,2.671,0,0,1,2-2.409C117.128,285.639,118.157,285.346,119.281,285.029Zm-2.006,3.306c.189.11.524.47.849.46a1.191,1.191,0,0,0,1.218-1.331c0-.611-.359-.767-.914-.761C117.524,286.714,117.266,287.243,117.275,288.335Z" fill="#fff"/>
    <path id="Path_314" data-name="Path 314" d="M218.845,286.8c.623,2.02,1.831,2.693,3.662,2.258a9.866,9.866,0,0,1,1.666-.117l.193.546a11.051,11.051,0,0,1-1.775,1.078,5.341,5.341,0,0,1-3.793.173c-2.419-.846-3-1.785-3.147-3.961a4.134,4.134,0,0,1,1.964-4.247,5.432,5.432,0,0,1,5.553-.268,2.775,2.775,0,0,1,1.171,3.3,2.7,2.7,0,0,1-1.666.96,13.393,13.393,0,0,1-2.265.069C219.894,286.616,219.384,286.723,218.845,286.8Zm-.355-1.884H221.5c-.289-.891-.177-1.816-1.3-1.8C219.158,283.137,218.833,283.885,218.49,284.915Z" fill="#fff"/>
    <path id="Path_315" data-name="Path 315" d="M47.775,284.935c-.971-1.673-1.852-1.82-3.091-.889-.295.222-.821.136-1.241.191.042-.436-.085-1.035.153-1.282,1.334-1.387,4.674-2.193,6.219-.248a2.4,2.4,0,0,1,.486,1.238c.074.971.019,1.952.034,2.928.031,1.98.035,1.98,1.309,3.288-.307.152-.579.408-.831.391-1.1-.077-2.3.591-3.289-.462-.106-.112-.651.094-.932.256-1.472.847-2.577.813-3.429-.149-1.433-1.618-.551-3.84,1.695-4.365C45.819,285.608,46.749,285.256,47.775,284.935Zm.031,2.183c-.209-.124-.495-.429-.8-.451a1.23,1.23,0,0,0-1.5,1.267c-.017.593.29.964.938.882C47.27,288.712,47.7,288.221,47.806,287.118Z" fill="#fff"/>
    <path id="Path_316" data-name="Path 316" d="M224.995,283.29c1.513-.67,1.435-1.711,1.435-2.794a1.476,1.476,0,0,1,.694-1.169,6.283,6.283,0,0,1,2.182-.1,2.109,2.109,0,0,1,.121,1.051c-.351,1.894-.278,1.987,1.676,2.148a.871.871,0,0,1,.649.5c.043.231-.2.536-.367.774-.065.093-.27.08-.4.136-.588.249-1.668.492-1.675.761a23.092,23.092,0,0,0,.392,4.022c.023.15.469.287.737.338.965.185.819.891.351,1.221a3.523,3.523,0,0,1-2.217.772c-.908-.127-2.1-.377-2.162-1.729-.047-1.008-.07-2.022-.024-3.029C226.437,285.1,226.679,283.976,224.995,283.29Z" fill="#fff"/>
    <path id="Path_317" data-name="Path 317" d="M296.141,283.125c1.058-.6,1.2-1.638,1.191-2.827-.009-.992,1.825-1.742,2.611-1.123a1.072,1.072,0,0,1,.265.738c.012.393-.1.788-.118,1.184-.061,1.183.283,1.493,1.473,1.312.558-.085,1.136-.244,1.209.592s-.562.794-1.1.844c-1.759.165-1.76.161-1.727,1.922.01.542.007,1.085.045,1.625.057.826.333,1.425,1.306,1.57.764.115.915.8.384,1.345a2.779,2.779,0,0,1-3.331.345c-1.126-.494-1.147-1.453-1.133-2.445a22.683,22.683,0,0,0,.018-3.347C297.158,284.28,296.568,283.769,296.141,283.125Z" fill="#fff"/>
    <path id="Path_318" data-name="Path 318" d="M329.617,290.584c-.686,0-1.376.039-2.057-.022-.232-.021-.441-.292-.66-.449.143-.184.254-.476.436-.532.748-.228.878-.775.875-1.437-.005-1.013-.02-2.026.008-3.038.019-.691-.033-1.275-.812-1.583a.885.885,0,0,1-.348-.784c.044-.2.429-.4.7-.465.667-.154,1.35-.24,2.03-.33.276-.036.727-.122.813.006.653.975,1.245.454,1.971.09a5.612,5.612,0,0,1,1.715-.267,15.967,15.967,0,0,1,.183,2.29c-.005.131-.762.4-1.1.319-1.433-.351-2.052.046-2.089,1.509-.019.759,0,1.52.03,2.279.032.72.156,1.379,1.092,1.471.175.017.323.3.483.468-.186.142-.361.389-.559.409-.9.092-1.8.12-2.7.171C329.619,290.654,329.618,290.619,329.617,290.584Z" fill="#fff"/>
    <path id="Path_319" data-name="Path 319" d="M277.79,262.683a8.721,8.721,0,0,1,2.076-.8c3.016-.343,5.448-2,7.957-3.45a6.745,6.745,0,0,1,4.623-1.1,4.476,4.476,0,0,1,1.885.973,1.645,1.645,0,0,0,2.411.027c.739-.667,1.309-.287,1.818.373l.867-.639a1.254,1.254,0,0,1-.048,2,1.368,1.368,0,0,1-1.944.029,1.4,1.4,0,0,0-1.193-.136c-1.466.687-1.913.678-3-.323a3.581,3.581,0,0,0-3.966-.454,53.584,53.584,0,0,1-5.88,3.158,23.463,23.463,0,0,1-4.964.918c-.167.027-.366-.15-.549-.233Z" fill="#fff"/>
    <path id="Path_320" data-name="Path 320" d="M104.763,241.806c1-.853,1.971-1.752,3.016-2.55a37.433,37.433,0,0,0,6.872-6.01.9.9,0,0,0-.155-1.465c-.655-.518-1.192-1.083-.9-2.015a3.67,3.67,0,0,1,2.419-1.977A1.076,1.076,0,0,1,117.31,229c-.009,1.032-.209,2.081.6,2.979.075.082-.493,1.079-.761,1.078-.938,0-1.193.6-1.685,1.2a25.369,25.369,0,0,1-3.5,3.52c-1.922,1.557-3.97,2.962-6,4.381-.261.182-.732.064-1.106.085C104.829,242.1,104.8,241.951,104.763,241.806Z" fill="#fff"/>
    <path id="Path_321" data-name="Path 321" d="M83.184,241.06a7.239,7.239,0,0,1,.927-1.108c2.3-1.858,4.643-3.656,6.919-5.538a9.833,9.833,0,0,0,1.829-2.1c.129-.192-.162-.913-.447-1.091a1.775,1.775,0,0,1-.69-2.281,3.011,3.011,0,0,1,2.557-1.718,1.829,1.829,0,0,1,1.051,2.228,2.527,2.527,0,0,0,.206,1.947c.451.9.184,1.211-.838,1.262a1.026,1.026,0,0,0-.721.273c-2.065,3.074-5.092,5.06-8.025,7.152-.586.418-1.193.809-1.816,1.169a2.389,2.389,0,0,1-.744.15Z" fill="#fff"/>
    <path id="Path_322" data-name="Path 322" d="M356.874,226.866a14.138,14.138,0,0,0,.879,1.8c.391.588.089,1.1-.339,1.06-1.806-.183-2.147,1.466-3.088,2.323-2.559,2.33-5.045,4.74-7.586,7.091-.165.152-.546.071-.826.1.051-.283,0-.667.169-.834,1.269-1.271,2.6-2.483,3.874-3.748q2.259-2.238,4.458-4.537c.534-.557.433-1.109-.065-1.721-.423-.519-1.048-1.3-.909-1.763a3.04,3.04,0,0,1,2.165-2.223c.714-.171,1.341.415,1.454,1.35.039.322.049.648.072.973Z" fill="#fff"/>
    <path id="Path_323" data-name="Path 323" d="M278.624,228.631a6.208,6.208,0,0,0-.87.554q-4.465,4-8.911,8.028c-.054.048-.1.125-.163.14-.381.093-.765.172-1.148.255.149-.4.191-.908.467-1.174.93-.9,1.967-1.677,2.92-2.55,1.851-1.7,3.653-3.447,5.516-5.129.59-.533.6-.931,0-1.387-.749-.57-1.194-1.431-.677-2.165a6.36,6.36,0,0,1,2.289-1.785c.51-.264,1.307.867,1.19,1.935-.1.864-.339,1.634.488,2.3a.916.916,0,0,1-.029.879c-.184.229-.593.277-.9.4C278.733,228.832,278.679,228.732,278.624,228.631Z" fill="#fff"/>
    <path id="Path_324" data-name="Path 324" d="M335.135,289.926c2.027-.392,1.388-1.984,1.5-3.246a15.852,15.852,0,0,0-.014-1.73c-.016-.666-.06-1.287-.882-1.541-.206-.064-.374-.5-.4-.775-.01-.108.408-.33.654-.374.815-.146,1.642-.231,2.463-.346,1.18-.165,1.357-.028,1.369,1.136.013,1.262,0,2.525.015,3.788.018,1.233-.542,2.717,1.446,3.037C340.443,290.911,335.961,290.919,335.135,289.926Z" fill="#fff"/>
    <path id="Path_325" data-name="Path 325" d="M104.559,264.31a15.848,15.848,0,0,0,2.818-.346c1.869-.567,3.71-1.241,5.522-1.971,1.289-.519,2.48-1.283,3.775-1.781a2.512,2.512,0,0,1,2.548.811c1.024.863,1.418.811,2.366-.117.219-.214.58-.6.705-.541.723.338,1.394.993,2.094-.02.16.194.438.376.461.585a1.643,1.643,0,0,1-1.8,1.8,4.544,4.544,0,0,0-2.685.291c-.479.227-1.447-.216-2.017-.612a2.52,2.52,0,0,0-3.408-.022,14.824,14.824,0,0,1-9.355,2.767,3.418,3.418,0,0,1-1.073-.483C104.526,264.553,104.543,264.431,104.559,264.31Z" fill="#fff"/>
    <path id="Path_326" data-name="Path 326" d="M95.113,257.193c.665.541.43,1.034.088,1.541-.752,1.116-1.541,2.21-2.23,3.364-.578.966-.029,1.8,1.113,1.946,2.01.252,3.384-.978,4.859-1.993.389-.267.784-.524,1.415-.945a5.34,5.34,0,0,1-2.156,3.3,4.882,4.882,0,0,1-4.237,1.431c-2.517-.4-2.824-2.547-2.125-4.267.317-.779.634-1.333-.159-2.088-.75-.714-.007-3.253,1-3.6.329-.114.807.2,1.217.317-.164.388-.318.782-.5,1.16-.031.063-.238.024-.3.091a4.23,4.23,0,0,0-.6.783c-.044.081.137.412.217.413a1.856,1.856,0,0,0,1-.148A13.151,13.151,0,0,0,95.113,257.193Z" fill="#fff"/>
    <path id="Path_327" data-name="Path 327" d="M142.13,290.013c-.823.881-4.586.9-5.61.018,1.8-1.111,1.456-2.882,1.295-4.531-.074-.758.069-1.712-.852-2.22a1.6,1.6,0,0,1,.375-.917,2.657,2.657,0,0,1,1.139-.286c2.4-.374,2.4-.351,2.29,2.113-.061,1.37-.055,2.744-.071,4.116-.007.667.154,1.212.947,1.342C141.819,289.677,141.966,289.884,142.13,290.013Z" fill="#fff"/>
    <path id="Path_328" data-name="Path 328" d="M168.612,256.873c.966.5,1.584.577,2.157-.125a1.121,1.121,0,0,1,.73-.373,2.247,2.247,0,0,1,.794.277c-.106.238-.148.558-.33.7-.623.483-1.342.848-1.932,1.364a4.961,4.961,0,0,0-1.189,1.487c-.657,1.337-.033,2.211,1.459,2.312a5.987,5.987,0,0,0,3.751-1.081,10.037,10.037,0,0,1,1.693-.682c0,.39.084.677-.012.764-1.668,1.5-3.408,2.865-5.844,2.755a3.137,3.137,0,0,1-2.7-1.72,2.543,2.543,0,0,1,.619-2.9c.533-.622,1.1-1.139.054-1.776-.1-.061-.139-.247-.176-.383-.27-.992,1.205-3.063,2.243-3.021a1.312,1.312,0,0,1,.889.787c.068.189-.359.648-.654.855A11.553,11.553,0,0,1,168.612,256.873Z" fill="#fff"/>
    <path id="Path_329" data-name="Path 329" d="M218.655,232.887l3.728-2.29c.014-.1.027-.193.041-.29-.885-.1-1.768-.228-2.656-.3-.651-.052-1.455.273-1.653-.74a1.753,1.753,0,0,1,1.443-1.889,35.021,35.021,0,0,1,4.87-.006,1.329,1.329,0,0,1,1.075,1.8,6.178,6.178,0,0,1-5.669,4.123A6.55,6.55,0,0,1,218.655,232.887Z" fill="#fff"/>
    <path id="Path_330" data-name="Path 330" d="M82.146,289.973c-.939.873-4.5.92-5.418.152.012-.069.011-.19.042-.2,1.258-.36,1.3-1.333,1.249-2.388-.039-.866,0-1.736,0-2.6,0-.628-.055-1.16-.785-1.5-.621-.285-.549-.889.1-1.09a9.736,9.736,0,0,1,2.657-.456c.241,0,.684.692.708,1.087.07,1.148-.057,2.307-.046,3.462C80.667,287.81,80.338,289.338,82.146,289.973Z" fill="#fff"/>
    <path id="Path_331" data-name="Path 331" d="M304.078,239.487a4.778,4.778,0,0,1,.254-1.216,27.974,27.974,0,0,1,1.757-3.144c.325-.481.9-.5,1.416-.024a1.479,1.479,0,0,1,.561,1.8c-.056.123-.631.16-.845.034-.6-.357-1.053-.293-1.317.344-.5,1.21-.941,2.445-1.427,3.662a10.759,10.759,0,0,1-.8,1.716c-.15.241-.628.525-.8.446a1.316,1.316,0,0,1-.672-.834,14.716,14.716,0,0,1-.173-2.264A2.066,2.066,0,0,0,301,238.041c-1.335-.8-1.471-1.824-.6-2.856.556-.659,1.214-.661,1.615-.016a21.176,21.176,0,0,1,1.38,2.975,12.347,12.347,0,0,1,.409,1.369Z" fill="#fff"/>
    <path id="Path_332" data-name="Path 332" d="M177.181,226.519c-.321.438-.422.71-.613.809a7.287,7.287,0,0,1-1.583.661c-3.414.843-6.843,1.628-10.253,2.485-1.182.3-2.317.775-3.492,1.1-.28.078-.634-.108-.954-.173.135-.371.163-.922.425-1.077a8.56,8.56,0,0,1,2.107-.838c3.127-.844,6.265-1.649,9.4-2.464,1.249-.325,2.493-.681,3.757-.929C176.294,226.035,176.682,226.333,177.181,226.519Z" fill="#fff"/>
    <path id="Path_333" data-name="Path 333" d="M234.071,229.748c1.064-1.275,2.683-1.458,4.123-1.892,2.375-.715,4.81-1.228,7.219-1.831,1.427-.357,2.843-.76,4.282-1.056.335-.069.743.213,1.118.334-.264.408-.447,1.064-.806,1.181-1.711.555-3.465.98-5.211,1.421-3,.759-6.007,1.514-9.022,2.223a7.483,7.483,0,0,1-1.668.018C234.1,230.013,234.083,229.88,234.071,229.748Z" fill="#fff"/>
    <path id="Path_334" data-name="Path 334" d="M41.575,239.173a12.727,12.727,0,0,1,1.06-2.326,2.139,2.139,0,0,1,1.506-.743,1.865,1.865,0,0,1,1.285.739c.357.462.224.985-.489,1.1-.445.072-1.111-.055-1.3.193a6.138,6.138,0,0,0-.861,1.949c-.308,1.034-.486,2.107-.8,3.139-.1.316-.454.552-.692.825-.294-.277-.731-.5-.851-.842a5.915,5.915,0,0,1-.214-1.711,2.166,2.166,0,0,0-1.255-2.1,1.668,1.668,0,0,1-.942-1.99,1.567,1.567,0,0,1,.766-1.044,1.336,1.336,0,0,1,1.2.354A25.566,25.566,0,0,1,41.575,239.173Z" fill="#fff"/>
    <path id="Path_335" data-name="Path 335" d="M221.613,244.332a18.43,18.43,0,0,1,1.129-2.731,2.486,2.486,0,0,1,1.41-1.025,1.67,1.67,0,0,1,1.4.5c.277.349.176,1,.273,1.767l-2.048-1.122c-.5,1.407-.95,2.751-1.465,4.067a14.432,14.432,0,0,1-1.02,2.006c-.1.162-.481.337-.6.27-.287-.168-.643-.439-.705-.726a14.109,14.109,0,0,1-.149-1.937c-.077-1.032-.036-2.044-1.315-2.576-.433-.18-.72-1.1-.756-1.7a1.393,1.393,0,0,1,.932-1.026,1.836,1.836,0,0,1,1.278.749,8.965,8.965,0,0,1,.912,1.8C221.118,243.126,221.311,243.618,221.613,244.332Z" fill="#fff"/>
    <path id="Path_336" data-name="Path 336" d="M103.371,232.9c.33-.915.623-1.83,1-2.711.177-.421.422-.958.782-1.122.517-.235,1.352-.435,1.713-.177.4.288.428,1.106.618,1.693-.275.044-.64.223-.81.11-.775-.515-1.158-.315-1.393.545-.415,1.518-.838,3.038-1.358,4.522a1.259,1.259,0,0,1-.98.7c-.314-.036-.68-.525-.826-.894a13.3,13.3,0,0,1-.166-1.388c-.268-1-.251-2.132-1.585-2.585-.378-.128-.626-.977-.7-1.526-.035-.276.544-.922.7-.879a3.119,3.119,0,0,1,1.717.876A16.611,16.611,0,0,1,103.371,232.9Z" fill="#fff"/>
    <path id="Path_337" data-name="Path 337" d="M83.481,235.551a7.713,7.713,0,0,1-.928-1.321c-.356-.818-.558-1.7-.9-2.53-.1-.245-.44-.4-.685-.576a8.594,8.594,0,0,1-.878-.579c-.608-.558-.84-1.217-.167-1.868a1.4,1.4,0,0,1,2.051.452c.385.593.728,1.214,1.089,1.822l.343.031c.193-.755.423-1.5.568-2.266A1.978,1.978,0,0,1,85.416,227a1.3,1.3,0,0,1,1.674.93c.127.636.1,1.223-.851.966-.829-.223-1.16.111-1.25.966-.156,1.471-.416,2.933-.673,4.391a6.89,6.89,0,0,1-.429,1.175Z" fill="#fff"/>
    <path id="Path_338" data-name="Path 338" d="M294.332,228.066a9.063,9.063,0,0,1,.107-1.68,10.828,10.828,0,0,1,.86-2.523,1.555,1.555,0,0,1,2.61.044c.326.674.074,1.13-.667,1.21-1.258.134-1.807.784-1.975,2.154a27.163,27.163,0,0,1-.608,3.378c-.08.314-.642.792-.833.731a1.93,1.93,0,0,1-.894-.9,2.3,2.3,0,0,1-.1-.958,3.075,3.075,0,0,0-1.477-2.723c-.289-.172-.686-.516-.675-.765a3.018,3.018,0,0,1,.461-1.8c.408-.442,1.64.359,2,1.2.183.429.4.846.555,1.284s.263.891.392,1.338Z" fill="#fff"/>
    <path id="Path_339" data-name="Path 339" d="M50.079,226.149a4.972,4.972,0,0,1,.018-1.079,3.964,3.964,0,0,1,.445-.884c.3.221.745.383.858.676a13.649,13.649,0,0,1,.359,1.789,2.906,2.906,0,0,0,.4.827c.027.043.368-.032.37-.066a5.14,5.14,0,0,0-.014-.9c-.068-.638-.2-1.274-.215-1.912a.7.7,0,0,1,.45-.511.672.672,0,0,1,.555.365,16.169,16.169,0,0,1,.532,3.351c-.013,1.144-.889,1.642-1.967,1.263a1.4,1.4,0,0,0-1.647.383,1.461,1.461,0,0,1-1.975.275,3.663,3.663,0,0,1-1.184-1.638,4,4,0,0,1-.017-1.931c.068-.37.456-.681.7-1.019a6.078,6.078,0,0,1,.611,1c.1.253-.07.625.052.849.245.447.56,1.114.934,1.178.725.125.753-.576.742-1.142-.006-.289,0-.578,0-.867Z" fill="#fff"/>
    <path id="Path_340" data-name="Path 340" d="M121.2,239.025c-.118-.986-.262-1.906-.311-2.832-.01-.188.34-.4.524-.593.17.2.417.382.5.617a15.147,15.147,0,0,1,.6,2.19c.306,1.781-.735,2.716-2.474,2.351a1.36,1.36,0,0,0-1.131.27,1.772,1.772,0,0,1-2.175.411,1.555,1.555,0,0,1-1.124-1.761c.063-.717-.042-1.451.05-2.162.031-.236.445-.422.684-.632a2.976,2.976,0,0,1,.5.807,9.806,9.806,0,0,0,.257,1.643,1.217,1.217,0,0,0,1.032.458c.222-.024.513-.54.551-.861.076-.64-.039-1.3,0-1.947a7.2,7.2,0,0,1,.305-1.243c1.191.667.95,1.743,1.21,2.591C120.485,239.261,120.482,239.288,121.2,239.025Z" fill="#fff"/>
    <path id="Path_341" data-name="Path 341" d="M248.274,236a2.762,2.762,0,0,1-.239-3.3c1.12,1.02,1.786,3.293,1.181,4.488a1.809,1.809,0,0,1-1.435.778,3.354,3.354,0,0,0-2.317.473,1.925,1.925,0,0,1-3-1.686,15.351,15.351,0,0,1,.057-2.058c.022-.2.337-.538.494-.525a.82.82,0,0,1,.579.494c.119.447-.028,1,.172,1.381.231.442.683,1,1.1,1.06.717.1.761-.579.731-1.155a15.93,15.93,0,0,1-.06-2.058c.022-.271.35-.518.539-.776.276.24.7.432.794.73a7.076,7.076,0,0,1,.155,1.613C247.089,236.281,247.483,236.431,248.274,236Z" fill="#fff"/>
    <path id="Path_342" data-name="Path 342" d="M149.576,217.67a9.047,9.047,0,0,1,.453,1.092c.065.232-.106.567.007.74.323.494.679,1.237,1.126,1.321.789.147.743-.718.782-1.257.052-.717-.051-1.445,0-2.162.018-.258.292-.5.449-.747.266.239.674.432.768.726.215.674.247,1.4.416,2.1a1.477,1.477,0,0,0,.471.624c.048.045.36-.065.367-.123a3.029,3.029,0,0,0-.03-.795c-.111-.7-.289-1.385-.34-2.083-.014-.2.286-.489.51-.6.1-.05.5.206.542.376a18.668,18.668,0,0,1,.628,3.346,1.411,1.411,0,0,1-1.949,1.356,1.325,1.325,0,0,0-1.564.281,1.867,1.867,0,0,1-2.36.319,1.788,1.788,0,0,1-1-1.959c.038-.831.116-1.661.177-2.491Z" fill="#fff"/>
    <path id="Path_343" data-name="Path 343" d="M350.164,257.994a8.7,8.7,0,0,0-.015-1.623c-.39-2,.615-3.559,1.612-5.079a1.847,1.847,0,0,1,1.53-.552c.813.12,1.788,1.546,1.475,2.094a2.28,2.28,0,0,1-1.412,1.016c-1.353.227-1.8.576-1.836,2.033-.038,1.589-.009,3.179-.011,4.769a2.26,2.26,0,0,1-.031.858,8.938,8.938,0,0,1-.748,1.183,4.045,4.045,0,0,1-.524-1.233c-.073-1.151-.025-2.311-.025-3.467Z" fill="#fff"/>
    <path id="Path_344" data-name="Path 344" d="M51.974,263.031c-.194-.152-.523-.285-.538-.447a1.038,1.038,0,0,1,.26-.818,39.223,39.223,0,0,1,3.315-2.212q4.012-2.313,8.1-4.5c.364-.2,1.129-.244,1.332-.02.556.615-.147.967-.568,1.219-1.533.916-3.109,1.758-4.653,2.655-2.075,1.206-4.132,2.442-6.2,3.654A11.119,11.119,0,0,1,51.974,263.031Z" fill="#fff"/>
    <path id="Path_345" data-name="Path 345" d="M347.251,227.107c-.281.261-.6.768-1.054.943-2.144.831-4.339,1.533-6.486,2.358-1.6.614-3.148,1.35-4.724,2.02-.432.184-1.029.673-1.256-.048a1.508,1.508,0,0,1,.593-1.35c2.779-1.164,5.609-2.205,8.418-3.3q1.449-.565,2.867-1.206C346.357,226.187,347.226,226.362,347.251,227.107Z" fill="#fff"/>
    <path id="Path_346" data-name="Path 346" d="M321.546,235.832c.226.793.421,1.6.693,2.375a4.022,4.022,0,0,0,.6.878,2.8,2.8,0,0,0,.175-1.1c-.241-.849-.393-1.618.441-2.236a4.248,4.248,0,0,1,.686,4.1,1.271,1.271,0,0,1-1.7.731,1.243,1.243,0,0,0-1.608.36,1.687,1.687,0,0,1-1.534.372,2.582,2.582,0,0,1-1.331-1.364,5.81,5.81,0,0,1-.066-2.256c.016-.219.358-.413.551-.618a3.992,3.992,0,0,1,.439.716,10.066,10.066,0,0,0,.495,1.557,1.006,1.006,0,0,0,.912.329,1.1,1.1,0,0,0,.524-.8c.081-.6-.008-1.23.036-1.841a7.549,7.549,0,0,1,.262-1.16Z" fill="#fff"/>
    <path id="Path_347" data-name="Path 347" d="M340.5,236.982c.536-.165,1.066-.356,1.611-.484.249-.059.634-.1.762.042a.788.788,0,0,1,.075.764,4.348,4.348,0,0,1-1.5,1.108,34.456,34.456,0,0,1-3.958.969,2.836,2.836,0,0,1-1.069-.243c.084-.313.072-.724.272-.921a2.1,2.1,0,0,0,.63-1.713,3.03,3.03,0,0,1,3.849-2.541c.32.135.432.761.64,1.16-.425.212-.849.425-1.276.632-.019.009-.062-.047-.093-.046a12.9,12.9,0,0,0-1.419.086c-.042.006-.105.6-.016.649a7.217,7.217,0,0,0,1.235.422.777.777,0,0,0,.216,0C340.477,236.906,340.488,236.944,340.5,236.982Z" fill="#fff"/>
    <path id="Path_348" data-name="Path 348" d="M178.258,234.319l1.028.66a4.135,4.135,0,0,1-.693.989,2.806,2.806,0,0,1-1.014.315c-1.731.462-3.461.93-5.2,1.379-1.425.369-2.849.748-4.289,1.048-.293.061-.655-.214-.985-.335.228-.267.406-.683.691-.779,2.416-.806,4.851-1.557,7.282-2.317C176.1,234.962,177.127,234.661,178.258,234.319Z" fill="#fff"/>
    <path id="Path_349" data-name="Path 349" d="M203.288,260.825l.893.516c-.19.323-.308.751-.587.946a9.57,9.57,0,0,1-1.557.733c-2.057.93-4.107,1.874-6.177,2.775a2.481,2.481,0,0,1-.945,0c.09-.381.054-.949.293-1.111a25.967,25.967,0,0,1,2.994-1.714c1.312-.655,2.658-1.244,4-1.842A8.135,8.135,0,0,1,203.288,260.825Z" fill="#fff"/>
    <path id="Path_350" data-name="Path 350" d="M148.2,262.671a6.885,6.885,0,0,1-1.282,1.344c-.237.155-.83-.2-1.245-.363a1.48,1.48,0,0,1-.623-.414c-.38-.495-1.035-1.075-.971-1.538.076-.549.786-1.012,1.228-1.506a.365.365,0,0,1,.2-.081C146.035,260.014,148.176,261.815,148.2,262.671Z" fill="#fff"/>
    <path id="Path_351" data-name="Path 351" d="M147.926,257.625a9.876,9.876,0,0,1-1.485,1.8c-.185.139-.843-.289-1.245-.524a4.915,4.915,0,0,1-.812-.7c-.469-.442-1.265-.785-.708-1.632.722-1.1,1.664-1.335,2.53-.631C146.792,256.408,147.291,256.992,147.926,257.625Z" fill="#fff"/>
    <path id="Path_352" data-name="Path 352" d="M42.854,261.588a7.844,7.844,0,0,1-1.891,1.328c-.651.218-2.4-1.548-2.384-2.2a2,2,0,0,1,1.663-1.6A4.421,4.421,0,0,1,42.854,261.588Z" fill="#fff"/>
    <path id="Path_353" data-name="Path 353" d="M47.26,261.574c-.194,1.515-1.363,2.054-2.431,1.31a9.122,9.122,0,0,1-.909-.76c-.88-.8-.842-1.106.023-2.256.648-.861,1.169-.348,1.721.062a11.627,11.627,0,0,1,1.254,1A1.936,1.936,0,0,1,47.26,261.574Z" fill="#fff"/>
    <path id="Path_354" data-name="Path 354" d="M292.719,238.73c-.529.872-1.085,1.73-1.577,2.622-.387.7-.857,1.456.388,1.883a.839.839,0,0,1,.312.753,2.56,2.56,0,0,1-1.021,1.108,1.323,1.323,0,0,1-1.6-1.293,3.938,3.938,0,0,1,.322-1.673,30.784,30.784,0,0,1,1.958-3.191c.191-.278.636-.38.965-.563Z" fill="#fff"/>
    <path id="Path_355" data-name="Path 355" d="M277.533,242.008c-.534.446-1.2,1.354-1.577,1.248a7.011,7.011,0,0,1-2.635-1.577c-.268-.237,1.331-2.016,1.814-2.012C275.794,239.672,277.355,241.164,277.533,242.008Z" fill="#fff"/>
    <path id="Path_356" data-name="Path 356" d="M237.939,239.177a6.31,6.31,0,0,1-1.16,1.391c-.232.168-.833-.16-1.261-.284a2.268,2.268,0,0,1-.363-.216c-1.447-.757-1.515-2.025-.157-2.954a.837.837,0,0,1,.184-.108C235.78,236.795,237.9,238.3,237.939,239.177Z" fill="#fff"/>
    <path id="Path_357" data-name="Path 357" d="M270.633,239.884a11.15,11.15,0,0,1,2.112,2.2c.137.241-.792,1.362-1.431,1.692-.573.3-2.523-1.329-2.535-1.888S269.911,240.088,270.633,239.884Z" fill="#fff"/>
    <path id="Path_358" data-name="Path 358" d="M231.005,237.157a11.132,11.132,0,0,1,2.183,2.073c.184.307-.384,1.221-.809,1.671-.213.225-.921.148-1.319-.009a3.929,3.929,0,0,1-1.386-.975,1.113,1.113,0,0,1-.2-1.02A14.144,14.144,0,0,1,231.005,237.157Z" fill="#fff"/>
    <path id="Path_359" data-name="Path 359" d="M246.91,248.207l-2.26-2.623a12.156,12.156,0,0,1,1.962-1.709c.4-.229,2.134,1.862,1.893,2.349A12.614,12.614,0,0,1,246.91,248.207Z" fill="#fff"/>
    <path id="Path_360" data-name="Path 360" d="M162.879,239.1c-.609.525-1.1.993-1.643,1.4-.508.386-.844.061-1.152-.355a11.694,11.694,0,0,0-.781-.888c-.645-.705-.728-1.3.152-1.949.735-.541,1.321-.856,1.98.056C161.824,237.909,162.284,238.4,162.879,239.1Z" fill="#fff"/>
    <path id="Path_361" data-name="Path 361" d="M146.262,226.118c.88.375.6.884.345,1.5a10.611,10.611,0,0,0-.642,2.326c-.043.262.235.618.441.869a8.314,8.314,0,0,0,.878.817c-.368.347-.716.942-1.111.976a1.725,1.725,0,0,1-1.636-2.148c.354-1.308.849-2.579,1.313-3.855C145.918,226.422,146.115,226.287,146.262,226.118Z" fill="#fff"/>
    <path id="Path_362" data-name="Path 362" d="M162.266,246.143c.478.744.435,1.27-.224,1.676-1.864,1.147-3.728,2.3-5.61,3.415a.693.693,0,0,1-.656-.07.666.666,0,0,1-.053-.649,12.559,12.559,0,0,1,1.654-1.319c1.435-.933,2.9-1.822,4.351-2.729C161.875,246.376,162.023,246.29,162.266,246.143Z" fill="#fff"/>
    <path id="Path_363" data-name="Path 363" d="M213.707,243.831c-.376.773-.652,1.409-.988,2.012-.522.939-.361,1.343.614,1.713.231.088.534.663.469.743-.4.494-.881,1.242-1.36,1.26a2.085,2.085,0,0,1-1.483-1.112C210.4,247.284,212.208,244.232,213.707,243.831Z" fill="#fff"/>
    <path id="Path_364" data-name="Path 364" d="M191.922,238.925c-.069.367-.114.741-.212,1.1-.186.678-.443,1.339-.581,2.026a.8.8,0,0,0,.345.688c.529.229.991.505.621,1.1-.228.366-.758.812-1.1.774a1.856,1.856,0,0,1-1.314-.842,2.433,2.433,0,0,1-.062-1.787,32.694,32.694,0,0,1,1.769-3.227Z" fill="#fff"/>
    <path id="Path_365" data-name="Path 365" d="M67.16,238.946c-.277.57-.53,1.152-.836,1.706-.475.861-.338,1.2.525,1.6a.944.944,0,0,1,.366.837,1.164,1.164,0,0,1-1.55.785,1.344,1.344,0,0,1-.991-1.776,18.375,18.375,0,0,1,1.554-3.236c.082-.151.477-.133.728-.194Z" fill="#fff"/>
    <path id="Path_366" data-name="Path 366" d="M338.085,277.511c1.072.015,1.743.529,1.761,1.348s-.766,1.409-1.832,1.392c-1.038-.017-1.521-.475-1.495-1.416C336.545,277.878,337,277.5,338.085,277.511Z" fill="#fff"/>
    <path id="Path_367" data-name="Path 367" d="M140.771,278.57a1.448,1.448,0,0,1-1.444,1.692,1.547,1.547,0,0,1-1.809-1.409c-.025-.884.453-1.294,1.56-1.34C140.127,277.471,140.755,277.968,140.771,278.57Z" fill="#fff"/>
    <path id="Path_368" data-name="Path 368" d="M79.33,280.327a1.434,1.434,0,0,1-1.5-1.371,1.292,1.292,0,0,1,1.336-1.466,1.522,1.522,0,0,1,1.692,1.3A1.614,1.614,0,0,1,79.33,280.327Z" fill="#fff"/>
    <path id="Path_369" data-name="Path 369" d="M92.251,265.935c-.553.745-1.121,1.071-1.778.445a6.869,6.869,0,0,1-.856-1.278,7.98,7.98,0,0,1,1.8-.016C91.727,265.15,91.954,265.615,92.251,265.935Z" fill="#fff"/>
    <g id="CXHPdX_2_">
      <g id="Group_387" data-name="Group 387">
        <g id="Group_386" data-name="Group 386">
          <path id="Path_370" data-name="Path 370" d="M480.938,256a55.085,55.085,0,1,1-55.892-55.072A55.016,55.016,0,0,1,480.938,256Zm-58.008-47.8c-.206-.15-.322-.241-.443-.323a6.081,6.081,0,0,1-2.9-4.8c-.032-.46-.3-.5-.656-.433-2.4.461-4.815.86-7.193,1.415-1.491.347-2.929.924-4.387,1.409a44.707,44.707,0,0,0-7.864,3.588,54.32,54.32,0,0,0-9.673,6.96,52.761,52.761,0,0,0-7.425,8.217,41.039,41.039,0,0,0-4.189,6.794c-1.015,2.2-2.114,4.369-2.939,6.638-.832,2.29-1.427,4.673-2.029,7.04a44.87,44.87,0,0,0-1.189,9.543,49.938,49.938,0,0,0,.658,10.326c.273,1.57.529,3.151.948,4.685.531,1.942,1.2,3.846,1.847,5.756A43.781,43.781,0,0,0,379,282.545a55.041,55.041,0,0,0,13.259,15.528,54.552,54.552,0,0,0,9.929,6.277,56.172,56.172,0,0,0,10.572,3.873,52.617,52.617,0,0,0,17.73,1.4,49.7,49.7,0,0,0,7.737-1.239c2.255-.59,4.5-1.252,6.693-2.039a47.774,47.774,0,0,0,7.825-3.721,54.371,54.371,0,0,0,10.686-8.1,53.779,53.779,0,0,0,6.84-8.093,42.14,42.14,0,0,0,4.1-7.17c.709-1.648,1.511-3.264,2.1-4.955.728-2.1,1.345-4.24,1.881-6.395a40.844,40.844,0,0,0,.9-5.033,58.727,58.727,0,0,0,.377-8.829,53.977,53.977,0,0,0-.994-8.732,52.373,52.373,0,0,0-2.416-8.374,53.779,53.779,0,0,0-13.84-20.483,50.678,50.678,0,0,0-7.792-5.976,57.837,57.837,0,0,0-5.155-2.832c-1.88-.9-3.813-1.714-5.77-2.436a40.053,40.053,0,0,0-4.9-1.452c-2.056-.472-4.146-.8-6.224-1.171-.383-.069-.609.061-.639.532a5.965,5.965,0,0,1-2.741,4.653c-.155.109-.29.245-.479.407a6.184,6.184,0,0,1,3.38,5.524c-.005,2.462-1.384,4.2-3.349,5.59.271.19.457.31.631.444,1.56,1.2,2.828,2.565,2.826,4.716,0,.184.333.488.555.536a31,31,0,0,1,8.1,3.006,32.069,32.069,0,0,1,8.119,6.213,31.4,31.4,0,0,1,5.7,8.363,30.42,30.42,0,0,1,2.39,7.491,32.525,32.525,0,0,1,.552,5.7,28.813,28.813,0,0,1-1.475,9.742,40.342,40.342,0,0,1-2.059,5.086,30.847,30.847,0,0,1-6.55,8.617,32.257,32.257,0,0,1-9.6,6.155,30.155,30.155,0,0,1-8.589,2.168,31.819,31.819,0,0,1-15.543-2.192,31.477,31.477,0,0,1-9.414-5.991,31.08,31.08,0,0,1-6.037-7.561,33.836,33.836,0,0,1-2.786-6.4,29.755,29.755,0,0,1-1.294-6.591,32.022,32.022,0,0,1,.158-6.951A31.643,31.643,0,0,1,396.3,244.4a31.6,31.6,0,0,1,11.73-14.659,25.905,25.905,0,0,1,5.88-3.119c1.691-.592,3.411-1.106,5.137-1.589.5-.14.733-.308.729-.841a3.556,3.556,0,0,1,.833-2.423,26.158,26.158,0,0,1,2.072-2.06c.3-.277.324-.375-.014-.656a10.221,10.221,0,0,1-1.817-1.762,5.945,5.945,0,0,1,.809-8.1A15.876,15.876,0,0,1,422.93,208.192Zm2.888,17.587a30.209,30.209,0,1,0,30.248,30.283A30.19,30.19,0,0,0,425.818,225.779Zm-.021-7.1a4.938,4.938,0,0,0,5.032-4.835,4.975,4.975,0,1,0-9.95-.052C420.882,216.25,423.1,218.864,425.8,218.676Zm.3-16.59-.006.081c-.149,0-.3-.006-.446,0-1.465.07-2.929.138-4.393.216-.262.014-.524.031-.494.431a4.943,4.943,0,0,0,2.026,3.744,4.858,4.858,0,0,0,4.644.674,5.171,5.171,0,0,0,3.3-4.3c.025-.338-.04-.527-.418-.551C428.91,202.293,427.506,202.187,426.1,202.086Zm4,22.416c.8.061.98-.161.718-.928a6.317,6.317,0,0,0-.578-1.252c-1.545-2.516-3.68-2.857-6.042-2.151a4.886,4.886,0,0,0-3.153,3.483c-.247.761-.088.914.725.868,1.554-.09,3.109-.221,4.665-.233C427.658,224.28,428.88,224.425,430.1,224.5Z" fill="#fff" stroke="#fff" stroke-miterlimit="10" stroke-width="0.25"/>
          <path id="Path_371" data-name="Path 371" d="M383.157,265.661c1.911-.644,3.788-1.264,5.655-1.914.441-.154.617-.074.649.4a5.028,5.028,0,0,0,.186.864c.091.367-.087.561-.409.669-2.387.8-4.777,1.591-7.157,2.411-.46.159-.576-.005-.684-.408a46.729,46.729,0,0,1-1.436-13.9,36.634,36.634,0,0,1,1.109-8.093c.572-2.144,1.258-4.257,1.928-6.373a.776.776,0,0,0-.29-1.039,5.381,5.381,0,0,1-2.148-4.6c-.015-.449.169-.621.607-.514.036.009.073.012.11.019.365.066.835.018,1.064.231.206.192.139.67.21,1.018a3.709,3.709,0,0,0,.946,1.975c.325.327.524.418.769-.078.515-1.04,1.085-2.053,1.6-3.091.222-.445.511-.457.91-.287a5.25,5.25,0,0,1,2.927,2.891,11.1,11.1,0,0,1,.569,2.184c.2,1.073-.564,1.552-1.328,1.816a5.872,5.872,0,0,1-3.238-.148c-.425-.089-.654-.071-.778.4-.113.427-.343.822-.474,1.246-.172.556-.079.679.49.668.687-.013,1.375-.035,2.059-.1.381-.036.556.063.572.457q.113,2.727.243,5.454c.019.4-.14.521-.54.453-1.243-.214-2.491-.4-3.736-.6-.682-.109-.765-.08-.884.608-.18,1.04-.31,2.089-.469,3.133-.07.46.1.651.575.62,1.186-.078,2.374-.121,3.56-.2.441-.029.579.135.591.571.033,1.259.055,1.3-1.161,1.44-1.05.118-2.113.14-3.171.159-.491.009-.642.2-.643.671,0,.488.258.54.643.521,1.28-.06,2.561-.1,3.84-.166.4-.022.565.1.591.518.084,1.347.1,1.36-1.264,1.443-1.038.063-2.078.093-3.118.121-.395.011-.7.063-.686.57s.3.547.71.523c1.315-.078,2.633-.113,3.949-.191.468-.028.615.135.6.6-.03,1.329-.011,1.336-1.337,1.41q-1.613.09-3.227.145c-.3.01-.48.1-.429.415q.381,2.385.78,4.768A1.3,1.3,0,0,0,383.157,265.661Zm2.45-20.652c-.071-1.148.14-1.059-1.122-1.03a2.489,2.489,0,0,1-.333.015c-.492-.057-.757.306-.858,1.269-.065.616.424.409.719.489q.268.073.54.133C385.554,246.107,385.637,246.038,385.607,245.009ZM387.286,238c.784.028.945-.118.776-.733a6.516,6.516,0,0,0-.613-1.406c-.2-.354-.47-.324-.662.039q-.322.609-.605,1.24c-.226.5-.127.665.432.756Z" fill="#fff" stroke="#fff" stroke-miterlimit="10" stroke-width="0.25"/>
          <path id="Path_372" data-name="Path 372" d="M454.645,220.033c1.509,1.416,3.023,2.722,4.4,4.16a54.151,54.151,0,0,1,3.619,4.265,37.884,37.884,0,0,1,4.573,7.532,59.969,59.969,0,0,1,2.441,6.072,46.589,46.589,0,0,1,1.4,5.714,43.823,43.823,0,0,1,.674,10.262c-.021.491-.177.631-.661.625a8.488,8.488,0,0,1-3.788-.693,3.117,3.117,0,0,1-1.759-2.018c-.11-.393-.106-.942-.792-.825-.071.012-.19-.171-.262-.28-.035-.053-.013-.145-.016-.219-.06-1.426-.059-1.415,1.351-1.468a2.808,2.808,0,0,0,.84-.221c.775-.288,1.527-.65,2.318-.875.447-.127.6-.324.531-.734-.277-1.7-.563-3.4-.843-5.106-.059-.363-.293-.381-.579-.317-.977.219-1.957.421-2.928.665-.37.093-.505-.038-.594-.365-.378-1.38-.383-1.379,1.013-1.716.648-.156,1.294-.326,1.946-.465.342-.073.5-.219.378-.577-.088-.263-.158-.533-.246-.8-.292-.88-.3-.893-1.213-.648s-1.856.523-2.779.8c-.337.1-.534.085-.65-.327-.512-1.822-.626-1.289,1.008-1.813.723-.232,1.472-.38,2.194-.616a.576.576,0,0,0,.291-.482,8.8,8.8,0,0,0-.627-1.478c-.048-.091-.362-.118-.515-.065-1.049.367-2.087.763-3.128,1.152-.66.247-.723.222-.984-.413-.447-1.086-.447-1.086.651-1.528.808-.326,1.6-.7,2.43-.96.528-.165.569-.409.33-.8-.93-1.533-1.851-3.072-2.816-4.583-.447-.7-.989-1.341-1.484-2.012-.224-.3-.409-.3-.649.005-.477.614-.989,1.2-1.477,1.807-.22.273-.424.274-.709.078-1.176-.806-1.19-.836-.326-1.943.388-.5.784-.988,1.2-1.465.244-.283.314-.5-.012-.791s-.623-.664-.983-1.057c-.556.669-1.071,1.247-1.541,1.86-.751.98-.738.989-1.656.22a2.929,2.929,0,0,0-.3-.243c-.286-.181-.306-.362-.08-.629.633-.749,1.24-1.521,1.866-2.276.2-.245.218-.452-.035-.667-.971-.825-.82-.969-1.591.064-.376.5-.82.955-1.2,1.454-.273.355-.525.454-.847.081a.733.733,0,0,0-.127-.108c-1.165-.848-.976-.684-.2-1.694.793-1.026,1.645-2.006,2.473-3.005C454.284,220.428,454.41,220.3,454.645,220.033Zm15.144,35.26a6.776,6.776,0,0,0-.048-.839.6.6,0,0,0-.254-.42,2.177,2.177,0,0,0-2,.9,1.029,1.029,0,0,0,.326,1.189,2.187,2.187,0,0,0,1.741.516c.091,0,.159-.631.229-.972A2.3,2.3,0,0,0,469.789,255.293Z" fill="#fff" stroke="#fff" stroke-miterlimit="10" stroke-width="0.25"/>
          <path id="Path_373" data-name="Path 373" d="M455.91,288.029a1.511,1.511,0,0,0-2.024-.347c-1.332.8-2.644,1.633-3.944,2.483-1.158.757-2.289,1.556-3.582,2.438-.316-.377-.621-.774-.962-1.137-.229-.243-.191-.428.048-.6a69.69,69.69,0,0,1,7.875-5.084,3.34,3.34,0,0,1,2.491-.159,6.485,6.485,0,0,1,1.194.455.647.647,0,0,0,.882-.178c.39-.446.8-.87,1.2-1.315.261-.3.274-.542-.076-.841-.731-.624-1.408-1.311-2.115-1.963a1.886,1.886,0,0,1-.14-2.542c.481-.7,1.062-1.326,1.605-1.98.242-.291.492-.3.815-.07,1.032.722,2.091,1.406,3.128,2.12.351.242.59.22.806-.168.415-.744.858-1.473,1.279-2.215.359-.632.331-.7-.322-1.068-.594-.331-1.187-.665-1.84-1.03.276-.481.529-.9.764-1.34.169-.312.373-.288.641-.133.525.3,1.071.575,1.589.891.342.209.52.078.645-.229q.669-1.644,1.326-3.294c.233-.587.136-.745-.433-1.037q-2.466-1.264-4.9-2.582a.675.675,0,0,1-.236-.556c.039-.344.2-.672.278-1.015.1-.449.338-.408.65-.245q3.4,1.762,6.8,3.52c.387.2.555.452.381.892-.7,1.771-1.356,3.561-2.1,5.315a32.591,32.591,0,0,1-3.5,6.3c-1.345,1.876-2.758,3.714-4.275,5.453a39.264,39.264,0,0,1-8.068,7.023c-1.776,1.165-3.667,2.154-5.495,3.242-.439.261-.628.162-.835-.288-.576-1.255-.57-1.2.556-1.861,1.817-1.066,3.643-2.127,5.374-3.322C452.941,290.492,454.381,289.235,455.91,288.029Zm4.813-5.514c.224-.284.461-.555.665-.85a.441.441,0,0,0-.154-.7c-.555-.36-1.1-.742-1.641-1.119-.292-.2-.568-.364-.852.022-.245.333-.412.638-.014.985.555.484,1.09.991,1.64,1.481A1.719,1.719,0,0,0,460.723,282.515Z" fill="#fff" stroke="#fff" stroke-miterlimit="10" stroke-width="0.25"/>
          <path id="Path_374" data-name="Path 374" d="M416.759,295.651c2.056-.35,3.992-.679,5.928-1.011.442-.076.5.192.489.53-.046,1.317-.079,2.636-.148,3.952-.022.419.086.652.53.647,1.951-.021,3.9-.024,5.852-.073.777-.019.792-.075.783-.874-.02-1.765-.042-3.53-.076-5.3-.008-.436.093-.669.605-.717,1.518-.14,1.333-.281,1.36,1.2.036,1.987.093,3.975.141,5.962,0,.074.005.149.006.223.017,1.154.014,1.13-1.1,1.288a41.069,41.069,0,0,1-9.62.127c-2.37-.222-4.707-.8-7.054-1.252-.707-.136-1.4-.367-2.09-.566-.415-.119-.585,0-.559.451.048.826.033.816-.8.815-1.673,0-3.346,0-5.018.026-.514.008-.718-.133-.709-.7.024-1.431-.084-1.192,1.227-1.216.91-.016,1.82-.051,2.73-.069.362-.007.55-.136.518-.538-.073-.925-.1-1.854-.188-2.778-.041-.438.068-.67.536-.7,1.55-.107,1.385-.236,1.493,1.238.007.093,0,.186.006.279.017.839.054.92.84,1.136,1.395.382,2.8.74,4.2,1.09.18.045.488.057.555-.041a.927.927,0,0,0,.049-.616C417.1,297.351,416.933,296.54,416.759,295.651Zm4.319,2.66h0v-.334c0-.912.01-.848-.889-.771-1.384.12-1.068.372-.9,1.427a1,1,0,0,0,.354.681c1.035.519,1.43.255,1.438-.892Q421.078,298.367,421.078,298.311Z" fill="#fff" stroke="#fff" stroke-miterlimit="10" stroke-width="0.25"/>
          <path id="Path_375" data-name="Path 375" d="M388.281,278.636c.458.725.847,1.39,1.283,2.021a44.689,44.689,0,0,0,9.5,10.057,42.183,42.183,0,0,0,6.955,4.369c.48.24.555.45.265.934-.675,1.126-.642,1.139-1.824.535a44.061,44.061,0,0,1-9.156-6.314,43.486,43.486,0,0,1-7.332-8.3c-1.04-1.549-1.957-3.182-2.9-4.791-.332-.564-.22-.713.445-.689,1.709.062,3.418.112,5.125.2a18.348,18.348,0,0,1,2.041.275,2.039,2.039,0,0,1,1.8,1.8c.264,1.138.539,2.273.837,3.4.039.148.263.373.372.357.572-.082.81.306,1.123.656.925,1.034.622,1.106-.378,1.37a2.394,2.394,0,0,1-3.035-1.838c-.259-1.1-.513-2.2-.823-3.288a.9.9,0,0,0-.557-.578c-1.123-.131-2.256-.182-3.386-.256A1.781,1.781,0,0,0,388.281,278.636Z" fill="#fff" stroke="#fff" stroke-miterlimit="10" stroke-width="0.25"/>
          <path id="Path_376" data-name="Path 376" d="M452.131,213.374c-.136.53-.263.973-.362,1.421-.085.384-.309.388-.655.383-.862-.011-1.727.045-2.588.109-.178.013-.344.18-.535.286.944.616,1.8,1.156,2.631,1.73a2.775,2.775,0,0,1,.7.707,1.446,1.446,0,0,1-.294,1.962,5.139,5.139,0,0,1-4.144,1.648c-1.16-.094-1.736-.987-2.154-1.942a3.835,3.835,0,0,1-.128-2.974c.121-.324-.171-.634-.6-.582-.882.108-1.756.275-2.635.413-.9.14-1.791.285-2.69.4-.342.046-.379-.2-.363-.474q.131-2.193.254-4.386a5.453,5.453,0,0,0,.028-.556c-.019-.439.206-.585.615-.585,1.356,0,2.711-.022,4.067-.032.682-.005.763.083.841.736.081.681.17,1.362.292,2.037.1.563,1.325.949,1.8.594C448,212.942,449.988,212.923,452.131,213.374Zm-5.814,4.491c0,1.577.674,2.072,1.964,1.6.206-.076.4-.187.6-.281.379-.179.383-.37.022-.579-.59-.34-1.171-.7-1.771-1.016a.982.982,0,0,0-.656-.147C446.357,217.477,446.334,217.814,446.317,217.865Zm-5.918-4.217a4.42,4.42,0,0,0,.092.788,9.508,9.508,0,0,0,1.528,0c.155-.013.426-.208.419-.3-.025-.369-.045-.97-.242-1.049A2.925,2.925,0,0,0,440.7,213C440.548,213.026,440.464,213.5,440.4,213.648Z" fill="#fff" stroke="#fff" stroke-miterlimit="10" stroke-width="0.25"/>
          <path id="Path_377" data-name="Path 377" d="M408.47,211.1a9.814,9.814,0,0,1,4.271,1.061,2.77,2.77,0,0,1,1.384,1.9,4.625,4.625,0,0,1-.184,2.893,2.556,2.556,0,0,1-2.513,1.532c-.978-.018-1.952-.206-2.931-.29a3.185,3.185,0,0,0-.969.067c-.364.084-.622.058-.744-.339a3.413,3.413,0,0,0-.14-.364c-.462-1.064-.471-1.185.691-1.264a18.479,18.479,0,0,1,3.308.244,1.493,1.493,0,0,0,1.315-.221,1.81,1.81,0,0,0-.339-2.529,7.609,7.609,0,0,0-3.346-.7,2.247,2.247,0,0,0-.952.266,44.5,44.5,0,0,0-7.822,4.194,43.287,43.287,0,0,0-6.118,5.027c-.228.228-.384.233-.591,0-.147-.165-.33-.3-.482-.458-.723-.77-.737-.6.028-1.314a40.965,40.965,0,0,1,7.55-5.814c1.957-1.123,3.965-2.163,6-3.145A4.47,4.47,0,0,1,408.47,211.1Z" fill="#fff" stroke="#fff" stroke-miterlimit="10" stroke-width="0.25"/>
          <path id="Path_378" data-name="Path 378" d="M386.934,231.261c1.4-1.812,2.744-3.677,4.223-5.426a43.453,43.453,0,0,1,8.81-7.84c.591-.4.6-.4.962.184.835,1.343.943.909-.413,1.984-1.694,1.343-3.41,2.674-4.974,4.16-1.509,1.434-2.839,3.058-4.239,4.6a1.9,1.9,0,0,0-.225.461,2.634,2.634,0,0,0,2.859-1.075c1.452-1.632,2.97-3.208,4.508-4.76a5.838,5.838,0,0,1,1.484-.952c.394-.205.618-.019.638.443,0,.019,0,.038,0,.056a2.014,2.014,0,0,1-.853,2,49.841,49.841,0,0,0-3.546,3.673,23.963,23.963,0,0,1-2.06,2.172,2.851,2.851,0,0,1-1.559.419c-1.482.1-2.969.117-4.455.162-.348.011-.7,0-1.044,0C387.011,231.436,386.972,231.349,386.934,231.261Z" fill="#fff" stroke="#fff" stroke-miterlimit="10" stroke-width="0.25"/>
          <path id="Path_379" data-name="Path 379" d="M470.612,266.294c-2.159-.792-4.174-1.529-6.188-2.27-.52-.192-1.037-.393-1.554-.6-.285-.112-.465-.278-.382-.634.088-.377.1-.776.215-1.142a.534.534,0,0,1,.476-.217c2.417.887,4.822,1.809,7.238,2.7.446.165.632.376.484.86C470.772,265.409,470.709,265.841,470.612,266.294Z" fill="#fff" stroke="#fff" stroke-miterlimit="10" stroke-width="0.25"/>
          <path id="Path_380" data-name="Path 380" d="M390.166,267.349a2.224,2.224,0,0,1,.327.45c.129.3.2.633.31.946.132.376-.151.462-.389.539-1.2.388-2.4.76-3.6,1.138-1.146.361-2.3.708-3.436,1.089-.485.162-.763.141-.953-.437-.37-1.126-.428-1.163.648-1.534,1.624-.561,3.274-1.045,4.915-1.557.617-.193,1.238-.374,1.857-.559C389.918,267.4,389.992,267.389,390.166,267.349Z" fill="#fff" stroke="#fff" stroke-miterlimit="10" stroke-width="0.25"/>
          <path id="Path_381" data-name="Path 381" d="M435.123,300.932c-.089-.118-.265-.244-.279-.387-.084-.847-.133-1.7-.189-2.549-.117-1.742-.217-3.485-.355-5.225a.606.606,0,0,1,.6-.755c.147-.022.293-.049.437-.085.75-.186.881-.084.925.679q.2,3.42.41,6.841c.062.973.075.973-.841,1.27C435.633,300.784,435.437,300.838,435.123,300.932Z" fill="#fff" stroke="#fff" stroke-miterlimit="10" stroke-width="0.25"/>
          <path id="Path_382" data-name="Path 382" d="M453.669,276.992l1.209-1.492c.443.34.878.645,1.27,1a.519.519,0,0,1,.023.491,4.086,4.086,0,0,1-.733.9.649.649,0,0,1-.608.07A12.02,12.02,0,0,1,453.669,276.992Z" fill="#fff" stroke="#fff" stroke-miterlimit="10" stroke-width="0.25"/>
          <path id="Path_383" data-name="Path 383" d="M453.984,279.684c-.428.456-.817.889-1.237,1.29-.041.04-.294-.092-.411-.19-1.257-1.045-1.26-.6-.289-1.927.278-.379.556-.445.917-.11.216.2.468.359.693.55A3.383,3.383,0,0,1,453.984,279.684Z" fill="#fff" stroke="#fff" stroke-miterlimit="10" stroke-width="0.25"/>
          <path id="Path_384" data-name="Path 384" d="M459.934,273.834c-.494-.282-.894-.514-1.3-.74-.283-.159-.358-.356-.146-.631.067-.086.1-.2.17-.282.229-.3.534-.872.685-.835a5.221,5.221,0,0,1,1.4.738.368.368,0,0,1,.038.345C460.524,272.892,460.237,273.339,459.934,273.834Z" fill="#fff" stroke="#fff" stroke-miterlimit="10" stroke-width="0.25"/>
          <path id="Path_385" data-name="Path 385" d="M400.64,285.985c-.356.479-.669.928-1.019,1.347a.435.435,0,0,1-.416.05,6.369,6.369,0,0,1-1-.772.54.54,0,0,1-.076-.512c.263-.416.588-.793.939-1.248Z" fill="#fff" stroke="#fff" stroke-miterlimit="10" stroke-width="0.25"/>
          <path id="Path_386" data-name="Path 386" d="M461.064,255.462c.006-1.147-.136-.85,1.323-.951.614-.043.641.048.623,1.272-.01.684-.053.706-1.344.682C461.059,256.454,461.051,256.44,461.064,255.462Z" fill="#fff" stroke="#fff" stroke-miterlimit="10" stroke-width="0.25"/>
          <path id="Path_387" data-name="Path 387" d="M442.584,224.227c.206-.056.41-.119.618-.167.145-.034.3-.049.443-.073-.037-.168-.021-.388-.124-.493-.194-.2-.435-.4-.165-.626.134-.111.481-.053.689.033a4.739,4.739,0,0,1,.953.565.637.637,0,0,1,.253.428c0,.107-.2.214-.3.331-.115.137-.282.271-.314.429a.577.577,0,0,1-.961.417c-.349-.232-.714-.441-1.071-.661C442.6,224.349,442.592,224.288,442.584,224.227Z" fill="#fff" stroke="#fff" stroke-miterlimit="10" stroke-width="0.25"/>
          <path id="Path_388" data-name="Path 388" d="M461.891,251.243c.185-.013.3-.023.407-.029a2.058,2.058,0,0,1,.222-.005c.532.031.452.464.4.747-.079.4.412,1.013-.37,1.2a1.171,1.171,0,0,1-.222.005c-1.4.032-1.552-.135-1.3-1.547.026-.141.229-.295.384-.353A1.279,1.279,0,0,1,461.891,251.243Z" fill="#fff" stroke="#fff" stroke-miterlimit="10" stroke-width="0.25"/>
          <path id="Path_389" data-name="Path 389" d="M432.4,272.215a14.822,14.822,0,0,0-1.253-.935c-.423-.256-.651-.452-.455-1.035.42-1.25.385-1.289,1.537-.616a8.323,8.323,0,0,1,3.549,4.272c.034.086.067.172.105.256a1.839,1.839,0,0,1-.543,2.551c-.815-.289-1-1.044-1.218-1.737a.755.755,0,0,0-.849-.607c-3.959.033-7.918.049-11.877.084-1.207.01-2.414.053-3.621.1-.5.019-.741-.105-.711-.69.07-1.376-.216-1.292,1.345-1.3,2.879-.023,5.759-.062,8.638-.082.457,0,.61-.146.458-.605a1.418,1.418,0,0,0-1.493-1.087q-3.624,0-7.248.043c-.866.012-.862.044-.856-.829.005-.706.011-1.413,0-2.119-.007-.322.084-.5.438-.465a1.676,1.676,0,0,0,.223-.007c.974-.025.992-.026,1.059.925.031.435.263.514.626.509,1.412-.019,2.825-.061,4.237-.028a16.164,16.164,0,0,1,2.808.262,2.789,2.789,0,0,1,2.071,2.183c.359,1.2.325,1.213,1.606,1.192.441-.007.882,0,1.323,0C432.329,272.367,432.365,272.291,432.4,272.215Z" fill="#fff" stroke="#fff" stroke-miterlimit="10" stroke-width="0.25"/>
          <path id="Path_390" data-name="Path 390" d="M417.643,261.845c-1.764,0-3.529-.01-5.293.007-.423,0-.551-.14-.611-.564a5.051,5.051,0,0,1,3.7-5.538c.2-.065.329-.3.521-.4a1.82,1.82,0,0,1,.728-.24c.971-.03.972-.014.971.938q0,1.728,0,3.456c0,.356,0,.65.513.654s.572-.277.565-.67c-.027-1.615-.032-3.231-.085-4.846-.017-.513.167-.637.644-.621,1.022.034,1.048-.176,1.048,1.07,0,1.449.033,2.9.026,4.347,0,.491.146.693.674.683.58-.01.554-.358.549-.745q-.047-3.871-.084-7.744c0-.147.084-.416.148-.422a13.308,13.308,0,0,1,1.634-.05c.064,0,.169.272.171.418.031,3.214.047,6.428.072,9.642,0,.38-.161.521-.541.519-1.783-.012-3.566-.005-5.349-.005C417.643,261.772,417.643,261.808,417.643,261.845Zm-1.691-4.511a3.313,3.313,0,0,0-2.473,2.174c-.155.514-.047.665.445.664.536,0,1.073,0,1.607-.033.145-.01.4-.148.4-.234C415.965,259.084,415.952,258.262,415.952,257.334Z" fill="#fff" stroke="#fff" stroke-miterlimit="10" stroke-width="0.25"/>
          <path id="Path_391" data-name="Path 391" d="M423.525,240.958c0,1.654-.011,3.309.008,4.963.005.427-.112.581-.564.581q-4.99,0-9.981.049c-.509.005-.633-.164-.683-.661a4.527,4.527,0,0,1,3.112-4.721c.486-.172,1.015-.335.857-1.066-.02-.094.194-.334.318-.348a5,5,0,0,1,1.276-.006c.131.019.311.323.315.5q.048,1.867.022,3.736c-.006.461.162.63.619.61.742-.033,1.487-.049,2.23-.028.432.012.555-.184.55-.564q-.047-3.456-.087-6.912c-.005-.427-.011-.855-.024-1.282-.01-.328.129-.447.466-.461,1.439-.058,1.47-.069,1.508,1.318.039,1.43.009,2.862.009,4.293Zm-8.966,3.618c.523,0,1,.009,1.473-.009.079,0,.217-.119.22-.188.021-.427.01-.855.01-1.3A2,2,0,0,0,414.559,244.576Z" fill="#fff" stroke="#fff" stroke-miterlimit="10" stroke-width="0.25"/>
          <path id="Path_392" data-name="Path 392" d="M433.3,255.19c.528-.745.88-1.313,1.3-1.822.846-1.022,1.727-2.014,2.6-3.012.3-.343.574-.262.8.1.07.109.152.21.228.315.609.836.6.827-.152,1.509a15.326,15.326,0,0,0-3.265,4.505.657.657,0,0,0,.027.55,14.51,14.51,0,0,1,1.934,5.106c.1.5-.317.451-.622.453-1.411.01-2.823.009-4.234.015-.334,0-.669,0-1,.027-.453.035-.575-.169-.442-.569q.611-1.842,1.23-3.681a1.872,1.872,0,0,1,.225-.617c.614-.717.261-1.28-.24-1.837-1.112-1.237-2.212-2.485-3.345-3.7-.252-.271-.259-.455-.028-.7.1-.107.2-.212.3-.322.726-.8.746-.823,1.505-.012.973,1.04,1.913,2.112,2.86,3.177A3.745,3.745,0,0,1,433.3,255.19Zm.44,4.289-.187-.008c-.147.369-.3.735-.431,1.111-.027.079.047.277.084.28.3.022.613.011.92.011a2.417,2.417,0,0,0-.032-.6A6.467,6.467,0,0,0,433.742,259.479Z" fill="#fff" stroke="#fff" stroke-miterlimit="10" stroke-width="0.25"/>
          <path id="Path_393" data-name="Path 393" d="M433.562,246.432H431c-.6,0-.683-.06-.486-.647.506-1.509,1.036-3.012,1.613-4.5a.991.991,0,0,0-.148-1.161c-1.182-1.326-2.342-2.672-3.546-3.977-.33-.358-.33-.561,0-.908.931-.977.934-1.009,1.87-.018s1.816,2,2.712,3.01c.324.365.473.364.74-.092a16.808,16.808,0,0,1,3.087-3.909c.082-.075.158-.157.244-.227.556-.451.62-.443,1.043.117.688.912.7.929-.122,1.726a18.759,18.759,0,0,0-3.042,4.087,1.01,1.01,0,0,0-.007,1.18,10.923,10.923,0,0,1,1.672,4.368,1.582,1.582,0,0,0,.075.267c.162.495.078.62-.465.625-.892.009-1.784,0-2.675,0A.451.451,0,0,0,433.562,246.432Zm.1-3.579c-.2.45-.366.754-.477,1.076-.043.125,0,.407.051.417a2.947,2.947,0,0,0,.853.056.658.658,0,0,0,.082-.465A10.883,10.883,0,0,0,433.66,242.853Z" fill="#fff" stroke="#fff" stroke-miterlimit="10" stroke-width="0.25"/>
          <path id="Path_394" data-name="Path 394" d="M437.409,277.7c.07-.162.087-.216.114-.263.243-.415.4-.99.759-1.194.3-.169.845.1,1.283.174a2.229,2.229,0,0,0,2.092-.632,1.007,1.007,0,0,0,.211-.635c0-.067-.315-.2-.486-.2-1.058-.01-2.118-.009-3.175.026a.632.632,0,0,1-.736-.562,5.8,5.8,0,0,1,.539-4.663,3.739,3.739,0,0,1,2.356-1.743c1.241-.308,2.379.511,2.861,1.956a16.431,16.431,0,0,1,.583,5.892,1.781,1.781,0,0,1-.452.986,4.358,4.358,0,0,1-5.035,1.272C438.012,278,437.715,277.841,437.409,277.7Zm3.013-4.7c.324,0,.621,0,.917,0,.312,0,.459-.16.4-.452-.129-.689-.243-1.385-.439-2.056-.166-.568-.547-.671-1.007-.286a2.518,2.518,0,0,0-.807.955,8.276,8.276,0,0,0-.25,1.673Z" fill="#fff" stroke="#fff" stroke-miterlimit="10" stroke-width="0.25"/>
          <path id="Path_395" data-name="Path 395" d="M411.62,274.628c-1.077,0-2.154-.015-3.23.008-.391.008-.537-.134-.532-.509a7.133,7.133,0,0,1,2.058-5.012,7.258,7.258,0,0,1,4.939-1.932c.445-.039.573.137.572.573q0,3.092.054,6.182c.009.476-.132.674-.631.662-1.076-.026-2.154-.008-3.231-.008C411.62,274.6,411.62,274.616,411.62,274.628Zm1.873-5.2a4.337,4.337,0,0,0-3.3,2.814c-.118.321.077.43.379.425.816-.014,1.632-.033,2.448-.023.382.005.48-.182.474-.514-.008-.5,0-1,0-1.5C413.493,270.227,413.493,269.832,413.493,269.423Z" fill="#fff" stroke="#fff" stroke-miterlimit="10" stroke-width="0.25"/>
          <path id="Path_396" data-name="Path 396" d="M426.557,240.9c0,1.652-.014,3.3.009,4.955.007.465-.094.658-.609.65-1.293-.019-1.3.007-1.314-1.27-.035-3.154-.055-6.308-.105-9.462-.008-.5.166-.645.642-.641,1.573.01,1.286-.053,1.3,1.262.012,1.5,0,3.005,0,4.508C426.505,240.9,426.531,240.9,426.557,240.9Z" fill="#fff" stroke="#fff" stroke-miterlimit="10" stroke-width="0.25"/>
          <path id="Path_397" data-name="Path 397" d="M442.2,256.253c0,1.617,0,3.233,0,4.85,0,.3-.079.451-.413.432a9,9,0,0,0-1.114.007c-.355.023-.445-.146-.446-.465q-.009-4.851-.036-9.7c0-.385.151-.519.53-.527,1.418-.028,1.416-.037,1.414,1.391q0,2.007,0,4.014Z" fill="#fff" stroke="#fff" stroke-miterlimit="10" stroke-width="0.25"/>
          <path id="Path_398" data-name="Path 398" d="M426.989,256.377c0,1.559-.017,3.118.01,4.676.008.471-.159.63-.608.625-1.463-.018-1.289.13-1.308-1.207-.04-2.877-.09-5.753-.128-8.63-.011-.821.051-.87.837-.855,1.113.021,1.114.021,1.115,1.158q0,2.116,0,4.233Z" fill="#fff" stroke="#fff" stroke-miterlimit="10" stroke-width="0.25"/>
        </g>
      </g>
    </g>
  </g>
</svg>
