<svg xmlns="http://www.w3.org/2000/svg" xmlns:xlink="http://www.w3.org/1999/xlink" width="85" height="85" viewBox="0 0 85 85"><defs><style>.a{fill:#d0d0d0;}.b{fill:#fff;stroke:#dedede;}.c{clip-path:url(#a);}.d{fill:#939595;}.e{fill:#ee7623;}.f{stroke:none;}.g{fill:none;}</style><clipPath id="a"><rect class="a" width="50" height="50" transform="translate(866 689)"/></clipPath></defs><g transform="translate(-848 -671)"><g class="b" transform="translate(848 671)"><rect class="f" width="85" height="85" rx="5"/><rect class="g" x="0.5" y="0.5" width="84" height="84" rx="4.5"/></g><g class="c"><g transform="translate(-92.926 459.222)"><path class="d" d="M47.57,30.385c-.179.531-3.309,9.12-4.353,11.976l0,0a.056.056,0,0,1-.006.018,1.418,1.418,0,0,1-1.232.882H40.309C41.322,40.49,43.657,34.092,45,30.385Z" transform="translate(931.496 217.954)"/><path class="e" d="M74.25,36.225l-1.072,2.942a1.441,1.441,0,0,1-1.244.92H70.152a4.761,4.761,0,0,0,.454-.92l1.074-2.941H69.1l-1.07,2.941a1.449,1.449,0,0,1-1.248.92H65a4.654,4.654,0,0,0,.453-.92l1.075-2.942H63.949l-1.072,2.942a1.445,1.445,0,0,1-1.246.92H53.4a4.516,4.516,0,0,0,.46-.9l.272-.754c.7-1.928-.3-3.5-2.224-3.5H48.975l-.934,2.577h2.933a.623.623,0,0,1,.585.919l-.286.754a1.42,1.42,0,0,1-1.241.9H45.8l-.936,2.577H71.011a5.478,5.478,0,0,0,4.737-3.478l1.081-2.96Z" transform="translate(932.096 218.554)"/><path class="e" d="M35.735,42.663H28.929l.938-2.577h6.806a1.456,1.456,0,0,0,1.255-.92l.267-.736a.623.623,0,0,0-.585-.919H33.382l.934-2.577h4.226c1.928,0,2.925,1.568,2.224,3.5l-.263.736a5.539,5.539,0,0,1-4.768,3.5" transform="translate(929.997 218.554)"/></g></g></g></svg>