<svg
              class="noborder"
              xmlns="http://www.w3.org/2000/svg"
              xmlns:xlink="http://www.w3.org/1999/xlink"
              width="24"
              height="24"
              viewBox="0 0 24 24"
            >
              <defs>
                <clipPath id="a">
                  <rect
                    class="a"
                    width="24"
                    height="24"
                    transform="translate(1501 382)"
                  />
                </clipPath>
              </defs>
              <g class="b" transform="translate(-1501 -382)">
                <g transform="translate(1501 382)">
                  <path
                    class="a"
                    d="M8.039,5.222a4.152,4.152,0,0,0,.125-1.638A4.05,4.05,0,0,0,7,1.2,4.124,4.124,0,0,0,6.444.734,4.067,4.067,0,0,0,4.1,0a4.146,4.146,0,0,0-.722.063.694.694,0,0,0-.537.453.7.7,0,0,0,.126.694L4.283,2.753l-1.53,1.53L1.211,2.972a.7.7,0,0,0-.695-.126.694.694,0,0,0-.453.537A4.143,4.143,0,0,0,0,4.1,4.068,4.068,0,0,0,.734,6.444,4.126,4.126,0,0,0,1.2,7,4.05,4.05,0,0,0,3.583,8.164a4.153,4.153,0,0,0,1.638-.125l3.132,3.132,2.817-2.817Z"
                  />
                  <path
                    class="a"
                    d="M15.961,18.778a4.152,4.152,0,0,0-.125,1.638A4.05,4.05,0,0,0,17,22.8a4.123,4.123,0,0,0,.554.464A4.068,4.068,0,0,0,19.9,24a4.143,4.143,0,0,0,.722-.063.7.7,0,0,0,.411-1.148l-1.311-1.542,1.53-1.53,1.542,1.311a.7.7,0,0,0,1.148-.411A4.141,4.141,0,0,0,24,19.9a4.068,4.068,0,0,0-.734-2.339A4.127,4.127,0,0,0,22.8,17a4.05,4.05,0,0,0-2.385-1.166,4.153,4.153,0,0,0-1.638.125l-3.132-3.132-2.817,2.817Z"
                  />
                  <path
                    class="a"
                    d="M23.793,1.8,22.2.207a.7.7,0,0,0-.875-.1L18.047,2.2a.706.706,0,0,0-.312.455L17.454,4.06,8.86,12.654l2.486,2.486L19.94,6.546l1.406-.281a.706.706,0,0,0,.455-.312l2.088-3.281a.7.7,0,0,0-.1-.875Z"
                  />
                  <path
                    class="a"
                    d="M11.761,17.542l-5.3-5.3a.7.7,0,0,0-.994.994l.166.166L1.028,18A3.516,3.516,0,0,0,6,22.972l4.6-4.6.166.166a.7.7,0,1,0,.994-.994Zm-4.687.378L3.5,21.5A.7.7,0,0,1,2.5,20.5l3.578-3.578a.7.7,0,0,1,.994.994Z"
                  />
                </g>
              </g>
            </svg>