<?xml version="1.0" encoding="utf-8"?>
<!-- Generator: Adobe Illustrator 19.0.0, SVG Export Plug-In . SVG Version: 6.00 Build 0)  -->
<svg version="1.1" id="Layer_1" xmlns="http://www.w3.org/2000/svg" xmlns:xlink="http://www.w3.org/1999/xlink" x="0px" y="0px"
	 viewBox="0 0 440 14.19" style="enable-background:new 0 0 440 14.19;" xml:space="preserve">
<g id="XMLID_33_">
	
		<rect id="XMLID_34_" x="2.08" y="2.08" transform="matrix(-0.7071 -0.7071 0.7071 -0.7071 7.0968 17.1332)" style="fill:#FFFFFF;" width="10.04" height="10.04"/>
	
		<rect id="XMLID_35_" x="16.27" y="2.08" transform="matrix(-0.7071 -0.7071 0.7071 -0.7071 31.3267 27.1696)" style="fill:#FFFFFF;" width="10.04" height="10.04"/>
	
		<rect id="XMLID_36_" x="30.47" y="2.08" transform="matrix(-0.7071 -0.7071 0.7071 -0.7071 55.5566 37.2059)" style="fill:#FFFFFF;" width="10.04" height="10.04"/>
	
		<rect id="XMLID_37_" x="44.66" y="2.08" transform="matrix(-0.7071 -0.7071 0.7071 -0.7071 79.7866 47.2421)" style="fill:#FFFFFF;" width="10.04" height="10.04"/>
	
		<rect id="XMLID_38_" x="58.85" y="2.08" transform="matrix(-0.7071 -0.7071 0.7071 -0.7071 104.0164 57.2786)" style="fill:#FFFFFF;" width="10.04" height="10.04"/>
	
		<rect id="XMLID_39_" x="73.05" y="2.08" transform="matrix(-0.7071 -0.7071 0.7071 -0.7071 128.2463 67.315)" style="fill:#FFFFFF;" width="10.04" height="10.04"/>
	
		<rect id="XMLID_40_" x="87.24" y="2.08" transform="matrix(-0.7071 -0.7071 0.7071 -0.7071 152.4762 77.3513)" style="fill:#FFFFFF;" width="10.04" height="10.04"/>
	
		<rect id="XMLID_41_" x="101.43" y="2.08" transform="matrix(-0.7071 -0.7071 0.7071 -0.7071 176.7064 87.3874)" style="fill:#FFFFFF;" width="10.04" height="10.04"/>
	
		<rect id="XMLID_42_" x="115.63" y="2.08" transform="matrix(-0.7071 -0.7071 0.7071 -0.7071 200.936 97.424)" style="fill:#FFFFFF;" width="10.04" height="10.04"/>
	
		<rect id="XMLID_43_" x="129.82" y="2.08" transform="matrix(-0.7071 -0.7071 0.7071 -0.7071 225.1659 107.4604)" style="fill:#FFFFFF;" width="10.04" height="10.04"/>
	
		<rect id="XMLID_44_" x="144.01" y="2.08" transform="matrix(-0.7071 -0.7071 0.7071 -0.7071 249.3958 117.4967)" style="fill:#FFFFFF;" width="10.04" height="10.04"/>
	
		<rect id="XMLID_45_" x="158.21" y="2.08" transform="matrix(-0.7071 -0.7071 0.7071 -0.7071 273.6262 127.5326)" style="fill:#FFFFFF;" width="10.04" height="10.04"/>
	
		<rect id="XMLID_46_" x="172.4" y="2.08" transform="matrix(-0.7071 -0.7071 0.7071 -0.7071 297.8556 137.5695)" style="fill:#FFFFFF;" width="10.04" height="10.04"/>
	
		<rect id="XMLID_47_" x="186.59" y="2.08" transform="matrix(-0.7071 -0.7071 0.7071 -0.7071 322.0855 147.6058)" style="fill:#FFFFFF;" width="10.04" height="10.04"/>
	
		<rect id="XMLID_48_" x="200.79" y="2.08" transform="matrix(-0.7071 -0.7071 0.7071 -0.7071 346.3154 157.6422)" style="fill:#FFFFFF;" width="10.04" height="10.04"/>
	
		<rect id="XMLID_49_" x="214.98" y="2.08" transform="matrix(-0.7071 -0.7071 0.7071 -0.7071 370.546 167.6779)" style="fill:#FFFFFF;" width="10.04" height="10.04"/>
	
		<rect id="XMLID_50_" x="229.18" y="2.08" transform="matrix(-0.7071 -0.7071 0.7071 -0.7071 394.7752 177.7149)" style="fill:#FFFFFF;" width="10.04" height="10.04"/>
	
		<rect id="XMLID_51_" x="243.37" y="2.08" transform="matrix(-0.7071 -0.7071 0.7071 -0.7071 419.0052 187.7512)" style="fill:#FFFFFF;" width="10.04" height="10.04"/>
	
		<rect id="XMLID_52_" x="257.56" y="2.08" transform="matrix(-0.7071 -0.7071 0.7071 -0.7071 443.235 197.7876)" style="fill:#FFFFFF;" width="10.04" height="10.04"/>
	
		<rect id="XMLID_53_" x="271.76" y="2.08" transform="matrix(-0.7071 -0.7071 0.7071 -0.7071 467.4658 207.8231)" style="fill:#FFFFFF;" width="10.04" height="10.04"/>
	
		<rect id="XMLID_54_" x="285.95" y="2.08" transform="matrix(-0.7071 -0.7071 0.7071 -0.7071 491.6948 217.8603)" style="fill:#FFFFFF;" width="10.04" height="10.04"/>
	
		<rect id="XMLID_55_" x="300.14" y="2.08" transform="matrix(-0.7071 -0.7071 0.7071 -0.7071 515.9247 227.8967)" style="fill:#FFFFFF;" width="10.04" height="10.04"/>
	
		<rect id="XMLID_56_" x="314.34" y="2.08" transform="matrix(-0.7071 -0.7071 0.7071 -0.7071 540.1547 237.933)" style="fill:#FFFFFF;" width="10.04" height="10.04"/>
	
		<rect id="XMLID_57_" x="328.53" y="2.08" transform="matrix(-0.7071 -0.7071 0.7071 -0.7071 564.3856 247.9684)" style="fill:#FFFFFF;" width="10.04" height="10.04"/>
	
		<rect id="XMLID_58_" x="342.72" y="2.08" transform="matrix(-0.7071 -0.7071 0.7071 -0.7071 588.6144 258.0057)" style="fill:#FFFFFF;" width="10.04" height="10.04"/>
	
		<rect id="XMLID_59_" x="356.92" y="2.08" transform="matrix(-0.7071 -0.7071 0.7071 -0.7071 612.8444 268.0421)" style="fill:#FFFFFF;" width="10.04" height="10.04"/>
	
		<rect id="XMLID_60_" x="371.11" y="2.08" transform="matrix(-0.7071 -0.7071 0.7071 -0.7071 637.0743 278.0784)" style="fill:#FFFFFF;" width="10.04" height="10.04"/>
	
		<rect id="XMLID_61_" x="385.3" y="2.08" transform="matrix(-0.7071 -0.7071 0.7071 -0.7071 661.3054 288.1136)" style="fill:#FFFFFF;" width="10.04" height="10.04"/>
	
		<rect id="XMLID_62_" x="399.5" y="2.08" transform="matrix(-0.7071 -0.7071 0.7071 -0.7071 685.5341 298.1511)" style="fill:#FFFFFF;" width="10.04" height="10.04"/>
	
		<rect id="XMLID_63_" x="413.69" y="2.08" transform="matrix(-0.7071 -0.7071 0.7071 -0.7071 709.764 308.1875)" style="fill:#FFFFFF;" width="10.04" height="10.04"/>
	
		<rect id="XMLID_64_" x="427.89" y="2.08" transform="matrix(0.7071 -0.7071 0.7071 0.7071 121.7775 308.1888)" style="fill:#FFFFFF;" width="10.04" height="10.04"/>
</g>
</svg>
