<svg
              version="1.1"
              id="Layer_1"
              xmlns="http://www.w3.org/2000/svg"
              xmlns:xlink="http://www.w3.org/1999/xlink"
              width="24"
              height="24"
              viewBox="0 0 24 24"
              style="enable-background:new 0 0 24 24;"
              xml:space="preserve"
            >
              <g>
                <path
                  d="M12.28,0.05c0.35,0.15,0.73,0.26,1.06,0.46c0.38,0.23,0.61,0.61,0.78,1.03c0.51,0,1.01,0,1.52,0
           c0.55,0,0.85,0.29,0.85,0.85c0,0.93,0,1.85,0,2.78c0,0.56-0.29,0.86-0.84,0.86c-2.43,0-4.85,0-7.28,0c-0.55,0-0.84-0.3-0.84-0.86
           c0-0.93,0-1.85,0-2.78c0-0.56,0.29-0.85,0.85-0.85c0.5,0,1.01,0,1.52,0c0.26-0.65,0.7-1.11,1.35-1.35c0.16-0.06,0.33-0.1,0.49-0.14
           C11.91,0.05,12.09,0.05,12.28,0.05z"
                />
                <path
                  d="M17.98,3.04c0.54,0,1.03-0.01,1.53,0c0.82,0.03,1.41,0.63,1.45,1.44c0,0.06,0,0.12,0,0.19
           c0,5.88,0,11.76,0,17.65c0,0.65-0.23,1.18-0.83,1.47c-0.22,0.11-0.49,0.16-0.74,0.16c-4.93,0.01-9.87,0.01-14.8,0.01
           c-0.93,0-1.56-0.63-1.56-1.55c0-5.94,0-11.87,0-17.81c0-0.91,0.64-1.54,1.54-1.55c0.47-0.01,0.95,0,1.44,0c0,0.3,0,0.59,0,0.87
           C6.03,4.44,6,4.97,6.05,5.5C6.18,6.68,7.07,7.5,8.26,7.51c2.49,0.02,4.98,0.02,7.47,0c1.29-0.01,2.23-0.99,2.24-2.29
           c0.01-0.65,0-1.29,0-1.94C17.98,3.21,17.98,3.13,17.98,3.04z M8.29,11.74c-0.35-0.36-0.64-0.66-0.94-0.96
           c-0.35-0.34-0.79-0.36-1.1-0.06c-0.32,0.31-0.3,0.76,0.05,1.12c0.45,0.46,0.91,0.91,1.37,1.37c0.39,0.38,0.8,0.39,1.18,0
           c0.96-0.96,1.92-1.91,2.87-2.87c0.35-0.35,0.37-0.8,0.05-1.12c-0.31-0.3-0.75-0.28-1.1,0.06c-0.74,0.73-1.48,1.47-2.21,2.21
           C8.4,11.56,8.36,11.64,8.29,11.74z M8.29,17.65c-0.04-0.01-0.05-0.01-0.05-0.02c-0.3-0.3-0.61-0.6-0.91-0.9
           c-0.2-0.2-0.44-0.29-0.72-0.22c-0.58,0.14-0.77,0.82-0.34,1.27c0.45,0.47,0.92,0.93,1.38,1.39c0.42,0.42,0.82,0.42,1.23,0.01
           c0.73-0.72,1.45-1.45,2.18-2.18c0.25-0.25,0.5-0.49,0.74-0.75c0.39-0.43,0.19-1.09-0.38-1.23c-0.3-0.07-0.54,0.05-0.75,0.26
           C9.87,16.06,9.08,16.86,8.29,17.65z M15.76,10.51c-0.48,0-0.96,0-1.45,0c-0.48,0-0.81,0.31-0.82,0.74c0,0.43,0.33,0.75,0.8,0.75
           c0.96,0,1.91,0,2.87,0c0.47,0,0.81-0.32,0.81-0.75c0-0.43-0.34-0.74-0.82-0.74C16.69,10.5,16.22,10.51,15.76,10.51z M15.73,17.98
           c0.48,0,0.96,0,1.45,0c0.46,0,0.79-0.31,0.8-0.74c0-0.43-0.33-0.75-0.8-0.75c-0.96,0-1.91,0-2.87,0c-0.48,0-0.81,0.32-0.81,0.75
           c0,0.43,0.34,0.74,0.81,0.74C14.78,17.98,15.26,17.98,15.73,17.98z"
                />
              </g>
            </svg>