<svg xmlns="http://www.w3.org/2000/svg" xmlns:xlink="http://www.w3.org/1999/xlink" width="85" height="85" viewBox="0 0 85 85"><defs><style>.a{fill:#d0d0d0;}.b{fill:#fff;stroke:#dedede;}.c{clip-path:url(#a);}.d{clip-path:url(#b);}.e{fill:url(#c);}.f{stroke:none;}.g{fill:none;}</style><clipPath id="a"><rect class="a" width="50" height="50" transform="translate(866 689)"/></clipPath><clipPath id="b"><path d="M207.066-45.26c-.029,2.249,2,3.5,3.536,4.25,1.573.766,2.1,1.257,2.1,1.941-.012,1.048-1.255,1.51-2.419,1.528a8.44,8.44,0,0,1-4.148-.986L205.4-35.1a12.165,12.165,0,0,0,4.492.829c4.243,0,7.019-2.094,7.034-5.342.016-4.121-5.7-4.35-5.662-6.192.014-.559.547-1.155,1.715-1.306a7.6,7.6,0,0,1,3.983.7l.71-3.311a10.828,10.828,0,0,0-3.781-.694c-3.994,0-6.8,2.123-6.825,5.162m17.43-4.877a1.841,1.841,0,0,0-1.719,1.146l-6.061,14.472h4.24l.844-2.332h5.181l.489,2.332h3.737l-3.261-15.618H224.5m.593,4.219,1.224,5.865h-3.351l2.128-5.865m-23.164-4.219-3.342,15.618h4.04l3.341-15.618h-4.039m-5.977,0-4.205,10.63-1.7-9.038a1.883,1.883,0,0,0-1.863-1.591H181.3l-.1.453a16.82,16.82,0,0,1,3.986,1.329,1.71,1.71,0,0,1,.959,1.372l3.222,12.463h4.27l6.546-15.618h-4.243"/></clipPath><linearGradient id="c" y1="0.373" x2="0.008" y2="0.373" gradientUnits="objectBoundingBox"><stop offset="0" stop-color="#222357"/><stop offset="1" stop-color="#254aa5"/></linearGradient></defs><g transform="translate(-848 -671)"><g class="b" transform="translate(848 671)"><rect class="f" width="85" height="85" rx="5"/><rect class="g" x="0.5" y="0.5" width="84" height="84" rx="4.5"/></g><g class="c"><g transform="translate(832.395 651.969)"><g transform="translate(-147.602 104.38)"><g class="d"><g transform="translate(175.971 -48.494)"><path class="e" d="M0,0,49.265-18.143,60.472,12.29,11.208,30.433"/></g></g></g></g></g></g></svg>