<svg xmlns="http://www.w3.org/2000/svg" xmlns:xlink="http://www.w3.org/1999/xlink" width="24" height="24" viewBox="0 0 24 24"><defs><style>.a{fill:#fff;}.b{clip-path:url(#a);}</style><clipPath id="a"><rect class="a" width="24" height="24" transform="translate(877 674)"/></clipPath></defs><g class="b" transform="translate(-877 -674)"><g transform="translate(877 674)"><path class="a" d="M15.389,0H8.611A2.59,2.59,0,0,0,6.218,1.606H17.782A2.59,2.59,0,0,0,15.389,0Z"/><path class="a" d="M18.4,3.013H5.6A2.589,2.589,0,0,0,3.013,5.6V23.3a.7.7,0,0,0,.7.7H8.284V20.661a2.589,2.589,0,0,1,2.586-2.586H13.13a2.589,2.589,0,0,1,2.586,2.586V24h4.569a.7.7,0,0,0,.7-.7V5.6A2.589,2.589,0,0,0,18.4,3.013ZM7.978,16.263a.7.7,0,1,1,.206-.5A.708.708,0,0,1,7.978,16.263Zm0-3.013a.7.7,0,1,1,.206-.5A.706.706,0,0,1,7.978,13.25Zm0-3.012a.7.7,0,1,1,.206-.5A.709.709,0,0,1,7.978,10.238Zm0-3.013a.7.7,0,1,1,.206-.5A.708.708,0,0,1,7.978,7.225Zm3.012,9.038a.7.7,0,1,1,.206-.5A.708.708,0,0,1,10.991,16.263Zm0-3.013a.7.7,0,1,1,.206-.5.708.708,0,0,1-.206.5Zm0-3.012a.7.7,0,1,1,.206-.5.709.709,0,0,1-.206.5Zm0-3.013a.7.7,0,1,1,.206-.5.709.709,0,0,1-.206.5ZM14,16.263a.7.7,0,1,1,.206-.5A.709.709,0,0,1,14,16.263Zm0-3.013a.7.7,0,1,1,.206-.5A.707.707,0,0,1,14,13.25Zm-1.2-3.51a.7.7,0,1,1,.206.5A.709.709,0,0,1,12.8,9.741ZM14,7.225a.7.7,0,1,1,.206-.5A.707.707,0,0,1,14,7.225Zm3.013,9.038a.7.7,0,1,1,.206-.5A.708.708,0,0,1,17.016,16.263Zm0-3.013a.7.7,0,1,1,.206-.5A.707.707,0,0,1,17.016,13.25Zm0-3.012a.7.7,0,1,1,.206-.5A.709.709,0,0,1,17.016,10.238Zm0-3.013a.7.7,0,1,1,.206-.5A.709.709,0,0,1,17.016,7.225Z"/><path class="a" d="M13.13,19.481H12.7V24h1.606V20.661A1.181,1.181,0,0,0,13.13,19.481Z"/><path class="a" d="M9.691,20.661V24H11.3V19.481H10.87A1.181,1.181,0,0,0,9.691,20.661Z"/></g></g></svg>