<svg xmlns="http://www.w3.org/2000/svg" xmlns:xlink="http://www.w3.org/1999/xlink" width="24" height="24" viewBox="0 0 24 24"><defs><style>.a{fill:#cfcfcf;}.b{clip-path:url(#a);}</style><clipPath id="a"><rect class="a" width="24" height="24" transform="translate(1501 382)"/></clipPath></defs><g class="b" transform="translate(-1501 -382)"><g transform="translate(1501 382)"><path class="a" d="M24,13.1a3.146,3.146,0,0,0-.3-1.335c-.02-.1-.043-.21-.071-.316L21.545,6.286l-.014-.046c-.729-2.172-1.767-4.182-4.4-4.182H7.07c-2.7,0-3.649,2.06-4.395,4.17L.494,11.406A3.188,3.188,0,0,0,0,13.1v1.608a3.126,3.126,0,0,0,.085.726A1.264,1.264,0,0,0,0,15.892v4.782a1.27,1.27,0,0,0,1.27,1.27H3.9a1.27,1.27,0,0,0,1.269-1.27V18.282h13.8v2.391a1.27,1.27,0,0,0,1.27,1.27H22.73A1.27,1.27,0,0,0,24,20.673V15.891a1.271,1.271,0,0,0-.085-.454A3.14,3.14,0,0,0,24,14.711V13.1h0ZM4.222,6.746C5.052,4.4,5.72,3.689,7.07,3.689H17.131c1.34,0,2.086.8,2.845,3.047L21.5,9.819a4.656,4.656,0,0,0-1.618-.286H4.12a4.678,4.678,0,0,0-1.467.234Zm1.307,8.576H2.749a.907.907,0,0,1,0-1.813h2.78a.907.907,0,0,1,0,1.813Zm9.82-.182H8.883a.574.574,0,0,1,0-1.148h6.466a.574.574,0,1,1,0,1.148Zm5.831.182H18.4a.907.907,0,0,1,0-1.813h2.78a.907.907,0,1,1,0,1.813Z"/></g></g></svg>