<svg width="512" height="512"
  xmlns="http://www.w3.org/2000/svg">
  <!-- Created with UXWing SVG Editor - https://uxwing.com/svg-icon-editor/ -->

  <g>
    <title>background</title>
    <rect fill="none" id="canvas_background" height="514" width="514" y="-1" x="-1"/>
    <g display="none" overflow="visible" y="0" x="0" height="100%" width="100%" id="canvasGrid">
      <rect fill="url(#gridpattern)" stroke-width="0" y="0" x="0" height="100%" width="100%"/>
    </g>
  </g>
  <g>
    <title>Layer 1</title>
    <g stroke="null" id="svg_6">
      <path fill="#FFB349" stroke-width="0" id="svg_8" d="m74.24421,-2.99998l263.61874,0c20.96715,0 40.0282,7.99549 53.85855,20.92084c13.83034,12.92536 22.38565,30.73915 22.38565,50.33432l0,158.91558c0,19.59517 -8.55531,37.40896 -22.38565,50.33432c-13.83035,12.92535 -32.8914,20.92085 -53.85855,20.92085l-131.83154,0l-115.78479,93.00456c-5.36369,4.30845 -13.47572,3.72846 -18.08583,-1.32568c-2.26073,-2.48565 -3.28027,-5.55128 -3.05863,-8.57548l6.16159,-83.14483l-1.01954,0c-20.96716,0 -40.02821,-7.99549 -53.85855,-20.92085c-13.83034,-12.88393 -22.38565,-30.69772 -22.38565,-50.29289l0,-158.91558c0,-19.59517 8.55531,-37.40896 22.38565,-50.33432c13.78602,-12.92535 32.84707,-20.92084 53.85855,-20.92084l0,0zm377.27579,115.91392c14.93854,2.69278 28.3256,9.56973 38.69836,19.26375c13.52005,12.63536 21.94237,30.07631 21.94237,49.29863l0,158.91558c0,19.22233 -8.378,36.66327 -21.94237,49.29863c-13.52005,12.63537 -32.18214,20.50658 -52.75035,20.50658l-2.70401,0l6.29458,84.67764l0,0c0.17732,2.65136 -0.66492,5.38557 -2.65968,7.53979c-4.03385,4.43274 -11.17066,4.92987 -15.86943,1.15997l-116.22807,-96.11161l-153.10899,0l75.40197,-71.66944l159.75819,0c34.84182,0 63.38907,-26.63783 63.38907,-59.24121l0,-158.95701c-0.04433,-1.57424 -0.08866,-3.14849 -0.22164,-4.6813l0,0zm-339.68563,65.04105c-7.09248,0 -12.85513,-5.38557 -12.85513,-12.01395c0,-6.62839 5.76265,-12.01396 12.85513,-12.01396l134.53554,0c7.09249,0 12.85513,5.38557 12.85513,12.01396c0,6.62838 -5.76264,12.01395 -12.85513,12.01395l-134.53554,0l0,0zm0,-59.48978c-7.09248,0 -12.85513,-5.38556 -12.85513,-12.01395c0,-6.62839 5.76265,-12.01395 12.85513,-12.01395l190.69915,0c7.09248,0 12.85512,5.38556 12.85512,12.01395c0,6.62839 -5.76264,12.01395 -12.85512,12.01395l-190.69915,0l0,0zm225.98425,-97.43729l-263.57441,0c-13.87467,0 -26.50816,5.30271 -35.68406,13.87819c-9.1759,8.57547 -14.84989,20.34086 -14.84989,33.34907l0,158.91558c0,12.96679 5.67399,24.7736 14.84989,33.34908c9.1759,8.57547 21.80939,13.87818 35.68406,13.87818l14.80556,0l0,0.04143l0.84223,0.04143c7.04815,0.4557 12.41184,6.17268 11.92424,12.75964l-5.00907,67.36099l95.48256,-76.72358c2.30506,-2.15423 5.49667,-3.47991 9.04291,-3.47991l136.48598,0c13.87467,0 26.50816,-5.30271 35.68406,-13.87818c9.1759,-8.57548 14.84989,-20.38229 14.84989,-33.34908l0,-158.91558c0,-12.96678 -5.67399,-24.7736 -14.84989,-33.34907c-9.13157,-8.57548 -21.76506,-13.87819 -35.68406,-13.87819l0,0z"/>
    </g>
  </g>
</svg>