<svg xmlns="http://www.w3.org/2000/svg" xmlns:xlink="http://www.w3.org/1999/xlink" width="18" height="18" viewBox="0 0 18 18">
  <defs>
    <clipPath id="clip-path">
      <rect id="Rectangle_198" data-name="Rectangle 198" width="18" height="18" transform="translate(1527 14.001)" fill="#c0c0c3" stroke="#c0c0c3" stroke-width="1"/>
    </clipPath>
  </defs>
  <g id="email-icon" transform="translate(-1527 -14.001)" clip-path="url(#clip-path)">
    <g id="email" transform="translate(1527 14.001)">
      <g id="Group_377" data-name="Group 377">
        <g id="Group_376" data-name="Group 376">
          <path id="Path_60536" data-name="Path 60536" d="M11.932,9.092,18,12.928V5.094Z" fill="#c0c0c3"/>
        </g>
      </g>
      <g id="Group_379" data-name="Group 379">
        <g id="Group_378" data-name="Group 378">
          <path id="Path_60537" data-name="Path 60537" d="M0,5.094v7.834L6.068,9.092Z" fill="#c0c0c3"/>
        </g>
      </g>
      <g id="Group_381" data-name="Group 381">
        <g id="Group_380" data-name="Group 380">
          <path id="Path_60538" data-name="Path 60538" d="M16.875,2.813H1.125A1.111,1.111,0,0,0,.034,3.77L9,9.677,17.966,3.77A1.111,1.111,0,0,0,16.875,2.813Z" fill="#c0c0c3"/>
        </g>
      </g>
      <g id="Group_383" data-name="Group 383">
        <g id="Group_382" data-name="Group 382">
          <path id="Path_60539" data-name="Path 60539" d="M10.9,9.772,9.309,10.82a.565.565,0,0,1-.619,0L7.1,9.771.036,14.238a1.109,1.109,0,0,0,1.089.95h15.75a1.109,1.109,0,0,0,1.089-.95Z" fill="#c0c0c3"/>
        </g>
      </g>
    </g>
  </g>
</svg>
