<svg xmlns="http://www.w3.org/2000/svg"
  xmlns:xlink="http://www.w3.org/1999/xlink" width="24" height="24" viewBox="0 0 24 24">
  <defs>
    <style>.a{fill:#3A5F62;}.b{clip-path:url(#a);}</style>
    <clipPath id="a">
      <rect class="a" width="24" height="24" transform="translate(600 32)"/>
    </clipPath>
  </defs>
  <g class="b" transform="translate(-600 -32)">
    <g transform="translate(600 32)">
      <path class="a" d="M18.984,17.189a2.444,2.444,0,0,1,.848-.151,3.294,3.294,0,0,1,1.439.329,9.791,9.791,0,0,0-5.3-5.909A7.006,7.006,0,0,1,12,12.686,7.671,7.671,0,0,1,18.984,17.189Z"/>
      <path class="a" d="M5.016,17.189A7.674,7.674,0,0,1,12,12.686a7.006,7.006,0,0,1-3.97-1.228,9.791,9.791,0,0,0-5.3,5.909,3.294,3.294,0,0,1,1.439-.329A2.444,2.444,0,0,1,5.016,17.189Z"/>
      <path class="a" d="M4.167,18.444a1.91,1.91,0,0,0-1.908,1.908v1.741A1.91,1.91,0,0,0,4.167,24,1.039,1.039,0,0,0,5.2,22.963V19.481A1.037,1.037,0,0,0,4.167,18.444Z"/>
      <path class="a" d="M9.66,21.055H6.611v1.908A2.428,2.428,0,0,1,6.379,24H11.3V22.692A2.454,2.454,0,0,1,9.66,21.055Z"/>
      <circle class="a" cx="1.037" cy="1.037" r="1.037" transform="translate(10.963 19.314)"/>
      <path class="a" d="M17.389,21.055H14.34A2.454,2.454,0,0,1,12.7,22.692V24h4.918a2.429,2.429,0,0,1-.232-1.037V21.055Z"/>
      <path class="a" d="M12,14.092a6.263,6.263,0,0,0-5.832,3.986,2.426,2.426,0,0,1,.443,1.4v.167H9.66a2.443,2.443,0,0,1,4.68,0h3.049v-.167a2.426,2.426,0,0,1,.443-1.4A6.263,6.263,0,0,0,12,14.092Z"/>
      <path class="a" d="M19.833,18.444A1.037,1.037,0,0,0,18.8,19.481v3.481A1.039,1.039,0,0,0,19.833,24a1.91,1.91,0,0,0,1.908-1.908V20.352a1.91,1.91,0,0,0-1.908-1.908Z"/>
      <path class="a" d="M12,11.28A5.64,5.64,0,1,0,6.36,5.64,5.646,5.646,0,0,0,12,11.28Zm-1.829-5.6a.7.7,0,0,1,.994,0,1.181,1.181,0,0,0,1.669,0,.7.7,0,0,1,.994.994,2.589,2.589,0,0,1-3.657,0A.7.7,0,0,1,10.171,5.679Z"/>
    </g>
  </g>
</svg>