<svg xmlns="http://www.w3.org/2000/svg"
  xmlns:xlink="http://www.w3.org/1999/xlink" width="18" height="18" viewBox="0 0 18 18">
  <defs>
    <style>.a,.c{fill:#FFFFFF;}.a{stroke:#3aa9c8;}.b{clip-path:url(#a);}</style>
    <clipPath id="a">
      <rect class="a" width="18" height="18" transform="translate(1527 14.001)"/>
    </clipPath>
  </defs>
  <g class="b" transform="translate(-1527 -14.001)">
    <g transform="translate(1527 14.001)">
      <path class="c" d="M11.932,9.092,18,12.928V5.094Z"/>
      <path class="c" d="M0,5.094v7.834L6.068,9.092Z"/>
      <path class="c" d="M16.875,2.813H1.125A1.111,1.111,0,0,0,.034,3.77L9,9.677,17.966,3.77A1.111,1.111,0,0,0,16.875,2.813Z"/>
      <path class="c" d="M10.9,9.772,9.309,10.82a.565.565,0,0,1-.619,0L7.1,9.771.036,14.238a1.109,1.109,0,0,0,1.089.95h15.75a1.109,1.109,0,0,0,1.089-.95Z"/>
    </g>
  </g>
</svg>