<svg xmlns="http://www.w3.org/2000/svg" width="14.001" height="14" viewBox="0 0 14.001 14"><defs><style>.a{fill:#A8A8A8;}</style></defs><g transform="translate(-0.002 -0.008)"><path class="a" d="M12.783,3.1,11.8,4.487a5.4,5.4,0,0,1,.383.914l-.226.068a.654.654,0,0,0-.44.745v.011a.657.657,0,0,0,.666.553l.237-.011a6.08,6.08,0,0,1-.034.9A5.4,5.4,0,0,1,12,9.09L11.791,9a.651.651,0,0,0-.812.271c-.011.011-.011.023-.022.034a.634.634,0,0,0,.169.835l.192.147A5.345,5.345,0,0,1,9.5,11.8l-.113-.214a.653.653,0,0,0-.812-.3H8.564a.655.655,0,0,0-.429.756l.056.237a5.342,5.342,0,0,1-1.85.09c-.169-.022-.338-.056-.508-.09l.045-.214a.649.649,0,0,0-.395-.745c-.011,0-.023-.011-.034-.011a.659.659,0,0,0-.824.293l-.113.2A5.419,5.419,0,0,1,2.72,10.286l.192-.147A.652.652,0,0,0,3.081,9.3c-.011-.011-.011-.022-.023-.034A.647.647,0,0,0,2.246,9l-.214.09a5.388,5.388,0,0,1-.417-2.324l.259.011a.64.64,0,0,0,.666-.542V6.224A.647.647,0,0,0,2.088,5.5L1.84,5.435A5.424,5.424,0,0,1,3.025,3.359l.169.158a.652.652,0,0,0,.857.023c.011-.011.023-.023.034-.023a.645.645,0,0,0,.124-.846l-.124-.2A5.238,5.238,0,0,1,6.3,1.655L6.33,1.9a.646.646,0,0,0,.643.564h.079A.646.646,0,0,0,7.7,1.9l.034-.259a6.582,6.582,0,0,1,.959.214L9.873.685,9.907.651,9.918.64A6.862,6.862,0,0,0,7.876.064a7,7,0,1,0,6.07,7.818,6.9,6.9,0,0,0-1.151-4.795C12.795,3.076,12.795,3.088,12.783,3.1Z" transform="translate(0 0)"/><path class="a" d="M51.247,17.465a1.359,1.359,0,0,0,.259,2.685h.034a1.346,1.346,0,0,0,1.354-1.331l2.482-3.52.835-1.185a.542.542,0,0,0-.011-.542.587.587,0,0,0-.271-.226.66.66,0,0,0-.2-.045.532.532,0,0,0-.361.147l-.97.948Z" transform="translate(-44.522 -11.794)"/></g></svg>