<svg xmlns="http://www.w3.org/2000/svg" xmlns:xlink="http://www.w3.org/1999/xlink" width="24" height="24" viewBox="0 0 24 24"><defs><style>.a{fill:#cfcfcf;}.b{clip-path:url(#a);}</style><clipPath id="a"><rect class="a" width="24" height="24" transform="translate(1501 382)"/></clipPath></defs><g class="b" transform="translate(-1501 -382)"><g transform="translate(1501 382)"><path class="a" d="M4.266,19.781H.412l3.854,3.807Z"/><path class="a" d="M23.3,4.266H20.484a.7.7,0,0,0-.7.7V7.078H24V4.969A.7.7,0,0,0,23.3,4.266Z"/><path class="a" d="M19.781,8.484H24v7.078H19.781Z"/><path class="a" d="M21.891,21.188a.7.7,0,0,0,.667-.481L23.8,16.969H19.978l1.246,3.738A.7.7,0,0,0,21.891,21.188Z"/><path class="a" d="M10.862,4.266H7.513l-.7,1.406h4.756Z"/><path class="a" d="M5.672,7.078H12.7V8.484H5.672Z"/><path class="a" d="M5.672,19.078V24h12a.7.7,0,0,0,.7-.7V.7a.7.7,0,0,0-.7-.7H.7A.7.7,0,0,0,0,.7V18.375H4.969A.7.7,0,0,1,5.672,19.078Zm9.188,2.109H7.781a.7.7,0,0,1,0-1.406h7.078a.7.7,0,0,1,0,1.406Zm0-2.812H7.781a.7.7,0,0,1,0-1.406h7.078a.7.7,0,0,1,0,1.406Zm-10.594-12a.7.7,0,0,1,.7-.7h.268L6.449,3.248a.7.7,0,0,1,.629-.389H11.3a.7.7,0,0,1,.629.389l1.212,2.424h.268a.7.7,0,0,1,.7.7V9.188a.7.7,0,0,1-.7.7h-.7v.7a.7.7,0,0,1-1.406,0v-.7H7.078v.7a.7.7,0,0,1-1.406,0v-.7h-.7a.7.7,0,0,1-.7-.7ZM2.859,14.859a.7.7,0,0,1,.7-.7h11.3a.7.7,0,0,1,0,1.406H3.563A.7.7,0,0,1,2.859,14.859Z"/></g></g></svg>