<svg xmlns="http://www.w3.org/2000/svg" xmlns:xlink="http://www.w3.org/1999/xlink" width="24" height="24" viewBox="0 0 24 24"><defs><style>.a{fill:#cfcfcf;}.b{clip-path:url(#a);}</style><clipPath id="a"><rect class="a" width="24" height="24" transform="translate(1501 382)"/></clipPath></defs><g class="b" transform="translate(-1501 -382)"><g transform="translate(1501 382)"><path class="a" d="M19.5,0H3.75l.063.03A3.342,3.342,0,0,0,.751,3.354V9h6V23.249a.75.75,0,0,0,1.029.7l3.471-1.389,3.471,1.389a.73.73,0,0,0,.556,0l3.472-1.389,3.471,1.389A.756.756,0,0,0,22.5,24a.751.751,0,0,0,.75-.75V3.75A3.754,3.754,0,0,0,19.5,0ZM6.75,4.5v3H2.25V3.354A1.857,1.857,0,0,1,4.1,1.5H4.9A1.857,1.857,0,0,1,6.75,3.354V4.5ZM19.5,18h-6a.75.75,0,1,1,0-1.5h6a.75.75,0,1,1,0,1.5Zm0-3h-6a.75.75,0,0,1,0-1.5h6a.75.75,0,1,1,0,1.5Zm0-3h-9a.75.75,0,0,1,0-1.5h9a.75.75,0,1,1,0,1.5Zm0-6h-9a.75.75,0,0,1,0-1.5h9a.75.75,0,1,1,0,1.5Z"/></g></g></svg>