<svg xmlns="http://www.w3.org/2000/svg" xmlns:xlink="http://www.w3.org/1999/xlink" width="120" height="120" viewBox="0 0 120 120">
  <defs>
    <clipPath id="clip-path">
      <rect id="Rectangle_157" data-name="Rectangle 157" width="120" height="120" transform="translate(1300 1552)" fill="#b9b9b9"/>
    </clipPath>
    <linearGradient id="linear-gradient" x1="0.5" y1="0.006" x2="0.5" y2="1.006" gradientUnits="objectBoundingBox">
      <stop offset="0" stop-color="#b4d5f2"/>
      <stop offset="0.503" stop-color="#d3e7f8"/>
      <stop offset="1" stop-color="#d6e8f8"/>
    </linearGradient>
    <linearGradient id="linear-gradient-2" x1="0.5" y1="0.581" x2="0.5" y2="1.581" gradientUnits="objectBoundingBox">
      <stop offset="0" stop-color="#FFB349"/>
      <stop offset="1" stop-color="#FFB349"/>
    </linearGradient>
  </defs>
  <g id="message-icon" transform="translate(-1300 -1552)" clip-path="url(#clip-path)">
    <g id="mail" transform="translate(1300.012 1552.006)">
      <path id="Path_128" data-name="Path 128" d="M116.474,98.663H3.515A3.511,3.511,0,0,1,0,95.148V24.841a3.511,3.511,0,0,1,3.515-3.515l56.01,7.5,56.948-7.5a3.511,3.511,0,0,1,3.515,3.515V95.148a3.511,3.511,0,0,1-3.515,3.515Z" fill="url(#linear-gradient)"/>
      <g id="Group_300" data-name="Group 300">
        <path id="Path_129" data-name="Path 129" d="M59.995,70.54a3.51,3.51,0,0,1-2.109-.7L1.406,27.654a3.51,3.51,0,0,1,2.109-6.328H116.474a3.51,3.51,0,0,1,2.086,6.328L62.1,69.837a3.51,3.51,0,0,1-2.109.7Z" fill="url(#linear-gradient-2)"/>
      </g>
    </g>
  </g>
</svg>
