<svg xmlns="http://www.w3.org/2000/svg" width="22" height="22" viewBox="0 0 22 22">
  <defs>
    <style>.a{fill:#FFB349;}</style>
  </defs>
  <path class="a" d="M21.4,10H13.6A1.6,1.6,0,0,0,12,11.6v9.625a1.6,1.6,0,0,0,1.6,1.6H21.4a1.6,1.6,0,0,0,1.6-1.6V11.6A1.6,1.6,0,0,0,21.4,10Zm-1.948,9.167H15.323a.688.688,0,1,1,0-1.375h4.125a.688.688,0,0,1,0,1.375Zm0-2.75H15.323a.688.688,0,0,1,0-1.375h4.125a.688.688,0,0,1,0,1.375Z" transform="translate(-1 -0.833)"/>
  <path class="a" d="M13.063,2.75H11.917V2.521a.688.688,0,0,0-.687-.687H10.217a2.521,2.521,0,0,0-4.851,0H4.354a.688.688,0,0,0-.688.688V2.75H2.521A2.523,2.523,0,0,0,0,5.271V16.729A2.523,2.523,0,0,0,2.521,19.25h7.1V10.771A2.983,2.983,0,0,1,12.6,7.792h2.979V5.271A2.523,2.523,0,0,0,13.063,2.75Zm-8.021.458h.917a.688.688,0,0,0,.688-.687,1.146,1.146,0,1,1,2.292,0,.688.688,0,0,0,.688.688h.917V4.354a.229.229,0,0,1-.229.229H5.271a.229.229,0,0,1-.229-.229Z"/>
</svg>