<svg xmlns="http://www.w3.org/2000/svg"
  xmlns:xlink="http://www.w3.org/1999/xlink" width="18" height="18" viewBox="0 0 18 18">
  <defs>
    <style>.a,.c{fill:#FFFFFF;}.a{stroke:#707070;}.b{clip-path:url(#a);}</style>
    <clipPath id="a">
      <rect class="a" width="18" height="18" transform="translate(1527 14)"/>
    </clipPath>
  </defs>
  <g class="b" transform="translate(-1527 -14)">
    <g transform="translate(1527 14)">
      <path class="c" d="M16.822,12.806a12.741,12.741,0,0,1-4.029-1.052,1.283,1.283,0,0,0-1.677.585l-.874,1.736A16.236,16.236,0,0,1,3.925,7.757L5.66,6.884a1.283,1.283,0,0,0,.588-1.677A12.648,12.648,0,0,1,5.194,1.178,1.28,1.28,0,0,0,3.921,0H.643A.643.643,0,0,0,0,.643a17.324,17.324,0,0,0,1.7,7.5,17.513,17.513,0,0,0,8.159,8.158A17.311,17.311,0,0,0,17.357,18,.643.643,0,0,0,18,17.357V14.079A1.279,1.279,0,0,0,16.822,12.806Z"/>
    </g>
  </g>
</svg>