<svg xmlns="http://www.w3.org/2000/svg" xmlns:xlink="http://www.w3.org/1999/xlink" width="24" height="24" viewBox="0 0 24 24"><defs><style>.a{fill:#cfcfcf;}.b{clip-path:url(#a);}</style><clipPath id="a"><rect class="a" width="24" height="24" transform="translate(1501 382)"/></clipPath></defs><g class="b" transform="translate(-1501 -382)"><path class="a" d="M20.189,0H3.811A3.815,3.815,0,0,0,0,3.811V20.189A3.815,3.815,0,0,0,3.811,24H20.189A3.815,3.815,0,0,0,24,20.189V3.811A3.815,3.815,0,0,0,20.189,0ZM19.2,18.445a.75.75,0,0,1-.75.75H5.555a.75.75,0,0,1-.75-.75V5.555a.75.75,0,0,1,.75-.75H18.445a.75.75,0,0,1,.75.75V8.4a.75.75,0,0,1-1.5,0V6.3H6.3V17.7H17.7V15.6a.75.75,0,1,1,1.5,0Zm-.22-5.915L17.12,14.386a.75.75,0,1,1-1.061-1.061l.575-.575H10.773a.75.75,0,0,1,0-1.5h5.861l-.575-.575A.75.75,0,0,1,17.12,9.614l1.856,1.856a.75.75,0,0,1,0,1.061Z" transform="translate(1501 382)"/></g></svg>