<svg xmlns="http://www.w3.org/2000/svg" xmlns:xlink="http://www.w3.org/1999/xlink" width="120" height="120" viewBox="0 0 120 120">
  <defs>
    <clipPath id="clip-path">
      <rect id="Rectangle_157" data-name="Rectangle 157" width="120" height="120" transform="translate(1300 1552)" fill="#b9b9b9"/>
    </clipPath>
    <linearGradient id="linear-gradient" x1="0.5" y1="0.006" x2="0.5" y2="1.006" gradientUnits="objectBoundingBox">
      <stop offset="0" stop-color="#FFB349"/>
      <stop offset="1" stop-color="#FFB349"/>
    </linearGradient>
    <linearGradient id="linear-gradient-2" x1="0.5" y1="0.01" x2="0.5" y2="1.01" gradientUnits="objectBoundingBox">
      <stop offset="0" stop-color="#b4d5f2"/>
      <stop offset="0.503" stop-color="#d3e7f8"/>
      <stop offset="1" stop-color="#d6e8f8"/>
    </linearGradient>
  </defs>
  <g id="vision-icon" transform="translate(-1300 -1552)" clip-path="url(#clip-path)">
    <g id="eye" transform="translate(1300.012 1552.003)">
      <g id="Group_297" data-name="Group 297">
        <g id="Group_296" data-name="Group 296">
          <path id="Path_126" data-name="Path 126" d="M119.338,57.958C118.26,56.458,92.5,21.327,60,21.327S1.734,56.458.656,57.958a3.482,3.482,0,0,0,0,4.1C1.734,63.536,27.491,98.667,60,98.667s58.263-35.131,59.341-36.631a3.521,3.521,0,0,0,0-4.078Z" fill="url(#linear-gradient)"/>
        </g>
      </g>
      <g id="Group_299" data-name="Group 299">
        <g id="Group_298" data-name="Group 298">
          <path id="Path_127" data-name="Path 127" d="M60,35.389A24.608,24.608,0,1,0,84.605,60,24.635,24.635,0,0,0,60,35.389Zm0,35.155A10.546,10.546,0,1,1,70.543,60,10.532,10.532,0,0,1,60,70.543Z" fill="url(#linear-gradient-2)"/>
        </g>
      </g>
    </g>
  </g>
</svg>
