<svg xmlns="http://www.w3.org/2000/svg" xmlns:xlink="http://www.w3.org/1999/xlink" width="24" height="24" viewBox="0 0 24 24"><defs><style>.a{fill:#fff;}.b{clip-path:url(#a);}</style><clipPath id="a"><rect class="a" width="24" height="24" transform="translate(677 674)"/></clipPath></defs><g class="b" transform="translate(-677 -674)"><g transform="translate(677 674)"><path class="a" d="M17.9,9.254A4.73,4.73,0,0,0,23.54,2.69l-.033-.069L21.388,4.739a1.565,1.565,0,0,1-2.213-2.213L21.263.438,21.23.423a4.728,4.728,0,0,0-6.538,5.466L12.965,7.626l3.277,3.294Z"/><path class="a" d="M6.1,14.746A4.73,4.73,0,0,0,.46,21.31l.06.126,2.092-2.092a1.565,1.565,0,0,1,2.213,2.213L2.794,23.588a4.72,4.72,0,0,0,6.56-3.358,4.777,4.777,0,0,0-.047-2.119l1.722-1.732L7.752,13.085Z"/><path class="a" d="M19.139,14.273a4.836,4.836,0,0,0-1.38.2L9.534,6.2A4.858,4.858,0,1,0,6.24,9.527L14.466,17.8a4.861,4.861,0,1,0,4.673-3.523ZM4.861,6.875A2.009,2.009,0,1,1,6.87,4.866,2.012,2.012,0,0,1,4.861,6.875ZM19.139,21.143a2.009,2.009,0,1,1,2.009-2.009A2.012,2.012,0,0,1,19.139,21.143Z"/></g></g></svg>