<svg xmlns="http://www.w3.org/2000/svg" xmlns:xlink="http://www.w3.org/1999/xlink" width="242.54" height="64.602" viewBox="0 0 242.54 64.602"><defs><clipPath id="a"><rect width="242.54" height="64.602" fill="#fff"/></clipPath></defs><g transform="translate(-222 278)"><g transform="translate(222 -278)" clip-path="url(#a)"><path d="M350.156,125.02c0,8.49-4.488,12.979-12.979,12.979H294.542l3.8-2.353a9.224,9.224,0,0,0,2.431-3.278l.095-.251,36.311.1c4.971,0,7.189-2.218,7.189-7.193s-2.218-7.191-7.193-7.191h-36.5v-5.785h36.9c4.637,0,6.8-2.284,6.8-7.191,0-4.975-2.218-7.193-7.193-7.193h-36.5V91.874h36.5c8.49,0,12.979,4.488,12.979,12.979,0,4.521-1.255,7.9-3.736,10.085,2.481,2.182,3.736,5.562,3.736,10.083" transform="translate(-235.312 -73.399)" fill="#fff"/><path d="M308.384,299.767c.012-.025.025-.05.036-.074h-.009c-.009.024-.017.05-.027.074" transform="translate(-246.37 -239.427)" fill="#fff"/><path d="M277.965,0a5.375,5.375,0,1,0,5.375,5.375A5.375,5.375,0,0,0,277.965,0" transform="translate(-217.775)" fill="#fff"/><path d="M285.033,71.322v43.727h.545a5.666,5.666,0,0,0,5.23-3.47c.011-.027.021-.054.034-.092a5.637,5.637,0,0,0,.411-2.113V65.647h-.544a5.681,5.681,0,0,0-5.675,5.675" transform="translate(-227.715 -52.446)" fill="#fff"/><path d="M53.786,113.706a6,6,0,0,0-5.111-2.828H8.594v1.452a6.048,6.048,0,0,0,6.041,6.041H48.982v6.651a7.2,7.2,0,0,1-7.192,7.192H12.977a7.2,7.2,0,0,1-7.192-7.192V104.853a7.2,7.2,0,0,1,7.192-7.192H41.79c4.7,0,6.915,1.961,7.169,6.357a2.425,2.425,0,0,0,2.416,2.286h.945a2.428,2.428,0,0,0,2.423-2.542c-.369-7.777-4.848-11.887-12.952-11.887H12.977A12.992,12.992,0,0,0,0,104.853v20.169A12.992,12.992,0,0,0,12.977,138H41.79a12.992,12.992,0,0,0,12.977-12.977v-8.534a4.444,4.444,0,0,0-.981-2.782" transform="translate(0 -73.4)" fill="#fff"/><path d="M314.2,301.2h0Z" transform="translate(-251.016 -240.634)" fill="#fff"/><path d="M294.538,321.244l-.006,0,0,0Z" transform="translate(-235.304 -256.644)" fill="#fff"/><path d="M650.117,176.07a.763.763,0,1,0-.756-.769.746.746,0,0,0,.756.769" transform="translate(-518.779 -139.445)" fill="#fff"/><path d="M680.247,202.517a.775.775,0,0,0-1.551-.012.764.764,0,0,0,.769.769.781.781,0,0,0,.782-.757" transform="translate(-542.215 -161.178)" fill="#fff"/><path d="M689.544,201.748a.759.759,0,0,0-.756.756.746.746,0,0,0,.756.769.763.763,0,1,0,0-1.525" transform="translate(-550.277 -161.178)" fill="#fff"/><path d="M654.734,171.128v-1.752l.114-1.311a5.919,5.919,0,0,0-1.8-.29,3.035,3.035,0,0,0-2.281.844,3.065,3.065,0,0,0-.832,2.244,2.634,2.634,0,0,0,.378,1.349h-2.193c-.618,0-.92-.328-.92-1v-3.252l-1.5.328.252,1.626v1.3c0,.668-.3,1-.92,1H643.3c-.617,0-.92-.416-.92-1.261v-2.924l-1.475.353.239,1.664v2.181a3.462,3.462,0,0,1-.743,2.294,2.088,2.088,0,0,1-1.664.807c-1.576,0-2.5-1.235-2.5-3.2v-2.256h-1.236v2.294a4.383,4.383,0,0,0,.832,2.848,3.332,3.332,0,0,0,2.722,1.109,3.471,3.471,0,0,0,3.756-2.861,2.4,2.4,0,0,0,.681.088h2.357a2.166,2.166,0,0,1,2.445,0h4.109c1.878,0,2.823-.744,2.823-2.218m-3.554-.5c0-1.323.529-1.979,1.588-1.979a2.114,2.114,0,0,1,.656.088l.1.731a7.143,7.143,0,0,1,.088,1.059c0,1.122-.454,1.689-1.349,1.689-.719,0-1.084-.53-1.084-1.588" transform="translate(-507.311 -134.037)" fill="#fff"/><path d="M739.347,144.978l-.466.05h-.618q0-.794.529-.794c.113-.013.265.076.454.24.063-.164.113-.29.151-.391a1.328,1.328,0,0,0-.756-.252c-.643,0-1.008.5-1.008,1.2h-.454v.466h2.6Z" transform="translate(-588.937 -114.908)" fill="#fff"/><path d="M755.237,156.639a.763.763,0,1,0-.756-.769.745.745,0,0,0,.756.769" transform="translate(-602.76 -123.922)" fill="#fff"/><path d="M765.265,156.639a.763.763,0,1,0-.756-.769.746.746,0,0,0,.756.769" transform="translate(-610.771 -123.922)" fill="#fff"/><path d="M750.85,156.755v4.008c0,.693-.3,1.034-.92,1.034h-2.357c-.605,0-.908-.328-.908-1v-3.2l-1.5.34.265,1.639V160.8c0,.668-.315,1-.933,1h-1.487c-.6,0-.907-.34-.907-1.034v-5.949l-1.475.34.215,1.613v4.286a1.732,1.732,0,0,0,1.865,1.878h2.13a1.976,1.976,0,0,0,1.21-.378,1.925,1.925,0,0,0,1.235.378h2.95a1.735,1.735,0,0,0,1.878-1.878v-6.315l-1.475.353Z" transform="translate(-591.692 -123.621)" fill="#fff"/><path d="M804.877,163.13h1.248v-6.466l.139-1.677-1.576.126.189,1.563Z" transform="translate(-642.87 -123.821)" fill="#fff"/><path d="M834.792,155.034a.775.775,0,0,0,0-1.55.772.772,0,0,0-.769.769.759.759,0,0,0,.769.781" transform="translate(-666.307 -122.619)" fill="#fff"/><path d="M844.771,155.034a.758.758,0,0,0,.756-.757.767.767,0,0,0-.756-.794.783.783,0,0,0-.781.769.77.77,0,0,0,.781.781" transform="translate(-674.269 -122.619)" fill="#fff"/><path d="M845.057,161.67a1.981,1.981,0,0,0-.857-1.689,3.562,3.562,0,0,0-2.168-.617,3.933,3.933,0,0,0-2.508,1.071,6.08,6.08,0,0,0-1.626,1.878v-3.655l.139-1.664-1.576.139.189,1.55V163.6h-2.307c-.617,0-.92-.34-.92-1.021v-4.222q-.7.132-1.513.34l.076.567h-.4a3.028,3.028,0,0,0-2.143.756,2.522,2.522,0,0,0-.807,1.966c0,1.512.819,2.47,2.168,2.47a3.518,3.518,0,0,0,1.626-.365,2.089,2.089,0,0,0,1.6.643h11.029Zm-12.87,1.588a3.974,3.974,0,0,1-1.1.151c-.769,0-1.16-.554-1.172-1.651a1.615,1.615,0,0,1,1.588-1.651c.214,0,.441-.012.681-.025Zm11.6.34h-5.861a5.241,5.241,0,0,1,1.412-1.878,3.76,3.76,0,0,1,2.42-1.286c1.349,0,2.029.479,2.029,1.437Z" transform="translate(-662.001 -125.424)" fill="#fff"/><path d="M929.794,157.9l-1.487.34.227,1.639v1.235c0,.668-.3,1-.895,1a1.491,1.491,0,0,1-1.084-.466V158.39l-1.235.277v2.445c0,.668-.3,1-.895,1a1.592,1.592,0,0,1-1.122-.441V158.39l-1.235.277-.025,2.433c0,.668-.3,1-.907,1h-1.488c-.6,0-.908-.34-.908-1.034v-5.95l-1.475.34.214,1.613v4.285a1.732,1.732,0,0,0,1.866,1.878h2.093a1.9,1.9,0,0,0,1.349-.479,1.636,1.636,0,0,0,.24-.277,2.316,2.316,0,0,0,1.714.756,1.743,1.743,0,0,0,1.525-.718,2.286,2.286,0,0,0,1.7.718,1.714,1.714,0,0,0,1.828-1.828Z" transform="translate(-732.809 -123.921)" fill="#fff"/><path d="M996.3,161.053v-6.315l-1.475.353.214,1.664v4.008c0,.693-.3,1.034-.92,1.034h-3.177v-4.349H989.1a2.838,2.838,0,0,0-2.143.857,3.06,3.06,0,0,0-.807,2.218,2.345,2.345,0,0,0,.706,1.79,2.235,2.235,0,0,0,1.651.618h1.2a2.448,2.448,0,0,1-1.714,2.294l.265.491a3.242,3.242,0,0,0,2.659-2.786h3.5a1.735,1.735,0,0,0,1.878-1.878m-6.63.744h-1.058c-.781,0-1.172-.5-1.172-1.5,0-1.311.592-2.118,1.588-2.118h.643Z" transform="translate(-787.845 -123.621)" fill="#fff"/><path d="M1066.479,192.973a.785.785,0,0,0-.781.781.759.759,0,0,0,.781.769.775.775,0,0,0,0-1.55" transform="translate(-851.393 -154.167)" fill="#fff"/><path d="M1098.547,203.273a.763.763,0,1,0,0-1.525.759.759,0,0,0-.756.756.746.746,0,0,0,.756.769" transform="translate(-877.033 -161.178)" fill="#fff"/><path d="M1089.25,202.517a.775.775,0,0,0-1.551-.012.764.764,0,0,0,.769.769.781.781,0,0,0,.782-.757" transform="translate(-868.97 -161.178)" fill="#fff"/><path d="M1145.5,156.639a.763.763,0,1,0-.756-.756.75.75,0,0,0,.756.756" transform="translate(-914.541 -123.922)" fill="#fff"/><path d="M1080.592,161.054v-6.315l-1.475.353.214,1.664v4.008c0,.693-.3,1.034-.92,1.034h-2.66a10.519,10.519,0,0,0-1.563-2.823,3.526,3.526,0,0,0-2.6-1.664c-1.109,0-1.966,1-2.105,2.647l1.311-.151a2.789,2.789,0,0,1-.177-.844c0-.466.189-.706.567-.706.517,0,1.135.466,1.828,1.412a10.562,10.562,0,0,1,1.26,2.13h-5.634c-.6,0-.907-.34-.907-1.034v-5.949l-1.5.34.24,1.689v3.92c0,.693-.3,1.034-.908,1.034h-1.487c-.617,0-.92-.328-.92-1V157.55l-1.5.328.252,1.626v1.3c0,.668-.3,1-.92,1h-1.5c-.617,0-.92-.34-.92-1.021v-1.424a1.728,1.728,0,0,0-.782-1.45,3.05,3.05,0,0,0-1.853-.567,2.853,2.853,0,0,0-1.841.592,2.072,2.072,0,0,0-.794,1.714H1054c0-.756.794-1.248,1.765-1.248q1.55,0,1.55,1.134v1.059h-4.588v1.954c0,1.828,1.147,2.9,3.454,3.189l.29-.567c-1.576-.164-2.5-1.1-2.5-2.218l-.012-1.285h3.554a1.657,1.657,0,0,0,1.777,1.273h2.03a2.166,2.166,0,0,1,2.445,0h2.13a1.8,1.8,0,0,0,1.2-.391,1.918,1.918,0,0,0,1.248.391h10.374a1.735,1.735,0,0,0,1.878-1.878" transform="translate(-841.027 -123.622)" fill="#fff"/><path d="M1198.46,163.13h1.248v-6.466l.139-1.677-1.576.126.189,1.563Z" transform="translate(-957.307 -123.821)" fill="#fff"/><path d="M636.561,222.321a1.633,1.633,0,0,1,.758-.674,3.067,3.067,0,0,1,1.245-.218q.424,0,.931.045t1,.1q.488.058.822.122l.039-.847q-.334-.077-.828-.161t-1.04-.135q-.546-.051-1.047-.051a4.013,4.013,0,0,0-1.663.3,2.478,2.478,0,0,0-1.053.886,3.826,3.826,0,0,0-.552,1.438,10.748,10.748,0,0,0-.16,1.971,10.4,10.4,0,0,0,.16,1.926,3.887,3.887,0,0,0,.546,1.432,2.424,2.424,0,0,0,1.053.886,4.135,4.135,0,0,0,1.695.3q.321,0,.726-.032t.815-.083q.411-.051.77-.1t.578-.09v-4.366H638.9v.912h1.438v2.684q-.206.039-.52.077t-.649.064q-.334.026-.629.026a2.585,2.585,0,0,1-1.547-.392,1.994,1.994,0,0,1-.725-1.2,9.029,9.029,0,0,1-.193-2.041,10.61,10.61,0,0,1,.109-1.638,3.235,3.235,0,0,1,.379-1.143" transform="translate(-507.311 -176.162)" fill="#fff"/><path d="M679.1,238.59a4.7,4.7,0,0,1-.745.308,3.233,3.233,0,0,1-1.027.154,1.341,1.341,0,0,1-.847-.225,1.119,1.119,0,0,1-.366-.725,8.582,8.582,0,0,1-.083-1.349V233.4h-.989v3.351a8.457,8.457,0,0,0,.161,1.823,1.736,1.736,0,0,0,.6,1.04,2.041,2.041,0,0,0,1.258.334,3.4,3.4,0,0,0,1.149-.173,5.911,5.911,0,0,0,.892-.4v.449h.989V233.4H679.1Z" transform="translate(-539.296 -186.466)" fill="#fff"/><rect width="0.989" height="9.206" transform="translate(142.719 44.15)" fill="#fff"/><path d="M724.494,218.921q-.27-.013-.424-.013a2.218,2.218,0,0,0-1.014.2,1.154,1.154,0,0,0-.552.713,4.858,4.858,0,0,0-.167,1.438v.565h-.809v.86h.809v5.56h1v-5.56h1.849v-.86h-1.849v-.552a3.742,3.742,0,0,1,.083-.9.684.684,0,0,1,.289-.443,1.108,1.108,0,0,1,.565-.122q.205,0,.533.006t.559.019l.013-.835a2.474,2.474,0,0,0-.36-.045q-.257-.019-.526-.032" transform="translate(-576.434 -174.887)" fill="#fff"/><rect width="1.027" height="8.873" transform="translate(152.876 44.483)" fill="#fff"/><path d="M780,233.49a1.376,1.376,0,0,0-.661-.552,2.917,2.917,0,0,0-1.091-.173,2.871,2.871,0,0,0-.719.1,6.138,6.138,0,0,0-.7.225,3.9,3.9,0,0,0-.546.257v-.45h-.988v6.421h.988v-5.188a4.055,4.055,0,0,1,.488-.212,4.5,4.5,0,0,1,.635-.18,3.269,3.269,0,0,1,.661-.071,1.426,1.426,0,0,1,.88.225,1.155,1.155,0,0,1,.385.726,7.357,7.357,0,0,1,.1,1.335v3.364h1v-3.4a9.246,9.246,0,0,0-.1-1.444,2.613,2.613,0,0,0-.334-.976" transform="translate(-619.388 -185.958)" fill="#fff"/><path d="M811.859,235.91a6.2,6.2,0,0,0-1.277-.321,7.871,7.871,0,0,1-1.04-.231.959.959,0,0,1-.488-.289.747.747,0,0,1-.128-.456.848.848,0,0,1,.18-.578.964.964,0,0,1,.488-.289,2.649,2.649,0,0,1,.693-.084q.308,0,.719.032t.822.077q.411.045.719.1l.026-.86q-.3-.051-.706-.109t-.841-.1q-.43-.039-.79-.039a3.565,3.565,0,0,0-1.111.174,1.81,1.81,0,0,0-.867.584,1.743,1.743,0,0,0-.334,1.13,1.775,1.775,0,0,0,.231.989,1.382,1.382,0,0,0,.713.52,6.771,6.771,0,0,0,1.2.289,7.328,7.328,0,0,1,1.059.218.982.982,0,0,1,.5.3.819.819,0,0,1,.135.5,1.044,1.044,0,0,1-.18.655.971.971,0,0,1-.526.328,3.332,3.332,0,0,1-.873.1q-.231,0-.616-.032t-.79-.083l-.725-.09-.052.86q.321.052.732.109t.828.1q.417.039.713.039a4.144,4.144,0,0,0,1.342-.192,1.66,1.66,0,0,0,.86-.636,2.08,2.08,0,0,0,.3-1.188,1.834,1.834,0,0,0-.218-.976,1.413,1.413,0,0,0-.7-.539" transform="translate(-645.455 -185.957)" fill="#fff"/><path d="M843.14,238.59a4.694,4.694,0,0,1-.745.308,3.235,3.235,0,0,1-1.027.154,1.34,1.34,0,0,1-.847-.225,1.12,1.12,0,0,1-.366-.725,8.641,8.641,0,0,1-.083-1.349V233.4h-.989v3.351a8.464,8.464,0,0,0,.161,1.823,1.735,1.735,0,0,0,.6,1.04,2.04,2.04,0,0,0,1.258.334,3.4,3.4,0,0,0,1.15-.173,5.913,5.913,0,0,0,.892-.4v.449h.989V233.4h-.989Z" transform="translate(-670.348 -186.466)" fill="#fff"/><path d="M874.978,233.335a6.78,6.78,0,0,0-.617.366v-.86h-.989v6.42h.989v-4.7q.244-.128.623-.3t.829-.314a8.026,8.026,0,0,1,.886-.238V232.7a4.432,4.432,0,0,0-.9.257,8.243,8.243,0,0,0-.822.379" transform="translate(-697.744 -185.905)" fill="#fff"/><path d="M898.442,238.08v-3.249a2.762,2.762,0,0,0-.212-1.162,1.388,1.388,0,0,0-.674-.68,2.74,2.74,0,0,0-1.194-.225c-.265,0-.557.015-.873.045s-.621.066-.912.109-.539.086-.745.128l.051.758q.333-.039.77-.077t.879-.064q.443-.025.764-.026a1.21,1.21,0,0,1,.854.27,1.226,1.226,0,0,1,.289.924v.552l-1.977.193a3.114,3.114,0,0,0-1.1.263,1.433,1.433,0,0,0-.661.61,2.12,2.12,0,0,0-.219,1.027,2.084,2.084,0,0,0,.463,1.464,1.743,1.743,0,0,0,1.348.5,4.485,4.485,0,0,0,.854-.083,8.007,8.007,0,0,0,.809-.2,6.534,6.534,0,0,0,.623-.218,1.873,1.873,0,0,0,.289.218,1.912,1.912,0,0,0,.315.154c.094.026.19.049.289.071a2.349,2.349,0,0,0,.315.045c.111.008.227.013.347.013l.039-.783a1.2,1.2,0,0,1-.507-.167.51.51,0,0,1-.225-.411m-1,.141c-.146.051-.329.107-.552.167s-.458.111-.706.154a4.23,4.23,0,0,1-.719.064.863.863,0,0,1-.719-.308,1.332,1.332,0,0,1-.244-.848,1.182,1.182,0,0,1,.25-.809,1.21,1.21,0,0,1,.828-.334l1.862-.18Z" transform="translate(-713.811 -185.957)" fill="#fff"/><path d="M932.29,233.49a1.374,1.374,0,0,0-.661-.552,2.917,2.917,0,0,0-1.091-.173,2.872,2.872,0,0,0-.719.1,6.146,6.146,0,0,0-.7.225,3.876,3.876,0,0,0-.546.257v-.45h-.989v6.421h.989v-5.188a4.036,4.036,0,0,1,.488-.212,4.5,4.5,0,0,1,.636-.18,3.263,3.263,0,0,1,.661-.071,1.425,1.425,0,0,1,.88.225,1.155,1.155,0,0,1,.385.726,7.371,7.371,0,0,1,.1,1.335v3.364h1v-3.4a9.271,9.271,0,0,0-.1-1.444,2.612,2.612,0,0,0-.334-.976" transform="translate(-741.053 -185.958)" fill="#fff"/><path d="M964.494,238.478q-.289.026-.565.045t-.456.02a2.291,2.291,0,0,1-1.181-.244,1.247,1.247,0,0,1-.54-.8,6.353,6.353,0,0,1-.141-1.5,4.677,4.677,0,0,1,.161-1.367,1.239,1.239,0,0,1,.565-.738,2.31,2.31,0,0,1,1.136-.231q.179,0,.449.019t.552.045q.282.026.5.051l.039-.821q-.244-.039-.578-.084t-.649-.077q-.315-.032-.533-.032a3.22,3.22,0,0,0-1.541.321,1.852,1.852,0,0,0-.854,1.034A5.545,5.545,0,0,0,960.6,236a6.882,6.882,0,0,0,.238,2,1.852,1.852,0,0,0,.815,1.1,3.145,3.145,0,0,0,1.592.34q.218,0,.539-.032t.655-.071q.333-.039.59-.077l-.026-.822q-.219.013-.507.038" transform="translate(-767.427 -185.957)" fill="#fff"/><path d="M990.623,232.764a2.854,2.854,0,0,0-1.425.34,2.25,2.25,0,0,0-.938,1.079,4.808,4.808,0,0,0-.334,1.958,5.836,5.836,0,0,0,.244,1.824,2.055,2.055,0,0,0,.8,1.1,2.715,2.715,0,0,0,1.522.372q.385,0,.848-.032t.905-.083q.443-.051.751-.1l-.026-.783q-.3.026-.719.051t-.854.045q-.43.019-.789.019a1.477,1.477,0,0,1-1.3-.514,2.7,2.7,0,0,1-.372-1.515h4.224l.051-.758a3.325,3.325,0,0,0-.655-2.292,2.5,2.5,0,0,0-1.939-.713m-1.682,2.953a3.165,3.165,0,0,1,.2-1.232,1.361,1.361,0,0,1,.571-.674,1.819,1.819,0,0,1,.912-.212,1.47,1.47,0,0,1,1.214.469,2.7,2.7,0,0,1,.379,1.65Z" transform="translate(-789.261 -185.957)" fill="#fff"/><path d="M1039.308,225.88a2.348,2.348,0,0,0-.7-.372,2.142,2.142,0,0,0,.6-.437,1.754,1.754,0,0,0,.379-.648,2.964,2.964,0,0,0,.135-.957,2.489,2.489,0,0,0-.3-1.3,1.753,1.753,0,0,0-.886-.732,3.99,3.99,0,0,0-1.458-.231h-3.236v8.873h3.39a4.636,4.636,0,0,0,1.136-.128,2.308,2.308,0,0,0,.873-.417,1.817,1.817,0,0,0,.558-.771,3.167,3.167,0,0,0,.193-1.175,2.57,2.57,0,0,0-.186-1.053,1.7,1.7,0,0,0-.5-.655m-4.437-3.775h2.17a1.869,1.869,0,0,1,1.239.347,1.378,1.378,0,0,1,.4,1.1,2.078,2.078,0,0,1-.161.873,1.076,1.076,0,0,1-.5.52,1.969,1.969,0,0,1-.892.173h-2.26Zm3.865,6.44a1.16,1.16,0,0,1-.61.494,2.736,2.736,0,0,1-.931.141h-2.324v-3.159h2.273a3.461,3.461,0,0,1,.565.051,1.864,1.864,0,0,1,.591.205,1.242,1.242,0,0,1,.469.462,1.55,1.55,0,0,1,.186.809,1.9,1.9,0,0,1-.218,1" transform="translate(-825.945 -176.723)" fill="#fff"/><path d="M1073.951,233.335a6.8,6.8,0,0,0-.616.366v-.86h-.989v6.42h.989v-4.7q.244-.128.623-.3t.828-.314a8.018,8.018,0,0,1,.886-.238V232.7a4.435,4.435,0,0,0-.9.257,8.209,8.209,0,0,0-.822.379" transform="translate(-856.704 -185.905)" fill="#fff"/><path d="M1096.84,233.123a3.179,3.179,0,0,0-1.631-.36,3.146,3.146,0,0,0-1.617.36,2.012,2.012,0,0,0-.867,1.079,5.369,5.369,0,0,0-.263,1.823,6.49,6.49,0,0,0,.238,1.913,1.966,1.966,0,0,0,.834,1.13,3.988,3.988,0,0,0,3.365,0,1.97,1.97,0,0,0,.835-1.13,6.512,6.512,0,0,0,.237-1.913,5.376,5.376,0,0,0-.263-1.823,2.015,2.015,0,0,0-.867-1.079m-.019,4.366a1.3,1.3,0,0,1-.495.828,2.5,2.5,0,0,1-2.234,0,1.3,1.3,0,0,1-.494-.828,7.133,7.133,0,0,1-.122-1.464,5.2,5.2,0,0,1,.154-1.412,1.252,1.252,0,0,1,.533-.758,2.5,2.5,0,0,1,2.1,0,1.261,1.261,0,0,1,.526.758,5.19,5.19,0,0,1,.154,1.412,7.179,7.179,0,0,1-.122,1.464" transform="translate(-872.775 -185.956)" fill="#fff"/><path d="M1132.563,222.333h-1.143l-1.8,2.594-.989.038v-5.418h-.988v9.207h.988v-2.9l1.015-.051,1.875,2.953h1.143l-2.17-3.454Z" transform="translate(-900.884 -175.397)" fill="#fff"/><path d="M1158.5,232.764a2.854,2.854,0,0,0-1.425.34,2.249,2.249,0,0,0-.937,1.079,4.806,4.806,0,0,0-.334,1.958,5.837,5.837,0,0,0,.244,1.824,2.056,2.056,0,0,0,.8,1.1,2.714,2.714,0,0,0,1.521.372c.257,0,.539-.011.848-.032s.61-.049.905-.083.546-.068.751-.1l-.026-.783q-.295.026-.719.051t-.854.045q-.43.019-.789.019a1.475,1.475,0,0,1-1.3-.514,2.7,2.7,0,0,1-.373-1.515h4.224l.052-.758a3.324,3.324,0,0,0-.655-2.292,2.5,2.5,0,0,0-1.939-.713m-1.682,2.953a3.166,3.166,0,0,1,.2-1.232,1.363,1.363,0,0,1,.572-.674,1.819,1.819,0,0,1,.912-.212,1.47,1.47,0,0,1,1.214.469,2.694,2.694,0,0,1,.379,1.65Z" transform="translate(-923.379 -185.957)" fill="#fff"/><path d="M1191.124,233.335a6.808,6.808,0,0,0-.616.366v-.86h-.989v6.42h.989v-4.7q.244-.128.623-.3t.828-.314a8.021,8.021,0,0,1,.886-.238V232.7a4.433,4.433,0,0,0-.9.257,8.244,8.244,0,0,0-.822.379" transform="translate(-950.315 -185.905)" fill="#fff"/></g></g></svg>